<?xml version="1.0" encoding="utf-8" standalone="no"?>
<!DOCTYPE svg PUBLIC "-//W3C//DTD SVG 1.1//EN"
  "http://www.w3.org/Graphics/SVG/1.1/DTD/svg11.dtd">
<!-- Created with matplotlib (https://matplotlib.org/) -->
<svg height="100px" version="1.1" viewBox="0 0 28.8 28.8" width="100px" xmlns="http://www.w3.org/2000/svg" xmlns:xlink="http://www.w3.org/1999/xlink">
 <defs>
  <style type="text/css">
*{stroke-linecap:butt;stroke-linejoin:round;}
  </style>
 </defs>
 <g id="figure_1">
  <g id="patch_1">
   <path d="M 0 28.8 
L 28.8 28.8 
L 28.8 0 
L 0 0 
z
" style="fill:#ffffff;"/>
  </g>
  <g id="axes_1">
   <g id="patch_2">
    <path d="M 0.288 28.512 
L 28.512 28.512 
L 28.512 0.288 
L 0.288 0.288 
z
" style="fill:#ffffff;"/>
   </g>
   <g id="matplotlib.axis_1">
    <g id="xtick_1">
     <g id="line2d_1">
      <path clip-path="url(#p44b33f50d7)" d="M 3.816 28.512 
L 3.816 0.288 
" style="fill:none;stroke:#b0b0b0;stroke-linecap:square;stroke-width:0.125;"/>
     </g>
     <g id="line2d_2"/>
     <g id="text_1">
      <!-- 1 -->
      <defs>
       <path d="M 12.40625 8.296875 
L 28.515625 8.296875 
L 28.515625 63.921875 
L 10.984375 60.40625 
L 10.984375 69.390625 
L 28.421875 72.90625 
L 38.28125 72.90625 
L 38.28125 8.296875 
L 54.390625 8.296875 
L 54.390625 0 
L 12.40625 0 
z
" id="DejaVuSans-49"/>
      </defs>
      <g transform="translate(0.63475 39.610438)scale(0.1 -0.1)">
       <use xlink:href="#DejaVuSans-49"/>
      </g>
     </g>
    </g>
    <g id="xtick_2">
     <g id="line2d_3">
      <path clip-path="url(#p44b33f50d7)" d="M 7.344 28.512 
L 7.344 0.288 
" style="fill:none;stroke:#b0b0b0;stroke-linecap:square;stroke-width:0.125;"/>
     </g>
     <g id="line2d_4"/>
     <g id="text_2">
      <!-- 2 -->
      <defs>
       <path d="M 19.1875 8.296875 
L 53.609375 8.296875 
L 53.609375 0 
L 7.328125 0 
L 7.328125 8.296875 
Q 12.9375 14.109375 22.625 23.890625 
Q 32.328125 33.6875 34.8125 36.53125 
Q 39.546875 41.84375 41.421875 45.53125 
Q 43.3125 49.21875 43.3125 52.78125 
Q 43.3125 58.59375 39.234375 62.25 
Q 35.15625 65.921875 28.609375 65.921875 
Q 23.96875 65.921875 18.8125 64.3125 
Q 13.671875 62.703125 7.8125 59.421875 
L 7.8125 69.390625 
Q 13.765625 71.78125 18.9375 73 
Q 24.125 74.21875 28.421875 74.21875 
Q 39.75 74.21875 46.484375 68.546875 
Q 53.21875 62.890625 53.21875 53.421875 
Q 53.21875 48.921875 51.53125 44.890625 
Q 49.859375 40.875 45.40625 35.40625 
Q 44.1875 33.984375 37.640625 27.21875 
Q 31.109375 20.453125 19.1875 8.296875 
z
" id="DejaVuSans-50"/>
      </defs>
      <g transform="translate(4.16275 39.610438)scale(0.1 -0.1)">
       <use xlink:href="#DejaVuSans-50"/>
      </g>
     </g>
    </g>
    <g id="xtick_3">
     <g id="line2d_5">
      <path clip-path="url(#p44b33f50d7)" d="M 10.872 28.512 
L 10.872 0.288 
" style="fill:none;stroke:#b0b0b0;stroke-linecap:square;stroke-width:0.125;"/>
     </g>
     <g id="line2d_6"/>
     <g id="text_3">
      <!-- 3 -->
      <defs>
       <path d="M 40.578125 39.3125 
Q 47.65625 37.796875 51.625 33 
Q 55.609375 28.21875 55.609375 21.1875 
Q 55.609375 10.40625 48.1875 4.484375 
Q 40.765625 -1.421875 27.09375 -1.421875 
Q 22.515625 -1.421875 17.65625 -0.515625 
Q 12.796875 0.390625 7.625 2.203125 
L 7.625 11.71875 
Q 11.71875 9.328125 16.59375 8.109375 
Q 21.484375 6.890625 26.8125 6.890625 
Q 36.078125 6.890625 40.9375 10.546875 
Q 45.796875 14.203125 45.796875 21.1875 
Q 45.796875 27.640625 41.28125 31.265625 
Q 36.765625 34.90625 28.71875 34.90625 
L 20.21875 34.90625 
L 20.21875 43.015625 
L 29.109375 43.015625 
Q 36.375 43.015625 40.234375 45.921875 
Q 44.09375 48.828125 44.09375 54.296875 
Q 44.09375 59.90625 40.109375 62.90625 
Q 36.140625 65.921875 28.71875 65.921875 
Q 24.65625 65.921875 20.015625 65.03125 
Q 15.375 64.15625 9.8125 62.3125 
L 9.8125 71.09375 
Q 15.4375 72.65625 20.34375 73.4375 
Q 25.25 74.21875 29.59375 74.21875 
Q 40.828125 74.21875 47.359375 69.109375 
Q 53.90625 64.015625 53.90625 55.328125 
Q 53.90625 49.265625 50.4375 45.09375 
Q 46.96875 40.921875 40.578125 39.3125 
z
" id="DejaVuSans-51"/>
      </defs>
      <g transform="translate(7.69075 39.610438)scale(0.1 -0.1)">
       <use xlink:href="#DejaVuSans-51"/>
      </g>
     </g>
    </g>
    <g id="xtick_4">
     <g id="line2d_7">
      <path clip-path="url(#p44b33f50d7)" d="M 14.4 28.512 
L 14.4 0.288 
" style="fill:none;stroke:#b0b0b0;stroke-linecap:square;stroke-width:0.125;"/>
     </g>
     <g id="line2d_8"/>
     <g id="text_4">
      <!-- 4 -->
      <defs>
       <path d="M 37.796875 64.3125 
L 12.890625 25.390625 
L 37.796875 25.390625 
z
M 35.203125 72.90625 
L 47.609375 72.90625 
L 47.609375 25.390625 
L 58.015625 25.390625 
L 58.015625 17.1875 
L 47.609375 17.1875 
L 47.609375 0 
L 37.796875 0 
L 37.796875 17.1875 
L 4.890625 17.1875 
L 4.890625 26.703125 
z
" id="DejaVuSans-52"/>
      </defs>
      <g transform="translate(11.21875 39.610438)scale(0.1 -0.1)">
       <use xlink:href="#DejaVuSans-52"/>
      </g>
     </g>
    </g>
    <g id="xtick_5">
     <g id="line2d_9">
      <path clip-path="url(#p44b33f50d7)" d="M 17.928 28.512 
L 17.928 0.288 
" style="fill:none;stroke:#b0b0b0;stroke-linecap:square;stroke-width:0.125;"/>
     </g>
     <g id="line2d_10"/>
     <g id="text_5">
      <!-- 5 -->
      <defs>
       <path d="M 10.796875 72.90625 
L 49.515625 72.90625 
L 49.515625 64.59375 
L 19.828125 64.59375 
L 19.828125 46.734375 
Q 21.96875 47.46875 24.109375 47.828125 
Q 26.265625 48.1875 28.421875 48.1875 
Q 40.625 48.1875 47.75 41.5 
Q 54.890625 34.8125 54.890625 23.390625 
Q 54.890625 11.625 47.5625 5.09375 
Q 40.234375 -1.421875 26.90625 -1.421875 
Q 22.3125 -1.421875 17.546875 -0.640625 
Q 12.796875 0.140625 7.71875 1.703125 
L 7.71875 11.625 
Q 12.109375 9.234375 16.796875 8.0625 
Q 21.484375 6.890625 26.703125 6.890625 
Q 35.15625 6.890625 40.078125 11.328125 
Q 45.015625 15.765625 45.015625 23.390625 
Q 45.015625 31 40.078125 35.4375 
Q 35.15625 39.890625 26.703125 39.890625 
Q 22.75 39.890625 18.8125 39.015625 
Q 14.890625 38.140625 10.796875 36.28125 
z
" id="DejaVuSans-53"/>
      </defs>
      <g transform="translate(14.74675 39.610438)scale(0.1 -0.1)">
       <use xlink:href="#DejaVuSans-53"/>
      </g>
     </g>
    </g>
    <g id="xtick_6">
     <g id="line2d_11">
      <path clip-path="url(#p44b33f50d7)" d="M 21.456 28.512 
L 21.456 0.288 
" style="fill:none;stroke:#b0b0b0;stroke-linecap:square;stroke-width:0.125;"/>
     </g>
     <g id="line2d_12"/>
     <g id="text_6">
      <!-- 6 -->
      <defs>
       <path d="M 33.015625 40.375 
Q 26.375 40.375 22.484375 35.828125 
Q 18.609375 31.296875 18.609375 23.390625 
Q 18.609375 15.53125 22.484375 10.953125 
Q 26.375 6.390625 33.015625 6.390625 
Q 39.65625 6.390625 43.53125 10.953125 
Q 47.40625 15.53125 47.40625 23.390625 
Q 47.40625 31.296875 43.53125 35.828125 
Q 39.65625 40.375 33.015625 40.375 
z
M 52.59375 71.296875 
L 52.59375 62.3125 
Q 48.875 64.0625 45.09375 64.984375 
Q 41.3125 65.921875 37.59375 65.921875 
Q 27.828125 65.921875 22.671875 59.328125 
Q 17.53125 52.734375 16.796875 39.40625 
Q 19.671875 43.65625 24.015625 45.921875 
Q 28.375 48.1875 33.59375 48.1875 
Q 44.578125 48.1875 50.953125 41.515625 
Q 57.328125 34.859375 57.328125 23.390625 
Q 57.328125 12.15625 50.6875 5.359375 
Q 44.046875 -1.421875 33.015625 -1.421875 
Q 20.359375 -1.421875 13.671875 8.265625 
Q 6.984375 17.96875 6.984375 36.375 
Q 6.984375 53.65625 15.1875 63.9375 
Q 23.390625 74.21875 37.203125 74.21875 
Q 40.921875 74.21875 44.703125 73.484375 
Q 48.484375 72.75 52.59375 71.296875 
z
" id="DejaVuSans-54"/>
      </defs>
      <g transform="translate(18.27475 39.610438)scale(0.1 -0.1)">
       <use xlink:href="#DejaVuSans-54"/>
      </g>
     </g>
    </g>
    <g id="xtick_7">
     <g id="line2d_13">
      <path clip-path="url(#p44b33f50d7)" d="M 24.984 28.512 
L 24.984 0.288 
" style="fill:none;stroke:#b0b0b0;stroke-linecap:square;stroke-width:0.125;"/>
     </g>
     <g id="line2d_14"/>
     <g id="text_7">
      <!-- 7 -->
      <defs>
       <path d="M 8.203125 72.90625 
L 55.078125 72.90625 
L 55.078125 68.703125 
L 28.609375 0 
L 18.3125 0 
L 43.21875 64.59375 
L 8.203125 64.59375 
z
" id="DejaVuSans-55"/>
      </defs>
      <g transform="translate(21.80275 39.610438)scale(0.1 -0.1)">
       <use xlink:href="#DejaVuSans-55"/>
      </g>
     </g>
    </g>
   </g>
   <g id="matplotlib.axis_2">
    <g id="ytick_1">
     <g id="line2d_15">
      <path clip-path="url(#p44b33f50d7)" d="M 0.288 24.984 
L 28.512 24.984 
" style="fill:none;stroke:#b0b0b0;stroke-linecap:square;stroke-width:0.125;"/>
     </g>
     <g id="line2d_16"/>
     <g id="text_8">
      <!-- 1 -->
      <g transform="translate(-9.5745 28.783219)scale(0.1 -0.1)">
       <use xlink:href="#DejaVuSans-49"/>
      </g>
     </g>
    </g>
    <g id="ytick_2">
     <g id="line2d_17">
      <path clip-path="url(#p44b33f50d7)" d="M 0.288 21.456 
L 28.512 21.456 
" style="fill:none;stroke:#b0b0b0;stroke-linecap:square;stroke-width:0.125;"/>
     </g>
     <g id="line2d_18"/>
     <g id="text_9">
      <!-- 2 -->
      <g transform="translate(-9.5745 25.255219)scale(0.1 -0.1)">
       <use xlink:href="#DejaVuSans-50"/>
      </g>
     </g>
    </g>
    <g id="ytick_3">
     <g id="line2d_19">
      <path clip-path="url(#p44b33f50d7)" d="M 0.288 17.928 
L 28.512 17.928 
" style="fill:none;stroke:#b0b0b0;stroke-linecap:square;stroke-width:0.125;"/>
     </g>
     <g id="line2d_20"/>
     <g id="text_10">
      <!-- 3 -->
      <g transform="translate(-9.5745 21.727219)scale(0.1 -0.1)">
       <use xlink:href="#DejaVuSans-51"/>
      </g>
     </g>
    </g>
    <g id="ytick_4">
     <g id="line2d_21">
      <path clip-path="url(#p44b33f50d7)" d="M 0.288 14.4 
L 28.512 14.4 
" style="fill:none;stroke:#b0b0b0;stroke-linecap:square;stroke-width:0.125;"/>
     </g>
     <g id="line2d_22"/>
     <g id="text_11">
      <!-- 4 -->
      <g transform="translate(-9.5745 18.199219)scale(0.1 -0.1)">
       <use xlink:href="#DejaVuSans-52"/>
      </g>
     </g>
    </g>
    <g id="ytick_5">
     <g id="line2d_23">
      <path clip-path="url(#p44b33f50d7)" d="M 0.288 10.872 
L 28.512 10.872 
" style="fill:none;stroke:#b0b0b0;stroke-linecap:square;stroke-width:0.125;"/>
     </g>
     <g id="line2d_24"/>
     <g id="text_12">
      <!-- 5 -->
      <g transform="translate(-9.5745 14.671219)scale(0.1 -0.1)">
       <use xlink:href="#DejaVuSans-53"/>
      </g>
     </g>
    </g>
    <g id="ytick_6">
     <g id="line2d_25">
      <path clip-path="url(#p44b33f50d7)" d="M 0.288 7.344 
L 28.512 7.344 
" style="fill:none;stroke:#b0b0b0;stroke-linecap:square;stroke-width:0.125;"/>
     </g>
     <g id="line2d_26"/>
     <g id="text_13">
      <!-- 6 -->
      <g transform="translate(-9.5745 11.143219)scale(0.1 -0.1)">
       <use xlink:href="#DejaVuSans-54"/>
      </g>
     </g>
    </g>
    <g id="ytick_7">
     <g id="line2d_27">
      <path clip-path="url(#p44b33f50d7)" d="M 0.288 3.816 
L 28.512 3.816 
" style="fill:none;stroke:#b0b0b0;stroke-linecap:square;stroke-width:0.125;"/>
     </g>
     <g id="line2d_28"/>
     <g id="text_14">
      <!-- 7 -->
      <g transform="translate(-9.5745 7.615219)scale(0.1 -0.1)">
       <use xlink:href="#DejaVuSans-55"/>
      </g>
     </g>
    </g>
   </g>
   <g id="EventCollection_1">
    <path clip-path="url(#p44b33f50d7)" d="M 9.108 25.098993 
L 5.58 25.098993 
" style="fill:none;stroke:#ff7f0e;stroke-width:0.25;"/>
    <path clip-path="url(#p44b33f50d7)" d="M 9.108 24.99247 
L 5.58 24.99247 
" style="fill:none;stroke:#ff7f0e;stroke-width:0.25;"/>
    <path clip-path="url(#p44b33f50d7)" d="M 9.108 22.902585 
L 5.58 22.902585 
" style="fill:none;stroke:#ff7f0e;stroke-width:0.25;"/>
    <path clip-path="url(#p44b33f50d7)" d="M 9.108 21.751191 
L 5.58 21.751191 
" style="fill:none;stroke:#ff7f0e;stroke-width:0.25;"/>
    <path clip-path="url(#p44b33f50d7)" d="M 9.108 21.677766 
L 5.58 21.677766 
" style="fill:none;stroke:#ff7f0e;stroke-width:0.25;"/>
    <path clip-path="url(#p44b33f50d7)" d="M 9.108 21.674551 
L 5.58 21.674551 
" style="fill:none;stroke:#ff7f0e;stroke-width:0.25;"/>
    <path clip-path="url(#p44b33f50d7)" d="M 9.108 21.554962 
L 5.58 21.554962 
" style="fill:none;stroke:#ff7f0e;stroke-width:0.25;"/>
    <path clip-path="url(#p44b33f50d7)" d="M 9.108 20.693641 
L 5.58 20.693641 
" style="fill:none;stroke:#ff7f0e;stroke-width:0.25;"/>
    <path clip-path="url(#p44b33f50d7)" d="M 9.108 20.646362 
L 5.58 20.646362 
" style="fill:none;stroke:#ff7f0e;stroke-width:0.25;"/>
    <path clip-path="url(#p44b33f50d7)" d="M 9.108 20.486976 
L 5.58 20.486976 
" style="fill:none;stroke:#ff7f0e;stroke-width:0.25;"/>
    <path clip-path="url(#p44b33f50d7)" d="M 9.108 20.067095 
L 5.58 20.067095 
" style="fill:none;stroke:#ff7f0e;stroke-width:0.25;"/>
    <path clip-path="url(#p44b33f50d7)" d="M 9.108 19.685096 
L 5.58 19.685096 
" style="fill:none;stroke:#ff7f0e;stroke-width:0.25;"/>
    <path clip-path="url(#p44b33f50d7)" d="M 9.108 19.667046 
L 5.58 19.667046 
" style="fill:none;stroke:#ff7f0e;stroke-width:0.25;"/>
    <path clip-path="url(#p44b33f50d7)" d="M 9.108 19.419751 
L 5.58 19.419751 
" style="fill:none;stroke:#ff7f0e;stroke-width:0.25;"/>
    <path clip-path="url(#p44b33f50d7)" d="M 9.108 19.284295 
L 5.58 19.284295 
" style="fill:none;stroke:#ff7f0e;stroke-width:0.25;"/>
    <path clip-path="url(#p44b33f50d7)" d="M 9.108 18.826111 
L 5.58 18.826111 
" style="fill:none;stroke:#ff7f0e;stroke-width:0.25;"/>
    <path clip-path="url(#p44b33f50d7)" d="M 9.108 17.812726 
L 5.58 17.812726 
" style="fill:none;stroke:#ff7f0e;stroke-width:0.25;"/>
    <path clip-path="url(#p44b33f50d7)" d="M 9.108 17.487107 
L 5.58 17.487107 
" style="fill:none;stroke:#ff7f0e;stroke-width:0.25;"/>
    <path clip-path="url(#p44b33f50d7)" d="M 9.108 17.302664 
L 5.58 17.302664 
" style="fill:none;stroke:#ff7f0e;stroke-width:0.25;"/>
    <path clip-path="url(#p44b33f50d7)" d="M 9.108 17.020582 
L 5.58 17.020582 
" style="fill:none;stroke:#ff7f0e;stroke-width:0.25;"/>
    <path clip-path="url(#p44b33f50d7)" d="M 9.108 16.936512 
L 5.58 16.936512 
" style="fill:none;stroke:#ff7f0e;stroke-width:0.25;"/>
    <path clip-path="url(#p44b33f50d7)" d="M 9.108 16.885397 
L 5.58 16.885397 
" style="fill:none;stroke:#ff7f0e;stroke-width:0.25;"/>
    <path clip-path="url(#p44b33f50d7)" d="M 9.108 16.829169 
L 5.58 16.829169 
" style="fill:none;stroke:#ff7f0e;stroke-width:0.25;"/>
    <path clip-path="url(#p44b33f50d7)" d="M 9.108 16.706243 
L 5.58 16.706243 
" style="fill:none;stroke:#ff7f0e;stroke-width:0.25;"/>
    <path clip-path="url(#p44b33f50d7)" d="M 9.108 15.229718 
L 5.58 15.229718 
" style="fill:none;stroke:#ff7f0e;stroke-width:0.25;"/>
    <path clip-path="url(#p44b33f50d7)" d="M 9.108 14.755254 
L 5.58 14.755254 
" style="fill:none;stroke:#ff7f0e;stroke-width:0.25;"/>
    <path clip-path="url(#p44b33f50d7)" d="M 9.108 14.747156 
L 5.58 14.747156 
" style="fill:none;stroke:#ff7f0e;stroke-width:0.25;"/>
    <path clip-path="url(#p44b33f50d7)" d="M 9.108 14.464453 
L 5.58 14.464453 
" style="fill:none;stroke:#ff7f0e;stroke-width:0.25;"/>
    <path clip-path="url(#p44b33f50d7)" d="M 9.108 14.18959 
L 5.58 14.18959 
" style="fill:none;stroke:#ff7f0e;stroke-width:0.25;"/>
    <path clip-path="url(#p44b33f50d7)" d="M 9.108 13.958478 
L 5.58 13.958478 
" style="fill:none;stroke:#ff7f0e;stroke-width:0.25;"/>
    <path clip-path="url(#p44b33f50d7)" d="M 9.108 13.926879 
L 5.58 13.926879 
" style="fill:none;stroke:#ff7f0e;stroke-width:0.25;"/>
    <path clip-path="url(#p44b33f50d7)" d="M 9.108 13.54918 
L 5.58 13.54918 
" style="fill:none;stroke:#ff7f0e;stroke-width:0.25;"/>
    <path clip-path="url(#p44b33f50d7)" d="M 9.108 13.440362 
L 5.58 13.440362 
" style="fill:none;stroke:#ff7f0e;stroke-width:0.25;"/>
    <path clip-path="url(#p44b33f50d7)" d="M 9.108 13.324389 
L 5.58 13.324389 
" style="fill:none;stroke:#ff7f0e;stroke-width:0.25;"/>
    <path clip-path="url(#p44b33f50d7)" d="M 9.108 11.792238 
L 5.58 11.792238 
" style="fill:none;stroke:#ff7f0e;stroke-width:0.25;"/>
    <path clip-path="url(#p44b33f50d7)" d="M 9.108 11.652166 
L 5.58 11.652166 
" style="fill:none;stroke:#ff7f0e;stroke-width:0.25;"/>
    <path clip-path="url(#p44b33f50d7)" d="M 9.108 11.194536 
L 5.58 11.194536 
" style="fill:none;stroke:#ff7f0e;stroke-width:0.25;"/>
    <path clip-path="url(#p44b33f50d7)" d="M 9.108 10.94239 
L 5.58 10.94239 
" style="fill:none;stroke:#ff7f0e;stroke-width:0.25;"/>
    <path clip-path="url(#p44b33f50d7)" d="M 9.108 9.715102 
L 5.58 9.715102 
" style="fill:none;stroke:#ff7f0e;stroke-width:0.25;"/>
    <path clip-path="url(#p44b33f50d7)" d="M 9.108 8.708268 
L 5.58 8.708268 
" style="fill:none;stroke:#ff7f0e;stroke-width:0.25;"/>
    <path clip-path="url(#p44b33f50d7)" d="M 9.108 8.627646 
L 5.58 8.627646 
" style="fill:none;stroke:#ff7f0e;stroke-width:0.25;"/>
    <path clip-path="url(#p44b33f50d7)" d="M 9.108 8.485912 
L 5.58 8.485912 
" style="fill:none;stroke:#ff7f0e;stroke-width:0.25;"/>
    <path clip-path="url(#p44b33f50d7)" d="M 9.108 6.326302 
L 5.58 6.326302 
" style="fill:none;stroke:#ff7f0e;stroke-width:0.25;"/>
    <path clip-path="url(#p44b33f50d7)" d="M 9.108 6.305582 
L 5.58 6.305582 
" style="fill:none;stroke:#ff7f0e;stroke-width:0.25;"/>
    <path clip-path="url(#p44b33f50d7)" d="M 9.108 6.199316 
L 5.58 6.199316 
" style="fill:none;stroke:#ff7f0e;stroke-width:0.25;"/>
    <path clip-path="url(#p44b33f50d7)" d="M 9.108 2.971282 
L 5.58 2.971282 
" style="fill:none;stroke:#ff7f0e;stroke-width:0.25;"/>
    <path clip-path="url(#p44b33f50d7)" d="M 9.108 2.352788 
L 5.58 2.352788 
" style="fill:none;stroke:#ff7f0e;stroke-width:0.25;"/>
    <path clip-path="url(#p44b33f50d7)" d="M 9.108 1.207231 
L 5.58 1.207231 
" style="fill:none;stroke:#ff7f0e;stroke-width:0.25;"/>
    <path clip-path="url(#p44b33f50d7)" d="M 9.108 -0.153909 
L 5.58 -0.153909 
" style="fill:none;stroke:#ff7f0e;stroke-width:0.25;"/>
    <path clip-path="url(#p44b33f50d7)" style="fill:none;stroke:#ff7f0e;stroke-width:0.25;"/>
   </g>
   <g id="EventCollection_2">
    <path clip-path="url(#p44b33f50d7)" d="M 16.164 24.623317 
L 12.636 24.623317 
" style="fill:none;stroke:#ff7f0e;stroke-width:0.25;"/>
    <path clip-path="url(#p44b33f50d7)" d="M 16.164 24.505804 
L 12.636 24.505804 
" style="fill:none;stroke:#ff7f0e;stroke-width:0.25;"/>
    <path clip-path="url(#p44b33f50d7)" d="M 16.164 23.709166 
L 12.636 23.709166 
" style="fill:none;stroke:#ff7f0e;stroke-width:0.25;"/>
    <path clip-path="url(#p44b33f50d7)" d="M 16.164 22.811614 
L 12.636 22.811614 
" style="fill:none;stroke:#ff7f0e;stroke-width:0.25;"/>
    <path clip-path="url(#p44b33f50d7)" d="M 16.164 22.570304 
L 12.636 22.570304 
" style="fill:none;stroke:#ff7f0e;stroke-width:0.25;"/>
    <path clip-path="url(#p44b33f50d7)" d="M 16.164 22.23345 
L 12.636 22.23345 
" style="fill:none;stroke:#ff7f0e;stroke-width:0.25;"/>
    <path clip-path="url(#p44b33f50d7)" d="M 16.164 22.104108 
L 12.636 22.104108 
" style="fill:none;stroke:#ff7f0e;stroke-width:0.25;"/>
    <path clip-path="url(#p44b33f50d7)" d="M 16.164 21.771809 
L 12.636 21.771809 
" style="fill:none;stroke:#ff7f0e;stroke-width:0.25;"/>
    <path clip-path="url(#p44b33f50d7)" d="M 16.164 21.652537 
L 12.636 21.652537 
" style="fill:none;stroke:#ff7f0e;stroke-width:0.25;"/>
    <path clip-path="url(#p44b33f50d7)" d="M 16.164 21.210134 
L 12.636 21.210134 
" style="fill:none;stroke:#ff7f0e;stroke-width:0.25;"/>
    <path clip-path="url(#p44b33f50d7)" d="M 16.164 21.008393 
L 12.636 21.008393 
" style="fill:none;stroke:#ff7f0e;stroke-width:0.25;"/>
    <path clip-path="url(#p44b33f50d7)" d="M 16.164 20.13784 
L 12.636 20.13784 
" style="fill:none;stroke:#ff7f0e;stroke-width:0.25;"/>
    <path clip-path="url(#p44b33f50d7)" d="M 16.164 19.429012 
L 12.636 19.429012 
" style="fill:none;stroke:#ff7f0e;stroke-width:0.25;"/>
    <path clip-path="url(#p44b33f50d7)" d="M 16.164 19.347653 
L 12.636 19.347653 
" style="fill:none;stroke:#ff7f0e;stroke-width:0.25;"/>
    <path clip-path="url(#p44b33f50d7)" d="M 16.164 18.764274 
L 12.636 18.764274 
" style="fill:none;stroke:#ff7f0e;stroke-width:0.25;"/>
    <path clip-path="url(#p44b33f50d7)" d="M 16.164 18.367614 
L 12.636 18.367614 
" style="fill:none;stroke:#ff7f0e;stroke-width:0.25;"/>
    <path clip-path="url(#p44b33f50d7)" d="M 16.164 17.949257 
L 12.636 17.949257 
" style="fill:none;stroke:#ff7f0e;stroke-width:0.25;"/>
    <path clip-path="url(#p44b33f50d7)" d="M 16.164 17.762669 
L 12.636 17.762669 
" style="fill:none;stroke:#ff7f0e;stroke-width:0.25;"/>
    <path clip-path="url(#p44b33f50d7)" d="M 16.164 17.184028 
L 12.636 17.184028 
" style="fill:none;stroke:#ff7f0e;stroke-width:0.25;"/>
    <path clip-path="url(#p44b33f50d7)" d="M 16.164 16.720697 
L 12.636 16.720697 
" style="fill:none;stroke:#ff7f0e;stroke-width:0.25;"/>
    <path clip-path="url(#p44b33f50d7)" d="M 16.164 16.240881 
L 12.636 16.240881 
" style="fill:none;stroke:#ff7f0e;stroke-width:0.25;"/>
    <path clip-path="url(#p44b33f50d7)" d="M 16.164 15.835655 
L 12.636 15.835655 
" style="fill:none;stroke:#ff7f0e;stroke-width:0.25;"/>
    <path clip-path="url(#p44b33f50d7)" d="M 16.164 15.741591 
L 12.636 15.741591 
" style="fill:none;stroke:#ff7f0e;stroke-width:0.25;"/>
    <path clip-path="url(#p44b33f50d7)" d="M 16.164 15.458032 
L 12.636 15.458032 
" style="fill:none;stroke:#ff7f0e;stroke-width:0.25;"/>
    <path clip-path="url(#p44b33f50d7)" d="M 16.164 15.279236 
L 12.636 15.279236 
" style="fill:none;stroke:#ff7f0e;stroke-width:0.25;"/>
    <path clip-path="url(#p44b33f50d7)" d="M 16.164 15.258853 
L 12.636 15.258853 
" style="fill:none;stroke:#ff7f0e;stroke-width:0.25;"/>
    <path clip-path="url(#p44b33f50d7)" d="M 16.164 14.735448 
L 12.636 14.735448 
" style="fill:none;stroke:#ff7f0e;stroke-width:0.25;"/>
    <path clip-path="url(#p44b33f50d7)" d="M 16.164 14.623268 
L 12.636 14.623268 
" style="fill:none;stroke:#ff7f0e;stroke-width:0.25;"/>
    <path clip-path="url(#p44b33f50d7)" d="M 16.164 14.397648 
L 12.636 14.397648 
" style="fill:none;stroke:#ff7f0e;stroke-width:0.25;"/>
    <path clip-path="url(#p44b33f50d7)" d="M 16.164 13.940934 
L 12.636 13.940934 
" style="fill:none;stroke:#ff7f0e;stroke-width:0.25;"/>
    <path clip-path="url(#p44b33f50d7)" d="M 16.164 13.327965 
L 12.636 13.327965 
" style="fill:none;stroke:#ff7f0e;stroke-width:0.25;"/>
    <path clip-path="url(#p44b33f50d7)" d="M 16.164 13.0604 
L 12.636 13.0604 
" style="fill:none;stroke:#ff7f0e;stroke-width:0.25;"/>
    <path clip-path="url(#p44b33f50d7)" d="M 16.164 12.359361 
L 12.636 12.359361 
" style="fill:none;stroke:#ff7f0e;stroke-width:0.25;"/>
    <path clip-path="url(#p44b33f50d7)" d="M 16.164 11.933865 
L 12.636 11.933865 
" style="fill:none;stroke:#ff7f0e;stroke-width:0.25;"/>
    <path clip-path="url(#p44b33f50d7)" d="M 16.164 11.65934 
L 12.636 11.65934 
" style="fill:none;stroke:#ff7f0e;stroke-width:0.25;"/>
    <path clip-path="url(#p44b33f50d7)" d="M 16.164 11.488964 
L 12.636 11.488964 
" style="fill:none;stroke:#ff7f0e;stroke-width:0.25;"/>
    <path clip-path="url(#p44b33f50d7)" d="M 16.164 10.395382 
L 12.636 10.395382 
" style="fill:none;stroke:#ff7f0e;stroke-width:0.25;"/>
    <path clip-path="url(#p44b33f50d7)" d="M 16.164 9.900432 
L 12.636 9.900432 
" style="fill:none;stroke:#ff7f0e;stroke-width:0.25;"/>
    <path clip-path="url(#p44b33f50d7)" d="M 16.164 9.815453 
L 12.636 9.815453 
" style="fill:none;stroke:#ff7f0e;stroke-width:0.25;"/>
    <path clip-path="url(#p44b33f50d7)" d="M 16.164 9.446939 
L 12.636 9.446939 
" style="fill:none;stroke:#ff7f0e;stroke-width:0.25;"/>
    <path clip-path="url(#p44b33f50d7)" d="M 16.164 9.367615 
L 12.636 9.367615 
" style="fill:none;stroke:#ff7f0e;stroke-width:0.25;"/>
    <path clip-path="url(#p44b33f50d7)" d="M 16.164 8.823118 
L 12.636 8.823118 
" style="fill:none;stroke:#ff7f0e;stroke-width:0.25;"/>
    <path clip-path="url(#p44b33f50d7)" d="M 16.164 8.773548 
L 12.636 8.773548 
" style="fill:none;stroke:#ff7f0e;stroke-width:0.25;"/>
    <path clip-path="url(#p44b33f50d7)" d="M 16.164 7.212524 
L 12.636 7.212524 
" style="fill:none;stroke:#ff7f0e;stroke-width:0.25;"/>
    <path clip-path="url(#p44b33f50d7)" d="M 16.164 6.347063 
L 12.636 6.347063 
" style="fill:none;stroke:#ff7f0e;stroke-width:0.25;"/>
    <path clip-path="url(#p44b33f50d7)" d="M 16.164 5.415103 
L 12.636 5.415103 
" style="fill:none;stroke:#ff7f0e;stroke-width:0.25;"/>
    <path clip-path="url(#p44b33f50d7)" d="M 16.164 5.299015 
L 12.636 5.299015 
" style="fill:none;stroke:#ff7f0e;stroke-width:0.25;"/>
    <path clip-path="url(#p44b33f50d7)" style="fill:none;stroke:#ff7f0e;stroke-width:0.25;"/>
    <path clip-path="url(#p44b33f50d7)" style="fill:none;stroke:#ff7f0e;stroke-width:0.25;"/>
    <path clip-path="url(#p44b33f50d7)" style="fill:none;stroke:#ff7f0e;stroke-width:0.25;"/>
   </g>
   <g id="EventCollection_3">
    <path clip-path="url(#p44b33f50d7)" d="M 23.22 26.757523 
L 19.692 26.757523 
" style="fill:none;stroke:#ff7f0e;stroke-width:0.25;"/>
    <path clip-path="url(#p44b33f50d7)" d="M 23.22 24.197347 
L 19.692 24.197347 
" style="fill:none;stroke:#ff7f0e;stroke-width:0.25;"/>
    <path clip-path="url(#p44b33f50d7)" d="M 23.22 23.910179 
L 19.692 23.910179 
" style="fill:none;stroke:#ff7f0e;stroke-width:0.25;"/>
    <path clip-path="url(#p44b33f50d7)" d="M 23.22 23.387856 
L 19.692 23.387856 
" style="fill:none;stroke:#ff7f0e;stroke-width:0.25;"/>
    <path clip-path="url(#p44b33f50d7)" d="M 23.22 22.691695 
L 19.692 22.691695 
" style="fill:none;stroke:#ff7f0e;stroke-width:0.25;"/>
    <path clip-path="url(#p44b33f50d7)" d="M 23.22 22.649052 
L 19.692 22.649052 
" style="fill:none;stroke:#ff7f0e;stroke-width:0.25;"/>
    <path clip-path="url(#p44b33f50d7)" d="M 23.22 22.543897 
L 19.692 22.543897 
" style="fill:none;stroke:#ff7f0e;stroke-width:0.25;"/>
    <path clip-path="url(#p44b33f50d7)" d="M 23.22 22.409109 
L 19.692 22.409109 
" style="fill:none;stroke:#ff7f0e;stroke-width:0.25;"/>
    <path clip-path="url(#p44b33f50d7)" d="M 23.22 22.261759 
L 19.692 22.261759 
" style="fill:none;stroke:#ff7f0e;stroke-width:0.25;"/>
    <path clip-path="url(#p44b33f50d7)" d="M 23.22 22.246219 
L 19.692 22.246219 
" style="fill:none;stroke:#ff7f0e;stroke-width:0.25;"/>
    <path clip-path="url(#p44b33f50d7)" d="M 23.22 21.7591 
L 19.692 21.7591 
" style="fill:none;stroke:#ff7f0e;stroke-width:0.25;"/>
    <path clip-path="url(#p44b33f50d7)" d="M 23.22 20.565883 
L 19.692 20.565883 
" style="fill:none;stroke:#ff7f0e;stroke-width:0.25;"/>
    <path clip-path="url(#p44b33f50d7)" d="M 23.22 19.314495 
L 19.692 19.314495 
" style="fill:none;stroke:#ff7f0e;stroke-width:0.25;"/>
    <path clip-path="url(#p44b33f50d7)" d="M 23.22 18.923834 
L 19.692 18.923834 
" style="fill:none;stroke:#ff7f0e;stroke-width:0.25;"/>
    <path clip-path="url(#p44b33f50d7)" d="M 23.22 18.65827 
L 19.692 18.65827 
" style="fill:none;stroke:#ff7f0e;stroke-width:0.25;"/>
    <path clip-path="url(#p44b33f50d7)" d="M 23.22 18.099584 
L 19.692 18.099584 
" style="fill:none;stroke:#ff7f0e;stroke-width:0.25;"/>
    <path clip-path="url(#p44b33f50d7)" d="M 23.22 17.94426 
L 19.692 17.94426 
" style="fill:none;stroke:#ff7f0e;stroke-width:0.25;"/>
    <path clip-path="url(#p44b33f50d7)" d="M 23.22 17.658713 
L 19.692 17.658713 
" style="fill:none;stroke:#ff7f0e;stroke-width:0.25;"/>
    <path clip-path="url(#p44b33f50d7)" d="M 23.22 17.565211 
L 19.692 17.565211 
" style="fill:none;stroke:#ff7f0e;stroke-width:0.25;"/>
    <path clip-path="url(#p44b33f50d7)" d="M 23.22 17.421483 
L 19.692 17.421483 
" style="fill:none;stroke:#ff7f0e;stroke-width:0.25;"/>
    <path clip-path="url(#p44b33f50d7)" d="M 23.22 16.873312 
L 19.692 16.873312 
" style="fill:none;stroke:#ff7f0e;stroke-width:0.25;"/>
    <path clip-path="url(#p44b33f50d7)" d="M 23.22 16.372865 
L 19.692 16.372865 
" style="fill:none;stroke:#ff7f0e;stroke-width:0.25;"/>
    <path clip-path="url(#p44b33f50d7)" d="M 23.22 16.307883 
L 19.692 16.307883 
" style="fill:none;stroke:#ff7f0e;stroke-width:0.25;"/>
    <path clip-path="url(#p44b33f50d7)" d="M 23.22 16.063661 
L 19.692 16.063661 
" style="fill:none;stroke:#ff7f0e;stroke-width:0.25;"/>
    <path clip-path="url(#p44b33f50d7)" d="M 23.22 14.84505 
L 19.692 14.84505 
" style="fill:none;stroke:#ff7f0e;stroke-width:0.25;"/>
    <path clip-path="url(#p44b33f50d7)" d="M 23.22 14.822754 
L 19.692 14.822754 
" style="fill:none;stroke:#ff7f0e;stroke-width:0.25;"/>
    <path clip-path="url(#p44b33f50d7)" d="M 23.22 14.684093 
L 19.692 14.684093 
" style="fill:none;stroke:#ff7f0e;stroke-width:0.25;"/>
    <path clip-path="url(#p44b33f50d7)" d="M 23.22 14.164049 
L 19.692 14.164049 
" style="fill:none;stroke:#ff7f0e;stroke-width:0.25;"/>
    <path clip-path="url(#p44b33f50d7)" d="M 23.22 13.866393 
L 19.692 13.866393 
" style="fill:none;stroke:#ff7f0e;stroke-width:0.25;"/>
    <path clip-path="url(#p44b33f50d7)" d="M 23.22 13.720626 
L 19.692 13.720626 
" style="fill:none;stroke:#ff7f0e;stroke-width:0.25;"/>
    <path clip-path="url(#p44b33f50d7)" d="M 23.22 13.585792 
L 19.692 13.585792 
" style="fill:none;stroke:#ff7f0e;stroke-width:0.25;"/>
    <path clip-path="url(#p44b33f50d7)" d="M 23.22 13.555427 
L 19.692 13.555427 
" style="fill:none;stroke:#ff7f0e;stroke-width:0.25;"/>
    <path clip-path="url(#p44b33f50d7)" d="M 23.22 13.340077 
L 19.692 13.340077 
" style="fill:none;stroke:#ff7f0e;stroke-width:0.25;"/>
    <path clip-path="url(#p44b33f50d7)" d="M 23.22 12.523948 
L 19.692 12.523948 
" style="fill:none;stroke:#ff7f0e;stroke-width:0.25;"/>
    <path clip-path="url(#p44b33f50d7)" d="M 23.22 11.202423 
L 19.692 11.202423 
" style="fill:none;stroke:#ff7f0e;stroke-width:0.25;"/>
    <path clip-path="url(#p44b33f50d7)" d="M 23.22 11.065418 
L 19.692 11.065418 
" style="fill:none;stroke:#ff7f0e;stroke-width:0.25;"/>
    <path clip-path="url(#p44b33f50d7)" d="M 23.22 10.461598 
L 19.692 10.461598 
" style="fill:none;stroke:#ff7f0e;stroke-width:0.25;"/>
    <path clip-path="url(#p44b33f50d7)" d="M 23.22 9.427517 
L 19.692 9.427517 
" style="fill:none;stroke:#ff7f0e;stroke-width:0.25;"/>
    <path clip-path="url(#p44b33f50d7)" d="M 23.22 9.172678 
L 19.692 9.172678 
" style="fill:none;stroke:#ff7f0e;stroke-width:0.25;"/>
    <path clip-path="url(#p44b33f50d7)" d="M 23.22 9.16363 
L 19.692 9.16363 
" style="fill:none;stroke:#ff7f0e;stroke-width:0.25;"/>
    <path clip-path="url(#p44b33f50d7)" d="M 23.22 8.711229 
L 19.692 8.711229 
" style="fill:none;stroke:#ff7f0e;stroke-width:0.25;"/>
    <path clip-path="url(#p44b33f50d7)" d="M 23.22 6.524838 
L 19.692 6.524838 
" style="fill:none;stroke:#ff7f0e;stroke-width:0.25;"/>
    <path clip-path="url(#p44b33f50d7)" d="M 23.22 4.335345 
L 19.692 4.335345 
" style="fill:none;stroke:#ff7f0e;stroke-width:0.25;"/>
    <path clip-path="url(#p44b33f50d7)" d="M 23.22 3.547072 
L 19.692 3.547072 
" style="fill:none;stroke:#ff7f0e;stroke-width:0.25;"/>
    <path clip-path="url(#p44b33f50d7)" d="M 23.22 1.929325 
L 19.692 1.929325 
" style="fill:none;stroke:#ff7f0e;stroke-width:0.25;"/>
    <path clip-path="url(#p44b33f50d7)" d="M 23.22 -0.915226 
L 19.692 -0.915226 
" style="fill:none;stroke:#ff7f0e;stroke-width:0.25;"/>
    <path clip-path="url(#p44b33f50d7)" style="fill:none;stroke:#ff7f0e;stroke-width:0.25;"/>
    <path clip-path="url(#p44b33f50d7)" style="fill:none;stroke:#ff7f0e;stroke-width:0.25;"/>
    <path clip-path="url(#p44b33f50d7)" style="fill:none;stroke:#ff7f0e;stroke-width:0.25;"/>
    <path clip-path="url(#p44b33f50d7)" style="fill:none;stroke:#ff7f0e;stroke-width:0.25;"/>
   </g>
   <g id="patch_3">
    <path d="M 0.288 28.512 
L 0.288 0.288 
" style="fill:none;stroke:#000000;stroke-linecap:square;stroke-linejoin:miter;stroke-width:0.5;"/>
   </g>
   <g id="patch_4">
    <path d="M 28.512 28.512 
L 28.512 0.288 
" style="fill:none;stroke:#000000;stroke-linecap:square;stroke-linejoin:miter;stroke-width:0.5;"/>
   </g>
   <g id="patch_5">
    <path d="M 0.288 28.512 
L 28.512 28.512 
" style="fill:none;stroke:#000000;stroke-linecap:square;stroke-linejoin:miter;stroke-width:0.5;"/>
   </g>
   <g id="patch_6">
    <path d="M 0.288 0.288 
L 28.512 0.288 
" style="fill:none;stroke:#000000;stroke-linecap:square;stroke-linejoin:miter;stroke-width:0.5;"/>
   </g>
  </g>
 </g>
 <defs>
  <clipPath id="p44b33f50d7">
   <rect height="28.224" width="28.224" x="0.288" y="0.288"/>
  </clipPath>
 </defs>
</svg>
