<?xml version="1.0" encoding="utf-8" standalone="no"?>
<!DOCTYPE svg PUBLIC "-//W3C//DTD SVG 1.1//EN"
  "http://www.w3.org/Graphics/SVG/1.1/DTD/svg11.dtd">
<!-- Created with matplotlib (https://matplotlib.org/) -->
<svg height="57.6pt" version="1.1" viewBox="0 0 57.6 57.6" width="57.6pt" xmlns="http://www.w3.org/2000/svg" xmlns:xlink="http://www.w3.org/1999/xlink">
 <defs>
  <style type="text/css">
*{stroke-linecap:butt;stroke-linejoin:round;}
  </style>
 </defs>
 <g id="figure_1">
  <g id="patch_1">
   <path d="M 0 57.6 
L 57.6 57.6 
L 57.6 0 
L 0 0 
z
" style="fill:#ffffff;"/>
  </g>
  <g id="axes_1">
   <g id="patch_2">
    <path d="M 0.576 57.024 
L 57.024 57.024 
L 57.024 0.576 
L 0.576 0.576 
z
" style="fill:#ffffff;"/>
   </g>
   <g id="matplotlib.axis_1">
    <g id="xtick_1">
     <g id="text_1">
      <!-- Thur -->
      <defs>
       <path d="M 25.921875 0 
L 25.921875 63.140625 
L 2.34375 63.140625 
L 2.34375 71.578125 
L 59.078125 71.578125 
L 59.078125 63.140625 
L 35.40625 63.140625 
L 35.40625 0 
z
" id="ArialMT-84"/>
       <path d="M 6.59375 0 
L 6.59375 71.578125 
L 15.375 71.578125 
L 15.375 45.90625 
Q 21.53125 53.03125 30.90625 53.03125 
Q 36.671875 53.03125 40.921875 50.75 
Q 45.171875 48.484375 47 44.484375 
Q 48.828125 40.484375 48.828125 32.859375 
L 48.828125 0 
L 40.046875 0 
L 40.046875 32.859375 
Q 40.046875 39.453125 37.1875 42.453125 
Q 34.328125 45.453125 29.109375 45.453125 
Q 25.203125 45.453125 21.75 43.421875 
Q 18.3125 41.40625 16.84375 37.9375 
Q 15.375 34.46875 15.375 28.375 
L 15.375 0 
z
" id="ArialMT-104"/>
       <path d="M 40.578125 0 
L 40.578125 7.625 
Q 34.515625 -1.171875 24.125 -1.171875 
Q 19.53125 -1.171875 15.546875 0.578125 
Q 11.578125 2.34375 9.640625 5 
Q 7.71875 7.671875 6.9375 11.53125 
Q 6.390625 14.109375 6.390625 19.734375 
L 6.390625 51.859375 
L 15.1875 51.859375 
L 15.1875 23.09375 
Q 15.1875 16.21875 15.71875 13.8125 
Q 16.546875 10.359375 19.234375 8.375 
Q 21.921875 6.390625 25.875 6.390625 
Q 29.828125 6.390625 33.296875 8.421875 
Q 36.765625 10.453125 38.203125 13.9375 
Q 39.65625 17.4375 39.65625 24.078125 
L 39.65625 51.859375 
L 48.4375 51.859375 
L 48.4375 0 
z
" id="ArialMT-117"/>
       <path d="M 6.5 0 
L 6.5 51.859375 
L 14.40625 51.859375 
L 14.40625 44 
Q 17.4375 49.515625 20 51.265625 
Q 22.5625 53.03125 25.640625 53.03125 
Q 30.078125 53.03125 34.671875 50.203125 
L 31.640625 42.046875 
Q 28.421875 43.953125 25.203125 43.953125 
Q 22.3125 43.953125 20.015625 42.21875 
Q 17.71875 40.484375 16.75 37.40625 
Q 15.28125 32.71875 15.28125 27.15625 
L 15.28125 0 
z
" id="ArialMT-114"/>
      </defs>
      <g style="fill:#262626;" transform="translate(-2.647688 71.181813)scale(0.1 -0.1)">
       <use xlink:href="#ArialMT-84"/>
       <use x="61.083984" xlink:href="#ArialMT-104"/>
       <use x="116.699219" xlink:href="#ArialMT-117"/>
       <use x="172.314453" xlink:href="#ArialMT-114"/>
      </g>
     </g>
    </g>
    <g id="xtick_2">
     <g id="text_2">
      <!-- Fri -->
      <defs>
       <path d="M 8.203125 0 
L 8.203125 71.578125 
L 56.5 71.578125 
L 56.5 63.140625 
L 17.671875 63.140625 
L 17.671875 40.96875 
L 51.265625 40.96875 
L 51.265625 32.515625 
L 17.671875 32.515625 
L 17.671875 0 
z
" id="ArialMT-70"/>
       <path d="M 6.640625 61.46875 
L 6.640625 71.578125 
L 15.4375 71.578125 
L 15.4375 61.46875 
z
M 6.640625 0 
L 6.640625 51.859375 
L 15.4375 51.859375 
L 15.4375 0 
z
" id="ArialMT-105"/>
      </defs>
      <g style="fill:#262626;" transform="translate(15.914312 71.181813)scale(0.1 -0.1)">
       <use xlink:href="#ArialMT-70"/>
       <use x="61.083984" xlink:href="#ArialMT-114"/>
       <use x="94.384766" xlink:href="#ArialMT-105"/>
      </g>
     </g>
    </g>
    <g id="xtick_3">
     <g id="text_3">
      <!-- Sat -->
      <defs>
       <path d="M 4.5 23 
L 13.421875 23.78125 
Q 14.0625 18.40625 16.375 14.96875 
Q 18.703125 11.53125 23.578125 9.40625 
Q 28.46875 7.28125 34.578125 7.28125 
Q 39.984375 7.28125 44.140625 8.890625 
Q 48.296875 10.5 50.3125 13.296875 
Q 52.34375 16.109375 52.34375 19.4375 
Q 52.34375 22.796875 50.390625 25.3125 
Q 48.4375 27.828125 43.953125 29.546875 
Q 41.0625 30.671875 31.203125 33.03125 
Q 21.34375 35.40625 17.390625 37.5 
Q 12.25 40.1875 9.734375 44.15625 
Q 7.234375 48.140625 7.234375 53.078125 
Q 7.234375 58.5 10.296875 63.203125 
Q 13.375 67.921875 19.28125 70.359375 
Q 25.203125 72.796875 32.421875 72.796875 
Q 40.375 72.796875 46.453125 70.234375 
Q 52.546875 67.671875 55.8125 62.6875 
Q 59.078125 57.71875 59.328125 51.421875 
L 50.25 50.734375 
Q 49.515625 57.515625 45.28125 60.984375 
Q 41.0625 64.453125 32.8125 64.453125 
Q 24.21875 64.453125 20.28125 61.296875 
Q 16.359375 58.15625 16.359375 53.71875 
Q 16.359375 49.859375 19.140625 47.359375 
Q 21.875 44.875 33.421875 42.265625 
Q 44.96875 39.65625 49.265625 37.703125 
Q 55.515625 34.8125 58.484375 30.390625 
Q 61.46875 25.984375 61.46875 20.21875 
Q 61.46875 14.5 58.203125 9.4375 
Q 54.9375 4.390625 48.796875 1.578125 
Q 42.671875 -1.21875 35.015625 -1.21875 
Q 25.296875 -1.21875 18.71875 1.609375 
Q 12.15625 4.4375 8.421875 10.125 
Q 4.6875 15.828125 4.5 23 
z
" id="ArialMT-83"/>
       <path d="M 40.4375 6.390625 
Q 35.546875 2.25 31.03125 0.53125 
Q 26.515625 -1.171875 21.34375 -1.171875 
Q 12.796875 -1.171875 8.203125 3 
Q 3.609375 7.171875 3.609375 13.671875 
Q 3.609375 17.484375 5.34375 20.625 
Q 7.078125 23.78125 9.890625 25.6875 
Q 12.703125 27.59375 16.21875 28.5625 
Q 18.796875 29.25 24.03125 29.890625 
Q 34.671875 31.15625 39.703125 32.90625 
Q 39.75 34.71875 39.75 35.203125 
Q 39.75 40.578125 37.25 42.78125 
Q 33.890625 45.75 27.25 45.75 
Q 21.046875 45.75 18.09375 43.578125 
Q 15.140625 41.40625 13.71875 35.890625 
L 5.125 37.0625 
Q 6.296875 42.578125 8.984375 45.96875 
Q 11.671875 49.359375 16.75 51.1875 
Q 21.828125 53.03125 28.515625 53.03125 
Q 35.15625 53.03125 39.296875 51.46875 
Q 43.453125 49.90625 45.40625 47.53125 
Q 47.359375 45.171875 48.140625 41.546875 
Q 48.578125 39.3125 48.578125 33.453125 
L 48.578125 21.734375 
Q 48.578125 9.46875 49.140625 6.21875 
Q 49.703125 2.984375 51.375 0 
L 42.1875 0 
Q 40.828125 2.734375 40.4375 6.390625 
z
M 39.703125 26.03125 
Q 34.90625 24.078125 25.34375 22.703125 
Q 19.921875 21.921875 17.671875 20.9375 
Q 15.4375 19.96875 14.203125 18.09375 
Q 12.984375 16.21875 12.984375 13.921875 
Q 12.984375 10.40625 15.640625 8.0625 
Q 18.3125 5.71875 23.4375 5.71875 
Q 28.515625 5.71875 32.46875 7.9375 
Q 36.421875 10.15625 38.28125 14.015625 
Q 39.703125 17 39.703125 22.796875 
z
" id="ArialMT-97"/>
       <path d="M 25.78125 7.859375 
L 27.046875 0.09375 
Q 23.34375 -0.6875 20.40625 -0.6875 
Q 15.625 -0.6875 12.984375 0.828125 
Q 10.359375 2.34375 9.28125 4.8125 
Q 8.203125 7.28125 8.203125 15.1875 
L 8.203125 45.015625 
L 1.765625 45.015625 
L 1.765625 51.859375 
L 8.203125 51.859375 
L 8.203125 64.703125 
L 16.9375 69.96875 
L 16.9375 51.859375 
L 25.78125 51.859375 
L 25.78125 45.015625 
L 16.9375 45.015625 
L 16.9375 14.703125 
Q 16.9375 10.9375 17.40625 9.859375 
Q 17.875 8.796875 18.921875 8.15625 
Q 19.96875 7.515625 21.921875 7.515625 
Q 23.390625 7.515625 25.78125 7.859375 
z
" id="ArialMT-116"/>
      </defs>
      <g style="fill:#262626;" transform="translate(28.351313 71.181813)scale(0.1 -0.1)">
       <use xlink:href="#ArialMT-83"/>
       <use x="66.699219" xlink:href="#ArialMT-97"/>
       <use x="122.314453" xlink:href="#ArialMT-116"/>
      </g>
     </g>
    </g>
    <g id="xtick_4">
     <g id="text_4">
      <!-- Sun -->
      <defs>
       <path d="M 6.59375 0 
L 6.59375 51.859375 
L 14.5 51.859375 
L 14.5 44.484375 
Q 20.21875 53.03125 31 53.03125 
Q 35.6875 53.03125 39.625 51.34375 
Q 43.5625 49.65625 45.515625 46.921875 
Q 47.46875 44.1875 48.25 40.4375 
Q 48.734375 37.984375 48.734375 31.890625 
L 48.734375 0 
L 39.9375 0 
L 39.9375 31.546875 
Q 39.9375 36.921875 38.90625 39.578125 
Q 37.890625 42.234375 35.28125 43.8125 
Q 32.671875 45.40625 29.15625 45.40625 
Q 23.53125 45.40625 19.453125 41.84375 
Q 15.375 38.28125 15.375 28.328125 
L 15.375 0 
z
" id="ArialMT-110"/>
      </defs>
      <g style="fill:#262626;" transform="translate(41.071906 71.181813)scale(0.1 -0.1)">
       <use xlink:href="#ArialMT-83"/>
       <use x="66.699219" xlink:href="#ArialMT-117"/>
       <use x="122.314453" xlink:href="#ArialMT-110"/>
      </g>
     </g>
    </g>
    <g id="text_5">
     <!-- day -->
     <defs>
      <path d="M 40.234375 0 
L 40.234375 6.546875 
Q 35.296875 -1.171875 25.734375 -1.171875 
Q 19.53125 -1.171875 14.328125 2.25 
Q 9.125 5.671875 6.265625 11.796875 
Q 3.421875 17.921875 3.421875 25.875 
Q 3.421875 33.640625 6 39.96875 
Q 8.59375 46.296875 13.765625 49.65625 
Q 18.953125 53.03125 25.34375 53.03125 
Q 30.03125 53.03125 33.6875 51.046875 
Q 37.359375 49.078125 39.65625 45.90625 
L 39.65625 71.578125 
L 48.390625 71.578125 
L 48.390625 0 
z
M 12.453125 25.875 
Q 12.453125 15.921875 16.640625 10.984375 
Q 20.84375 6.0625 26.5625 6.0625 
Q 32.328125 6.0625 36.34375 10.765625 
Q 40.375 15.484375 40.375 25.140625 
Q 40.375 35.796875 36.265625 40.765625 
Q 32.171875 45.75 26.171875 45.75 
Q 20.3125 45.75 16.375 40.96875 
Q 12.453125 36.1875 12.453125 25.875 
z
" id="ArialMT-100"/>
      <path d="M 6.203125 -19.96875 
L 5.21875 -11.71875 
Q 8.109375 -12.5 10.25 -12.5 
Q 13.1875 -12.5 14.9375 -11.515625 
Q 16.703125 -10.546875 17.828125 -8.796875 
Q 18.65625 -7.46875 20.515625 -2.25 
Q 20.75 -1.515625 21.296875 -0.09375 
L 1.609375 51.859375 
L 11.078125 51.859375 
L 21.875 21.828125 
Q 23.96875 16.109375 25.640625 9.8125 
Q 27.15625 15.875 29.25 21.625 
L 40.328125 51.859375 
L 49.125 51.859375 
L 29.390625 -0.875 
Q 26.21875 -9.421875 24.46875 -12.640625 
Q 22.125 -17 19.09375 -19.015625 
Q 16.0625 -21.046875 11.859375 -21.046875 
Q 9.328125 -21.046875 6.203125 -19.96875 
z
" id="ArialMT-121"/>
     </defs>
     <g style="fill:#262626;" transform="translate(20.739063 84.327125)scale(0.1 -0.1)">
      <use xlink:href="#ArialMT-100"/>
      <use x="55.615234" xlink:href="#ArialMT-97"/>
      <use x="111.230469" xlink:href="#ArialMT-121"/>
     </g>
    </g>
   </g>
   <g id="matplotlib.axis_2">
    <g id="ytick_1">
     <g id="line2d_1">
      <path clip-path="url(#p473f7e9b42)" d="M 0.576 50.65253 
L 57.024 50.65253 
" style="fill:none;stroke:#cccccc;stroke-linecap:round;stroke-width:0.8;"/>
     </g>
     <g id="text_6">
      <!-- 0 -->
      <defs>
       <path d="M 4.15625 35.296875 
Q 4.15625 48 6.765625 55.734375 
Q 9.375 63.484375 14.515625 67.671875 
Q 19.671875 71.875 27.484375 71.875 
Q 33.25 71.875 37.59375 69.546875 
Q 41.9375 67.234375 44.765625 62.859375 
Q 47.609375 58.5 49.21875 52.21875 
Q 50.828125 45.953125 50.828125 35.296875 
Q 50.828125 22.703125 48.234375 14.96875 
Q 45.65625 7.234375 40.5 3 
Q 35.359375 -1.21875 27.484375 -1.21875 
Q 17.140625 -1.21875 11.234375 6.203125 
Q 4.15625 15.140625 4.15625 35.296875 
z
M 13.1875 35.296875 
Q 13.1875 17.671875 17.3125 11.828125 
Q 21.4375 6 27.484375 6 
Q 33.546875 6 37.671875 11.859375 
Q 41.796875 17.71875 41.796875 35.296875 
Q 41.796875 52.984375 37.671875 58.78125 
Q 33.546875 64.59375 27.390625 64.59375 
Q 21.34375 64.59375 17.71875 59.46875 
Q 13.1875 52.9375 13.1875 35.296875 
z
" id="ArialMT-48"/>
      </defs>
      <g style="fill:#262626;" transform="translate(-11.984938 54.231436)scale(0.1 -0.1)">
       <use xlink:href="#ArialMT-48"/>
      </g>
     </g>
    </g>
    <g id="ytick_2">
     <g id="line2d_2">
      <path clip-path="url(#p473f7e9b42)" d="M 0.576 10.094754 
L 57.024 10.094754 
" style="fill:none;stroke:#cccccc;stroke-linecap:round;stroke-width:0.8;"/>
     </g>
     <g id="text_7">
      <!-- 50 -->
      <defs>
       <path d="M 4.15625 18.75 
L 13.375 19.53125 
Q 14.40625 12.796875 18.140625 9.390625 
Q 21.875 6 27.15625 6 
Q 33.5 6 37.890625 10.78125 
Q 42.28125 15.578125 42.28125 23.484375 
Q 42.28125 31 38.0625 35.34375 
Q 33.84375 39.703125 27 39.703125 
Q 22.75 39.703125 19.328125 37.765625 
Q 15.921875 35.84375 13.96875 32.765625 
L 5.71875 33.84375 
L 12.640625 70.609375 
L 48.25 70.609375 
L 48.25 62.203125 
L 19.671875 62.203125 
L 15.828125 42.96875 
Q 22.265625 47.46875 29.34375 47.46875 
Q 38.71875 47.46875 45.15625 40.96875 
Q 51.609375 34.46875 51.609375 24.265625 
Q 51.609375 14.546875 45.953125 7.46875 
Q 39.0625 -1.21875 27.15625 -1.21875 
Q 17.390625 -1.21875 11.203125 4.25 
Q 5.03125 9.71875 4.15625 18.75 
z
" id="ArialMT-53"/>
      </defs>
      <g style="fill:#262626;" transform="translate(-17.545875 13.67366)scale(0.1 -0.1)">
       <use xlink:href="#ArialMT-53"/>
       <use x="55.615234" xlink:href="#ArialMT-48"/>
      </g>
     </g>
    </g>
    <g id="text_8">
     <!-- total_bill -->
     <defs>
      <path d="M 3.328125 25.921875 
Q 3.328125 40.328125 11.328125 47.265625 
Q 18.015625 53.03125 27.640625 53.03125 
Q 38.328125 53.03125 45.109375 46.015625 
Q 51.90625 39.015625 51.90625 26.65625 
Q 51.90625 16.65625 48.90625 10.90625 
Q 45.90625 5.171875 40.15625 2 
Q 34.421875 -1.171875 27.640625 -1.171875 
Q 16.75 -1.171875 10.03125 5.8125 
Q 3.328125 12.796875 3.328125 25.921875 
z
M 12.359375 25.921875 
Q 12.359375 15.96875 16.703125 11.015625 
Q 21.046875 6.0625 27.640625 6.0625 
Q 34.1875 6.0625 38.53125 11.03125 
Q 42.875 16.015625 42.875 26.21875 
Q 42.875 35.84375 38.5 40.796875 
Q 34.125 45.75 27.640625 45.75 
Q 21.046875 45.75 16.703125 40.8125 
Q 12.359375 35.890625 12.359375 25.921875 
z
" id="ArialMT-111"/>
      <path d="M 6.390625 0 
L 6.390625 71.578125 
L 15.1875 71.578125 
L 15.1875 0 
z
" id="ArialMT-108"/>
      <path d="M -1.515625 -19.875 
L -1.515625 -13.53125 
L 56.734375 -13.53125 
L 56.734375 -19.875 
z
" id="ArialMT-95"/>
      <path d="M 14.703125 0 
L 6.546875 0 
L 6.546875 71.578125 
L 15.328125 71.578125 
L 15.328125 46.046875 
Q 20.90625 53.03125 29.546875 53.03125 
Q 34.328125 53.03125 38.59375 51.09375 
Q 42.875 49.171875 45.625 45.671875 
Q 48.390625 42.1875 49.953125 37.25 
Q 51.515625 32.328125 51.515625 26.703125 
Q 51.515625 13.375 44.921875 6.09375 
Q 38.328125 -1.171875 29.109375 -1.171875 
Q 19.921875 -1.171875 14.703125 6.5 
z
M 14.59375 26.3125 
Q 14.59375 17 17.140625 12.84375 
Q 21.296875 6.0625 28.375 6.0625 
Q 34.125 6.0625 38.328125 11.0625 
Q 42.53125 16.0625 42.53125 25.984375 
Q 42.53125 36.140625 38.5 40.96875 
Q 34.46875 45.796875 28.765625 45.796875 
Q 23 45.796875 18.796875 40.796875 
Q 14.59375 35.796875 14.59375 26.3125 
z
" id="ArialMT-98"/>
     </defs>
     <g style="fill:#262626;" transform="translate(-23.533375 47.14375)rotate(-90)scale(0.1 -0.1)">
      <use xlink:href="#ArialMT-116"/>
      <use x="27.783203" xlink:href="#ArialMT-111"/>
      <use x="83.398438" xlink:href="#ArialMT-116"/>
      <use x="111.181641" xlink:href="#ArialMT-97"/>
      <use x="166.796875" xlink:href="#ArialMT-108"/>
      <use x="189.013672" xlink:href="#ArialMT-95"/>
      <use x="244.628906" xlink:href="#ArialMT-98"/>
      <use x="300.244141" xlink:href="#ArialMT-105"/>
      <use x="322.460938" xlink:href="#ArialMT-108"/>
      <use x="344.677734" xlink:href="#ArialMT-108"/>
     </g>
    </g>
   </g>
   <g id="PolyCollection_1">
    <defs>
     <path d="M 7.747157 -7.434941 
L 7.516843 -7.434941 
L 7.472336 -7.839848 
L 7.414435 -8.244754 
L 7.340547 -8.649661 
L 7.248033 -9.054567 
L 7.134357 -9.459474 
L 6.997245 -9.86438 
L 6.834868 -10.269287 
L 6.646017 -10.674194 
L 6.430266 -11.0791 
L 6.188107 -11.484007 
L 5.921032 -11.888913 
L 5.631577 -12.29382 
L 5.323294 -12.698726 
L 5.000672 -13.103633 
L 4.668994 -13.50854 
L 4.334143 -13.913446 
L 4.002365 -14.318353 
L 3.680009 -14.723259 
L 3.37325 -15.128166 
L 3.087825 -15.533072 
L 2.828799 -15.937979 
L 2.600383 -16.342886 
L 2.405816 -16.747792 
L 2.247326 -17.152699 
L 2.126169 -17.557605 
L 2.042735 -17.962512 
L 1.9967 -18.367419 
L 1.9872 -18.772325 
L 2.012995 -19.177232 
L 2.072594 -19.582138 
L 2.164332 -19.987045 
L 2.286374 -20.391951 
L 2.436672 -20.796858 
L 2.612878 -21.201765 
L 2.812253 -21.606671 
L 3.031584 -22.011578 
L 3.267158 -22.416484 
L 3.514794 -22.821391 
L 3.769943 -23.226297 
L 4.027858 -23.631204 
L 4.283806 -24.036111 
L 4.533308 -24.441017 
L 4.772362 -24.845924 
L 4.997646 -25.25083 
L 5.206654 -25.655737 
L 5.397774 -26.060643 
L 5.570286 -26.46555 
L 5.724295 -26.870457 
L 5.860607 -27.275363 
L 5.980564 -27.68027 
L 6.085865 -28.085176 
L 6.178376 -28.490083 
L 6.259967 -28.89499 
L 6.332383 -29.299896 
L 6.397155 -29.704803 
L 6.455561 -30.109709 
L 6.508633 -30.514616 
L 6.557198 -30.919522 
L 6.60195 -31.324429 
L 6.643516 -31.729336 
L 6.682524 -32.134242 
L 6.719633 -32.539149 
L 6.755539 -32.944055 
L 6.790934 -33.348962 
L 6.826448 -33.753868 
L 6.862563 -34.158775 
L 6.899529 -34.563682 
L 6.937308 -34.968588 
L 6.975541 -35.373495 
L 7.013573 -35.778401 
L 7.050516 -36.183308 
L 7.085361 -36.588214 
L 7.117112 -36.993121 
L 7.144928 -37.398028 
L 7.168254 -37.802934 
L 7.186915 -38.207841 
L 7.201162 -38.612747 
L 7.21166 -39.017654 
L 7.219429 -39.422561 
L 7.225732 -39.827467 
L 7.231937 -40.232374 
L 7.239368 -40.63728 
L 7.249164 -41.042187 
L 7.262172 -41.447093 
L 7.278868 -41.852 
L 7.299332 -42.256907 
L 7.32327 -42.661813 
L 7.350065 -43.06672 
L 7.378869 -43.471626 
L 7.408703 -43.876533 
L 7.438561 -44.281439 
L 7.467499 -44.686346 
L 7.494712 -45.091253 
L 7.519582 -45.496159 
L 7.541697 -45.901066 
L 7.56085 -46.305972 
L 7.577021 -46.710879 
L 7.590338 -47.115785 
L 7.601044 -47.520692 
L 7.662956 -47.520692 
L 7.662956 -47.520692 
L 7.673662 -47.115785 
L 7.686979 -46.710879 
L 7.70315 -46.305972 
L 7.722303 -45.901066 
L 7.744418 -45.496159 
L 7.769288 -45.091253 
L 7.796501 -44.686346 
L 7.825439 -44.281439 
L 7.855297 -43.876533 
L 7.885131 -43.471626 
L 7.913935 -43.06672 
L 7.94073 -42.661813 
L 7.964668 -42.256907 
L 7.985132 -41.852 
L 8.001828 -41.447093 
L 8.014836 -41.042187 
L 8.024632 -40.63728 
L 8.032063 -40.232374 
L 8.038268 -39.827467 
L 8.044571 -39.422561 
L 8.05234 -39.017654 
L 8.062838 -38.612747 
L 8.077085 -38.207841 
L 8.095746 -37.802934 
L 8.119072 -37.398028 
L 8.146888 -36.993121 
L 8.178639 -36.588214 
L 8.213484 -36.183308 
L 8.250427 -35.778401 
L 8.288459 -35.373495 
L 8.326692 -34.968588 
L 8.364471 -34.563682 
L 8.401437 -34.158775 
L 8.437552 -33.753868 
L 8.473066 -33.348962 
L 8.508461 -32.944055 
L 8.544367 -32.539149 
L 8.581476 -32.134242 
L 8.620484 -31.729336 
L 8.66205 -31.324429 
L 8.706802 -30.919522 
L 8.755367 -30.514616 
L 8.808439 -30.109709 
L 8.866845 -29.704803 
L 8.931617 -29.299896 
L 9.004033 -28.89499 
L 9.085624 -28.490083 
L 9.178135 -28.085176 
L 9.283436 -27.68027 
L 9.403393 -27.275363 
L 9.539705 -26.870457 
L 9.693714 -26.46555 
L 9.866226 -26.060643 
L 10.057346 -25.655737 
L 10.266354 -25.25083 
L 10.491638 -24.845924 
L 10.730692 -24.441017 
L 10.980194 -24.036111 
L 11.236142 -23.631204 
L 11.494057 -23.226297 
L 11.749206 -22.821391 
L 11.996842 -22.416484 
L 12.232416 -22.011578 
L 12.451747 -21.606671 
L 12.651122 -21.201765 
L 12.827328 -20.796858 
L 12.977626 -20.391951 
L 13.099668 -19.987045 
L 13.191406 -19.582138 
L 13.251005 -19.177232 
L 13.2768 -18.772325 
L 13.2673 -18.367419 
L 13.221265 -17.962512 
L 13.137831 -17.557605 
L 13.016674 -17.152699 
L 12.858184 -16.747792 
L 12.663617 -16.342886 
L 12.435201 -15.937979 
L 12.176175 -15.533072 
L 11.89075 -15.128166 
L 11.583991 -14.723259 
L 11.261635 -14.318353 
L 10.929857 -13.913446 
L 10.595006 -13.50854 
L 10.263328 -13.103633 
L 9.940706 -12.698726 
L 9.632423 -12.29382 
L 9.342968 -11.888913 
L 9.075893 -11.484007 
L 8.833734 -11.0791 
L 8.617983 -10.674194 
L 8.429132 -10.269287 
L 8.266755 -9.86438 
L 8.129643 -9.459474 
L 8.015967 -9.054567 
L 7.923453 -8.649661 
L 7.849565 -8.244754 
L 7.791664 -7.839848 
L 7.747157 -7.434941 
z
" id="m1c50740945" style="stroke:#3d3d3d;stroke-width:1.5;"/>
    </defs>
    <g clip-path="url(#p473f7e9b42)">
     <use style="fill:#3274a1;stroke:#3d3d3d;stroke-width:1.5;" x="0" xlink:href="#m1c50740945" y="57.6"/>
    </g>
   </g>
   <g id="PolyCollection_2">
    <defs>
     <path d="M 21.830936 -4.136796 
L 21.657064 -4.136796 
L 21.631244 -4.569823 
L 21.599249 -5.002849 
L 21.560032 -5.435875 
L 21.512468 -5.868902 
L 21.455378 -6.301928 
L 21.387543 -6.734954 
L 21.307741 -7.167981 
L 21.214773 -7.601007 
L 21.107506 -8.034033 
L 20.98492 -8.46706 
L 20.846156 -8.900086 
L 20.69058 -9.333112 
L 20.51784 -9.766139 
L 20.327939 -10.199165 
L 20.121297 -10.632192 
L 19.898818 -11.065218 
L 19.661947 -11.498244 
L 19.412712 -11.931271 
L 19.15375 -12.364297 
L 18.888301 -12.797323 
L 18.620178 -13.23035 
L 18.353696 -13.663376 
L 18.093562 -14.096402 
L 17.844739 -14.529429 
L 17.612262 -14.962455 
L 17.401045 -15.395482 
L 17.215665 -15.828508 
L 17.060147 -16.261534 
L 16.937766 -16.694561 
L 16.850879 -17.127587 
L 16.800792 -17.560613 
L 16.787694 -17.99364 
L 16.810637 -18.426666 
L 16.867594 -18.859692 
L 16.95557 -19.292719 
L 17.070765 -19.725745 
L 17.208788 -20.158772 
L 17.364886 -20.591798 
L 17.534194 -21.024824 
L 17.711966 -21.457851 
L 17.893789 -21.890877 
L 18.075756 -22.323903 
L 18.254596 -22.75693 
L 18.427745 -23.189956 
L 18.593375 -23.622982 
L 18.750369 -24.056009 
L 18.898261 -24.489035 
L 19.037142 -24.922061 
L 19.167551 -25.355088 
L 19.290361 -25.788114 
L 19.406655 -26.221141 
L 19.517624 -26.654167 
L 19.624464 -27.087193 
L 19.728299 -27.52022 
L 19.830114 -27.953246 
L 19.9307 -28.386272 
L 20.030622 -28.819299 
L 20.130195 -29.252325 
L 20.229467 -29.685351 
L 20.328225 -30.118378 
L 20.426008 -30.551404 
L 20.52213 -30.984431 
L 20.615726 -31.417457 
L 20.705796 -31.850483 
L 20.791274 -32.28351 
L 20.871092 -32.716536 
L 20.944259 -33.149562 
L 21.009929 -33.582589 
L 21.067467 -34.015615 
L 21.116505 -34.448641 
L 21.156977 -34.881668 
L 21.189141 -35.314694 
L 21.21357 -35.747721 
L 21.231134 -36.180747 
L 21.24295 -36.613773 
L 21.250321 -37.0468 
L 21.254662 -37.479826 
L 21.25742 -37.912852 
L 21.259986 -38.345879 
L 21.263628 -38.778905 
L 21.269415 -39.211931 
L 21.278175 -39.644958 
L 21.290457 -40.077984 
L 21.306525 -40.51101 
L 21.326359 -40.944037 
L 21.349691 -41.377063 
L 21.376038 -41.81009 
L 21.404756 -42.243116 
L 21.435098 -42.676142 
L 21.466272 -43.109169 
L 21.497494 -43.542195 
L 21.528034 -43.975221 
L 21.557255 -44.408248 
L 21.58464 -44.841274 
L 21.609799 -45.2743 
L 21.632478 -45.707327 
L 21.652552 -46.140353 
L 21.670007 -46.57338 
L 21.684926 -47.006406 
L 21.803074 -47.006406 
L 21.803074 -47.006406 
L 21.817993 -46.57338 
L 21.835448 -46.140353 
L 21.855522 -45.707327 
L 21.878201 -45.2743 
L 21.90336 -44.841274 
L 21.930745 -44.408248 
L 21.959966 -43.975221 
L 21.990506 -43.542195 
L 22.021728 -43.109169 
L 22.052902 -42.676142 
L 22.083244 -42.243116 
L 22.111962 -41.81009 
L 22.138309 -41.377063 
L 22.161641 -40.944037 
L 22.181475 -40.51101 
L 22.197543 -40.077984 
L 22.209825 -39.644958 
L 22.218585 -39.211931 
L 22.224372 -38.778905 
L 22.228014 -38.345879 
L 22.23058 -37.912852 
L 22.233338 -37.479826 
L 22.237679 -37.0468 
L 22.24505 -36.613773 
L 22.256866 -36.180747 
L 22.27443 -35.747721 
L 22.298859 -35.314694 
L 22.331023 -34.881668 
L 22.371495 -34.448641 
L 22.420533 -34.015615 
L 22.478071 -33.582589 
L 22.543741 -33.149562 
L 22.616908 -32.716536 
L 22.696726 -32.28351 
L 22.782204 -31.850483 
L 22.872274 -31.417457 
L 22.96587 -30.984431 
L 23.061992 -30.551404 
L 23.159775 -30.118378 
L 23.258533 -29.685351 
L 23.357805 -29.252325 
L 23.457378 -28.819299 
L 23.5573 -28.386272 
L 23.657886 -27.953246 
L 23.759701 -27.52022 
L 23.863536 -27.087193 
L 23.970376 -26.654167 
L 24.081345 -26.221141 
L 24.197639 -25.788114 
L 24.320449 -25.355088 
L 24.450858 -24.922061 
L 24.589739 -24.489035 
L 24.737631 -24.056009 
L 24.894625 -23.622982 
L 25.060255 -23.189956 
L 25.233404 -22.75693 
L 25.412244 -22.323903 
L 25.594211 -21.890877 
L 25.776034 -21.457851 
L 25.953806 -21.024824 
L 26.123114 -20.591798 
L 26.279212 -20.158772 
L 26.417235 -19.725745 
L 26.53243 -19.292719 
L 26.620406 -18.859692 
L 26.677363 -18.426666 
L 26.700306 -17.99364 
L 26.687208 -17.560613 
L 26.637121 -17.127587 
L 26.550234 -16.694561 
L 26.427853 -16.261534 
L 26.272335 -15.828508 
L 26.086955 -15.395482 
L 25.875738 -14.962455 
L 25.643261 -14.529429 
L 25.394438 -14.096402 
L 25.134304 -13.663376 
L 24.867822 -13.23035 
L 24.599699 -12.797323 
L 24.33425 -12.364297 
L 24.075288 -11.931271 
L 23.826053 -11.498244 
L 23.589182 -11.065218 
L 23.366703 -10.632192 
L 23.160061 -10.199165 
L 22.97016 -9.766139 
L 22.79742 -9.333112 
L 22.641844 -8.900086 
L 22.50308 -8.46706 
L 22.380494 -8.034033 
L 22.273227 -7.601007 
L 22.180259 -7.167981 
L 22.100457 -6.734954 
L 22.032622 -6.301928 
L 21.975532 -5.868902 
L 21.927968 -5.435875 
L 21.888751 -5.002849 
L 21.856756 -4.569823 
L 21.830936 -4.136796 
z
" id="m1d46ad61c3" style="stroke:#3d3d3d;stroke-width:1.5;"/>
    </defs>
    <g clip-path="url(#p473f7e9b42)">
     <use style="fill:#e1812c;stroke:#3d3d3d;stroke-width:1.5;" x="0" xlink:href="#m1d46ad61c3" y="57.6"/>
    </g>
   </g>
   <g id="PolyCollection_3">
    <defs>
     <path d="M 35.873509 -3.141818 
L 35.838491 -3.141818 
L 35.831249 -3.660165 
L 35.821709 -4.178512 
L 35.809371 -4.69686 
L 35.793659 -5.215207 
L 35.773896 -5.733554 
L 35.749261 -6.251901 
L 35.718731 -6.770248 
L 35.681017 -7.288595 
L 35.634503 -7.806942 
L 35.577204 -8.325289 
L 35.506766 -8.843636 
L 35.420523 -9.361983 
L 35.315635 -9.880331 
L 35.189295 -10.398678 
L 35.03901 -10.917025 
L 34.862925 -11.435372 
L 34.660152 -11.953719 
L 34.431054 -12.472066 
L 34.177448 -12.990413 
L 33.902667 -13.50876 
L 33.611486 -14.027107 
L 33.309891 -14.545455 
L 33.004726 -15.063802 
L 32.703264 -15.582149 
L 32.412765 -16.100496 
L 32.140066 -16.618843 
L 31.891266 -17.13719 
L 31.671521 -17.655537 
L 31.484957 -18.173884 
L 31.334671 -18.692231 
L 31.222789 -19.210579 
L 31.150539 -19.728926 
L 31.118292 -20.247273 
L 31.125566 -20.76562 
L 31.170988 -21.283967 
L 31.252245 -21.802314 
L 31.366047 -22.320661 
L 31.508167 -22.839008 
L 31.673566 -23.357355 
L 31.856641 -23.875702 
L 32.051564 -24.39405 
L 32.252682 -24.912397 
L 32.454932 -25.430744 
L 32.654191 -25.949091 
L 32.847511 -26.467438 
L 33.033201 -26.985785 
L 33.21074 -27.504132 
L 33.380544 -28.022479 
L 33.543622 -28.540826 
L 33.701199 -29.059174 
L 33.854342 -29.577521 
L 34.003679 -30.095868 
L 34.149216 -30.614215 
L 34.290299 -31.132562 
L 34.425692 -31.650909 
L 34.553765 -32.169256 
L 34.672745 -32.687603 
L 34.780989 -33.20595 
L 34.877247 -33.724298 
L 34.960859 -34.242645 
L 35.031871 -34.760992 
L 35.091055 -35.279339 
L 35.13982 -35.797686 
L 35.180041 -36.316033 
L 35.213818 -36.83438 
L 35.243214 -37.352727 
L 35.27001 -37.871074 
L 35.295509 -38.389421 
L 35.320422 -38.907769 
L 35.344856 -39.426116 
L 35.368395 -39.944463 
L 35.390262 -40.46281 
L 35.409525 -40.981157 
L 35.425322 -41.499504 
L 35.437062 -42.017851 
L 35.444572 -42.536198 
L 35.448175 -43.054545 
L 35.448688 -43.572893 
L 35.447348 -44.09124 
L 35.445674 -44.609587 
L 35.4453 -45.127934 
L 35.447778 -45.646281 
L 35.454406 -46.164628 
L 35.466082 -46.682975 
L 35.483214 -47.201322 
L 35.505685 -47.719669 
L 35.532889 -48.238017 
L 35.563817 -48.756364 
L 35.597185 -49.274711 
L 35.631583 -49.793058 
L 35.665624 -50.311405 
L 35.698071 -50.829752 
L 35.72793 -51.348099 
L 35.754509 -51.866446 
L 35.777426 -52.384793 
L 35.796584 -52.90314 
L 35.812127 -53.421488 
L 35.824372 -53.939835 
L 35.833744 -54.458182 
L 35.878256 -54.458182 
L 35.878256 -54.458182 
L 35.887628 -53.939835 
L 35.899873 -53.421488 
L 35.915416 -52.90314 
L 35.934574 -52.384793 
L 35.957491 -51.866446 
L 35.98407 -51.348099 
L 36.013929 -50.829752 
L 36.046376 -50.311405 
L 36.080417 -49.793058 
L 36.114815 -49.274711 
L 36.148183 -48.756364 
L 36.179111 -48.238017 
L 36.206315 -47.719669 
L 36.228786 -47.201322 
L 36.245918 -46.682975 
L 36.257594 -46.164628 
L 36.264222 -45.646281 
L 36.2667 -45.127934 
L 36.266326 -44.609587 
L 36.264652 -44.09124 
L 36.263312 -43.572893 
L 36.263825 -43.054545 
L 36.267428 -42.536198 
L 36.274938 -42.017851 
L 36.286678 -41.499504 
L 36.302475 -40.981157 
L 36.321738 -40.46281 
L 36.343605 -39.944463 
L 36.367144 -39.426116 
L 36.391578 -38.907769 
L 36.416491 -38.389421 
L 36.44199 -37.871074 
L 36.468786 -37.352727 
L 36.498182 -36.83438 
L 36.531959 -36.316033 
L 36.57218 -35.797686 
L 36.620945 -35.279339 
L 36.680129 -34.760992 
L 36.751141 -34.242645 
L 36.834753 -33.724298 
L 36.931011 -33.20595 
L 37.039255 -32.687603 
L 37.158235 -32.169256 
L 37.286308 -31.650909 
L 37.421701 -31.132562 
L 37.562784 -30.614215 
L 37.708321 -30.095868 
L 37.857658 -29.577521 
L 38.010801 -29.059174 
L 38.168378 -28.540826 
L 38.331456 -28.022479 
L 38.50126 -27.504132 
L 38.678799 -26.985785 
L 38.864489 -26.467438 
L 39.057809 -25.949091 
L 39.257068 -25.430744 
L 39.459318 -24.912397 
L 39.660436 -24.39405 
L 39.855359 -23.875702 
L 40.038434 -23.357355 
L 40.203833 -22.839008 
L 40.345953 -22.320661 
L 40.459755 -21.802314 
L 40.541012 -21.283967 
L 40.586434 -20.76562 
L 40.593708 -20.247273 
L 40.561461 -19.728926 
L 40.489211 -19.210579 
L 40.377329 -18.692231 
L 40.227043 -18.173884 
L 40.040479 -17.655537 
L 39.820734 -17.13719 
L 39.571934 -16.618843 
L 39.299235 -16.100496 
L 39.008736 -15.582149 
L 38.707274 -15.063802 
L 38.402109 -14.545455 
L 38.100514 -14.027107 
L 37.809333 -13.50876 
L 37.534552 -12.990413 
L 37.280946 -12.472066 
L 37.051848 -11.953719 
L 36.849075 -11.435372 
L 36.67299 -10.917025 
L 36.522705 -10.398678 
L 36.396365 -9.880331 
L 36.291477 -9.361983 
L 36.205234 -8.843636 
L 36.134796 -8.325289 
L 36.077497 -7.806942 
L 36.030983 -7.288595 
L 35.993269 -6.770248 
L 35.962739 -6.251901 
L 35.938104 -5.733554 
L 35.918341 -5.215207 
L 35.902629 -4.69686 
L 35.890291 -4.178512 
L 35.880751 -3.660165 
L 35.873509 -3.141818 
z
" id="m5e29486ef8" style="stroke:#3d3d3d;stroke-width:1.5;"/>
    </defs>
    <g clip-path="url(#p473f7e9b42)">
     <use style="fill:#3a923a;stroke:#3d3d3d;stroke-width:1.5;" x="0" xlink:href="#m5e29486ef8" y="57.6"/>
    </g>
   </g>
   <g id="PolyCollection_4">
    <defs>
     <path d="M 50.016999 -6.802246 
L 49.919001 -6.802246 
L 49.89769 -7.259263 
L 49.869007 -7.71628 
L 49.831214 -8.173297 
L 49.782467 -8.630314 
L 49.720903 -9.087331 
L 49.644768 -9.544348 
L 49.552549 -10.001365 
L 49.443111 -10.458382 
L 49.315818 -10.915399 
L 49.170621 -11.372417 
L 49.008091 -11.829434 
L 48.829399 -12.286451 
L 48.636238 -12.743468 
L 48.430701 -13.200485 
L 48.215135 -13.657502 
L 47.991999 -14.114519 
L 47.763761 -14.571536 
L 47.532842 -15.028553 
L 47.30163 -15.48557 
L 47.072551 -15.942587 
L 46.84817 -16.399604 
L 46.6313 -16.856621 
L 46.425065 -17.313638 
L 46.232891 -17.770655 
L 46.0584 -18.227672 
L 45.905209 -18.684689 
L 45.776652 -19.141706 
L 45.67546 -19.598723 
L 45.603474 -20.05574 
L 45.561419 -20.512757 
L 45.548799 -20.969774 
L 45.563946 -21.426791 
L 45.604203 -21.883809 
L 45.666233 -22.340826 
L 45.746388 -22.797843 
L 45.841085 -23.25486 
L 45.947126 -23.711877 
L 46.061904 -24.168894 
L 46.183463 -24.625911 
L 46.310433 -25.082928 
L 46.441832 -25.539945 
L 46.576822 -25.996962 
L 46.714448 -26.453979 
L 46.853441 -26.910996 
L 46.992126 -27.368013 
L 47.12845 -27.82503 
L 47.260137 -28.282047 
L 47.384938 -28.739064 
L 47.500923 -29.196081 
L 47.606763 -29.653098 
L 47.701939 -30.110115 
L 47.786862 -30.567132 
L 47.862845 -31.024149 
L 47.931968 -31.481166 
L 47.996839 -31.938183 
L 48.06029 -32.395201 
L 48.125062 -32.852218 
L 48.193512 -33.309235 
L 48.267387 -33.766252 
L 48.347675 -34.223269 
L 48.434557 -34.680286 
L 48.527444 -35.137303 
L 48.625088 -35.59432 
L 48.72575 -36.051337 
L 48.827389 -36.508354 
L 48.927857 -36.965371 
L 49.025081 -37.422388 
L 49.117203 -37.879405 
L 49.20269 -38.336422 
L 49.28039 -38.793439 
L 49.349559 -39.250456 
L 49.409849 -39.707473 
L 49.461285 -40.16449 
L 49.504221 -40.621507 
L 49.539295 -41.078524 
L 49.567379 -41.535541 
L 49.589535 -41.992558 
L 49.606954 -42.449575 
L 49.620907 -42.906593 
L 49.632674 -43.36361 
L 49.643481 -43.820627 
L 49.654426 -44.277644 
L 49.666421 -44.734661 
L 49.680132 -45.191678 
L 49.695952 -45.648695 
L 49.713987 -46.105712 
L 49.734077 -46.562729 
L 49.755829 -47.019746 
L 49.778681 -47.476763 
L 49.801966 -47.93378 
L 49.824992 -48.390797 
L 49.847104 -48.847814 
L 49.867739 -49.304831 
L 49.886469 -49.761848 
L 49.903012 -50.218865 
L 49.91724 -50.675882 
L 49.929161 -51.132899 
L 49.938895 -51.589916 
L 49.946644 -52.046933 
L 49.989356 -52.046933 
L 49.989356 -52.046933 
L 49.997105 -51.589916 
L 50.006839 -51.132899 
L 50.01876 -50.675882 
L 50.032988 -50.218865 
L 50.049531 -49.761848 
L 50.068261 -49.304831 
L 50.088896 -48.847814 
L 50.111008 -48.390797 
L 50.134034 -47.93378 
L 50.157319 -47.476763 
L 50.180171 -47.019746 
L 50.201923 -46.562729 
L 50.222013 -46.105712 
L 50.240048 -45.648695 
L 50.255868 -45.191678 
L 50.269579 -44.734661 
L 50.281574 -44.277644 
L 50.292519 -43.820627 
L 50.303326 -43.36361 
L 50.315093 -42.906593 
L 50.329046 -42.449575 
L 50.346465 -41.992558 
L 50.368621 -41.535541 
L 50.396705 -41.078524 
L 50.431779 -40.621507 
L 50.474715 -40.16449 
L 50.526151 -39.707473 
L 50.586441 -39.250456 
L 50.65561 -38.793439 
L 50.73331 -38.336422 
L 50.818797 -37.879405 
L 50.910919 -37.422388 
L 51.008143 -36.965371 
L 51.108611 -36.508354 
L 51.21025 -36.051337 
L 51.310912 -35.59432 
L 51.408556 -35.137303 
L 51.501443 -34.680286 
L 51.588325 -34.223269 
L 51.668613 -33.766252 
L 51.742488 -33.309235 
L 51.810938 -32.852218 
L 51.87571 -32.395201 
L 51.939161 -31.938183 
L 52.004032 -31.481166 
L 52.073155 -31.024149 
L 52.149138 -30.567132 
L 52.234061 -30.110115 
L 52.329237 -29.653098 
L 52.435077 -29.196081 
L 52.551062 -28.739064 
L 52.675863 -28.282047 
L 52.80755 -27.82503 
L 52.943874 -27.368013 
L 53.082559 -26.910996 
L 53.221552 -26.453979 
L 53.359178 -25.996962 
L 53.494168 -25.539945 
L 53.625567 -25.082928 
L 53.752537 -24.625911 
L 53.874096 -24.168894 
L 53.988874 -23.711877 
L 54.094915 -23.25486 
L 54.189612 -22.797843 
L 54.269767 -22.340826 
L 54.331797 -21.883809 
L 54.372054 -21.426791 
L 54.387201 -20.969774 
L 54.374581 -20.512757 
L 54.332526 -20.05574 
L 54.26054 -19.598723 
L 54.159348 -19.141706 
L 54.030791 -18.684689 
L 53.8776 -18.227672 
L 53.703109 -17.770655 
L 53.510935 -17.313638 
L 53.3047 -16.856621 
L 53.08783 -16.399604 
L 52.863449 -15.942587 
L 52.63437 -15.48557 
L 52.403158 -15.028553 
L 52.172239 -14.571536 
L 51.944001 -14.114519 
L 51.720865 -13.657502 
L 51.505299 -13.200485 
L 51.299762 -12.743468 
L 51.106601 -12.286451 
L 50.927909 -11.829434 
L 50.765379 -11.372417 
L 50.620182 -10.915399 
L 50.492889 -10.458382 
L 50.383451 -10.001365 
L 50.291232 -9.544348 
L 50.215097 -9.087331 
L 50.153533 -8.630314 
L 50.104786 -8.173297 
L 50.066993 -7.71628 
L 50.03831 -7.259263 
L 50.016999 -6.802246 
z
" id="m7bea34dd06" style="stroke:#3d3d3d;stroke-width:1.5;"/>
    </defs>
    <g clip-path="url(#p473f7e9b42)">
     <use style="fill:#c03d3e;stroke:#3d3d3d;stroke-width:1.5;" x="0" xlink:href="#m7bea34dd06" y="57.6"/>
    </g>
   </g>
   <g id="line2d_3">
    <path clip-path="url(#p473f7e9b42)" d="M 7.632 44.560752 
L 7.632 26.480095 
" style="fill:none;stroke:#3d3d3d;stroke-linecap:round;stroke-width:1.5;"/>
   </g>
   <g id="line2d_4">
    <path clip-path="url(#p473f7e9b42)" d="M 7.632 40.559727 
L 7.632 34.30369 
" style="fill:none;stroke:#3d3d3d;stroke-linecap:round;stroke-width:4.5;"/>
   </g>
   <g id="line2d_5">
    <path clip-path="url(#p473f7e9b42)" d="M 21.744 45.988385 
L 21.744 27.153354 
" style="fill:none;stroke:#3d3d3d;stroke-linecap:round;stroke-width:1.5;"/>
   </g>
   <g id="line2d_6">
    <path clip-path="url(#p473f7e9b42)" d="M 21.744 40.841604 
L 21.744 33.009897 
" style="fill:none;stroke:#3d3d3d;stroke-linecap:round;stroke-width:4.5;"/>
   </g>
   <g id="line2d_7">
    <path clip-path="url(#p473f7e9b42)" d="M 35.856 48.162282 
L 35.856 18.676779 
" style="fill:none;stroke:#3d3d3d;stroke-linecap:round;stroke-width:1.5;"/>
   </g>
   <g id="line2d_8">
    <path clip-path="url(#p473f7e9b42)" d="M 35.856 39.373412 
L 35.856 30.584542 
" style="fill:none;stroke:#3d3d3d;stroke-linecap:round;stroke-width:4.5;"/>
   </g>
   <g id="line2d_9">
    <path clip-path="url(#p473f7e9b42)" d="M 49.968 44.771652 
L 49.968 17.760173 
" style="fill:none;stroke:#3d3d3d;stroke-linecap:round;stroke-width:1.5;"/>
   </g>
   <g id="line2d_10">
    <path clip-path="url(#p473f7e9b42)" d="M 49.968 38.495336 
L 49.968 29.888976 
" style="fill:none;stroke:#3d3d3d;stroke-linecap:round;stroke-width:4.5;"/>
   </g>
   <g id="patch_3">
    <path d="M 0.576 57.024 
L 0.576 0.576 
" style="fill:none;stroke:#cccccc;stroke-linecap:square;stroke-linejoin:miter;stroke-width:0.8;"/>
   </g>
   <g id="patch_4">
    <path d="M 57.024 57.024 
L 57.024 0.576 
" style="fill:none;stroke:#cccccc;stroke-linecap:square;stroke-linejoin:miter;stroke-width:0.8;"/>
   </g>
   <g id="patch_5">
    <path d="M 0.576 57.024 
L 57.024 57.024 
" style="fill:none;stroke:#cccccc;stroke-linecap:square;stroke-linejoin:miter;stroke-width:0.8;"/>
   </g>
   <g id="patch_6">
    <path d="M 0.576 0.576 
L 57.024 0.576 
" style="fill:none;stroke:#cccccc;stroke-linecap:square;stroke-linejoin:miter;stroke-width:0.8;"/>
   </g>
   <g id="PathCollection_1">
    <defs>
     <path d="M 0 1.5 
C 0.397805 1.5 0.77937 1.341951 1.06066 1.06066 
C 1.341951 0.77937 1.5 0.397805 1.5 0 
C 1.5 -0.397805 1.341951 -0.77937 1.06066 -1.06066 
C 0.77937 -1.341951 0.397805 -1.5 0 -1.5 
C -0.397805 -1.5 -0.77937 -1.341951 -1.06066 -1.06066 
C -1.341951 -0.77937 -1.5 -0.397805 -1.5 0 
C -1.5 0.397805 -1.341951 0.77937 -1.06066 1.06066 
C -0.77937 1.341951 -0.397805 1.5 0 1.5 
z
" id="m585610dee3" style="stroke:#3d3d3d;"/>
    </defs>
    <g clip-path="url(#p473f7e9b42)">
     <use style="fill:#ffffff;stroke:#3d3d3d;" x="7.632" xlink:href="#m585610dee3" y="37.51181"/>
    </g>
   </g>
   <g id="PathCollection_2">
    <g clip-path="url(#p473f7e9b42)">
     <use style="fill:#ffffff;stroke:#3d3d3d;" x="21.744" xlink:href="#m585610dee3" y="38.176958"/>
    </g>
   </g>
   <g id="PathCollection_3">
    <g clip-path="url(#p473f7e9b42)">
     <use style="fill:#ffffff;stroke:#3d3d3d;" x="35.856" xlink:href="#m585610dee3" y="35.857053"/>
    </g>
   </g>
   <g id="PathCollection_4">
    <g clip-path="url(#p473f7e9b42)">
     <use style="fill:#ffffff;stroke:#3d3d3d;" x="49.968" xlink:href="#m585610dee3" y="34.729547"/>
    </g>
   </g>
  </g>
 </g>
 <defs>
  <clipPath id="p473f7e9b42">
   <rect height="56.448" width="56.448" x="0.576" y="0.576"/>
  </clipPath>
 </defs>
</svg>
