<?xml version="1.0" encoding="utf-8" standalone="no"?>
<!DOCTYPE svg PUBLIC "-//W3C//DTD SVG 1.1//EN"
  "http://www.w3.org/Graphics/SVG/1.1/DTD/svg11.dtd">
<!-- Created with matplotlib (https://matplotlib.org/) -->
<svg height="360pt" version="1.1" viewBox="0 0 424.352 360" width="424.352pt" xmlns="http://www.w3.org/2000/svg" xmlns:xlink="http://www.w3.org/1999/xlink">
 <defs>
  <style type="text/css">
*{stroke-linecap:butt;stroke-linejoin:round;}
  </style>
 </defs>
 <g id="figure_1">
  <g id="patch_1">
   <path d="M 0 360 
L 424.352 360 
L 424.352 0 
L 0 0 
z
" style="fill:#ffffff;"/>
  </g>
  <g id="axes_1">
   <g id="patch_2">
    <path d="M 62.421973 308.825425 
L 355.75648 308.825425 
L 355.75648 14.5152 
L 62.421973 14.5152 
z
" style="fill:#ffffff;"/>
   </g>
   <g id="matplotlib.axis_1">
    <g id="xtick_1">
     <g id="line2d_1">
      <path clip-path="url(#p5fceb3a24c)" d="M 105.002788 308.825425 
L 105.002788 14.5152 
" style="fill:none;stroke:#cccccc;stroke-linecap:round;stroke-width:0.8;"/>
     </g>
     <g id="text_1">
      <!-- 10 -->
      <defs>
       <path d="M 37.25 0 
L 28.46875 0 
L 28.46875 56 
Q 25.296875 52.984375 20.140625 49.953125 
Q 14.984375 46.921875 10.890625 45.40625 
L 10.890625 53.90625 
Q 18.265625 57.375 23.78125 62.296875 
Q 29.296875 67.234375 31.59375 71.875 
L 37.25 71.875 
z
" id="ArialMT-49"/>
       <path d="M 4.15625 35.296875 
Q 4.15625 48 6.765625 55.734375 
Q 9.375 63.484375 14.515625 67.671875 
Q 19.671875 71.875 27.484375 71.875 
Q 33.25 71.875 37.59375 69.546875 
Q 41.9375 67.234375 44.765625 62.859375 
Q 47.609375 58.5 49.21875 52.21875 
Q 50.828125 45.953125 50.828125 35.296875 
Q 50.828125 22.703125 48.234375 14.96875 
Q 45.65625 7.234375 40.5 3 
Q 35.359375 -1.21875 27.484375 -1.21875 
Q 17.140625 -1.21875 11.234375 6.203125 
Q 4.15625 15.140625 4.15625 35.296875 
z
M 13.1875 35.296875 
Q 13.1875 17.671875 17.3125 11.828125 
Q 21.4375 6 27.484375 6 
Q 33.546875 6 37.671875 11.859375 
Q 41.796875 17.71875 41.796875 35.296875 
Q 41.796875 52.984375 37.671875 58.78125 
Q 33.546875 64.59375 27.390625 64.59375 
Q 21.34375 64.59375 17.71875 59.46875 
Q 13.1875 52.9375 13.1875 35.296875 
z
" id="ArialMT-48"/>
      </defs>
      <g style="fill:#262626;" transform="translate(98.151713 325.94385)scale(0.1232 -0.1232)">
       <use xlink:href="#ArialMT-49"/>
       <use x="55.615234" xlink:href="#ArialMT-48"/>
      </g>
     </g>
    </g>
    <g id="xtick_2">
     <g id="line2d_2">
      <path clip-path="url(#p5fceb3a24c)" d="M 166.446967 308.825425 
L 166.446967 14.5152 
" style="fill:none;stroke:#cccccc;stroke-linecap:round;stroke-width:0.8;"/>
     </g>
     <g id="text_2">
      <!-- 20 -->
      <defs>
       <path d="M 50.34375 8.453125 
L 50.34375 0 
L 3.03125 0 
Q 2.9375 3.171875 4.046875 6.109375 
Q 5.859375 10.9375 9.828125 15.625 
Q 13.8125 20.3125 21.34375 26.46875 
Q 33.015625 36.03125 37.109375 41.625 
Q 41.21875 47.21875 41.21875 52.203125 
Q 41.21875 57.421875 37.46875 61 
Q 33.734375 64.59375 27.734375 64.59375 
Q 21.390625 64.59375 17.578125 60.78125 
Q 13.765625 56.984375 13.71875 50.25 
L 4.6875 51.171875 
Q 5.609375 61.28125 11.65625 66.578125 
Q 17.71875 71.875 27.9375 71.875 
Q 38.234375 71.875 44.234375 66.15625 
Q 50.25 60.453125 50.25 52 
Q 50.25 47.703125 48.484375 43.546875 
Q 46.734375 39.40625 42.65625 34.8125 
Q 38.578125 30.21875 29.109375 22.21875 
Q 21.1875 15.578125 18.9375 13.203125 
Q 16.703125 10.84375 15.234375 8.453125 
z
" id="ArialMT-50"/>
      </defs>
      <g style="fill:#262626;" transform="translate(159.595892 325.94385)scale(0.1232 -0.1232)">
       <use xlink:href="#ArialMT-50"/>
       <use x="55.615234" xlink:href="#ArialMT-48"/>
      </g>
     </g>
    </g>
    <g id="xtick_3">
     <g id="line2d_3">
      <path clip-path="url(#p5fceb3a24c)" d="M 227.891145 308.825425 
L 227.891145 14.5152 
" style="fill:none;stroke:#cccccc;stroke-linecap:round;stroke-width:0.8;"/>
     </g>
     <g id="text_3">
      <!-- 30 -->
      <defs>
       <path d="M 4.203125 18.890625 
L 12.984375 20.0625 
Q 14.5 12.59375 18.140625 9.296875 
Q 21.78125 6 27 6 
Q 33.203125 6 37.46875 10.296875 
Q 41.75 14.59375 41.75 20.953125 
Q 41.75 27 37.796875 30.921875 
Q 33.84375 34.859375 27.734375 34.859375 
Q 25.25 34.859375 21.53125 33.890625 
L 22.515625 41.609375 
Q 23.390625 41.5 23.921875 41.5 
Q 29.546875 41.5 34.03125 44.421875 
Q 38.53125 47.359375 38.53125 53.46875 
Q 38.53125 58.296875 35.25 61.46875 
Q 31.984375 64.65625 26.8125 64.65625 
Q 21.6875 64.65625 18.265625 61.421875 
Q 14.84375 58.203125 13.875 51.765625 
L 5.078125 53.328125 
Q 6.6875 62.15625 12.390625 67.015625 
Q 18.109375 71.875 26.609375 71.875 
Q 32.46875 71.875 37.390625 69.359375 
Q 42.328125 66.84375 44.9375 62.5 
Q 47.5625 58.15625 47.5625 53.265625 
Q 47.5625 48.640625 45.0625 44.828125 
Q 42.578125 41.015625 37.703125 38.765625 
Q 44.046875 37.3125 47.5625 32.6875 
Q 51.078125 28.078125 51.078125 21.140625 
Q 51.078125 11.765625 44.234375 5.25 
Q 37.40625 -1.265625 26.953125 -1.265625 
Q 17.53125 -1.265625 11.296875 4.34375 
Q 5.078125 9.96875 4.203125 18.890625 
z
" id="ArialMT-51"/>
      </defs>
      <g style="fill:#262626;" transform="translate(221.04007 325.94385)scale(0.1232 -0.1232)">
       <use xlink:href="#ArialMT-51"/>
       <use x="55.615234" xlink:href="#ArialMT-48"/>
      </g>
     </g>
    </g>
    <g id="xtick_4">
     <g id="line2d_4">
      <path clip-path="url(#p5fceb3a24c)" d="M 289.335323 308.825425 
L 289.335323 14.5152 
" style="fill:none;stroke:#cccccc;stroke-linecap:round;stroke-width:0.8;"/>
     </g>
     <g id="text_4">
      <!-- 40 -->
      <defs>
       <path d="M 32.328125 0 
L 32.328125 17.140625 
L 1.265625 17.140625 
L 1.265625 25.203125 
L 33.9375 71.578125 
L 41.109375 71.578125 
L 41.109375 25.203125 
L 50.78125 25.203125 
L 50.78125 17.140625 
L 41.109375 17.140625 
L 41.109375 0 
z
M 32.328125 25.203125 
L 32.328125 57.46875 
L 9.90625 25.203125 
z
" id="ArialMT-52"/>
      </defs>
      <g style="fill:#262626;" transform="translate(282.484248 325.94385)scale(0.1232 -0.1232)">
       <use xlink:href="#ArialMT-52"/>
       <use x="55.615234" xlink:href="#ArialMT-48"/>
      </g>
     </g>
    </g>
    <g id="xtick_5">
     <g id="line2d_5">
      <path clip-path="url(#p5fceb3a24c)" d="M 350.779502 308.825425 
L 350.779502 14.5152 
" style="fill:none;stroke:#cccccc;stroke-linecap:round;stroke-width:0.8;"/>
     </g>
     <g id="text_5">
      <!-- 50 -->
      <defs>
       <path d="M 4.15625 18.75 
L 13.375 19.53125 
Q 14.40625 12.796875 18.140625 9.390625 
Q 21.875 6 27.15625 6 
Q 33.5 6 37.890625 10.78125 
Q 42.28125 15.578125 42.28125 23.484375 
Q 42.28125 31 38.0625 35.34375 
Q 33.84375 39.703125 27 39.703125 
Q 22.75 39.703125 19.328125 37.765625 
Q 15.921875 35.84375 13.96875 32.765625 
L 5.71875 33.84375 
L 12.640625 70.609375 
L 48.25 70.609375 
L 48.25 62.203125 
L 19.671875 62.203125 
L 15.828125 42.96875 
Q 22.265625 47.46875 29.34375 47.46875 
Q 38.71875 47.46875 45.15625 40.96875 
Q 51.609375 34.46875 51.609375 24.265625 
Q 51.609375 14.546875 45.953125 7.46875 
Q 39.0625 -1.21875 27.15625 -1.21875 
Q 17.390625 -1.21875 11.203125 4.25 
Q 5.03125 9.71875 4.15625 18.75 
z
" id="ArialMT-53"/>
      </defs>
      <g style="fill:#262626;" transform="translate(343.928427 325.94385)scale(0.1232 -0.1232)">
       <use xlink:href="#ArialMT-53"/>
       <use x="55.615234" xlink:href="#ArialMT-48"/>
      </g>
     </g>
    </g>
    <g id="text_6">
     <!-- total_bill -->
     <defs>
      <path d="M 25.78125 7.859375 
L 27.046875 0.09375 
Q 23.34375 -0.6875 20.40625 -0.6875 
Q 15.625 -0.6875 12.984375 0.828125 
Q 10.359375 2.34375 9.28125 4.8125 
Q 8.203125 7.28125 8.203125 15.1875 
L 8.203125 45.015625 
L 1.765625 45.015625 
L 1.765625 51.859375 
L 8.203125 51.859375 
L 8.203125 64.703125 
L 16.9375 69.96875 
L 16.9375 51.859375 
L 25.78125 51.859375 
L 25.78125 45.015625 
L 16.9375 45.015625 
L 16.9375 14.703125 
Q 16.9375 10.9375 17.40625 9.859375 
Q 17.875 8.796875 18.921875 8.15625 
Q 19.96875 7.515625 21.921875 7.515625 
Q 23.390625 7.515625 25.78125 7.859375 
z
" id="ArialMT-116"/>
      <path d="M 3.328125 25.921875 
Q 3.328125 40.328125 11.328125 47.265625 
Q 18.015625 53.03125 27.640625 53.03125 
Q 38.328125 53.03125 45.109375 46.015625 
Q 51.90625 39.015625 51.90625 26.65625 
Q 51.90625 16.65625 48.90625 10.90625 
Q 45.90625 5.171875 40.15625 2 
Q 34.421875 -1.171875 27.640625 -1.171875 
Q 16.75 -1.171875 10.03125 5.8125 
Q 3.328125 12.796875 3.328125 25.921875 
z
M 12.359375 25.921875 
Q 12.359375 15.96875 16.703125 11.015625 
Q 21.046875 6.0625 27.640625 6.0625 
Q 34.1875 6.0625 38.53125 11.03125 
Q 42.875 16.015625 42.875 26.21875 
Q 42.875 35.84375 38.5 40.796875 
Q 34.125 45.75 27.640625 45.75 
Q 21.046875 45.75 16.703125 40.8125 
Q 12.359375 35.890625 12.359375 25.921875 
z
" id="ArialMT-111"/>
      <path d="M 40.4375 6.390625 
Q 35.546875 2.25 31.03125 0.53125 
Q 26.515625 -1.171875 21.34375 -1.171875 
Q 12.796875 -1.171875 8.203125 3 
Q 3.609375 7.171875 3.609375 13.671875 
Q 3.609375 17.484375 5.34375 20.625 
Q 7.078125 23.78125 9.890625 25.6875 
Q 12.703125 27.59375 16.21875 28.5625 
Q 18.796875 29.25 24.03125 29.890625 
Q 34.671875 31.15625 39.703125 32.90625 
Q 39.75 34.71875 39.75 35.203125 
Q 39.75 40.578125 37.25 42.78125 
Q 33.890625 45.75 27.25 45.75 
Q 21.046875 45.75 18.09375 43.578125 
Q 15.140625 41.40625 13.71875 35.890625 
L 5.125 37.0625 
Q 6.296875 42.578125 8.984375 45.96875 
Q 11.671875 49.359375 16.75 51.1875 
Q 21.828125 53.03125 28.515625 53.03125 
Q 35.15625 53.03125 39.296875 51.46875 
Q 43.453125 49.90625 45.40625 47.53125 
Q 47.359375 45.171875 48.140625 41.546875 
Q 48.578125 39.3125 48.578125 33.453125 
L 48.578125 21.734375 
Q 48.578125 9.46875 49.140625 6.21875 
Q 49.703125 2.984375 51.375 0 
L 42.1875 0 
Q 40.828125 2.734375 40.4375 6.390625 
z
M 39.703125 26.03125 
Q 34.90625 24.078125 25.34375 22.703125 
Q 19.921875 21.921875 17.671875 20.9375 
Q 15.4375 19.96875 14.203125 18.09375 
Q 12.984375 16.21875 12.984375 13.921875 
Q 12.984375 10.40625 15.640625 8.0625 
Q 18.3125 5.71875 23.4375 5.71875 
Q 28.515625 5.71875 32.46875 7.9375 
Q 36.421875 10.15625 38.28125 14.015625 
Q 39.703125 17 39.703125 22.796875 
z
" id="ArialMT-97"/>
      <path d="M 6.390625 0 
L 6.390625 71.578125 
L 15.1875 71.578125 
L 15.1875 0 
z
" id="ArialMT-108"/>
      <path d="M -1.515625 -19.875 
L -1.515625 -13.53125 
L 56.734375 -13.53125 
L 56.734375 -19.875 
z
" id="ArialMT-95"/>
      <path d="M 14.703125 0 
L 6.546875 0 
L 6.546875 71.578125 
L 15.328125 71.578125 
L 15.328125 46.046875 
Q 20.90625 53.03125 29.546875 53.03125 
Q 34.328125 53.03125 38.59375 51.09375 
Q 42.875 49.171875 45.625 45.671875 
Q 48.390625 42.1875 49.953125 37.25 
Q 51.515625 32.328125 51.515625 26.703125 
Q 51.515625 13.375 44.921875 6.09375 
Q 38.328125 -1.171875 29.109375 -1.171875 
Q 19.921875 -1.171875 14.703125 6.5 
z
M 14.59375 26.3125 
Q 14.59375 17 17.140625 12.84375 
Q 21.296875 6.0625 28.375 6.0625 
Q 34.125 6.0625 38.328125 11.0625 
Q 42.53125 16.0625 42.53125 25.984375 
Q 42.53125 36.140625 38.5 40.96875 
Q 34.46875 45.796875 28.765625 45.796875 
Q 23 45.796875 18.796875 40.796875 
Q 14.59375 35.796875 14.59375 26.3125 
z
" id="ArialMT-98"/>
      <path d="M 6.640625 61.46875 
L 6.640625 71.578125 
L 15.4375 71.578125 
L 15.4375 61.46875 
z
M 6.640625 0 
L 6.640625 51.859375 
L 15.4375 51.859375 
L 15.4375 0 
z
" id="ArialMT-105"/>
     </defs>
     <g style="fill:#262626;" transform="translate(184.435226 342.01255)scale(0.1344 -0.1344)">
      <use xlink:href="#ArialMT-116"/>
      <use x="27.783203" xlink:href="#ArialMT-111"/>
      <use x="83.398438" xlink:href="#ArialMT-116"/>
      <use x="111.181641" xlink:href="#ArialMT-97"/>
      <use x="166.796875" xlink:href="#ArialMT-108"/>
      <use x="189.013672" xlink:href="#ArialMT-95"/>
      <use x="244.628906" xlink:href="#ArialMT-98"/>
      <use x="300.244141" xlink:href="#ArialMT-105"/>
      <use x="322.460938" xlink:href="#ArialMT-108"/>
      <use x="344.677734" xlink:href="#ArialMT-108"/>
     </g>
    </g>
   </g>
   <g id="matplotlib.axis_2">
    <g id="ytick_1">
     <g id="line2d_6">
      <path clip-path="url(#p5fceb3a24c)" d="M 62.421973 265.719382 
L 355.75648 265.719382 
" style="fill:none;stroke:#cccccc;stroke-linecap:round;stroke-width:0.8;"/>
     </g>
     <g id="text_7">
      <!-- 2 -->
      <g style="fill:#262626;" transform="translate(47.270898 270.128594)scale(0.1232 -0.1232)">
       <use xlink:href="#ArialMT-50"/>
      </g>
     </g>
    </g>
    <g id="ytick_2">
     <g id="line2d_7">
      <path clip-path="url(#p5fceb3a24c)" d="M 62.421973 206.262771 
L 355.75648 206.262771 
" style="fill:none;stroke:#cccccc;stroke-linecap:round;stroke-width:0.8;"/>
     </g>
     <g id="text_8">
      <!-- 4 -->
      <g style="fill:#262626;" transform="translate(47.270898 210.671983)scale(0.1232 -0.1232)">
       <use xlink:href="#ArialMT-52"/>
      </g>
     </g>
    </g>
    <g id="ytick_3">
     <g id="line2d_8">
      <path clip-path="url(#p5fceb3a24c)" d="M 62.421973 146.80616 
L 355.75648 146.80616 
" style="fill:none;stroke:#cccccc;stroke-linecap:round;stroke-width:0.8;"/>
     </g>
     <g id="text_9">
      <!-- 6 -->
      <defs>
       <path d="M 49.75 54.046875 
L 41.015625 53.375 
Q 39.84375 58.546875 37.703125 60.890625 
Q 34.125 64.65625 28.90625 64.65625 
Q 24.703125 64.65625 21.53125 62.3125 
Q 17.390625 59.28125 14.984375 53.46875 
Q 12.59375 47.65625 12.5 36.921875 
Q 15.671875 41.75 20.265625 44.09375 
Q 24.859375 46.4375 29.890625 46.4375 
Q 38.671875 46.4375 44.84375 39.96875 
Q 51.03125 33.5 51.03125 23.25 
Q 51.03125 16.5 48.125 10.71875 
Q 45.21875 4.9375 40.140625 1.859375 
Q 35.0625 -1.21875 28.609375 -1.21875 
Q 17.625 -1.21875 10.6875 6.859375 
Q 3.765625 14.9375 3.765625 33.5 
Q 3.765625 54.25 11.421875 63.671875 
Q 18.109375 71.875 29.4375 71.875 
Q 37.890625 71.875 43.28125 67.140625 
Q 48.6875 62.40625 49.75 54.046875 
z
M 13.875 23.1875 
Q 13.875 18.65625 15.796875 14.5 
Q 17.71875 10.359375 21.1875 8.171875 
Q 24.65625 6 28.46875 6 
Q 34.03125 6 38.03125 10.484375 
Q 42.046875 14.984375 42.046875 22.703125 
Q 42.046875 30.125 38.078125 34.390625 
Q 34.125 38.671875 28.125 38.671875 
Q 22.171875 38.671875 18.015625 34.390625 
Q 13.875 30.125 13.875 23.1875 
z
" id="ArialMT-54"/>
      </defs>
      <g style="fill:#262626;" transform="translate(47.270898 151.215372)scale(0.1232 -0.1232)">
       <use xlink:href="#ArialMT-54"/>
      </g>
     </g>
    </g>
    <g id="ytick_4">
     <g id="line2d_9">
      <path clip-path="url(#p5fceb3a24c)" d="M 62.421973 87.349549 
L 355.75648 87.349549 
" style="fill:none;stroke:#cccccc;stroke-linecap:round;stroke-width:0.8;"/>
     </g>
     <g id="text_10">
      <!-- 8 -->
      <defs>
       <path d="M 17.671875 38.8125 
Q 12.203125 40.828125 9.5625 44.53125 
Q 6.9375 48.25 6.9375 53.421875 
Q 6.9375 61.234375 12.546875 66.546875 
Q 18.171875 71.875 27.484375 71.875 
Q 36.859375 71.875 42.578125 66.421875 
Q 48.296875 60.984375 48.296875 53.171875 
Q 48.296875 48.1875 45.671875 44.5 
Q 43.0625 40.828125 37.75 38.8125 
Q 44.34375 36.671875 47.78125 31.875 
Q 51.21875 27.09375 51.21875 20.453125 
Q 51.21875 11.28125 44.71875 5.03125 
Q 38.234375 -1.21875 27.640625 -1.21875 
Q 17.046875 -1.21875 10.546875 5.046875 
Q 4.046875 11.328125 4.046875 20.703125 
Q 4.046875 27.6875 7.59375 32.390625 
Q 11.140625 37.109375 17.671875 38.8125 
z
M 15.921875 53.71875 
Q 15.921875 48.640625 19.1875 45.40625 
Q 22.46875 42.1875 27.6875 42.1875 
Q 32.765625 42.1875 36.015625 45.375 
Q 39.265625 48.578125 39.265625 53.21875 
Q 39.265625 58.0625 35.90625 61.359375 
Q 32.5625 64.65625 27.59375 64.65625 
Q 22.5625 64.65625 19.234375 61.421875 
Q 15.921875 58.203125 15.921875 53.71875 
z
M 13.09375 20.65625 
Q 13.09375 16.890625 14.875 13.375 
Q 16.65625 9.859375 20.171875 7.921875 
Q 23.6875 6 27.734375 6 
Q 34.03125 6 38.125 10.046875 
Q 42.234375 14.109375 42.234375 20.359375 
Q 42.234375 26.703125 38.015625 30.859375 
Q 33.796875 35.015625 27.4375 35.015625 
Q 21.234375 35.015625 17.15625 30.90625 
Q 13.09375 26.8125 13.09375 20.65625 
z
" id="ArialMT-56"/>
      </defs>
      <g style="fill:#262626;" transform="translate(47.270898 91.758761)scale(0.1232 -0.1232)">
       <use xlink:href="#ArialMT-56"/>
      </g>
     </g>
    </g>
    <g id="ytick_5">
     <g id="line2d_10">
      <path clip-path="url(#p5fceb3a24c)" d="M 62.421973 27.892937 
L 355.75648 27.892937 
" style="fill:none;stroke:#cccccc;stroke-linecap:round;stroke-width:0.8;"/>
     </g>
     <g id="text_11">
      <!-- 10 -->
      <g style="fill:#262626;" transform="translate(40.419823 32.30215)scale(0.1232 -0.1232)">
       <use xlink:href="#ArialMT-49"/>
       <use x="55.615234" xlink:href="#ArialMT-48"/>
      </g>
     </g>
    </g>
    <g id="text_12">
     <!-- tip -->
     <defs>
      <path d="M 6.59375 -19.875 
L 6.59375 51.859375 
L 14.59375 51.859375 
L 14.59375 45.125 
Q 17.4375 49.078125 21 51.046875 
Q 24.5625 53.03125 29.640625 53.03125 
Q 36.28125 53.03125 41.359375 49.609375 
Q 46.4375 46.1875 49.015625 39.953125 
Q 51.609375 33.734375 51.609375 26.3125 
Q 51.609375 18.359375 48.75 11.984375 
Q 45.90625 5.609375 40.453125 2.21875 
Q 35.015625 -1.171875 29 -1.171875 
Q 24.609375 -1.171875 21.109375 0.6875 
Q 17.625 2.546875 15.375 5.375 
L 15.375 -19.875 
z
M 14.546875 25.640625 
Q 14.546875 15.625 18.59375 10.84375 
Q 22.65625 6.0625 28.421875 6.0625 
Q 34.28125 6.0625 38.453125 11.015625 
Q 42.625 15.96875 42.625 26.375 
Q 42.625 36.28125 38.546875 41.203125 
Q 34.46875 46.140625 28.8125 46.140625 
Q 23.1875 46.140625 18.859375 40.890625 
Q 14.546875 35.640625 14.546875 25.640625 
z
" id="ArialMT-112"/>
     </defs>
     <g style="fill:#262626;" transform="translate(33.748623 168.767262)rotate(-90)scale(0.1344 -0.1344)">
      <use xlink:href="#ArialMT-116"/>
      <use x="27.783203" xlink:href="#ArialMT-105"/>
      <use x="50" xlink:href="#ArialMT-112"/>
     </g>
    </g>
   </g>
   <g id="PathCollection_1">
    <defs>
     <path d="M 0 2.4 
C 0.636487 2.4 1.246992 2.147121 1.697056 1.697056 
C 2.147121 1.246992 2.4 0.636487 2.4 0 
C 2.4 -0.636487 2.147121 -1.246992 1.697056 -1.697056 
C 1.246992 -2.147121 0.636487 -2.4 0 -2.4 
C -0.636487 -2.4 -1.246992 -2.147121 -1.697056 -1.697056 
C -2.147121 -1.246992 -2.4 -0.636487 -2.4 0 
C -2.4 0.636487 -2.147121 1.246992 -1.697056 1.697056 
C -1.246992 2.147121 -0.636487 2.4 0 2.4 
z
" id="m43b4508ebb" style="stroke:#1f77b4;stroke-opacity:0.8;"/>
    </defs>
    <g clip-path="url(#p5fceb3a24c)">
     <use style="fill:#1f77b4;fill-opacity:0.8;stroke:#1f77b4;stroke-opacity:0.8;" x="277.107932" xlink:href="#m43b4508ebb" y="235.991076"/>
     <use style="fill:#1f77b4;fill-opacity:0.8;stroke:#1f77b4;stroke-opacity:0.8;" x="112.621867" xlink:href="#m43b4508ebb" y="272.854175"/>
     <use style="fill:#1f77b4;fill-opacity:0.8;stroke:#1f77b4;stroke-opacity:0.8;" x="168.228848" xlink:href="#m43b4508ebb" y="229.748132"/>
     <use style="fill:#1f77b4;fill-opacity:0.8;stroke:#1f77b4;stroke-opacity:0.8;" x="128.41302" xlink:href="#m43b4508ebb" y="265.719382"/>
     <use style="fill:#1f77b4;fill-opacity:0.8;stroke:#1f77b4;stroke-opacity:0.8;" x="111.270095" xlink:href="#m43b4508ebb" y="266.313948"/>
     <use style="fill:#1f77b4;fill-opacity:0.8;stroke:#1f77b4;stroke-opacity:0.8;" x="155.940012" xlink:href="#m43b4508ebb" y="213.397564"/>
     <use style="fill:#1f77b4;fill-opacity:0.8;stroke:#1f77b4;stroke-opacity:0.8;" x="62.421973" xlink:href="#m43b4508ebb" y="295.447687"/>
     <use style="fill:#1f77b4;fill-opacity:0.8;stroke:#1f77b4;stroke-opacity:0.8;" x="135.786322" xlink:href="#m43b4508ebb" y="263.043834"/>
     <use style="fill:#1f77b4;fill-opacity:0.8;stroke:#1f77b4;stroke-opacity:0.8;" x="208.597673" xlink:href="#m43b4508ebb" y="231.829114"/>
     <use style="fill:#1f77b4;fill-opacity:0.8;stroke:#1f77b4;stroke-opacity:0.8;" x="198.889493" xlink:href="#m43b4508ebb" y="176.534465"/>
     <use style="fill:#1f77b4;fill-opacity:0.8;stroke:#1f77b4;stroke-opacity:0.8;" x="153.666578" xlink:href="#m43b4508ebb" y="233.612812"/>
     <use style="fill:#1f77b4;fill-opacity:0.8;stroke:#1f77b4;stroke-opacity:0.8;" x="163.006093" xlink:href="#m43b4508ebb" y="235.991076"/>
     <use style="fill:#1f77b4;fill-opacity:0.8;stroke:#1f77b4;stroke-opacity:0.8;" x="244.358185" xlink:href="#m43b4508ebb" y="176.534465"/>
     <use style="fill:#1f77b4;fill-opacity:0.8;stroke:#1f77b4;stroke-opacity:0.8;" x="221.562395" xlink:href="#m43b4508ebb" y="235.991076"/>
     <use style="fill:#1f77b4;fill-opacity:0.8;stroke:#1f77b4;stroke-opacity:0.8;" x="78.889013" xlink:href="#m43b4508ebb" y="295.447687"/>
     <use style="fill:#1f77b4;fill-opacity:0.8;stroke:#1f77b4;stroke-opacity:0.8;" x="143.835509" xlink:href="#m43b4508ebb" y="197.344279"/>
     <use style="fill:#1f77b4;fill-opacity:0.8;stroke:#1f77b4;stroke-opacity:0.8;" x="290.379874" xlink:href="#m43b4508ebb" y="184.561108"/>
     <use style="fill:#1f77b4;fill-opacity:0.8;stroke:#1f77b4;stroke-opacity:0.8;" x="211.178329" xlink:href="#m43b4508ebb" y="206.262771"/>
     <use style="fill:#1f77b4;fill-opacity:0.8;stroke:#1f77b4;stroke-opacity:0.8;" x="117.475957" xlink:href="#m43b4508ebb" y="280.583535"/>
     <use style="fill:#1f77b4;fill-opacity:0.8;stroke:#1f77b4;stroke-opacity:0.8;" x="172.652829" xlink:href="#m43b4508ebb" y="235.991076"/>
     <use style="fill:#1f77b4;fill-opacity:0.8;stroke:#1f77b4;stroke-opacity:0.8;" x="113.297753" xlink:href="#m43b4508ebb" y="250.855229"/>
     <use style="fill:#1f77b4;fill-opacity:0.8;stroke:#1f77b4;stroke-opacity:0.8;" x="138.059756" xlink:href="#m43b4508ebb" y="235.991076"/>
     <use style="fill:#1f77b4;fill-opacity:0.8;stroke:#1f77b4;stroke-opacity:0.8;" x="315.75632" xlink:href="#m43b4508ebb" y="250.855229"/>
     <use style="fill:#1f77b4;fill-opacity:0.8;stroke:#1f77b4;stroke-opacity:0.8;" x="181.316458" xlink:href="#m43b4508ebb" y="221.72149"/>
     <use style="fill:#1f77b4;fill-opacity:0.8;stroke:#1f77b4;stroke-opacity:0.8;" x="137.936868" xlink:href="#m43b4508ebb" y="276.421572"/>
     <use style="fill:#1f77b4;fill-opacity:0.8;stroke:#1f77b4;stroke-opacity:0.8;" x="169.457731" xlink:href="#m43b4508ebb" y="204.479072"/>
     <use style="fill:#1f77b4;fill-opacity:0.8;stroke:#1f77b4;stroke-opacity:0.8;" x="198.459384" xlink:href="#m43b4508ebb" y="197.641562"/>
     <use style="fill:#1f77b4;fill-opacity:0.8;stroke:#1f77b4;stroke-opacity:0.8;" x="131.485229" xlink:href="#m43b4508ebb" y="206.262771"/>
     <use style="fill:#1f77b4;fill-opacity:0.8;stroke:#1f77b4;stroke-opacity:0.8;" x="141.869295" xlink:href="#m43b4508ebb" y="265.719382"/>
     <use style="fill:#1f77b4;fill-opacity:0.8;stroke:#1f77b4;stroke-opacity:0.8;" x="151.147366" xlink:href="#m43b4508ebb" y="235.991076"/>
     <use style="fill:#1f77b4;fill-opacity:0.8;stroke:#1f77b4;stroke-opacity:0.8;" x="108.627995" xlink:href="#m43b4508ebb" y="277.313421"/>
     <use style="fill:#1f77b4;fill-opacity:0.8;stroke:#1f77b4;stroke-opacity:0.8;" x="108.873772" xlink:href="#m43b4508ebb" y="265.719382"/>
     <use style="fill:#1f77b4;fill-opacity:0.8;stroke:#1f77b4;stroke-opacity:0.8;" x="355.75648" xlink:href="#m43b4508ebb" y="27.892937"/>
     <use style="fill:#1f77b4;fill-opacity:0.8;stroke:#1f77b4;stroke-opacity:0.8;" x="140.701856" xlink:href="#m43b4508ebb" y="231.234547"/>
     <use style="fill:#1f77b4;fill-opacity:0.8;stroke:#1f77b4;stroke-opacity:0.8;" x="88.105639" xlink:href="#m43b4508ebb" y="172.075219"/>
     <use style="fill:#1f77b4;fill-opacity:0.8;stroke:#1f77b4;stroke-opacity:0.8;" x="239.258318" xlink:href="#m43b4508ebb" y="230.639981"/>
     <use style="fill:#1f77b4;fill-opacity:0.8;stroke:#1f77b4;stroke-opacity:0.8;" x="146.907718" xlink:href="#m43b4508ebb" y="206.262771"/>
     <use style="fill:#1f77b4;fill-opacity:0.8;stroke:#1f77b4;stroke-opacity:0.8;" x="245.709957" xlink:href="#m43b4508ebb" y="232.720963"/>
     <use style="fill:#1f77b4;fill-opacity:0.8;stroke:#1f77b4;stroke-opacity:0.8;" x="153.482245" xlink:href="#m43b4508ebb" y="265.719382"/>
     <use style="fill:#1f77b4;fill-opacity:0.8;stroke:#1f77b4;stroke-opacity:0.8;" x="132.52978" xlink:href="#m43b4508ebb" y="265.719382"/>
     <use style="fill:#1f77b4;fill-opacity:0.8;stroke:#1f77b4;stroke-opacity:0.8;" x="102.545021" xlink:href="#m43b4508ebb" y="206.262771"/>
     <use style="fill:#1f77b4;fill-opacity:0.8;stroke:#1f77b4;stroke-opacity:0.8;" x="256.3398" xlink:href="#m43b4508ebb" y="219.640508"/>
     <use style="fill:#1f77b4;fill-opacity:0.8;stroke:#1f77b4;stroke-opacity:0.8;" x="256.462688" xlink:href="#m43b4508ebb" y="215.775829"/>
     <use style="fill:#1f77b4;fill-opacity:0.8;stroke:#1f77b4;stroke-opacity:0.8;" x="186.907878" xlink:href="#m43b4508ebb" y="157.211067"/>
     <use style="fill:#1f77b4;fill-opacity:0.8;stroke:#1f77b4;stroke-opacity:0.8;" x="322.207959" xlink:href="#m43b4508ebb" y="221.126924"/>
     <use style="fill:#1f77b4;fill-opacity:0.8;stroke:#1f77b4;stroke-opacity:0.8;" x="185.924771" xlink:href="#m43b4508ebb" y="131.942007"/>
     <use style="fill:#1f77b4;fill-opacity:0.8;stroke:#1f77b4;stroke-opacity:0.8;" x="292.714753" xlink:href="#m43b4508ebb" y="235.991076"/>
     <use style="fill:#1f77b4;fill-opacity:0.8;stroke:#1f77b4;stroke-opacity:0.8;" x="171.976943" xlink:href="#m43b4508ebb" y="221.126924"/>
     <use style="fill:#1f77b4;fill-opacity:0.8;stroke:#1f77b4;stroke-opacity:0.8;" x="230.717577" xlink:href="#m43b4508ebb" y="265.719382"/>
     <use style="fill:#1f77b4;fill-opacity:0.8;stroke:#1f77b4;stroke-opacity:0.8;" x="155.079794" xlink:href="#m43b4508ebb" y="221.126924"/>
     <use style="fill:#1f77b4;fill-opacity:0.8;stroke:#1f77b4;stroke-opacity:0.8;" x="185.494662" xlink:href="#m43b4508ebb" y="206.262771"/>
     <use style="fill:#1f77b4;fill-opacity:0.8;stroke:#1f77b4;stroke-opacity:0.8;" x="139.964526" xlink:href="#m43b4508ebb" y="280.583535"/>
     <use style="fill:#1f77b4;fill-opacity:0.8;stroke:#1f77b4;stroke-opacity:0.8;" x="165.279527" xlink:href="#m43b4508ebb" y="200.614393"/>
     <use style="fill:#1f77b4;fill-opacity:0.8;stroke:#1f77b4;stroke-opacity:0.8;" x="218.305853" xlink:href="#m43b4508ebb" y="249.071531"/>
     <use style="fill:#1f77b4;fill-opacity:0.8;stroke:#1f77b4;stroke-opacity:0.8;" x="138.674198" xlink:href="#m43b4508ebb" y="265.124816"/>
     <use style="fill:#1f77b4;fill-opacity:0.8;stroke:#1f77b4;stroke-opacity:0.8;" x="145.433058" xlink:href="#m43b4508ebb" y="206.262771"/>
     <use style="fill:#1f77b4;fill-opacity:0.8;stroke:#1f77b4;stroke-opacity:0.8;" x="107.091891" xlink:href="#m43b4508ebb" y="265.719382"/>
     <use style="fill:#1f77b4;fill-opacity:0.8;stroke:#1f77b4;stroke-opacity:0.8;" x="308.444463" xlink:href="#m43b4508ebb" y="176.534465"/>
     <use style="fill:#1f77b4;fill-opacity:0.8;stroke:#1f77b4;stroke-opacity:0.8;" x="123.436042" xlink:href="#m43b4508ebb" y="265.719382"/>
     <use style="fill:#1f77b4;fill-opacity:0.8;stroke:#1f77b4;stroke-opacity:0.8;" x="126.569695" xlink:href="#m43b4508ebb" y="265.719382"/>
     <use style="fill:#1f77b4;fill-opacity:0.8;stroke:#1f77b4;stroke-opacity:0.8;" x="158.520668" xlink:href="#m43b4508ebb" y="206.262771"/>
     <use style="fill:#1f77b4;fill-opacity:0.8;stroke:#1f77b4;stroke-opacity:0.8;" x="121.838493" xlink:href="#m43b4508ebb" y="265.422099"/>
     <use style="fill:#1f77b4;fill-opacity:0.8;stroke:#1f77b4;stroke-opacity:0.8;" x="123.436042" xlink:href="#m43b4508ebb" y="265.719382"/>
     <use style="fill:#1f77b4;fill-opacity:0.8;stroke:#1f77b4;stroke-opacity:0.8;" x="144.327063" xlink:href="#m43b4508ebb" y="250.855229"/>
     <use style="fill:#1f77b4;fill-opacity:0.8;stroke:#1f77b4;stroke-opacity:0.8;" x="169.703508" xlink:href="#m43b4508ebb" y="206.262771"/>
     <use style="fill:#1f77b4;fill-opacity:0.8;stroke:#1f77b4;stroke-opacity:0.8;" x="144.757172" xlink:href="#m43b4508ebb" y="229.153566"/>
     <use style="fill:#1f77b4;fill-opacity:0.8;stroke:#1f77b4;stroke-opacity:0.8;" x="206.93868" xlink:href="#m43b4508ebb" y="223.802471"/>
     <use style="fill:#1f77b4;fill-opacity:0.8;stroke:#1f77b4;stroke-opacity:0.8;" x="281.531913" xlink:href="#m43b4508ebb" y="235.991076"/>
     <use style="fill:#1f77b4;fill-opacity:0.8;stroke:#1f77b4;stroke-opacity:0.8;" x="192.683631" xlink:href="#m43b4508ebb" y="264.827533"/>
     <use style="fill:#1f77b4;fill-opacity:0.8;stroke:#1f77b4;stroke-opacity:0.8;" x="121.961382" xlink:href="#m43b4508ebb" y="258.881872"/>
     <use style="fill:#1f77b4;fill-opacity:0.8;stroke:#1f77b4;stroke-opacity:0.8;" x="228.25981" xlink:href="#m43b4508ebb" y="265.719382"/>
     <use style="fill:#1f77b4;fill-opacity:0.8;stroke:#1f77b4;stroke-opacity:0.8;" x="202.637588" xlink:href="#m43b4508ebb" y="171.777936"/>
     <use style="fill:#1f77b4;fill-opacity:0.8;stroke:#1f77b4;stroke-opacity:0.8;" x="125.095035" xlink:href="#m43b4508ebb" y="250.855229"/>
     <use style="fill:#1f77b4;fill-opacity:0.8;stroke:#1f77b4;stroke-opacity:0.8;" x="216.64686" xlink:href="#m43b4508ebb" y="131.942007"/>
     <use style="fill:#1f77b4;fill-opacity:0.8;stroke:#1f77b4;stroke-opacity:0.8;" x="122.8216" xlink:href="#m43b4508ebb" y="292.474857"/>
     <use style="fill:#1f77b4;fill-opacity:0.8;stroke:#1f77b4;stroke-opacity:0.8;" x="216.523972" xlink:href="#m43b4508ebb" y="235.991076"/>
     <use style="fill:#1f77b4;fill-opacity:0.8;stroke:#1f77b4;stroke-opacity:0.8;" x="114.772413" xlink:href="#m43b4508ebb" y="280.583535"/>
     <use style="fill:#1f77b4;fill-opacity:0.8;stroke:#1f77b4;stroke-opacity:0.8;" x="91.116404" xlink:href="#m43b4508ebb" y="282.367233"/>
     <use style="fill:#1f77b4;fill-opacity:0.8;stroke:#1f77b4;stroke-opacity:0.8;" x="228.751364" xlink:href="#m43b4508ebb" y="233.315529"/>
     <use style="fill:#1f77b4;fill-opacity:0.8;stroke:#1f77b4;stroke-opacity:0.8;" x="118.274731" xlink:href="#m43b4508ebb" y="259.773721"/>
     <use style="fill:#1f77b4;fill-opacity:0.8;stroke:#1f77b4;stroke-opacity:0.8;" x="126.016697" xlink:href="#m43b4508ebb" y="221.72149"/>
     <use style="fill:#1f77b4;fill-opacity:0.8;stroke:#1f77b4;stroke-opacity:0.8;" x="96.277715" xlink:href="#m43b4508ebb" y="268.097646"/>
     <use style="fill:#1f77b4;fill-opacity:0.8;stroke:#1f77b4;stroke-opacity:0.8;" x="126.016697" xlink:href="#m43b4508ebb" y="278.20527"/>
     <use style="fill:#1f77b4;fill-opacity:0.8;stroke:#1f77b4;stroke-opacity:0.8;" x="143.528288" xlink:href="#m43b4508ebb" y="250.855229"/>
     <use style="fill:#1f77b4;fill-opacity:0.8;stroke:#1f77b4;stroke-opacity:0.8;" x="105.555786" xlink:href="#m43b4508ebb" y="265.719382"/>
     <use style="fill:#1f77b4;fill-opacity:0.8;stroke:#1f77b4;stroke-opacity:0.8;" x="179.473133" xlink:href="#m43b4508ebb" y="239.558473"/>
     <use style="fill:#1f77b4;fill-opacity:0.8;stroke:#1f77b4;stroke-opacity:0.8;" x="191.086082" xlink:href="#m43b4508ebb" y="265.719382"/>
     <use style="fill:#1f77b4;fill-opacity:0.8;stroke:#1f77b4;stroke-opacity:0.8;" x="139.964526" xlink:href="#m43b4508ebb" y="235.991076"/>
     <use style="fill:#1f77b4;fill-opacity:0.8;stroke:#1f77b4;stroke-opacity:0.8;" x="138.981419" xlink:href="#m43b4508ebb" y="235.991076"/>
     <use style="fill:#1f77b4;fill-opacity:0.8;stroke:#1f77b4;stroke-opacity:0.8;" x="120.978275" xlink:href="#m43b4508ebb" y="295.447687"/>
     <use style="fill:#1f77b4;fill-opacity:0.8;stroke:#1f77b4;stroke-opacity:0.8;" x="245.279847" xlink:href="#m43b4508ebb" y="290.393876"/>
     <use style="fill:#1f77b4;fill-opacity:0.8;stroke:#1f77b4;stroke-opacity:0.8;" x="210.563887" xlink:href="#m43b4508ebb" y="265.719382"/>
     <use style="fill:#1f77b4;fill-opacity:0.8;stroke:#1f77b4;stroke-opacity:0.8;" x="182.852562" xlink:href="#m43b4508ebb" y="265.719382"/>
    </g>
   </g>
   <g id="PolyCollection_1">
    <defs>
     <path d="M 62.421973 -107.01053 
L 62.421973 -69.505492 
L 65.384948 -71.042608 
L 68.347923 -72.508481 
L 71.310897 -74.014 
L 74.273872 -75.530263 
L 77.236847 -77.165416 
L 80.199822 -78.741249 
L 83.162797 -80.333896 
L 86.125771 -81.775968 
L 89.088746 -83.356843 
L 92.051721 -85.013833 
L 95.014696 -86.551992 
L 97.977671 -87.934575 
L 100.940646 -89.377502 
L 103.90362 -90.823053 
L 106.866595 -92.392878 
L 109.82957 -93.826897 
L 112.792545 -95.168928 
L 115.75552 -96.594881 
L 118.718494 -98.054688 
L 121.681469 -99.509476 
L 124.644444 -100.952813 
L 127.607419 -102.147817 
L 130.570394 -103.355968 
L 133.533369 -104.721502 
L 136.496343 -105.994146 
L 139.459318 -107.296455 
L 142.422293 -108.401397 
L 145.385268 -109.338542 
L 148.348243 -110.228487 
L 151.311217 -111.124189 
L 154.274192 -112.052931 
L 157.237167 -112.790424 
L 160.200142 -113.71419 
L 163.163117 -114.543922 
L 166.126092 -115.442984 
L 169.089066 -116.237475 
L 172.052041 -116.953294 
L 175.015016 -117.782809 
L 177.977991 -118.447295 
L 180.940966 -119.241899 
L 183.90394 -119.999258 
L 186.866915 -120.654156 
L 189.82989 -121.176013 
L 192.792865 -121.678263 
L 195.75584 -122.417061 
L 198.718815 -123.053539 
L 201.681789 -123.675016 
L 204.644764 -124.099952 
L 207.607739 -124.508404 
L 210.570714 -125.09337 
L 213.533689 -125.756518 
L 216.496664 -126.473243 
L 219.459638 -126.983498 
L 222.422613 -127.462576 
L 225.385588 -128.000995 
L 228.348563 -128.555259 
L 231.311538 -129.05822 
L 234.274512 -129.557788 
L 237.237487 -130.051429 
L 240.200462 -130.517421 
L 243.163437 -131.002135 
L 246.126412 -131.478151 
L 249.089387 -131.908386 
L 252.052361 -132.381196 
L 255.015336 -132.826627 
L 257.978311 -133.300071 
L 260.941286 -133.681346 
L 263.904261 -134.145167 
L 266.867235 -134.701964 
L 269.83021 -135.21337 
L 272.793185 -135.691182 
L 275.75616 -136.168995 
L 278.719135 -136.646807 
L 281.68211 -137.124619 
L 284.645084 -137.543874 
L 287.608059 -137.918532 
L 290.571034 -138.366373 
L 293.534009 -138.838863 
L 296.496984 -139.315636 
L 299.459958 -139.832608 
L 302.422933 -140.339921 
L 305.385908 -140.916371 
L 308.348883 -141.424928 
L 311.311858 -141.90274 
L 314.274833 -142.380552 
L 317.237807 -142.858364 
L 320.200782 -143.336176 
L 323.163757 -143.814313 
L 326.126732 -144.292721 
L 329.089707 -144.771129 
L 332.052681 -145.249537 
L 335.015656 -145.727946 
L 337.978631 -146.206354 
L 340.941606 -146.684762 
L 343.904581 -147.16317 
L 346.867556 -147.641579 
L 349.83053 -148.119987 
L 352.793505 -148.598395 
L 355.75648 -149.079239 
L 355.75648 -226.126434 
L 355.75648 -226.126434 
L 352.793505 -224.613432 
L 349.83053 -223.100431 
L 346.867556 -221.587429 
L 343.904581 -220.074427 
L 340.941606 -218.561426 
L 337.978631 -217.047526 
L 335.015656 -215.530994 
L 332.052681 -214.014461 
L 329.089707 -212.497929 
L 326.126732 -210.981396 
L 323.163757 -209.42894 
L 320.200782 -207.795979 
L 317.237807 -206.250293 
L 314.274833 -204.834662 
L 311.311858 -203.412116 
L 308.348883 -201.901156 
L 305.385908 -200.390196 
L 302.422933 -198.879236 
L 299.459958 -197.368276 
L 296.496984 -195.857316 
L 293.534009 -194.346355 
L 290.571034 -192.832708 
L 287.608059 -191.318252 
L 284.645084 -189.803796 
L 281.68211 -188.28934 
L 278.719135 -186.774884 
L 275.75616 -185.260428 
L 272.793185 -183.745972 
L 269.83021 -182.231516 
L 266.867235 -180.71706 
L 263.904261 -179.202604 
L 260.941286 -177.737157 
L 257.978311 -176.277258 
L 255.015336 -174.785188 
L 252.052361 -173.234613 
L 249.089387 -171.681971 
L 246.126412 -170.126603 
L 243.163437 -168.573238 
L 240.200462 -167.021264 
L 237.237487 -165.468246 
L 234.274512 -163.913673 
L 231.311538 -162.360925 
L 228.348563 -160.771263 
L 225.385588 -159.171186 
L 222.422613 -157.571108 
L 219.459638 -156.144678 
L 216.496664 -154.607768 
L 213.533689 -153.046339 
L 210.570714 -151.408638 
L 207.607739 -149.848075 
L 204.644764 -148.215515 
L 201.681789 -146.80428 
L 198.718815 -145.386045 
L 195.75584 -143.990039 
L 192.792865 -142.334203 
L 189.82989 -140.626385 
L 186.866915 -139.224708 
L 183.90394 -137.886295 
L 180.940966 -136.512505 
L 177.977991 -135.106689 
L 175.015016 -133.678284 
L 172.052041 -132.253333 
L 169.089066 -131.056263 
L 166.126092 -129.721104 
L 163.163117 -128.436454 
L 160.200142 -127.441472 
L 157.237167 -126.409422 
L 154.274192 -125.316381 
L 151.311217 -124.572995 
L 148.348243 -123.655384 
L 145.385268 -122.730477 
L 142.422293 -121.805342 
L 139.459318 -121.029278 
L 136.496343 -120.143882 
L 133.533369 -119.423293 
L 130.570394 -118.77923 
L 127.607419 -118.182568 
L 124.644444 -117.54026 
L 121.681469 -117.081969 
L 118.718494 -116.642448 
L 115.75552 -116.18007 
L 112.792545 -115.642248 
L 109.82957 -115.103239 
L 106.866595 -114.55971 
L 103.90362 -114.019611 
L 100.940646 -113.392458 
L 97.977671 -112.847109 
L 95.014696 -112.377862 
L 92.051721 -111.859215 
L 89.088746 -111.320082 
L 86.125771 -110.780948 
L 83.162797 -110.338481 
L 80.199822 -109.949093 
L 77.236847 -109.462488 
L 74.273872 -108.985328 
L 71.310897 -108.557879 
L 68.347923 -108.000146 
L 65.384948 -107.500131 
L 62.421973 -107.01053 
z
" id="m0bcc5f8b21" style="stroke:#ffffff;stroke-opacity:0.15;stroke-width:0.8;"/>
    </defs>
    <g clip-path="url(#p5fceb3a24c)">
     <use style="fill:#1f77b4;fill-opacity:0.15;stroke:#ffffff;stroke-opacity:0.15;stroke-width:0.8;" x="0" xlink:href="#m0bcc5f8b21" y="360"/>
    </g>
   </g>
   <g id="PathCollection_2">
    <defs>
     <path d="M -2.4 2.4 
L 2.4 -2.4 
M -2.4 -2.4 
L 2.4 2.4 
" id="mb66de2a2a2" style="stroke:#ff7f0e;stroke-opacity:0.8;stroke-width:1.2;"/>
    </defs>
    <g clip-path="url(#p5fceb3a24c)">
     <use style="fill:#ff7f0e;fill-opacity:0.8;stroke:#ff7f0e;stroke-opacity:0.8;stroke-width:1.2;" x="147.952269" xlink:href="#mb66de2a2a2" y="295.150404"/>
     <use style="fill:#ff7f0e;fill-opacity:0.8;stroke:#ff7f0e;stroke-opacity:0.8;stroke-width:1.2;" x="107.091891" xlink:href="#mb66de2a2a2" y="275.827006"/>
     <use style="fill:#ff7f0e;fill-opacity:0.8;stroke:#ff7f0e;stroke-opacity:0.8;stroke-width:1.2;" x="172.652829" xlink:href="#mb66de2a2a2" y="221.126924"/>
     <use style="fill:#ff7f0e;fill-opacity:0.8;stroke:#ff7f0e;stroke-opacity:0.8;stroke-width:1.2;" x="189.058424" xlink:href="#mb66de2a2a2" y="226.775302"/>
     <use style="fill:#ff7f0e;fill-opacity:0.8;stroke:#ff7f0e;stroke-opacity:0.8;stroke-width:1.2;" x="194.649845" xlink:href="#mb66de2a2a2" y="217.85681"/>
     <use style="fill:#ff7f0e;fill-opacity:0.8;stroke:#ff7f0e;stroke-opacity:0.8;stroke-width:1.2;" x="198.950937" xlink:href="#mb66de2a2a2" y="185.155674"/>
     <use style="fill:#ff7f0e;fill-opacity:0.8;stroke:#ff7f0e;stroke-opacity:0.8;stroke-width:1.2;" x="97.445155" xlink:href="#mb66de2a2a2" y="265.719382"/>
     <use style="fill:#ff7f0e;fill-opacity:0.8;stroke:#ff7f0e;stroke-opacity:0.8;stroke-width:1.2;" x="208.720561" xlink:href="#mb66de2a2a2" y="232.42368"/>
     <use style="fill:#ff7f0e;fill-opacity:0.8;stroke:#ff7f0e;stroke-opacity:0.8;stroke-width:1.2;" x="135.970654" xlink:href="#mb66de2a2a2" y="266.908514"/>
     <use style="fill:#ff7f0e;fill-opacity:0.8;stroke:#ff7f0e;stroke-opacity:0.8;stroke-width:1.2;" x="134.373106" xlink:href="#mb66de2a2a2" y="229.153566"/>
     <use style="fill:#ff7f0e;fill-opacity:0.8;stroke:#ff7f0e;stroke-opacity:0.8;stroke-width:1.2;" x="106.661781" xlink:href="#mb66de2a2a2" y="274.340591"/>
     <use style="fill:#ff7f0e;fill-opacity:0.8;stroke:#ff7f0e;stroke-opacity:0.8;stroke-width:1.2;" x="260.210783" xlink:href="#mb66de2a2a2" y="176.534465"/>
     <use style="fill:#ff7f0e;fill-opacity:0.8;stroke:#ff7f0e;stroke-opacity:0.8;stroke-width:1.2;" x="138.305533" xlink:href="#mb66de2a2a2" y="278.502553"/>
     <use style="fill:#ff7f0e;fill-opacity:0.8;stroke:#ff7f0e;stroke-opacity:0.8;stroke-width:1.2;" x="156.800231" xlink:href="#mb66de2a2a2" y="235.991076"/>
     <use style="fill:#ff7f0e;fill-opacity:0.8;stroke:#ff7f0e;stroke-opacity:0.8;stroke-width:1.2;" x="134.680327" xlink:href="#mb66de2a2a2" y="235.39651"/>
     <use style="fill:#ff7f0e;fill-opacity:0.8;stroke:#ff7f0e;stroke-opacity:0.8;stroke-width:1.2;" x="176.155147" xlink:href="#mb66de2a2a2" y="208.641035"/>
     <use style="fill:#ff7f0e;fill-opacity:0.8;stroke:#ff7f0e;stroke-opacity:0.8;stroke-width:1.2;" x="107.030446" xlink:href="#mb66de2a2a2" y="275.529723"/>
     <use style="fill:#ff7f0e;fill-opacity:0.8;stroke:#ff7f0e;stroke-opacity:0.8;stroke-width:1.2;" x="143.651177" xlink:href="#mb66de2a2a2" y="214.883979"/>
     <use style="fill:#ff7f0e;fill-opacity:0.8;stroke:#ff7f0e;stroke-opacity:0.8;stroke-width:1.2;" x="147.829381" xlink:href="#mb66de2a2a2" y="221.126924"/>
     <use style="fill:#ff7f0e;fill-opacity:0.8;stroke:#ff7f0e;stroke-opacity:0.8;stroke-width:1.2;" x="170.440838" xlink:href="#mb66de2a2a2" y="225.586169"/>
     <use style="fill:#ff7f0e;fill-opacity:0.8;stroke:#ff7f0e;stroke-opacity:0.8;stroke-width:1.2;" x="153.666578" xlink:href="#mb66de2a2a2" y="203.884506"/>
     <use style="fill:#ff7f0e;fill-opacity:0.8;stroke:#ff7f0e;stroke-opacity:0.8;stroke-width:1.2;" x="168.228848" xlink:href="#mb66de2a2a2" y="243.423153"/>
     <use style="fill:#ff7f0e;fill-opacity:0.8;stroke:#ff7f0e;stroke-opacity:0.8;stroke-width:1.2;" x="140.456079" xlink:href="#mb66de2a2a2" y="258.881872"/>
     <use style="fill:#ff7f0e;fill-opacity:0.8;stroke:#ff7f0e;stroke-opacity:0.8;stroke-width:1.2;" x="285.771561" xlink:href="#mb66de2a2a2" y="99.835437"/>
     <use style="fill:#ff7f0e;fill-opacity:0.8;stroke:#ff7f0e;stroke-opacity:0.8;stroke-width:1.2;" x="165.340972" xlink:href="#mb66de2a2a2" y="230.639981"/>
     <use style="fill:#ff7f0e;fill-opacity:0.8;stroke:#ff7f0e;stroke-opacity:0.8;stroke-width:1.2;" x="152.990692" xlink:href="#mb66de2a2a2" y="255.611758"/>
     <use style="fill:#ff7f0e;fill-opacity:0.8;stroke:#ff7f0e;stroke-opacity:0.8;stroke-width:1.2;" x="125.709477" xlink:href="#mb66de2a2a2" y="265.719382"/>
     <use style="fill:#ff7f0e;fill-opacity:0.8;stroke:#ff7f0e;stroke-opacity:0.8;stroke-width:1.2;" x="121.531272" xlink:href="#mb66de2a2a2" y="265.719382"/>
     <use style="fill:#ff7f0e;fill-opacity:0.8;stroke:#ff7f0e;stroke-opacity:0.8;stroke-width:1.2;" x="176.892477" xlink:href="#mb66de2a2a2" y="197.344279"/>
     <use style="fill:#ff7f0e;fill-opacity:0.8;stroke:#ff7f0e;stroke-opacity:0.8;stroke-width:1.2;" x="164.29642" xlink:href="#mb66de2a2a2" y="235.991076"/>
     <use style="fill:#ff7f0e;fill-opacity:0.8;stroke:#ff7f0e;stroke-opacity:0.8;stroke-width:1.2;" x="102.2378" xlink:href="#mb66de2a2a2" y="282.06995"/>
     <use style="fill:#ff7f0e;fill-opacity:0.8;stroke:#ff7f0e;stroke-opacity:0.8;stroke-width:1.2;" x="156.308677" xlink:href="#mb66de2a2a2" y="250.855229"/>
     <use style="fill:#ff7f0e;fill-opacity:0.8;stroke:#ff7f0e;stroke-opacity:0.8;stroke-width:1.2;" x="136.093543" xlink:href="#mb66de2a2a2" y="235.991076"/>
     <use style="fill:#ff7f0e;fill-opacity:0.8;stroke:#ff7f0e;stroke-opacity:0.8;stroke-width:1.2;" x="170.686615" xlink:href="#mb66de2a2a2" y="252.341644"/>
     <use style="fill:#ff7f0e;fill-opacity:0.8;stroke:#ff7f0e;stroke-opacity:0.8;stroke-width:1.2;" x="152.806359" xlink:href="#mb66de2a2a2" y="227.964434"/>
     <use style="fill:#ff7f0e;fill-opacity:0.8;stroke:#ff7f0e;stroke-opacity:0.8;stroke-width:1.2;" x="191.393303" xlink:href="#mb66de2a2a2" y="218.154093"/>
     <use style="fill:#ff7f0e;fill-opacity:0.8;stroke:#ff7f0e;stroke-opacity:0.8;stroke-width:1.2;" x="143.774065" xlink:href="#mb66de2a2a2" y="265.719382"/>
     <use style="fill:#ff7f0e;fill-opacity:0.8;stroke:#ff7f0e;stroke-opacity:0.8;stroke-width:1.2;" x="147.583604" xlink:href="#mb66de2a2a2" y="233.910095"/>
     <use style="fill:#ff7f0e;fill-opacity:0.8;stroke:#ff7f0e;stroke-opacity:0.8;stroke-width:1.2;" x="158.397779" xlink:href="#mb66de2a2a2" y="256.503607"/>
     <use style="fill:#ff7f0e;fill-opacity:0.8;stroke:#ff7f0e;stroke-opacity:0.8;stroke-width:1.2;" x="235.694556" xlink:href="#mb66de2a2a2" y="176.534465"/>
     <use style="fill:#ff7f0e;fill-opacity:0.8;stroke:#ff7f0e;stroke-opacity:0.8;stroke-width:1.2;" x="142.115072" xlink:href="#mb66de2a2a2" y="258.584589"/>
     <use style="fill:#ff7f0e;fill-opacity:0.8;stroke:#ff7f0e;stroke-opacity:0.8;stroke-width:1.2;" x="150.840145" xlink:href="#mb66de2a2a2" y="249.666097"/>
     <use style="fill:#ff7f0e;fill-opacity:0.8;stroke:#ff7f0e;stroke-opacity:0.8;stroke-width:1.2;" x="129.211795" xlink:href="#mb66de2a2a2" y="234.207378"/>
     <use style="fill:#ff7f0e;fill-opacity:0.8;stroke:#ff7f0e;stroke-opacity:0.8;stroke-width:1.2;" x="103.036575" xlink:href="#mb66de2a2a2" y="285.93463"/>
     <use style="fill:#ff7f0e;fill-opacity:0.8;stroke:#ff7f0e;stroke-opacity:0.8;stroke-width:1.2;" x="230.348912" xlink:href="#mb66de2a2a2" y="158.697482"/>
     <use style="fill:#ff7f0e;fill-opacity:0.8;stroke:#ff7f0e;stroke-opacity:0.8;stroke-width:1.2;" x="155.940012" xlink:href="#mb66de2a2a2" y="235.991076"/>
     <use style="fill:#ff7f0e;fill-opacity:0.8;stroke:#ff7f0e;stroke-opacity:0.8;stroke-width:1.2;" x="180.149018" xlink:href="#mb66de2a2a2" y="176.534465"/>
     <use style="fill:#ff7f0e;fill-opacity:0.8;stroke:#ff7f0e;stroke-opacity:0.8;stroke-width:1.2;" x="242.637748" xlink:href="#mb66de2a2a2" y="146.80616"/>
     <use style="fill:#ff7f0e;fill-opacity:0.8;stroke:#ff7f0e;stroke-opacity:0.8;stroke-width:1.2;" x="218.981739" xlink:href="#mb66de2a2a2" y="264.232967"/>
     <use style="fill:#ff7f0e;fill-opacity:0.8;stroke:#ff7f0e;stroke-opacity:0.8;stroke-width:1.2;" x="154.403908" xlink:href="#mb66de2a2a2" y="235.991076"/>
     <use style="fill:#ff7f0e;fill-opacity:0.8;stroke:#ff7f0e;stroke-opacity:0.8;stroke-width:1.2;" x="120.60961" xlink:href="#mb66de2a2a2" y="250.855229"/>
     <use style="fill:#ff7f0e;fill-opacity:0.8;stroke:#ff7f0e;stroke-opacity:0.8;stroke-width:1.2;" x="106.78467" xlink:href="#mb66de2a2a2" y="247.882399"/>
     <use style="fill:#ff7f0e;fill-opacity:0.8;stroke:#ff7f0e;stroke-opacity:0.8;stroke-width:1.2;" x="257.445795" xlink:href="#mb66de2a2a2" y="170.588804"/>
     <use style="fill:#ff7f0e;fill-opacity:0.8;stroke:#ff7f0e;stroke-opacity:0.8;stroke-width:1.2;" x="104.634123" xlink:href="#mb66de2a2a2" y="278.799836"/>
     <use style="fill:#ff7f0e;fill-opacity:0.8;stroke:#ff7f0e;stroke-opacity:0.8;stroke-width:1.2;" x="200.60993" xlink:href="#mb66de2a2a2" y="196.155147"/>
     <use style="fill:#ff7f0e;fill-opacity:0.8;stroke:#ff7f0e;stroke-opacity:0.8;stroke-width:1.2;" x="163.313314" xlink:href="#mb66de2a2a2" y="220.829641"/>
     <use style="fill:#ff7f0e;fill-opacity:0.8;stroke:#ff7f0e;stroke-opacity:0.8;stroke-width:1.2;" x="205.832685" xlink:href="#mb66de2a2a2" y="280.583535"/>
     <use style="fill:#ff7f0e;fill-opacity:0.8;stroke:#ff7f0e;stroke-opacity:0.8;stroke-width:1.2;" x="340.149659" xlink:href="#mb66de2a2a2" y="125.104497"/>
     <use style="fill:#ff7f0e;fill-opacity:0.8;stroke:#ff7f0e;stroke-opacity:0.8;stroke-width:1.2;" x="151.63892" xlink:href="#mb66de2a2a2" y="246.693266"/>
     <use style="fill:#ff7f0e;fill-opacity:0.8;stroke:#ff7f0e;stroke-opacity:0.8;stroke-width:1.2;" x="166.93852" xlink:href="#mb66de2a2a2" y="231.531831"/>
     <use style="fill:#ff7f0e;fill-opacity:0.8;stroke:#ff7f0e;stroke-opacity:0.8;stroke-width:1.2;" x="144.634283" xlink:href="#mb66de2a2a2" y="251.747078"/>
     <use style="fill:#ff7f0e;fill-opacity:0.8;stroke:#ff7f0e;stroke-opacity:0.8;stroke-width:1.2;" x="167.860183" xlink:href="#mb66de2a2a2" y="265.422099"/>
     <use style="fill:#ff7f0e;fill-opacity:0.8;stroke:#ff7f0e;stroke-opacity:0.8;stroke-width:1.2;" x="117.414512" xlink:href="#mb66de2a2a2" y="266.611231"/>
     <use style="fill:#ff7f0e;fill-opacity:0.8;stroke:#ff7f0e;stroke-opacity:0.8;stroke-width:1.2;" x="148.443823" xlink:href="#mb66de2a2a2" y="235.991076"/>
     <use style="fill:#ff7f0e;fill-opacity:0.8;stroke:#ff7f0e;stroke-opacity:0.8;stroke-width:1.2;" x="134.065885" xlink:href="#mb66de2a2a2" y="259.773721"/>
     <use style="fill:#ff7f0e;fill-opacity:0.8;stroke:#ff7f0e;stroke-opacity:0.8;stroke-width:1.2;" x="108.136442" xlink:href="#mb66de2a2a2" y="288.015611"/>
     <use style="fill:#ff7f0e;fill-opacity:0.8;stroke:#ff7f0e;stroke-opacity:0.8;stroke-width:1.2;" x="210.686775" xlink:href="#mb66de2a2a2" y="206.262771"/>
     <use style="fill:#ff7f0e;fill-opacity:0.8;stroke:#ff7f0e;stroke-opacity:0.8;stroke-width:1.2;" x="183.40556" xlink:href="#mb66de2a2a2" y="235.991076"/>
     <use style="fill:#ff7f0e;fill-opacity:0.8;stroke:#ff7f0e;stroke-opacity:0.8;stroke-width:1.2;" x="149.795594" xlink:href="#mb66de2a2a2" y="244.612285"/>
     <use style="fill:#ff7f0e;fill-opacity:0.8;stroke:#ff7f0e;stroke-opacity:0.8;stroke-width:1.2;" x="145.924611" xlink:href="#mb66de2a2a2" y="224.099754"/>
     <use style="fill:#ff7f0e;fill-opacity:0.8;stroke:#ff7f0e;stroke-opacity:0.8;stroke-width:1.2;" x="105.432898" xlink:href="#mb66de2a2a2" y="270.773194"/>
     <use style="fill:#ff7f0e;fill-opacity:0.8;stroke:#ff7f0e;stroke-opacity:0.8;stroke-width:1.2;" x="141.746407" xlink:href="#mb66de2a2a2" y="264.827533"/>
     <use style="fill:#ff7f0e;fill-opacity:0.8;stroke:#ff7f0e;stroke-opacity:0.8;stroke-width:1.2;" x="257.568683" xlink:href="#mb66de2a2a2" y="171.480653"/>
     <use style="fill:#ff7f0e;fill-opacity:0.8;stroke:#ff7f0e;stroke-opacity:0.8;stroke-width:1.2;" x="123.620374" xlink:href="#mb66de2a2a2" y="265.719382"/>
     <use style="fill:#ff7f0e;fill-opacity:0.8;stroke:#ff7f0e;stroke-opacity:0.8;stroke-width:1.2;" x="155.878568" xlink:href="#mb66de2a2a2" y="206.262771"/>
     <use style="fill:#ff7f0e;fill-opacity:0.8;stroke:#ff7f0e;stroke-opacity:0.8;stroke-width:1.2;" x="195.387175" xlink:href="#mb66de2a2a2" y="151.265406"/>
     <use style="fill:#ff7f0e;fill-opacity:0.8;stroke:#ff7f0e;stroke-opacity:0.8;stroke-width:1.2;" x="173.574491" xlink:href="#mb66de2a2a2" y="235.991076"/>
     <use style="fill:#ff7f0e;fill-opacity:0.8;stroke:#ff7f0e;stroke-opacity:0.8;stroke-width:1.2;" x="181.746567" xlink:href="#mb66de2a2a2" y="221.126924"/>
     <use style="fill:#ff7f0e;fill-opacity:0.8;stroke:#ff7f0e;stroke-opacity:0.8;stroke-width:1.2;" x="183.344116" xlink:href="#mb66de2a2a2" y="228.559"/>
     <use style="fill:#ff7f0e;fill-opacity:0.8;stroke:#ff7f0e;stroke-opacity:0.8;stroke-width:1.2;" x="120.118056" xlink:href="#mb66de2a2a2" y="280.583535"/>
     <use style="fill:#ff7f0e;fill-opacity:0.8;stroke:#ff7f0e;stroke-opacity:0.8;stroke-width:1.2;" x="172.099831" xlink:href="#mb66de2a2a2" y="203.884506"/>
     <use style="fill:#ff7f0e;fill-opacity:0.8;stroke:#ff7f0e;stroke-opacity:0.8;stroke-width:1.2;" x="155.632791" xlink:href="#mb66de2a2a2" y="213.397564"/>
     <use style="fill:#ff7f0e;fill-opacity:0.8;stroke:#ff7f0e;stroke-opacity:0.8;stroke-width:1.2;" x="129.58046" xlink:href="#mb66de2a2a2" y="235.991076"/>
     <use style="fill:#ff7f0e;fill-opacity:0.8;stroke:#ff7f0e;stroke-opacity:0.8;stroke-width:1.2;" x="88.105639" xlink:href="#mb66de2a2a2" y="295.447687"/>
     <use style="fill:#ff7f0e;fill-opacity:0.8;stroke:#ff7f0e;stroke-opacity:0.8;stroke-width:1.2;" x="277.476597" xlink:href="#mb66de2a2a2" y="206.262771"/>
     <use style="fill:#ff7f0e;fill-opacity:0.8;stroke:#ff7f0e;stroke-opacity:0.8;stroke-width:1.2;" x="190.717417" xlink:href="#mb66de2a2a2" y="249.368814"/>
     <use style="fill:#ff7f0e;fill-opacity:0.8;stroke:#ff7f0e;stroke-opacity:0.8;stroke-width:1.2;" x="201.531593" xlink:href="#mb66de2a2a2" y="206.262771"/>
     <use style="fill:#ff7f0e;fill-opacity:0.8;stroke:#ff7f0e;stroke-opacity:0.8;stroke-width:1.2;" x="149.918483" xlink:href="#mb66de2a2a2" y="221.126924"/>
     <use style="fill:#ff7f0e;fill-opacity:0.8;stroke:#ff7f0e;stroke-opacity:0.8;stroke-width:1.2;" x="227.461036" xlink:href="#mb66de2a2a2" y="174.453484"/>
     <use style="fill:#ff7f0e;fill-opacity:0.8;stroke:#ff7f0e;stroke-opacity:0.8;stroke-width:1.2;" x="108.99666" xlink:href="#mb66de2a2a2" y="280.583535"/>
     <use style="fill:#ff7f0e;fill-opacity:0.8;stroke:#ff7f0e;stroke-opacity:0.8;stroke-width:1.2;" x="119.933724" xlink:href="#mb66de2a2a2" y="271.665043"/>
     <use style="fill:#ff7f0e;fill-opacity:0.8;stroke:#ff7f0e;stroke-opacity:0.8;stroke-width:1.2;" x="191.516191" xlink:href="#mb66de2a2a2" y="238.369341"/>
     <use style="fill:#ff7f0e;fill-opacity:0.8;stroke:#ff7f0e;stroke-opacity:0.8;stroke-width:1.2;" x="115.386855" xlink:href="#mb66de2a2a2" y="256.503607"/>
     <use style="fill:#ff7f0e;fill-opacity:0.8;stroke:#ff7f0e;stroke-opacity:0.8;stroke-width:1.2;" x="126.016697" xlink:href="#mb66de2a2a2" y="275.23244"/>
     <use style="fill:#ff7f0e;fill-opacity:0.8;stroke:#ff7f0e;stroke-opacity:0.8;stroke-width:1.2;" x="131.178008" xlink:href="#mb66de2a2a2" y="250.855229"/>
     <use style="fill:#ff7f0e;fill-opacity:0.8;stroke:#ff7f0e;stroke-opacity:0.8;stroke-width:1.2;" x="141.562075" xlink:href="#mb66de2a2a2" y="265.719382"/>
     <use style="fill:#ff7f0e;fill-opacity:0.8;stroke:#ff7f0e;stroke-opacity:0.8;stroke-width:1.2;" x="120.240945" xlink:href="#mb66de2a2a2" y="250.260663"/>
     <use style="fill:#ff7f0e;fill-opacity:0.8;stroke:#ff7f0e;stroke-opacity:0.8;stroke-width:1.2;" x="226.662261" xlink:href="#mb66de2a2a2" y="200.31711"/>
     <use style="fill:#ff7f0e;fill-opacity:0.8;stroke:#ff7f0e;stroke-opacity:0.8;stroke-width:1.2;" x="95.90905" xlink:href="#mb66de2a2a2" y="281.178101"/>
     <use style="fill:#ff7f0e;fill-opacity:0.8;stroke:#ff7f0e;stroke-opacity:0.8;stroke-width:1.2;" x="132.775557" xlink:href="#mb66de2a2a2" y="265.719382"/>
     <use style="fill:#ff7f0e;fill-opacity:0.8;stroke:#ff7f0e;stroke-opacity:0.8;stroke-width:1.2;" x="113.482085" xlink:href="#mb66de2a2a2" y="265.719382"/>
     <use style="fill:#ff7f0e;fill-opacity:0.8;stroke:#ff7f0e;stroke-opacity:0.8;stroke-width:1.2;" x="183.774225" xlink:href="#mb66de2a2a2" y="260.368287"/>
     <use style="fill:#ff7f0e;fill-opacity:0.8;stroke:#ff7f0e;stroke-opacity:0.8;stroke-width:1.2;" x="160.794102" xlink:href="#mb66de2a2a2" y="280.583535"/>
     <use style="fill:#ff7f0e;fill-opacity:0.8;stroke:#ff7f0e;stroke-opacity:0.8;stroke-width:1.2;" x="168.10596" xlink:href="#mb66de2a2a2" y="241.044888"/>
     <use style="fill:#ff7f0e;fill-opacity:0.8;stroke:#ff7f0e;stroke-opacity:0.8;stroke-width:1.2;" x="112.191757" xlink:href="#mb66de2a2a2" y="280.583535"/>
     <use style="fill:#ff7f0e;fill-opacity:0.8;stroke:#ff7f0e;stroke-opacity:0.8;stroke-width:1.2;" x="118.889173" xlink:href="#mb66de2a2a2" y="265.719382"/>
     <use style="fill:#ff7f0e;fill-opacity:0.8;stroke:#ff7f0e;stroke-opacity:0.8;stroke-width:1.2;" x="155.75568" xlink:href="#mb66de2a2a2" y="228.559"/>
     <use style="fill:#ff7f0e;fill-opacity:0.8;stroke:#ff7f0e;stroke-opacity:0.8;stroke-width:1.2;" x="95.847606" xlink:href="#mb66de2a2a2" y="288.015611"/>
     <use style="fill:#ff7f0e;fill-opacity:0.8;stroke:#ff7f0e;stroke-opacity:0.8;stroke-width:1.2;" x="107.030446" xlink:href="#mb66de2a2a2" y="265.719382"/>
     <use style="fill:#ff7f0e;fill-opacity:0.8;stroke:#ff7f0e;stroke-opacity:0.8;stroke-width:1.2;" x="130.502122" xlink:href="#mb66de2a2a2" y="265.719382"/>
     <use style="fill:#ff7f0e;fill-opacity:0.8;stroke:#ff7f0e;stroke-opacity:0.8;stroke-width:1.2;" x="124.419149" xlink:href="#mb66de2a2a2" y="243.423153"/>
     <use style="fill:#ff7f0e;fill-opacity:0.8;stroke:#ff7f0e;stroke-opacity:0.8;stroke-width:1.2;" x="150.90159" xlink:href="#mb66de2a2a2" y="221.126924"/>
     <use style="fill:#ff7f0e;fill-opacity:0.8;stroke:#ff7f0e;stroke-opacity:0.8;stroke-width:1.2;" x="254.312142" xlink:href="#mb66de2a2a2" y="125.996346"/>
     <use style="fill:#ff7f0e;fill-opacity:0.8;stroke:#ff7f0e;stroke-opacity:0.8;stroke-width:1.2;" x="296.64718" xlink:href="#mb66de2a2a2" y="176.534465"/>
     <use style="fill:#ff7f0e;fill-opacity:0.8;stroke:#ff7f0e;stroke-opacity:0.8;stroke-width:1.2;" x="209.765112" xlink:href="#mb66de2a2a2" y="176.534465"/>
     <use style="fill:#ff7f0e;fill-opacity:0.8;stroke:#ff7f0e;stroke-opacity:0.8;stroke-width:1.2;" x="144.511395" xlink:href="#mb66de2a2a2" y="256.80089"/>
     <use style="fill:#ff7f0e;fill-opacity:0.8;stroke:#ff7f0e;stroke-opacity:0.8;stroke-width:1.2;" x="94.864499" xlink:href="#mb66de2a2a2" y="280.583535"/>
     <use style="fill:#ff7f0e;fill-opacity:0.8;stroke:#ff7f0e;stroke-opacity:0.8;stroke-width:1.2;" x="158.090558" xlink:href="#mb66de2a2a2" y="284.745497"/>
     <use style="fill:#ff7f0e;fill-opacity:0.8;stroke:#ff7f0e;stroke-opacity:0.8;stroke-width:1.2;" x="116.49285" xlink:href="#mb66de2a2a2" y="276.718855"/>
     <use style="fill:#ff7f0e;fill-opacity:0.8;stroke:#ff7f0e;stroke-opacity:0.8;stroke-width:1.2;" x="103.651017" xlink:href="#mb66de2a2a2" y="273.746024"/>
     <use style="fill:#ff7f0e;fill-opacity:0.8;stroke:#ff7f0e;stroke-opacity:0.8;stroke-width:1.2;" x="89.703188" xlink:href="#mb66de2a2a2" y="265.719382"/>
     <use style="fill:#ff7f0e;fill-opacity:0.8;stroke:#ff7f0e;stroke-opacity:0.8;stroke-width:1.2;" x="130.010569" xlink:href="#mb66de2a2a2" y="250.855229"/>
     <use style="fill:#ff7f0e;fill-opacity:0.8;stroke:#ff7f0e;stroke-opacity:0.8;stroke-width:1.2;" x="124.234816" xlink:href="#mb66de2a2a2" y="265.719382"/>
     <use style="fill:#ff7f0e;fill-opacity:0.8;stroke:#ff7f0e;stroke-opacity:0.8;stroke-width:1.2;" x="149.611262" xlink:href="#mb66de2a2a2" y="243.720436"/>
     <use style="fill:#ff7f0e;fill-opacity:0.8;stroke:#ff7f0e;stroke-opacity:0.8;stroke-width:1.2;" x="194.404068" xlink:href="#mb66de2a2a2" y="265.719382"/>
     <use style="fill:#ff7f0e;fill-opacity:0.8;stroke:#ff7f0e;stroke-opacity:0.8;stroke-width:1.2;" x="165.033751" xlink:href="#mb66de2a2a2" y="265.719382"/>
     <use style="fill:#ff7f0e;fill-opacity:0.8;stroke:#ff7f0e;stroke-opacity:0.8;stroke-width:1.2;" x="226.969482" xlink:href="#mb66de2a2a2" y="172.372502"/>
     <use style="fill:#ff7f0e;fill-opacity:0.8;stroke:#ff7f0e;stroke-opacity:0.8;stroke-width:1.2;" x="339.535217" xlink:href="#mb66de2a2a2" y="176.534465"/>
     <use style="fill:#ff7f0e;fill-opacity:0.8;stroke:#ff7f0e;stroke-opacity:0.8;stroke-width:1.2;" x="197.169056" xlink:href="#mb66de2a2a2" y="213.694847"/>
     <use style="fill:#ff7f0e;fill-opacity:0.8;stroke:#ff7f0e;stroke-opacity:0.8;stroke-width:1.2;" x="125.832365" xlink:href="#mb66de2a2a2" y="247.585116"/>
     <use style="fill:#ff7f0e;fill-opacity:0.8;stroke:#ff7f0e;stroke-opacity:0.8;stroke-width:1.2;" x="144.88006" xlink:href="#mb66de2a2a2" y="265.719382"/>
     <use style="fill:#ff7f0e;fill-opacity:0.8;stroke:#ff7f0e;stroke-opacity:0.8;stroke-width:1.2;" x="175.663593" xlink:href="#mb66de2a2a2" y="221.126924"/>
     <use style="fill:#ff7f0e;fill-opacity:0.8;stroke:#ff7f0e;stroke-opacity:0.8;stroke-width:1.2;" x="121.34694" xlink:href="#mb66de2a2a2" y="250.855229"/>
     <use style="fill:#ff7f0e;fill-opacity:0.8;stroke:#ff7f0e;stroke-opacity:0.8;stroke-width:1.2;" x="143.159623" xlink:href="#mb66de2a2a2" y="265.719382"/>
     <use style="fill:#ff7f0e;fill-opacity:0.8;stroke:#ff7f0e;stroke-opacity:0.8;stroke-width:1.2;" x="128.41302" xlink:href="#mb66de2a2a2" y="265.719382"/>
     <use style="fill:#ff7f0e;fill-opacity:0.8;stroke:#ff7f0e;stroke-opacity:0.8;stroke-width:1.2;" x="194.219735" xlink:href="#mb66de2a2a2" y="221.72149"/>
     <use style="fill:#ff7f0e;fill-opacity:0.8;stroke:#ff7f0e;stroke-opacity:0.8;stroke-width:1.2;" x="171.116724" xlink:href="#mb66de2a2a2" y="258.584589"/>
     <use style="fill:#ff7f0e;fill-opacity:0.8;stroke:#ff7f0e;stroke-opacity:0.8;stroke-width:1.2;" x="238.398099" xlink:href="#mb66de2a2a2" y="191.398618"/>
     <use style="fill:#ff7f0e;fill-opacity:0.8;stroke:#ff7f0e;stroke-opacity:0.8;stroke-width:1.2;" x="170.686615" xlink:href="#mb66de2a2a2" y="176.534465"/>
     <use style="fill:#ff7f0e;fill-opacity:0.8;stroke:#ff7f0e;stroke-opacity:0.8;stroke-width:1.2;" x="90.010409" xlink:href="#mb66de2a2a2" y="282.367233"/>
     <use style="fill:#ff7f0e;fill-opacity:0.8;stroke:#ff7f0e;stroke-opacity:0.8;stroke-width:1.2;" x="340.518324" xlink:href="#mb66de2a2a2" y="57.621243"/>
     <use style="fill:#ff7f0e;fill-opacity:0.8;stroke:#ff7f0e;stroke-opacity:0.8;stroke-width:1.2;" x="141.746407" xlink:href="#mb66de2a2a2" y="235.991076"/>
     <use style="fill:#ff7f0e;fill-opacity:0.8;stroke:#ff7f0e;stroke-opacity:0.8;stroke-width:1.2;" x="169.211955" xlink:href="#mb66de2a2a2" y="235.991076"/>
     <use style="fill:#ff7f0e;fill-opacity:0.8;stroke:#ff7f0e;stroke-opacity:0.8;stroke-width:1.2;" x="125.156479" xlink:href="#mb66de2a2a2" y="244.315002"/>
     <use style="fill:#ff7f0e;fill-opacity:0.8;stroke:#ff7f0e;stroke-opacity:0.8;stroke-width:1.2;" x="114.895301" xlink:href="#mb66de2a2a2" y="224.397037"/>
     <use style="fill:#ff7f0e;fill-opacity:0.8;stroke:#ff7f0e;stroke-opacity:0.8;stroke-width:1.2;" x="109.73399" xlink:href="#mb66de2a2a2" y="281.475384"/>
     <use style="fill:#ff7f0e;fill-opacity:0.8;stroke:#ff7f0e;stroke-opacity:0.8;stroke-width:1.2;" x="105.432898" xlink:href="#mb66de2a2a2" y="288.015611"/>
     <use style="fill:#ff7f0e;fill-opacity:0.8;stroke:#ff7f0e;stroke-opacity:0.8;stroke-width:1.2;" x="263.713101" xlink:href="#mb66de2a2a2" y="186.344806"/>
     <use style="fill:#ff7f0e;fill-opacity:0.8;stroke:#ff7f0e;stroke-opacity:0.8;stroke-width:1.2;" x="221.93106" xlink:href="#mb66de2a2a2" y="149.184424"/>
     <use style="fill:#ff7f0e;fill-opacity:0.8;stroke:#ff7f0e;stroke-opacity:0.8;stroke-width:1.2;" x="153.052136" xlink:href="#mb66de2a2a2" y="273.151458"/>
     <use style="fill:#ff7f0e;fill-opacity:0.8;stroke:#ff7f0e;stroke-opacity:0.8;stroke-width:1.2;" x="158.950777" xlink:href="#mb66de2a2a2" y="235.991076"/>
    </g>
   </g>
   <g id="PolyCollection_2">
    <defs>
     <path d="M 88.105639 -80.708554 
L 88.105639 -68.332383 
L 90.655263 -70.297438 
L 93.204886 -72.262525 
L 95.754509 -74.213245 
L 98.304132 -76.150429 
L 100.853755 -78.081454 
L 103.403378 -80.02092 
L 105.953001 -81.955923 
L 108.502624 -83.846473 
L 111.052247 -85.67686 
L 113.60187 -87.551014 
L 116.151493 -89.500526 
L 118.701116 -91.4211 
L 121.250739 -93.248431 
L 123.800362 -95.047118 
L 126.349986 -96.851693 
L 128.899609 -98.733799 
L 131.449232 -100.610095 
L 133.998855 -102.48562 
L 136.548478 -104.323774 
L 139.098101 -106.043833 
L 141.647724 -107.740506 
L 144.197347 -109.452392 
L 146.74697 -111.10735 
L 149.296593 -112.665806 
L 151.846216 -114.263079 
L 154.395839 -115.826212 
L 156.945462 -117.438801 
L 159.495086 -119.042738 
L 162.044709 -120.591423 
L 164.594332 -122.108144 
L 167.143955 -123.642759 
L 169.693578 -125.19063 
L 172.243201 -126.736801 
L 174.792824 -128.207223 
L 177.342447 -129.653144 
L 179.89207 -131.123661 
L 182.441693 -132.606628 
L 184.991316 -134.110105 
L 187.540939 -135.542634 
L 190.090562 -137.107095 
L 192.640185 -138.606986 
L 195.189809 -140.150051 
L 197.739432 -141.567172 
L 200.289055 -143.019018 
L 202.838678 -144.539231 
L 205.388301 -146.042241 
L 207.937924 -147.501807 
L 210.487547 -148.96173 
L 213.03717 -150.421653 
L 215.586793 -151.878928 
L 218.136416 -153.298289 
L 220.686039 -154.726019 
L 223.235662 -156.154965 
L 225.785285 -157.596669 
L 228.334909 -159.077431 
L 230.884532 -160.558192 
L 233.434155 -162.038954 
L 235.983778 -163.519716 
L 238.533401 -165.000478 
L 241.083024 -166.46061 
L 243.632647 -167.91854 
L 246.18227 -169.37647 
L 248.731893 -170.834401 
L 251.281516 -172.292331 
L 253.831139 -173.750261 
L 256.380762 -175.162068 
L 258.930385 -176.561214 
L 261.480008 -177.960415 
L 264.029632 -179.359617 
L 266.579255 -180.758818 
L 269.128878 -182.15802 
L 271.678501 -183.557221 
L 274.228124 -184.956423 
L 276.777747 -186.355624 
L 279.32737 -187.754825 
L 281.876993 -189.161711 
L 284.426616 -190.605451 
L 286.976239 -192.054705 
L 289.525862 -193.509984 
L 292.075485 -194.965263 
L 294.625108 -196.420542 
L 297.174732 -197.875821 
L 299.724355 -199.3311 
L 302.273978 -200.786379 
L 304.823601 -202.241658 
L 307.373224 -203.696937 
L 309.922847 -205.152216 
L 312.47247 -206.607495 
L 315.022093 -208.062774 
L 317.571716 -209.518053 
L 320.121339 -210.973332 
L 322.670962 -212.428722 
L 325.220585 -213.884164 
L 327.770208 -215.339607 
L 330.319831 -216.795049 
L 332.869455 -218.25078 
L 335.419078 -219.706519 
L 337.968701 -221.162259 
L 340.518324 -222.617998 
L 340.518324 -264.670007 
L 340.518324 -264.670007 
L 337.968701 -262.717507 
L 335.419078 -260.765006 
L 332.869455 -258.812506 
L 330.319831 -256.860006 
L 327.770208 -254.907506 
L 325.220585 -252.955006 
L 322.670962 -251.002505 
L 320.121339 -249.050005 
L 317.571716 -247.097463 
L 315.022093 -245.14346 
L 312.47247 -243.133959 
L 309.922847 -241.158503 
L 307.373224 -239.21218 
L 304.823601 -237.265856 
L 302.273978 -235.319532 
L 299.724355 -233.373208 
L 297.174732 -231.426884 
L 294.625108 -229.479771 
L 292.075485 -227.492646 
L 289.525862 -225.493141 
L 286.976239 -223.493636 
L 284.426616 -221.494132 
L 281.876993 -219.494627 
L 279.32737 -217.495123 
L 276.777747 -215.495618 
L 274.228124 -213.49598 
L 271.678501 -211.496319 
L 269.128878 -209.496385 
L 266.579255 -207.495871 
L 264.029632 -205.495358 
L 261.480008 -203.493579 
L 258.930385 -201.491721 
L 256.380762 -199.489863 
L 253.831139 -197.488005 
L 251.281516 -195.486147 
L 248.731893 -193.484289 
L 246.18227 -191.482431 
L 243.632647 -189.480572 
L 241.083024 -187.478714 
L 238.533401 -185.562153 
L 235.983778 -183.578234 
L 233.434155 -181.541821 
L 230.884532 -179.505409 
L 228.334909 -177.483627 
L 225.785285 -175.565921 
L 223.235662 -173.691154 
L 220.686039 -171.8144 
L 218.136416 -169.937646 
L 215.586793 -168.060892 
L 213.03717 -166.184138 
L 210.487547 -164.298955 
L 207.937924 -162.315236 
L 205.388301 -160.409972 
L 202.838678 -158.48588 
L 200.289055 -156.43399 
L 197.739432 -154.379036 
L 195.189809 -152.42568 
L 192.640185 -150.471991 
L 190.090562 -148.534847 
L 187.540939 -146.718369 
L 184.991316 -144.8315 
L 182.441693 -142.915328 
L 179.89207 -140.986901 
L 177.342447 -139.010218 
L 174.792824 -137.201095 
L 172.243201 -135.324897 
L 169.693578 -133.522639 
L 167.143955 -131.67171 
L 164.594332 -129.707288 
L 162.044709 -127.847932 
L 159.495086 -125.914381 
L 156.945462 -124.086313 
L 154.395839 -122.334186 
L 151.846216 -120.582603 
L 149.296593 -118.863418 
L 146.74697 -117.124708 
L 144.197347 -115.406364 
L 141.647724 -113.628535 
L 139.098101 -111.926012 
L 136.548478 -110.236034 
L 133.998855 -108.610784 
L 131.449232 -106.942946 
L 128.899609 -105.272194 
L 126.349986 -103.722922 
L 123.800362 -102.110456 
L 121.250739 -100.555826 
L 118.701116 -99.021984 
L 116.151493 -97.488143 
L 113.60187 -95.968639 
L 111.052247 -94.432649 
L 108.502624 -92.895427 
L 105.953001 -91.345223 
L 103.403378 -89.815025 
L 100.853755 -88.296755 
L 98.304132 -86.830841 
L 95.754509 -85.343831 
L 93.204886 -83.797018 
L 90.655263 -82.283309 
L 88.105639 -80.708554 
z
" id="mec2026c124" style="stroke:#ffffff;stroke-opacity:0.15;stroke-width:0.8;"/>
    </defs>
    <g clip-path="url(#p5fceb3a24c)">
     <use style="fill:#ff7f0e;fill-opacity:0.15;stroke:#ffffff;stroke-opacity:0.15;stroke-width:0.8;" x="0" xlink:href="#mec2026c124" y="360"/>
    </g>
   </g>
   <g id="line2d_11">
    <path clip-path="url(#p5fceb3a24c)" d="M 62.421973 272.321641 
L 65.384948 271.32402 
L 68.347923 270.326399 
L 71.310897 269.328778 
L 74.273872 268.331157 
L 77.236847 267.333537 
L 80.199822 266.335916 
L 83.162797 265.338295 
L 86.125771 264.340674 
L 89.088746 263.343054 
L 92.051721 262.345433 
L 95.014696 261.347812 
L 97.977671 260.350191 
L 100.940646 259.352571 
L 103.90362 258.35495 
L 106.866595 257.357329 
L 109.82957 256.359708 
L 112.792545 255.362087 
L 115.75552 254.364467 
L 118.718494 253.366846 
L 121.681469 252.369225 
L 124.644444 251.371604 
L 127.607419 250.373984 
L 130.570394 249.376363 
L 133.533369 248.378742 
L 136.496343 247.381121 
L 139.459318 246.3835 
L 142.422293 245.38588 
L 145.385268 244.388259 
L 148.348243 243.390638 
L 151.311217 242.393017 
L 154.274192 241.395397 
L 157.237167 240.397776 
L 160.200142 239.400155 
L 163.163117 238.402534 
L 166.126092 237.404913 
L 169.089066 236.407293 
L 172.052041 235.409672 
L 175.015016 234.412051 
L 177.977991 233.41443 
L 180.940966 232.41681 
L 183.90394 231.419189 
L 186.866915 230.421568 
L 189.82989 229.423947 
L 192.792865 228.426327 
L 195.75584 227.428706 
L 198.718815 226.431085 
L 201.681789 225.433464 
L 204.644764 224.435843 
L 207.607739 223.438223 
L 210.570714 222.440602 
L 213.533689 221.442981 
L 216.496664 220.44536 
L 219.459638 219.44774 
L 222.422613 218.450119 
L 225.385588 217.452498 
L 228.348563 216.454877 
L 231.311538 215.457256 
L 234.274512 214.459636 
L 237.237487 213.462015 
L 240.200462 212.464394 
L 243.163437 211.466773 
L 246.126412 210.469153 
L 249.089387 209.471532 
L 252.052361 208.473911 
L 255.015336 207.47629 
L 257.978311 206.478669 
L 260.941286 205.481049 
L 263.904261 204.483428 
L 266.867235 203.485807 
L 269.83021 202.488186 
L 272.793185 201.490566 
L 275.75616 200.492945 
L 278.719135 199.495324 
L 281.68211 198.497703 
L 284.645084 197.500083 
L 287.608059 196.502462 
L 290.571034 195.504841 
L 293.534009 194.50722 
L 296.496984 193.509599 
L 299.459958 192.511979 
L 302.422933 191.514358 
L 305.385908 190.516737 
L 308.348883 189.519116 
L 311.311858 188.521496 
L 314.274833 187.523875 
L 317.237807 186.526254 
L 320.200782 185.528633 
L 323.163757 184.531012 
L 326.126732 183.533392 
L 329.089707 182.535771 
L 332.052681 181.53815 
L 335.015656 180.540529 
L 337.978631 179.542909 
L 340.941606 178.545288 
L 343.904581 177.547667 
L 346.867556 176.550046 
L 349.83053 175.552425 
L 352.793505 174.554805 
L 355.75648 173.557184 
" style="fill:none;stroke:#1f77b4;stroke-linecap:round;stroke-width:1.8;"/>
   </g>
   <g id="line2d_12">
    <path clip-path="url(#p5fceb3a24c)" d="M 88.105639 284.910519 
L 90.655263 283.218599 
L 93.204886 281.526678 
L 95.754509 279.834758 
L 98.304132 278.142838 
L 100.853755 276.450918 
L 103.403378 274.758997 
L 105.953001 273.067077 
L 108.502624 271.375157 
L 111.052247 269.683236 
L 113.60187 267.991316 
L 116.151493 266.299396 
L 118.701116 264.607476 
L 121.250739 262.915555 
L 123.800362 261.223635 
L 126.349986 259.531715 
L 128.899609 257.839795 
L 131.449232 256.147874 
L 133.998855 254.455954 
L 136.548478 252.764034 
L 139.098101 251.072114 
L 141.647724 249.380193 
L 144.197347 247.688273 
L 146.74697 245.996353 
L 149.296593 244.304433 
L 151.846216 242.612512 
L 154.395839 240.920592 
L 156.945462 239.228672 
L 159.495086 237.536751 
L 162.044709 235.844831 
L 164.594332 234.152911 
L 167.143955 232.460991 
L 169.693578 230.76907 
L 172.243201 229.07715 
L 174.792824 227.38523 
L 177.342447 225.69331 
L 179.89207 224.001389 
L 182.441693 222.309469 
L 184.991316 220.617549 
L 187.540939 218.925629 
L 190.090562 217.233708 
L 192.640185 215.541788 
L 195.189809 213.849868 
L 197.739432 212.157947 
L 200.289055 210.466027 
L 202.838678 208.774107 
L 205.388301 207.082187 
L 207.937924 205.390266 
L 210.487547 203.698346 
L 213.03717 202.006426 
L 215.586793 200.314506 
L 218.136416 198.622585 
L 220.686039 196.930665 
L 223.235662 195.238745 
L 225.785285 193.546825 
L 228.334909 191.854904 
L 230.884532 190.162984 
L 233.434155 188.471064 
L 235.983778 186.779143 
L 238.533401 185.087223 
L 241.083024 183.395303 
L 243.632647 181.703383 
L 246.18227 180.011462 
L 248.731893 178.319542 
L 251.281516 176.627622 
L 253.831139 174.935702 
L 256.380762 173.243781 
L 258.930385 171.551861 
L 261.480008 169.859941 
L 264.029632 168.168021 
L 266.579255 166.4761 
L 269.128878 164.78418 
L 271.678501 163.09226 
L 274.228124 161.40034 
L 276.777747 159.708419 
L 279.32737 158.016499 
L 281.876993 156.324579 
L 284.426616 154.632658 
L 286.976239 152.940738 
L 289.525862 151.248818 
L 292.075485 149.556898 
L 294.625108 147.864977 
L 297.174732 146.173057 
L 299.724355 144.481137 
L 302.273978 142.789217 
L 304.823601 141.097296 
L 307.373224 139.405376 
L 309.922847 137.713456 
L 312.47247 136.021536 
L 315.022093 134.329615 
L 317.571716 132.637695 
L 320.121339 130.945775 
L 322.670962 129.253854 
L 325.220585 127.561934 
L 327.770208 125.870014 
L 330.319831 124.178094 
L 332.869455 122.486173 
L 335.419078 120.794253 
L 337.968701 119.102333 
L 340.518324 117.410413 
" style="fill:none;stroke:#ff7f0e;stroke-linecap:round;stroke-width:1.8;"/>
   </g>
   <g id="patch_3">
    <path d="M 62.421973 308.825425 
L 62.421973 14.5152 
" style="fill:none;stroke:#cccccc;stroke-linecap:square;stroke-linejoin:miter;"/>
   </g>
   <g id="patch_4">
    <path d="M 62.421973 308.825425 
L 355.75648 308.825425 
" style="fill:none;stroke:#cccccc;stroke-linecap:square;stroke-linejoin:miter;"/>
   </g>
  </g>
  <g id="legend_1">
   <g id="text_13">
    <!-- smoker -->
    <defs>
     <path d="M 3.078125 15.484375 
L 11.765625 16.84375 
Q 12.5 11.625 15.84375 8.84375 
Q 19.1875 6.0625 25.203125 6.0625 
Q 31.25 6.0625 34.171875 8.515625 
Q 37.109375 10.984375 37.109375 14.3125 
Q 37.109375 17.28125 34.515625 19 
Q 32.71875 20.171875 25.53125 21.96875 
Q 15.875 24.421875 12.140625 26.203125 
Q 8.40625 27.984375 6.46875 31.125 
Q 4.546875 34.28125 4.546875 38.09375 
Q 4.546875 41.546875 6.125 44.5 
Q 7.71875 47.46875 10.453125 49.421875 
Q 12.5 50.921875 16.03125 51.96875 
Q 19.578125 53.03125 23.640625 53.03125 
Q 29.734375 53.03125 34.34375 51.265625 
Q 38.96875 49.515625 41.15625 46.5 
Q 43.359375 43.5 44.1875 38.484375 
L 35.59375 37.3125 
Q 35.015625 41.3125 32.203125 43.546875 
Q 29.390625 45.796875 24.265625 45.796875 
Q 18.21875 45.796875 15.625 43.796875 
Q 13.03125 41.796875 13.03125 39.109375 
Q 13.03125 37.40625 14.109375 36.03125 
Q 15.1875 34.625 17.484375 33.6875 
Q 18.796875 33.203125 25.25 31.453125 
Q 34.578125 28.953125 38.25 27.359375 
Q 41.9375 25.78125 44.03125 22.75 
Q 46.140625 19.734375 46.140625 15.234375 
Q 46.140625 10.84375 43.578125 6.953125 
Q 41.015625 3.078125 36.171875 0.953125 
Q 31.34375 -1.171875 25.25 -1.171875 
Q 15.140625 -1.171875 9.84375 3.03125 
Q 4.546875 7.234375 3.078125 15.484375 
z
" id="ArialMT-115"/>
     <path d="M 6.59375 0 
L 6.59375 51.859375 
L 14.453125 51.859375 
L 14.453125 44.578125 
Q 16.890625 48.390625 20.9375 50.703125 
Q 25 53.03125 30.171875 53.03125 
Q 35.9375 53.03125 39.625 50.640625 
Q 43.3125 48.25 44.828125 43.953125 
Q 50.984375 53.03125 60.84375 53.03125 
Q 68.5625 53.03125 72.703125 48.75 
Q 76.859375 44.484375 76.859375 35.59375 
L 76.859375 0 
L 68.109375 0 
L 68.109375 32.671875 
Q 68.109375 37.9375 67.25 40.25 
Q 66.40625 42.578125 64.15625 43.984375 
Q 61.921875 45.40625 58.890625 45.40625 
Q 53.421875 45.40625 49.796875 41.765625 
Q 46.1875 38.140625 46.1875 30.125 
L 46.1875 0 
L 37.40625 0 
L 37.40625 33.6875 
Q 37.40625 39.546875 35.25 42.46875 
Q 33.109375 45.40625 28.21875 45.40625 
Q 24.515625 45.40625 21.359375 43.453125 
Q 18.21875 41.5 16.796875 37.734375 
Q 15.375 33.984375 15.375 26.90625 
L 15.375 0 
z
" id="ArialMT-109"/>
     <path d="M 6.640625 0 
L 6.640625 71.578125 
L 15.4375 71.578125 
L 15.4375 30.765625 
L 36.234375 51.859375 
L 47.609375 51.859375 
L 27.78125 32.625 
L 49.609375 0 
L 38.765625 0 
L 21.625 26.515625 
L 15.4375 20.5625 
L 15.4375 0 
z
" id="ArialMT-107"/>
     <path d="M 42.09375 16.703125 
L 51.171875 15.578125 
Q 49.03125 7.625 43.21875 3.21875 
Q 37.40625 -1.171875 28.375 -1.171875 
Q 17 -1.171875 10.328125 5.828125 
Q 3.65625 12.84375 3.65625 25.484375 
Q 3.65625 38.578125 10.390625 45.796875 
Q 17.140625 53.03125 27.875 53.03125 
Q 38.28125 53.03125 44.875 45.953125 
Q 51.46875 38.875 51.46875 26.03125 
Q 51.46875 25.25 51.421875 23.6875 
L 12.75 23.6875 
Q 13.234375 15.140625 17.578125 10.59375 
Q 21.921875 6.0625 28.421875 6.0625 
Q 33.25 6.0625 36.671875 8.59375 
Q 40.09375 11.140625 42.09375 16.703125 
z
M 13.234375 30.90625 
L 42.1875 30.90625 
Q 41.609375 37.453125 38.875 40.71875 
Q 34.671875 45.796875 27.984375 45.796875 
Q 21.921875 45.796875 17.796875 41.75 
Q 13.671875 37.703125 13.234375 30.90625 
z
" id="ArialMT-101"/>
     <path d="M 6.5 0 
L 6.5 51.859375 
L 14.40625 51.859375 
L 14.40625 44 
Q 17.4375 49.515625 20 51.265625 
Q 22.5625 53.03125 25.640625 53.03125 
Q 30.078125 53.03125 34.671875 50.203125 
L 31.640625 42.046875 
Q 28.421875 43.953125 25.203125 43.953125 
Q 22.3125 43.953125 20.015625 42.21875 
Q 17.71875 40.484375 16.75 37.40625 
Q 15.28125 32.71875 15.28125 27.15625 
L 15.28125 0 
z
" id="ArialMT-114"/>
    </defs>
    <g style="fill:#262626;" transform="translate(370.22865 165.054725)scale(0.096 -0.096)">
     <use xlink:href="#ArialMT-115"/>
     <use x="50" xlink:href="#ArialMT-109"/>
     <use x="133.300781" xlink:href="#ArialMT-111"/>
     <use x="188.916016" xlink:href="#ArialMT-107"/>
     <use x="238.916016" xlink:href="#ArialMT-101"/>
     <use x="294.53125" xlink:href="#ArialMT-114"/>
    </g>
   </g>
   <g id="PathCollection_3">
    <g>
     <use style="fill:#1f77b4;fill-opacity:0.8;stroke:#1f77b4;stroke-opacity:0.8;" x="370.9833" xlink:href="#m43b4508ebb" y="178.70715"/>
    </g>
   </g>
   <g id="text_14">
    <!-- Yes -->
    <defs>
     <path d="M 27.875 0 
L 27.875 30.328125 
L 0.296875 71.578125 
L 11.8125 71.578125 
L 25.921875 50 
Q 29.828125 43.953125 33.203125 37.890625 
Q 36.421875 43.5 41.015625 50.53125 
L 54.890625 71.578125 
L 65.921875 71.578125 
L 37.359375 30.328125 
L 37.359375 0 
z
" id="ArialMT-89"/>
    </defs>
    <g style="fill:#262626;" transform="translate(393.1593 181.94115)scale(0.1232 -0.1232)">
     <use xlink:href="#ArialMT-89"/>
     <use x="57.574219" xlink:href="#ArialMT-101"/>
     <use x="113.189453" xlink:href="#ArialMT-115"/>
    </g>
   </g>
   <g id="PathCollection_4">
    <g>
     <use style="fill:#ff7f0e;fill-opacity:0.8;stroke:#ff7f0e;stroke-opacity:0.8;stroke-width:1.2;" x="370.9833" xlink:href="#mb66de2a2a2" y="196.134175"/>
    </g>
   </g>
   <g id="text_15">
    <!-- No -->
    <defs>
     <path d="M 7.625 0 
L 7.625 71.578125 
L 17.328125 71.578125 
L 54.9375 15.375 
L 54.9375 71.578125 
L 64.015625 71.578125 
L 64.015625 0 
L 54.296875 0 
L 16.703125 56.25 
L 16.703125 0 
z
" id="ArialMT-78"/>
    </defs>
    <g style="fill:#262626;" transform="translate(393.1593 199.368175)scale(0.1232 -0.1232)">
     <use xlink:href="#ArialMT-78"/>
     <use x="72.216797" xlink:href="#ArialMT-111"/>
    </g>
   </g>
  </g>
 </g>
 <defs>
  <clipPath id="p5fceb3a24c">
   <rect height="294.310225" width="293.334507" x="62.421973" y="14.5152"/>
  </clipPath>
 </defs>
</svg>
