<?xml version="1.0" encoding="utf-8" standalone="no"?>
<!DOCTYPE svg PUBLIC "-//W3C//DTD SVG 1.1//EN"
  "http://www.w3.org/Graphics/SVG/1.1/DTD/svg11.dtd">
<!-- Created with matplotlib (https://matplotlib.org/) -->
<svg height="57.6pt" version="1.1" viewBox="0 0 57.6 57.6" width="57.6pt" xmlns="http://www.w3.org/2000/svg" xmlns:xlink="http://www.w3.org/1999/xlink">
 <defs>
  <style type="text/css">
*{stroke-linecap:butt;stroke-linejoin:round;}
  </style>
 </defs>
 <g id="figure_1">
  <g id="patch_1">
   <path d="M 0 57.6 
L 57.6 57.6 
L 57.6 0 
L 0 0 
z
" style="fill:#ffffff;"/>
  </g>
  <g id="axes_1">
   <g id="patch_2">
    <path d="M 0.576 57.024 
L 57.024 57.024 
L 57.024 0.576 
L 0.576 0.576 
z
" style="fill:#ffffff;"/>
   </g>
   <g id="matplotlib.axis_1">
    <g id="xtick_1">
     <g id="line2d_1">
      <path clip-path="url(#pbf36a5c8ae)" d="M 8.489087 57.024 
L 8.489087 0.576 
" style="fill:none;stroke:#cccccc;stroke-linecap:round;stroke-width:0.8;"/>
     </g>
     <g id="text_1">
      <!-- 0 -->
      <defs>
       <path d="M 4.15625 35.296875 
Q 4.15625 48 6.765625 55.734375 
Q 9.375 63.484375 14.515625 67.671875 
Q 19.671875 71.875 27.484375 71.875 
Q 33.25 71.875 37.59375 69.546875 
Q 41.9375 67.234375 44.765625 62.859375 
Q 47.609375 58.5 49.21875 52.21875 
Q 50.828125 45.953125 50.828125 35.296875 
Q 50.828125 22.703125 48.234375 14.96875 
Q 45.65625 7.234375 40.5 3 
Q 35.359375 -1.21875 27.484375 -1.21875 
Q 17.140625 -1.21875 11.234375 6.203125 
Q 4.15625 15.140625 4.15625 35.296875 
z
M 13.1875 35.296875 
Q 13.1875 17.671875 17.3125 11.828125 
Q 21.4375 6 27.484375 6 
Q 33.546875 6 37.671875 11.859375 
Q 41.796875 17.71875 41.796875 35.296875 
Q 41.796875 52.984375 37.671875 58.78125 
Q 33.546875 64.59375 27.390625 64.59375 
Q 21.34375 64.59375 17.71875 59.46875 
Q 13.1875 52.9375 13.1875 35.296875 
z
" id="ArialMT-48"/>
      </defs>
      <g style="fill:#262626;" transform="translate(5.06355 74.142425)scale(0.1232 -0.1232)">
       <use xlink:href="#ArialMT-48"/>
      </g>
     </g>
    </g>
    <g id="xtick_2">
     <g id="line2d_2">
      <path clip-path="url(#pbf36a5c8ae)" d="M 33.440358 57.024 
L 33.440358 0.576 
" style="fill:none;stroke:#cccccc;stroke-linecap:round;stroke-width:0.8;"/>
     </g>
     <g id="text_2">
      <!-- 5 -->
      <defs>
       <path d="M 4.15625 18.75 
L 13.375 19.53125 
Q 14.40625 12.796875 18.140625 9.390625 
Q 21.875 6 27.15625 6 
Q 33.5 6 37.890625 10.78125 
Q 42.28125 15.578125 42.28125 23.484375 
Q 42.28125 31 38.0625 35.34375 
Q 33.84375 39.703125 27 39.703125 
Q 22.75 39.703125 19.328125 37.765625 
Q 15.921875 35.84375 13.96875 32.765625 
L 5.71875 33.84375 
L 12.640625 70.609375 
L 48.25 70.609375 
L 48.25 62.203125 
L 19.671875 62.203125 
L 15.828125 42.96875 
Q 22.265625 47.46875 29.34375 47.46875 
Q 38.71875 47.46875 45.15625 40.96875 
Q 51.609375 34.46875 51.609375 24.265625 
Q 51.609375 14.546875 45.953125 7.46875 
Q 39.0625 -1.21875 27.15625 -1.21875 
Q 17.390625 -1.21875 11.203125 4.25 
Q 5.03125 9.71875 4.15625 18.75 
z
" id="ArialMT-53"/>
      </defs>
      <g style="fill:#262626;" transform="translate(30.01482 74.142425)scale(0.1232 -0.1232)">
       <use xlink:href="#ArialMT-53"/>
      </g>
     </g>
    </g>
   </g>
   <g id="matplotlib.axis_2">
    <g id="ytick_1">
     <g id="line2d_3">
      <path clip-path="url(#pbf36a5c8ae)" d="M 0.576 57.024 
L 57.024 57.024 
" style="fill:none;stroke:#cccccc;stroke-linecap:round;stroke-width:0.8;"/>
     </g>
     <g id="text_3">
      <!-- 0.0 -->
      <defs>
       <path d="M 9.078125 0 
L 9.078125 10.015625 
L 19.09375 10.015625 
L 19.09375 0 
z
" id="ArialMT-46"/>
      </defs>
      <g style="fill:#262626;" transform="translate(-24.8488 61.433213)scale(0.1232 -0.1232)">
       <use xlink:href="#ArialMT-48"/>
       <use x="55.615234" xlink:href="#ArialMT-46"/>
       <use x="83.398438" xlink:href="#ArialMT-48"/>
      </g>
     </g>
    </g>
    <g id="ytick_2">
     <g id="line2d_4">
      <path clip-path="url(#pbf36a5c8ae)" d="M 0.576 19.642236 
L 57.024 19.642236 
" style="fill:none;stroke:#cccccc;stroke-linecap:round;stroke-width:0.8;"/>
     </g>
     <g id="text_4">
      <!-- 0.2 -->
      <defs>
       <path d="M 50.34375 8.453125 
L 50.34375 0 
L 3.03125 0 
Q 2.9375 3.171875 4.046875 6.109375 
Q 5.859375 10.9375 9.828125 15.625 
Q 13.8125 20.3125 21.34375 26.46875 
Q 33.015625 36.03125 37.109375 41.625 
Q 41.21875 47.21875 41.21875 52.203125 
Q 41.21875 57.421875 37.46875 61 
Q 33.734375 64.59375 27.734375 64.59375 
Q 21.390625 64.59375 17.578125 60.78125 
Q 13.765625 56.984375 13.71875 50.25 
L 4.6875 51.171875 
Q 5.609375 61.28125 11.65625 66.578125 
Q 17.71875 71.875 27.9375 71.875 
Q 38.234375 71.875 44.234375 66.15625 
Q 50.25 60.453125 50.25 52 
Q 50.25 47.703125 48.484375 43.546875 
Q 46.734375 39.40625 42.65625 34.8125 
Q 38.578125 30.21875 29.109375 22.21875 
Q 21.1875 15.578125 18.9375 13.203125 
Q 16.703125 10.84375 15.234375 8.453125 
z
" id="ArialMT-50"/>
      </defs>
      <g style="fill:#262626;" transform="translate(-24.8488 24.051448)scale(0.1232 -0.1232)">
       <use xlink:href="#ArialMT-48"/>
       <use x="55.615234" xlink:href="#ArialMT-46"/>
       <use x="83.398438" xlink:href="#ArialMT-50"/>
      </g>
     </g>
    </g>
   </g>
   <g id="line2d_5">
    <path clip-path="url(#pbf36a5c8ae)" d="M 3.141818 57.01253 
L 3.660165 57.001875 
L 4.178512 56.983194 
L 4.69686 56.951999 
L 5.215207 56.902376 
L 5.733554 56.827155 
L 6.251901 56.718448 
L 6.770248 56.568567 
L 7.288595 56.371222 
L 7.806942 56.122747 
L 8.325289 55.823062 
L 8.843636 55.476068 
L 9.361983 55.089336 
L 9.880331 54.673152 
L 10.398678 54.239113 
L 10.917025 53.79855 
L 11.435372 53.360896 
L 11.953719 52.932008 
L 12.472066 52.512365 
L 12.990413 52.09518 
L 13.50876 51.664762 
L 14.027107 51.195789 
L 14.545455 50.654264 
L 15.063802 50.00071 
L 15.582149 49.195556 
L 16.100496 48.20589 
L 16.618843 47.012046 
L 17.13719 45.612213 
L 17.655537 44.023537 
L 18.173884 42.279046 
L 18.692231 40.420978 
L 19.210579 38.4922 
L 19.728926 36.528077 
L 20.247273 34.55095 
L 20.76562 32.568413 
L 21.283967 30.575254 
L 21.802314 28.557884 
L 22.320661 26.499709 
L 22.839008 24.386379 
L 23.357355 22.210522 
L 23.875702 19.976001 
L 24.39405 17.701451 
L 24.912397 15.422179 
L 25.430744 13.18913 
L 25.949091 11.064072 
L 26.467438 9.111555 
L 26.985785 7.389767 
L 27.504132 5.94321 
L 28.022479 4.799543 
L 28.540826 3.971157 
L 29.059174 3.460072 
L 29.577521 3.263543 
L 30.095868 3.377944 
L 30.614215 3.799852 
L 31.132562 4.524806 
L 31.650909 5.545276 
L 32.169256 6.849338 
L 32.687603 8.420782 
L 33.20595 10.240351 
L 33.724298 12.28717 
L 34.242645 14.539383 
L 34.760992 16.973509 
L 35.279339 19.562636 
L 35.797686 22.274059 
L 36.316033 25.067233 
L 36.83438 27.892896 
L 37.352727 30.694056 
L 37.871074 33.409204 
L 38.389421 35.977571 
L 38.907769 38.34555 
L 39.426116 40.472896 
L 39.944463 42.337151 
L 40.46281 43.935264 
L 40.981157 45.282189 
L 41.499504 46.407209 
L 42.017851 47.349134 
L 42.536198 48.151458 
L 43.054545 48.857991 
L 43.572893 49.509042 
L 44.09124 50.138042 
L 44.609587 50.768733 
L 45.127934 51.413383 
L 45.646281 52.072582 
L 46.164628 52.736903 
L 46.682975 53.39016 
L 47.201322 54.013466 
L 47.719669 54.589088 
L 48.238017 55.103271 
L 48.756364 55.547676 
L 49.274711 55.919508 
L 49.793058 56.220766 
L 50.311405 56.457049 
L 50.829752 56.636287 
L 51.348099 56.7676 
L 51.866446 56.860342 
L 52.384793 56.923361 
L 52.90314 56.96448 
L 53.421488 56.990197 
L 53.939835 57.00559 
L 54.458182 57.014396 
" style="fill:none;stroke:#1f77b4;stroke-linecap:round;stroke-width:1.2;"/>
   </g>
   <g id="patch_3">
    <path d="M 0.576 57.024 
L 0.576 0.576 
" style="fill:none;stroke:#cccccc;stroke-linecap:square;stroke-linejoin:miter;"/>
   </g>
   <g id="patch_4">
    <path d="M 57.024 57.024 
L 57.024 0.576 
" style="fill:none;stroke:#cccccc;stroke-linecap:square;stroke-linejoin:miter;"/>
   </g>
   <g id="patch_5">
    <path d="M 0.576 57.024 
L 57.024 57.024 
" style="fill:none;stroke:#cccccc;stroke-linecap:square;stroke-linejoin:miter;"/>
   </g>
   <g id="patch_6">
    <path d="M 0.576 0.576 
L 57.024 0.576 
" style="fill:none;stroke:#cccccc;stroke-linecap:square;stroke-linejoin:miter;"/>
   </g>
  </g>
 </g>
 <defs>
  <clipPath id="pbf36a5c8ae">
   <rect height="56.448" width="56.448" x="0.576" y="0.576"/>
  </clipPath>
 </defs>
</svg>
