<?xml version="1.0" encoding="utf-8" standalone="no"?>
<!DOCTYPE svg PUBLIC "-//W3C//DTD SVG 1.1//EN"
  "http://www.w3.org/Graphics/SVG/1.1/DTD/svg11.dtd">
<!-- Created with matplotlib (https://matplotlib.org/) -->
<svg height="216pt" version="1.1" viewBox="0 0 216 216" width="216pt" xmlns="http://www.w3.org/2000/svg" xmlns:xlink="http://www.w3.org/1999/xlink">
 <metadata>
  <rdf:RDF xmlns:cc="http://creativecommons.org/ns#" xmlns:dc="http://purl.org/dc/elements/1.1/" xmlns:rdf="http://www.w3.org/1999/02/22-rdf-syntax-ns#">
   <cc:Work>
    <dc:type rdf:resource="http://purl.org/dc/dcmitype/StillImage"/>
    <dc:date>2020-10-06T01:56:12.576280</dc:date>
    <dc:format>image/svg+xml</dc:format>
    <dc:creator>
     <cc:Agent>
      <dc:title>Matplotlib v3.3.1, https://matplotlib.org/</dc:title>
     </cc:Agent>
    </dc:creator>
   </cc:Work>
  </rdf:RDF>
 </metadata>
 <defs>
  <style type="text/css">*{stroke-linecap:butt;stroke-linejoin:round;}</style>
 </defs>
 <g id="figure_1">
  <g id="patch_1">
   <path d="M 0 216 
L 216 216 
L 216 0 
L 0 0 
z
" style="fill:#ffffff;"/>
  </g>
  <g id="axes_1">
   <g id="patch_2">
    <path d="M 27 189 
L 194.4 189 
L 194.4 25.92 
L 27 25.92 
z
" style="fill:#eaeaf2;"/>
   </g>
   <g id="matplotlib.axis_1">
    <g id="xtick_1">
     <g id="text_1">
      <!-- Thur -->
      <g style="fill:#262626;" transform="translate(36.617344 206.373594)scale(0.11 -0.11)">
       <defs>
        <path d="M 25.921875 0 
L 25.921875 63.140625 
L 2.34375 63.140625 
L 2.34375 71.578125 
L 59.078125 71.578125 
L 59.078125 63.140625 
L 35.40625 63.140625 
L 35.40625 0 
z
" id="ArialMT-84"/>
        <path d="M 6.59375 0 
L 6.59375 71.578125 
L 15.375 71.578125 
L 15.375 45.90625 
Q 21.53125 53.03125 30.90625 53.03125 
Q 36.671875 53.03125 40.921875 50.75 
Q 45.171875 48.484375 47 44.484375 
Q 48.828125 40.484375 48.828125 32.859375 
L 48.828125 0 
L 40.046875 0 
L 40.046875 32.859375 
Q 40.046875 39.453125 37.1875 42.453125 
Q 34.328125 45.453125 29.109375 45.453125 
Q 25.203125 45.453125 21.75 43.421875 
Q 18.3125 41.40625 16.84375 37.9375 
Q 15.375 34.46875 15.375 28.375 
L 15.375 0 
z
" id="ArialMT-104"/>
        <path d="M 40.578125 0 
L 40.578125 7.625 
Q 34.515625 -1.171875 24.125 -1.171875 
Q 19.53125 -1.171875 15.546875 0.578125 
Q 11.578125 2.34375 9.640625 5 
Q 7.71875 7.671875 6.9375 11.53125 
Q 6.390625 14.109375 6.390625 19.734375 
L 6.390625 51.859375 
L 15.1875 51.859375 
L 15.1875 23.09375 
Q 15.1875 16.21875 15.71875 13.8125 
Q 16.546875 10.359375 19.234375 8.375 
Q 21.921875 6.390625 25.875 6.390625 
Q 29.828125 6.390625 33.296875 8.421875 
Q 36.765625 10.453125 38.203125 13.9375 
Q 39.65625 17.4375 39.65625 24.078125 
L 39.65625 51.859375 
L 48.4375 51.859375 
L 48.4375 0 
z
" id="ArialMT-117"/>
        <path d="M 6.5 0 
L 6.5 51.859375 
L 14.40625 51.859375 
L 14.40625 44 
Q 17.4375 49.515625 20 51.265625 
Q 22.5625 53.03125 25.640625 53.03125 
Q 30.078125 53.03125 34.671875 50.203125 
L 31.640625 42.046875 
Q 28.421875 43.953125 25.203125 43.953125 
Q 22.3125 43.953125 20.015625 42.21875 
Q 17.71875 40.484375 16.75 37.40625 
Q 15.28125 32.71875 15.28125 27.15625 
L 15.28125 0 
z
" id="ArialMT-114"/>
       </defs>
       <use xlink:href="#ArialMT-84"/>
       <use x="61.083984" xlink:href="#ArialMT-104"/>
       <use x="116.699219" xlink:href="#ArialMT-117"/>
       <use x="172.314453" xlink:href="#ArialMT-114"/>
      </g>
     </g>
    </g>
    <g id="xtick_2">
     <g id="text_2">
      <!-- Fri -->
      <g style="fill:#262626;" transform="translate(83.362344 206.373594)scale(0.11 -0.11)">
       <defs>
        <path d="M 8.203125 0 
L 8.203125 71.578125 
L 56.5 71.578125 
L 56.5 63.140625 
L 17.671875 63.140625 
L 17.671875 40.96875 
L 51.265625 40.96875 
L 51.265625 32.515625 
L 17.671875 32.515625 
L 17.671875 0 
z
" id="ArialMT-70"/>
        <path d="M 6.640625 61.46875 
L 6.640625 71.578125 
L 15.4375 71.578125 
L 15.4375 61.46875 
z
M 6.640625 0 
L 6.640625 51.859375 
L 15.4375 51.859375 
L 15.4375 0 
z
" id="ArialMT-105"/>
       </defs>
       <use xlink:href="#ArialMT-70"/>
       <use x="61.083984" xlink:href="#ArialMT-114"/>
       <use x="94.384766" xlink:href="#ArialMT-105"/>
      </g>
     </g>
    </g>
    <g id="xtick_3">
     <g id="text_3">
      <!-- Sat -->
      <g style="fill:#262626;" transform="translate(123.369844 206.373594)scale(0.11 -0.11)">
       <defs>
        <path d="M 4.5 23 
L 13.421875 23.78125 
Q 14.0625 18.40625 16.375 14.96875 
Q 18.703125 11.53125 23.578125 9.40625 
Q 28.46875 7.28125 34.578125 7.28125 
Q 39.984375 7.28125 44.140625 8.890625 
Q 48.296875 10.5 50.3125 13.296875 
Q 52.34375 16.109375 52.34375 19.4375 
Q 52.34375 22.796875 50.390625 25.3125 
Q 48.4375 27.828125 43.953125 29.546875 
Q 41.0625 30.671875 31.203125 33.03125 
Q 21.34375 35.40625 17.390625 37.5 
Q 12.25 40.1875 9.734375 44.15625 
Q 7.234375 48.140625 7.234375 53.078125 
Q 7.234375 58.5 10.296875 63.203125 
Q 13.375 67.921875 19.28125 70.359375 
Q 25.203125 72.796875 32.421875 72.796875 
Q 40.375 72.796875 46.453125 70.234375 
Q 52.546875 67.671875 55.8125 62.6875 
Q 59.078125 57.71875 59.328125 51.421875 
L 50.25 50.734375 
Q 49.515625 57.515625 45.28125 60.984375 
Q 41.0625 64.453125 32.8125 64.453125 
Q 24.21875 64.453125 20.28125 61.296875 
Q 16.359375 58.15625 16.359375 53.71875 
Q 16.359375 49.859375 19.140625 47.359375 
Q 21.875 44.875 33.421875 42.265625 
Q 44.96875 39.65625 49.265625 37.703125 
Q 55.515625 34.8125 58.484375 30.390625 
Q 61.46875 25.984375 61.46875 20.21875 
Q 61.46875 14.5 58.203125 9.4375 
Q 54.9375 4.390625 48.796875 1.578125 
Q 42.671875 -1.21875 35.015625 -1.21875 
Q 25.296875 -1.21875 18.71875 1.609375 
Q 12.15625 4.4375 8.421875 10.125 
Q 4.6875 15.828125 4.5 23 
z
" id="ArialMT-83"/>
        <path d="M 40.4375 6.390625 
Q 35.546875 2.25 31.03125 0.53125 
Q 26.515625 -1.171875 21.34375 -1.171875 
Q 12.796875 -1.171875 8.203125 3 
Q 3.609375 7.171875 3.609375 13.671875 
Q 3.609375 17.484375 5.34375 20.625 
Q 7.078125 23.78125 9.890625 25.6875 
Q 12.703125 27.59375 16.21875 28.5625 
Q 18.796875 29.25 24.03125 29.890625 
Q 34.671875 31.15625 39.703125 32.90625 
Q 39.75 34.71875 39.75 35.203125 
Q 39.75 40.578125 37.25 42.78125 
Q 33.890625 45.75 27.25 45.75 
Q 21.046875 45.75 18.09375 43.578125 
Q 15.140625 41.40625 13.71875 35.890625 
L 5.125 37.0625 
Q 6.296875 42.578125 8.984375 45.96875 
Q 11.671875 49.359375 16.75 51.1875 
Q 21.828125 53.03125 28.515625 53.03125 
Q 35.15625 53.03125 39.296875 51.46875 
Q 43.453125 49.90625 45.40625 47.53125 
Q 47.359375 45.171875 48.140625 41.546875 
Q 48.578125 39.3125 48.578125 33.453125 
L 48.578125 21.734375 
Q 48.578125 9.46875 49.140625 6.21875 
Q 49.703125 2.984375 51.375 0 
L 42.1875 0 
Q 40.828125 2.734375 40.4375 6.390625 
z
M 39.703125 26.03125 
Q 34.90625 24.078125 25.34375 22.703125 
Q 19.921875 21.921875 17.671875 20.9375 
Q 15.4375 19.96875 14.203125 18.09375 
Q 12.984375 16.21875 12.984375 13.921875 
Q 12.984375 10.40625 15.640625 8.0625 
Q 18.3125 5.71875 23.4375 5.71875 
Q 28.515625 5.71875 32.46875 7.9375 
Q 36.421875 10.15625 38.28125 14.015625 
Q 39.703125 17 39.703125 22.796875 
z
" id="ArialMT-97"/>
        <path d="M 25.78125 7.859375 
L 27.046875 0.09375 
Q 23.34375 -0.6875 20.40625 -0.6875 
Q 15.625 -0.6875 12.984375 0.828125 
Q 10.359375 2.34375 9.28125 4.8125 
Q 8.203125 7.28125 8.203125 15.1875 
L 8.203125 45.015625 
L 1.765625 45.015625 
L 1.765625 51.859375 
L 8.203125 51.859375 
L 8.203125 64.703125 
L 16.9375 69.96875 
L 16.9375 51.859375 
L 25.78125 51.859375 
L 25.78125 45.015625 
L 16.9375 45.015625 
L 16.9375 14.703125 
Q 16.9375 10.9375 17.40625 9.859375 
Q 17.875 8.796875 18.921875 8.15625 
Q 19.96875 7.515625 21.921875 7.515625 
Q 23.390625 7.515625 25.78125 7.859375 
z
" id="ArialMT-116"/>
       </defs>
       <use xlink:href="#ArialMT-83"/>
       <use x="66.699219" xlink:href="#ArialMT-97"/>
       <use x="122.314453" xlink:href="#ArialMT-116"/>
      </g>
     </g>
    </g>
    <g id="xtick_4">
     <g id="text_4">
      <!-- Sun -->
      <g style="fill:#262626;" transform="translate(163.689297 206.373594)scale(0.11 -0.11)">
       <defs>
        <path d="M 6.59375 0 
L 6.59375 51.859375 
L 14.5 51.859375 
L 14.5 44.484375 
Q 20.21875 53.03125 31 53.03125 
Q 35.6875 53.03125 39.625 51.34375 
Q 43.5625 49.65625 45.515625 46.921875 
Q 47.46875 44.1875 48.25 40.4375 
Q 48.734375 37.984375 48.734375 31.890625 
L 48.734375 0 
L 39.9375 0 
L 39.9375 31.546875 
Q 39.9375 36.921875 38.90625 39.578125 
Q 37.890625 42.234375 35.28125 43.8125 
Q 32.671875 45.40625 29.15625 45.40625 
Q 23.53125 45.40625 19.453125 41.84375 
Q 15.375 38.28125 15.375 28.328125 
L 15.375 0 
z
" id="ArialMT-110"/>
       </defs>
       <use xlink:href="#ArialMT-83"/>
       <use x="66.699219" xlink:href="#ArialMT-117"/>
       <use x="122.314453" xlink:href="#ArialMT-110"/>
      </g>
     </g>
    </g>
    <g id="text_5">
     <!-- day -->
     <g style="fill:#262626;" transform="translate(101.026875 221.149219)scale(0.12 -0.12)">
      <defs>
       <path d="M 40.234375 0 
L 40.234375 6.546875 
Q 35.296875 -1.171875 25.734375 -1.171875 
Q 19.53125 -1.171875 14.328125 2.25 
Q 9.125 5.671875 6.265625 11.796875 
Q 3.421875 17.921875 3.421875 25.875 
Q 3.421875 33.640625 6 39.96875 
Q 8.59375 46.296875 13.765625 49.65625 
Q 18.953125 53.03125 25.34375 53.03125 
Q 30.03125 53.03125 33.6875 51.046875 
Q 37.359375 49.078125 39.65625 45.90625 
L 39.65625 71.578125 
L 48.390625 71.578125 
L 48.390625 0 
z
M 12.453125 25.875 
Q 12.453125 15.921875 16.640625 10.984375 
Q 20.84375 6.0625 26.5625 6.0625 
Q 32.328125 6.0625 36.34375 10.765625 
Q 40.375 15.484375 40.375 25.140625 
Q 40.375 35.796875 36.265625 40.765625 
Q 32.171875 45.75 26.171875 45.75 
Q 20.3125 45.75 16.375 40.96875 
Q 12.453125 36.1875 12.453125 25.875 
z
" id="ArialMT-100"/>
       <path d="M 6.203125 -19.96875 
L 5.21875 -11.71875 
Q 8.109375 -12.5 10.25 -12.5 
Q 13.1875 -12.5 14.9375 -11.515625 
Q 16.703125 -10.546875 17.828125 -8.796875 
Q 18.65625 -7.46875 20.515625 -2.25 
Q 20.75 -1.515625 21.296875 -0.09375 
L 1.609375 51.859375 
L 11.078125 51.859375 
L 21.875 21.828125 
Q 23.96875 16.109375 25.640625 9.8125 
Q 27.15625 15.875 29.25 21.625 
L 40.328125 51.859375 
L 49.125 51.859375 
L 29.390625 -0.875 
Q 26.21875 -9.421875 24.46875 -12.640625 
Q 22.125 -17 19.09375 -19.015625 
Q 16.0625 -21.046875 11.859375 -21.046875 
Q 9.328125 -21.046875 6.203125 -19.96875 
z
" id="ArialMT-121"/>
      </defs>
      <use xlink:href="#ArialMT-100"/>
      <use x="55.615234" xlink:href="#ArialMT-97"/>
      <use x="111.230469" xlink:href="#ArialMT-121"/>
     </g>
    </g>
   </g>
   <g id="matplotlib.axis_2">
    <g id="ytick_1">
     <g id="line2d_1">
      <path clip-path="url(#p6b7eb82f51)" d="M 27 170.592627 
L 194.4 170.592627 
" style="fill:none;stroke:#ffffff;stroke-linecap:round;"/>
     </g>
     <g id="text_6">
      <!-- 0 -->
      <g style="fill:#262626;" transform="translate(11.382969 174.529424)scale(0.11 -0.11)">
       <defs>
        <path d="M 4.15625 35.296875 
Q 4.15625 48 6.765625 55.734375 
Q 9.375 63.484375 14.515625 67.671875 
Q 19.671875 71.875 27.484375 71.875 
Q 33.25 71.875 37.59375 69.546875 
Q 41.9375 67.234375 44.765625 62.859375 
Q 47.609375 58.5 49.21875 52.21875 
Q 50.828125 45.953125 50.828125 35.296875 
Q 50.828125 22.703125 48.234375 14.96875 
Q 45.65625 7.234375 40.5 3 
Q 35.359375 -1.21875 27.484375 -1.21875 
Q 17.140625 -1.21875 11.234375 6.203125 
Q 4.15625 15.140625 4.15625 35.296875 
z
M 13.1875 35.296875 
Q 13.1875 17.671875 17.3125 11.828125 
Q 21.4375 6 27.484375 6 
Q 33.546875 6 37.671875 11.859375 
Q 41.796875 17.71875 41.796875 35.296875 
Q 41.796875 52.984375 37.671875 58.78125 
Q 33.546875 64.59375 27.390625 64.59375 
Q 21.34375 64.59375 17.71875 59.46875 
Q 13.1875 52.9375 13.1875 35.296875 
z
" id="ArialMT-48"/>
       </defs>
       <use xlink:href="#ArialMT-48"/>
      </g>
     </g>
    </g>
    <g id="ytick_2">
     <g id="line2d_2">
      <path clip-path="url(#p6b7eb82f51)" d="M 27 147.158096 
L 194.4 147.158096 
" style="fill:none;stroke:#ffffff;stroke-linecap:round;"/>
     </g>
     <g id="text_7">
      <!-- 10 -->
      <g style="fill:#262626;" transform="translate(5.265937 151.094893)scale(0.11 -0.11)">
       <defs>
        <path d="M 37.25 0 
L 28.46875 0 
L 28.46875 56 
Q 25.296875 52.984375 20.140625 49.953125 
Q 14.984375 46.921875 10.890625 45.40625 
L 10.890625 53.90625 
Q 18.265625 57.375 23.78125 62.296875 
Q 29.296875 67.234375 31.59375 71.875 
L 37.25 71.875 
z
" id="ArialMT-49"/>
       </defs>
       <use xlink:href="#ArialMT-49"/>
       <use x="55.615234" xlink:href="#ArialMT-48"/>
      </g>
     </g>
    </g>
    <g id="ytick_3">
     <g id="line2d_3">
      <path clip-path="url(#p6b7eb82f51)" d="M 27 123.723565 
L 194.4 123.723565 
" style="fill:none;stroke:#ffffff;stroke-linecap:round;"/>
     </g>
     <g id="text_8">
      <!-- 20 -->
      <g style="fill:#262626;" transform="translate(5.265937 127.660362)scale(0.11 -0.11)">
       <defs>
        <path d="M 50.34375 8.453125 
L 50.34375 0 
L 3.03125 0 
Q 2.9375 3.171875 4.046875 6.109375 
Q 5.859375 10.9375 9.828125 15.625 
Q 13.8125 20.3125 21.34375 26.46875 
Q 33.015625 36.03125 37.109375 41.625 
Q 41.21875 47.21875 41.21875 52.203125 
Q 41.21875 57.421875 37.46875 61 
Q 33.734375 64.59375 27.734375 64.59375 
Q 21.390625 64.59375 17.578125 60.78125 
Q 13.765625 56.984375 13.71875 50.25 
L 4.6875 51.171875 
Q 5.609375 61.28125 11.65625 66.578125 
Q 17.71875 71.875 27.9375 71.875 
Q 38.234375 71.875 44.234375 66.15625 
Q 50.25 60.453125 50.25 52 
Q 50.25 47.703125 48.484375 43.546875 
Q 46.734375 39.40625 42.65625 34.8125 
Q 38.578125 30.21875 29.109375 22.21875 
Q 21.1875 15.578125 18.9375 13.203125 
Q 16.703125 10.84375 15.234375 8.453125 
z
" id="ArialMT-50"/>
       </defs>
       <use xlink:href="#ArialMT-50"/>
       <use x="55.615234" xlink:href="#ArialMT-48"/>
      </g>
     </g>
    </g>
    <g id="ytick_4">
     <g id="line2d_4">
      <path clip-path="url(#p6b7eb82f51)" d="M 27 100.289033 
L 194.4 100.289033 
" style="fill:none;stroke:#ffffff;stroke-linecap:round;"/>
     </g>
     <g id="text_9">
      <!-- 30 -->
      <g style="fill:#262626;" transform="translate(5.265937 104.22583)scale(0.11 -0.11)">
       <defs>
        <path d="M 4.203125 18.890625 
L 12.984375 20.0625 
Q 14.5 12.59375 18.140625 9.296875 
Q 21.78125 6 27 6 
Q 33.203125 6 37.46875 10.296875 
Q 41.75 14.59375 41.75 20.953125 
Q 41.75 27 37.796875 30.921875 
Q 33.84375 34.859375 27.734375 34.859375 
Q 25.25 34.859375 21.53125 33.890625 
L 22.515625 41.609375 
Q 23.390625 41.5 23.921875 41.5 
Q 29.546875 41.5 34.03125 44.421875 
Q 38.53125 47.359375 38.53125 53.46875 
Q 38.53125 58.296875 35.25 61.46875 
Q 31.984375 64.65625 26.8125 64.65625 
Q 21.6875 64.65625 18.265625 61.421875 
Q 14.84375 58.203125 13.875 51.765625 
L 5.078125 53.328125 
Q 6.6875 62.15625 12.390625 67.015625 
Q 18.109375 71.875 26.609375 71.875 
Q 32.46875 71.875 37.390625 69.359375 
Q 42.328125 66.84375 44.9375 62.5 
Q 47.5625 58.15625 47.5625 53.265625 
Q 47.5625 48.640625 45.0625 44.828125 
Q 42.578125 41.015625 37.703125 38.765625 
Q 44.046875 37.3125 47.5625 32.6875 
Q 51.078125 28.078125 51.078125 21.140625 
Q 51.078125 11.765625 44.234375 5.25 
Q 37.40625 -1.265625 26.953125 -1.265625 
Q 17.53125 -1.265625 11.296875 4.34375 
Q 5.078125 9.96875 4.203125 18.890625 
z
" id="ArialMT-51"/>
       </defs>
       <use xlink:href="#ArialMT-51"/>
       <use x="55.615234" xlink:href="#ArialMT-48"/>
      </g>
     </g>
    </g>
    <g id="ytick_5">
     <g id="line2d_5">
      <path clip-path="url(#p6b7eb82f51)" d="M 27 76.854502 
L 194.4 76.854502 
" style="fill:none;stroke:#ffffff;stroke-linecap:round;"/>
     </g>
     <g id="text_10">
      <!-- 40 -->
      <g style="fill:#262626;" transform="translate(5.265937 80.791299)scale(0.11 -0.11)">
       <defs>
        <path d="M 32.328125 0 
L 32.328125 17.140625 
L 1.265625 17.140625 
L 1.265625 25.203125 
L 33.9375 71.578125 
L 41.109375 71.578125 
L 41.109375 25.203125 
L 50.78125 25.203125 
L 50.78125 17.140625 
L 41.109375 17.140625 
L 41.109375 0 
z
M 32.328125 25.203125 
L 32.328125 57.46875 
L 9.90625 25.203125 
z
" id="ArialMT-52"/>
       </defs>
       <use xlink:href="#ArialMT-52"/>
       <use x="55.615234" xlink:href="#ArialMT-48"/>
      </g>
     </g>
    </g>
    <g id="ytick_6">
     <g id="line2d_6">
      <path clip-path="url(#p6b7eb82f51)" d="M 27 53.419971 
L 194.4 53.419971 
" style="fill:none;stroke:#ffffff;stroke-linecap:round;"/>
     </g>
     <g id="text_11">
      <!-- 50 -->
      <g style="fill:#262626;" transform="translate(5.265937 57.356768)scale(0.11 -0.11)">
       <defs>
        <path d="M 4.15625 18.75 
L 13.375 19.53125 
Q 14.40625 12.796875 18.140625 9.390625 
Q 21.875 6 27.15625 6 
Q 33.5 6 37.890625 10.78125 
Q 42.28125 15.578125 42.28125 23.484375 
Q 42.28125 31 38.0625 35.34375 
Q 33.84375 39.703125 27 39.703125 
Q 22.75 39.703125 19.328125 37.765625 
Q 15.921875 35.84375 13.96875 32.765625 
L 5.71875 33.84375 
L 12.640625 70.609375 
L 48.25 70.609375 
L 48.25 62.203125 
L 19.671875 62.203125 
L 15.828125 42.96875 
Q 22.265625 47.46875 29.34375 47.46875 
Q 38.71875 47.46875 45.15625 40.96875 
Q 51.609375 34.46875 51.609375 24.265625 
Q 51.609375 14.546875 45.953125 7.46875 
Q 39.0625 -1.21875 27.15625 -1.21875 
Q 17.390625 -1.21875 11.203125 4.25 
Q 5.03125 9.71875 4.15625 18.75 
z
" id="ArialMT-53"/>
       </defs>
       <use xlink:href="#ArialMT-53"/>
       <use x="55.615234" xlink:href="#ArialMT-48"/>
      </g>
     </g>
    </g>
    <g id="ytick_7">
     <g id="line2d_7">
      <path clip-path="url(#p6b7eb82f51)" d="M 27 29.985439 
L 194.4 29.985439 
" style="fill:none;stroke:#ffffff;stroke-linecap:round;"/>
     </g>
     <g id="text_12">
      <!-- 60 -->
      <g style="fill:#262626;" transform="translate(5.265937 33.922236)scale(0.11 -0.11)">
       <defs>
        <path d="M 49.75 54.046875 
L 41.015625 53.375 
Q 39.84375 58.546875 37.703125 60.890625 
Q 34.125 64.65625 28.90625 64.65625 
Q 24.703125 64.65625 21.53125 62.3125 
Q 17.390625 59.28125 14.984375 53.46875 
Q 12.59375 47.65625 12.5 36.921875 
Q 15.671875 41.75 20.265625 44.09375 
Q 24.859375 46.4375 29.890625 46.4375 
Q 38.671875 46.4375 44.84375 39.96875 
Q 51.03125 33.5 51.03125 23.25 
Q 51.03125 16.5 48.125 10.71875 
Q 45.21875 4.9375 40.140625 1.859375 
Q 35.0625 -1.21875 28.609375 -1.21875 
Q 17.625 -1.21875 10.6875 6.859375 
Q 3.765625 14.9375 3.765625 33.5 
Q 3.765625 54.25 11.421875 63.671875 
Q 18.109375 71.875 29.4375 71.875 
Q 37.890625 71.875 43.28125 67.140625 
Q 48.6875 62.40625 49.75 54.046875 
z
M 13.875 23.1875 
Q 13.875 18.65625 15.796875 14.5 
Q 17.71875 10.359375 21.1875 8.171875 
Q 24.65625 6 28.46875 6 
Q 34.03125 6 38.03125 10.484375 
Q 42.046875 14.984375 42.046875 22.703125 
Q 42.046875 30.125 38.078125 34.390625 
Q 34.125 38.671875 28.125 38.671875 
Q 22.171875 38.671875 18.015625 34.390625 
Q 13.875 30.125 13.875 23.1875 
z
" id="ArialMT-54"/>
       </defs>
       <use xlink:href="#ArialMT-54"/>
       <use x="55.615234" xlink:href="#ArialMT-48"/>
      </g>
     </g>
    </g>
    <g id="text_13">
     <!-- total_bill -->
     <g style="fill:#262626;" transform="translate(-1.119063 129.4725)rotate(-90)scale(0.12 -0.12)">
      <defs>
       <path d="M 3.328125 25.921875 
Q 3.328125 40.328125 11.328125 47.265625 
Q 18.015625 53.03125 27.640625 53.03125 
Q 38.328125 53.03125 45.109375 46.015625 
Q 51.90625 39.015625 51.90625 26.65625 
Q 51.90625 16.65625 48.90625 10.90625 
Q 45.90625 5.171875 40.15625 2 
Q 34.421875 -1.171875 27.640625 -1.171875 
Q 16.75 -1.171875 10.03125 5.8125 
Q 3.328125 12.796875 3.328125 25.921875 
z
M 12.359375 25.921875 
Q 12.359375 15.96875 16.703125 11.015625 
Q 21.046875 6.0625 27.640625 6.0625 
Q 34.1875 6.0625 38.53125 11.03125 
Q 42.875 16.015625 42.875 26.21875 
Q 42.875 35.84375 38.5 40.796875 
Q 34.125 45.75 27.640625 45.75 
Q 21.046875 45.75 16.703125 40.8125 
Q 12.359375 35.890625 12.359375 25.921875 
z
" id="ArialMT-111"/>
       <path d="M 6.390625 0 
L 6.390625 71.578125 
L 15.1875 71.578125 
L 15.1875 0 
z
" id="ArialMT-108"/>
       <path d="M -1.515625 -19.875 
L -1.515625 -13.53125 
L 56.734375 -13.53125 
L 56.734375 -19.875 
z
" id="ArialMT-95"/>
       <path d="M 14.703125 0 
L 6.546875 0 
L 6.546875 71.578125 
L 15.328125 71.578125 
L 15.328125 46.046875 
Q 20.90625 53.03125 29.546875 53.03125 
Q 34.328125 53.03125 38.59375 51.09375 
Q 42.875 49.171875 45.625 45.671875 
Q 48.390625 42.1875 49.953125 37.25 
Q 51.515625 32.328125 51.515625 26.703125 
Q 51.515625 13.375 44.921875 6.09375 
Q 38.328125 -1.171875 29.109375 -1.171875 
Q 19.921875 -1.171875 14.703125 6.5 
z
M 14.59375 26.3125 
Q 14.59375 17 17.140625 12.84375 
Q 21.296875 6.0625 28.375 6.0625 
Q 34.125 6.0625 38.328125 11.0625 
Q 42.53125 16.0625 42.53125 25.984375 
Q 42.53125 36.140625 38.5 40.96875 
Q 34.46875 45.796875 28.765625 45.796875 
Q 23 45.796875 18.796875 40.796875 
Q 14.59375 35.796875 14.59375 26.3125 
z
" id="ArialMT-98"/>
      </defs>
      <use xlink:href="#ArialMT-116"/>
      <use x="27.783203" xlink:href="#ArialMT-111"/>
      <use x="83.398438" xlink:href="#ArialMT-116"/>
      <use x="111.181641" xlink:href="#ArialMT-97"/>
      <use x="166.796875" xlink:href="#ArialMT-108"/>
      <use x="189.013672" xlink:href="#ArialMT-95"/>
      <use x="244.628906" xlink:href="#ArialMT-98"/>
      <use x="300.244141" xlink:href="#ArialMT-105"/>
      <use x="322.460938" xlink:href="#ArialMT-108"/>
      <use x="344.677734" xlink:href="#ArialMT-108"/>
     </g>
    </g>
   </g>
   <g id="PolyCollection_1">
    <defs>
     <path d="M 48.266505 -46.81569 
L 47.583495 -46.81569 
L 47.451505 -47.985478 
L 47.279797 -49.155265 
L 47.060677 -50.325053 
L 46.786324 -51.49484 
L 46.44921 -52.664628 
L 46.042595 -53.834415 
L 45.561055 -55.004203 
L 45.001006 -56.17399 
L 44.361186 -57.343778 
L 43.643047 -58.513565 
L 42.85102 -59.683353 
L 41.992622 -60.85314 
L 41.07839 -62.022928 
L 40.121636 -63.192715 
L 39.138025 -64.362503 
L 38.145003 -65.53229 
L 37.161096 -66.702078 
L 36.205129 -67.871865 
L 35.295416 -69.041653 
L 34.448971 -70.21144 
L 33.680814 -71.381228 
L 33.003433 -72.551015 
L 32.426431 -73.720803 
L 31.956418 -74.89059 
L 31.59712 -76.060378 
L 31.349691 -77.230165 
L 31.213172 -78.399953 
L 31.185 -79.56974 
L 31.261496 -80.739528 
L 31.438242 -81.909315 
L 31.710296 -83.079103 
L 32.072219 -84.24889 
L 32.517936 -85.418678 
L 33.040487 -86.588465 
L 33.631744 -87.758253 
L 34.282184 -88.92804 
L 34.980794 -90.097828 
L 35.715174 -91.267615 
L 36.471833 -92.437403 
L 37.236696 -93.60719 
L 37.995727 -94.776978 
L 38.735639 -95.946765 
L 39.444569 -97.116553 
L 40.112661 -98.28634 
L 40.732488 -99.456128 
L 41.299267 -100.625915 
L 41.810861 -101.795703 
L 42.267584 -102.96549 
L 42.671824 -104.135278 
L 43.027567 -105.305065 
L 43.339843 -106.474853 
L 43.614188 -107.64464 
L 43.856152 -108.814428 
L 44.070907 -109.984215 
L 44.262992 -111.154003 
L 44.436199 -112.32379 
L 44.593585 -113.493578 
L 44.737608 -114.663365 
L 44.870322 -115.833153 
L 44.993591 -117.00294 
L 45.109272 -118.172728 
L 45.219321 -119.342515 
L 45.3258 -120.512303 
L 45.430767 -121.68209 
L 45.536087 -122.851878 
L 45.643187 -124.021665 
L 45.752813 -125.191453 
L 45.864847 -126.36124 
L 45.97823 -127.531028 
L 46.091016 -128.700815 
L 46.200574 -129.870603 
L 46.303909 -131.04039 
L 46.398068 -132.210178 
L 46.480558 -133.379965 
L 46.549734 -134.549753 
L 46.605074 -135.71954 
L 46.647322 -136.889328 
L 46.678455 -138.059115 
L 46.701496 -139.228903 
L 46.720189 -140.39869 
L 46.73859 -141.568478 
L 46.760625 -142.738265 
L 46.789677 -143.908052 
L 46.828252 -145.07784 
L 46.877765 -146.247627 
L 46.938454 -147.417415 
L 47.009442 -148.587202 
L 47.088904 -149.75699 
L 47.174324 -150.926777 
L 47.2628 -152.096565 
L 47.351344 -153.266352 
L 47.437161 -154.43614 
L 47.517864 -155.605927 
L 47.591618 -156.775715 
L 47.6572 -157.945502 
L 47.714 -159.11529 
L 47.761955 -160.285077 
L 47.80145 -161.454865 
L 47.833198 -162.624652 
L 48.016802 -162.624652 
L 48.016802 -162.624652 
L 48.04855 -161.454865 
L 48.088045 -160.285077 
L 48.136 -159.11529 
L 48.1928 -157.945502 
L 48.258382 -156.775715 
L 48.332136 -155.605927 
L 48.412839 -154.43614 
L 48.498656 -153.266352 
L 48.5872 -152.096565 
L 48.675676 -150.926777 
L 48.761096 -149.75699 
L 48.840558 -148.587202 
L 48.911546 -147.417415 
L 48.972235 -146.247627 
L 49.021748 -145.07784 
L 49.060323 -143.908052 
L 49.089375 -142.738265 
L 49.11141 -141.568478 
L 49.129811 -140.39869 
L 49.148504 -139.228903 
L 49.171545 -138.059115 
L 49.202678 -136.889328 
L 49.244926 -135.71954 
L 49.300266 -134.549753 
L 49.369442 -133.379965 
L 49.451932 -132.210178 
L 49.546091 -131.04039 
L 49.649426 -129.870603 
L 49.758984 -128.700815 
L 49.87177 -127.531028 
L 49.985153 -126.36124 
L 50.097187 -125.191453 
L 50.206813 -124.021665 
L 50.313913 -122.851878 
L 50.419233 -121.68209 
L 50.5242 -120.512303 
L 50.630679 -119.342515 
L 50.740728 -118.172728 
L 50.856409 -117.00294 
L 50.979678 -115.833153 
L 51.112392 -114.663365 
L 51.256415 -113.493578 
L 51.413801 -112.32379 
L 51.587008 -111.154003 
L 51.779093 -109.984215 
L 51.993848 -108.814428 
L 52.235812 -107.64464 
L 52.510157 -106.474853 
L 52.822433 -105.305065 
L 53.178176 -104.135278 
L 53.582416 -102.96549 
L 54.039139 -101.795703 
L 54.550733 -100.625915 
L 55.117512 -99.456128 
L 55.737339 -98.28634 
L 56.405431 -97.116553 
L 57.114361 -95.946765 
L 57.854273 -94.776978 
L 58.613304 -93.60719 
L 59.378167 -92.437403 
L 60.134826 -91.267615 
L 60.869206 -90.097828 
L 61.567816 -88.92804 
L 62.218256 -87.758253 
L 62.809513 -86.588465 
L 63.332064 -85.418678 
L 63.777781 -84.24889 
L 64.139704 -83.079103 
L 64.411758 -81.909315 
L 64.588504 -80.739528 
L 64.665 -79.56974 
L 64.636828 -78.399953 
L 64.500309 -77.230165 
L 64.25288 -76.060378 
L 63.893582 -74.89059 
L 63.423569 -73.720803 
L 62.846567 -72.551015 
L 62.169186 -71.381228 
L 61.401029 -70.21144 
L 60.554584 -69.041653 
L 59.644871 -67.871865 
L 58.688904 -66.702078 
L 57.704997 -65.53229 
L 56.711975 -64.362503 
L 55.728364 -63.192715 
L 54.77161 -62.022928 
L 53.857378 -60.85314 
L 52.99898 -59.683353 
L 52.206953 -58.513565 
L 51.488814 -57.343778 
L 50.848994 -56.17399 
L 50.288945 -55.004203 
L 49.807405 -53.834415 
L 49.40079 -52.664628 
L 49.063676 -51.49484 
L 48.789323 -50.325053 
L 48.570203 -49.155265 
L 48.398495 -47.985478 
L 48.266505 -46.81569 
z
" id="me6ee4283c7" style="stroke:#4c4c4c;stroke-width:1.5;"/>
    </defs>
    <g clip-path="url(#p6b7eb82f51)">
     <use style="fill:#5875a4;stroke:#4c4c4c;stroke-width:1.5;" x="0" xlink:href="#me6ee4283c7" y="216"/>
    </g>
   </g>
   <g id="PolyCollection_2">
    <defs>
     <path d="M 90.032813 -37.287249 
L 89.517187 -37.287249 
L 89.440615 -38.538276 
L 89.345732 -39.789302 
L 89.229431 -41.040328 
L 89.088379 -42.291355 
L 88.919073 -43.542381 
L 88.717906 -44.793408 
L 88.481247 -46.044434 
L 88.205545 -47.29546 
L 87.887438 -48.546487 
L 87.5239 -49.797513 
L 87.112388 -51.04854 
L 86.651017 -52.299566 
L 86.138748 -53.550592 
L 85.575585 -54.801619 
L 84.962775 -56.052645 
L 84.303 -57.303672 
L 83.600544 -58.554698 
L 82.861423 -59.805725 
L 82.093455 -61.056751 
L 81.30625 -62.307777 
L 80.511116 -63.558804 
L 79.720845 -64.80983 
L 78.949404 -66.060857 
L 78.211502 -67.311883 
L 77.522078 -68.562909 
L 76.895702 -69.813936 
L 76.345945 -71.064962 
L 75.884746 -72.315989 
L 75.521819 -73.567015 
L 75.264149 -74.818041 
L 75.115614 -76.069068 
L 75.07677 -77.320094 
L 75.144809 -78.571121 
L 75.313721 -79.822147 
L 75.574618 -81.073174 
L 75.916237 -82.3242 
L 76.325551 -83.575226 
L 76.788471 -84.826253 
L 77.290564 -86.077279 
L 77.817757 -87.328306 
L 78.356964 -88.579332 
L 78.896599 -89.830358 
L 79.426959 -91.081385 
L 79.940442 -92.332411 
L 80.431628 -93.583438 
L 80.897205 -94.834464 
L 81.335787 -96.085491 
L 81.747646 -97.336517 
L 82.134384 -98.587543 
L 82.498583 -99.83857 
L 82.843462 -101.089596 
L 83.172546 -102.340623 
L 83.489387 -103.591649 
L 83.797316 -104.842675 
L 84.099252 -106.093702 
L 84.397546 -107.344728 
L 84.693874 -108.595755 
L 84.989162 -109.846781 
L 85.283559 -111.097807 
L 85.576433 -112.348834 
L 85.866413 -113.59986 
L 86.151471 -114.850887 
L 86.429035 -116.101913 
L 86.696143 -117.35294 
L 86.949632 -118.603966 
L 87.186338 -119.854992 
L 87.40332 -121.106019 
L 87.598068 -122.357045 
L 87.7687 -123.608072 
L 87.914125 -124.859098 
L 88.034148 -126.110124 
L 88.129531 -127.361151 
L 88.201978 -128.612177 
L 88.254065 -129.863204 
L 88.289106 -131.11423 
L 88.310965 -132.365256 
L 88.32384 -133.616283 
L 88.332016 -134.867309 
L 88.339628 -136.118336 
L 88.350427 -137.369362 
L 88.36759 -138.620389 
L 88.393568 -139.871415 
L 88.429992 -141.122441 
L 88.47764 -142.373468 
L 88.536461 -143.624494 
L 88.605654 -144.875521 
L 88.683786 -146.126547 
L 88.768951 -147.377573 
L 88.858933 -148.6286 
L 88.951381 -149.879626 
L 89.04397 -151.130653 
L 89.134538 -152.381679 
L 89.221197 -153.632705 
L 89.302407 -154.883732 
L 89.377018 -156.134758 
L 89.444276 -157.385785 
L 89.503806 -158.636811 
L 89.55557 -159.887838 
L 89.599812 -161.138864 
L 89.950188 -161.138864 
L 89.950188 -161.138864 
L 89.99443 -159.887838 
L 90.046194 -158.636811 
L 90.105724 -157.385785 
L 90.172982 -156.134758 
L 90.247593 -154.883732 
L 90.328803 -153.632705 
L 90.415462 -152.381679 
L 90.50603 -151.130653 
L 90.598619 -149.879626 
L 90.691067 -148.6286 
L 90.781049 -147.377573 
L 90.866214 -146.126547 
L 90.944346 -144.875521 
L 91.013539 -143.624494 
L 91.07236 -142.373468 
L 91.120008 -141.122441 
L 91.156432 -139.871415 
L 91.18241 -138.620389 
L 91.199573 -137.369362 
L 91.210372 -136.118336 
L 91.217984 -134.867309 
L 91.22616 -133.616283 
L 91.239035 -132.365256 
L 91.260894 -131.11423 
L 91.295935 -129.863204 
L 91.348022 -128.612177 
L 91.420469 -127.361151 
L 91.515852 -126.110124 
L 91.635875 -124.859098 
L 91.7813 -123.608072 
L 91.951932 -122.357045 
L 92.14668 -121.106019 
L 92.363662 -119.854992 
L 92.600368 -118.603966 
L 92.853857 -117.35294 
L 93.120965 -116.101913 
L 93.398529 -114.850887 
L 93.683587 -113.59986 
L 93.973567 -112.348834 
L 94.266441 -111.097807 
L 94.560838 -109.846781 
L 94.856126 -108.595755 
L 95.152454 -107.344728 
L 95.450748 -106.093702 
L 95.752684 -104.842675 
L 96.060613 -103.591649 
L 96.377454 -102.340623 
L 96.706538 -101.089596 
L 97.051417 -99.83857 
L 97.415616 -98.587543 
L 97.802354 -97.336517 
L 98.214213 -96.085491 
L 98.652795 -94.834464 
L 99.118372 -93.583438 
L 99.609558 -92.332411 
L 100.123041 -91.081385 
L 100.653401 -89.830358 
L 101.193036 -88.579332 
L 101.732243 -87.328306 
L 102.259436 -86.077279 
L 102.761529 -84.826253 
L 103.224449 -83.575226 
L 103.633763 -82.3242 
L 103.975382 -81.073174 
L 104.236279 -79.822147 
L 104.405191 -78.571121 
L 104.47323 -77.320094 
L 104.434386 -76.069068 
L 104.285851 -74.818041 
L 104.028181 -73.567015 
L 103.665254 -72.315989 
L 103.204055 -71.064962 
L 102.654298 -69.813936 
L 102.027922 -68.562909 
L 101.338498 -67.311883 
L 100.600596 -66.060857 
L 99.829155 -64.80983 
L 99.038884 -63.558804 
L 98.24375 -62.307777 
L 97.456545 -61.056751 
L 96.688577 -59.805725 
L 95.949456 -58.554698 
L 95.247 -57.303672 
L 94.587225 -56.052645 
L 93.974415 -54.801619 
L 93.411252 -53.550592 
L 92.898983 -52.299566 
L 92.437612 -51.04854 
L 92.0261 -49.797513 
L 91.662562 -48.546487 
L 91.344455 -47.29546 
L 91.068753 -46.044434 
L 90.832094 -44.793408 
L 90.630927 -43.542381 
L 90.461621 -42.291355 
L 90.320569 -41.040328 
L 90.204268 -39.789302 
L 90.109385 -38.538276 
L 90.032813 -37.287249 
z
" id="mab7d2512b2" style="stroke:#4c4c4c;stroke-width:1.5;"/>
    </defs>
    <g clip-path="url(#p6b7eb82f51)">
     <use style="fill:#cc8963;stroke:#4c4c4c;stroke-width:1.5;" x="0" xlink:href="#mab7d2512b2" y="216"/>
    </g>
   </g>
   <g id="PolyCollection_3">
    <defs>
     <path d="M 131.676924 -34.412727 
L 131.573076 -34.412727 
L 131.551598 -35.910248 
L 131.523307 -37.407769 
L 131.486718 -38.905289 
L 131.440123 -40.40281 
L 131.381515 -41.900331 
L 131.308458 -43.397851 
L 131.217919 -44.895372 
L 131.106077 -46.392893 
L 130.968137 -47.890413 
L 130.798213 -49.387934 
L 130.589324 -50.885455 
L 130.333567 -52.382975 
L 130.022515 -53.880496 
L 129.647846 -55.378017 
L 129.202166 -56.875537 
L 128.679976 -58.373058 
L 128.078639 -59.870579 
L 127.399236 -61.368099 
L 126.64715 -62.86562 
L 125.83227 -64.36314 
L 124.968757 -65.860661 
L 124.074359 -67.358182 
L 123.169373 -68.855702 
L 122.27537 -70.353223 
L 121.413877 -71.850744 
L 120.605171 -73.348264 
L 119.867339 -74.845785 
L 119.215672 -76.343306 
L 118.662405 -77.840826 
L 118.216721 -79.338347 
L 117.884929 -80.835868 
L 117.670667 -82.333388 
L 117.575036 -83.830909 
L 117.596607 -85.32843 
L 117.731311 -86.82595 
L 117.972283 -88.323471 
L 118.30977 -89.820992 
L 118.731234 -91.318512 
L 119.221735 -92.816033 
L 119.764657 -94.313554 
L 120.342711 -95.811074 
L 120.939139 -97.308595 
L 121.538924 -98.806116 
L 122.129839 -100.303636 
L 122.703142 -101.801157 
L 123.253817 -103.298678 
L 123.78032 -104.796198 
L 124.283883 -106.293719 
L 124.767502 -107.79124 
L 125.234805 -109.28876 
L 125.688961 -110.786281 
L 126.131828 -112.283802 
L 126.563427 -113.781322 
L 126.981817 -115.278843 
L 127.383334 -116.776364 
L 127.763144 -118.273884 
L 128.115984 -119.771405 
L 128.43699 -121.268926 
L 128.722449 -122.766446 
L 128.970403 -124.263967 
L 129.180994 -125.761488 
L 129.356508 -127.259008 
L 129.501126 -128.756529 
L 129.620403 -130.25405 
L 129.720569 -131.75157 
L 129.807744 -133.249091 
L 129.88721 -134.746612 
L 129.962828 -136.244132 
L 130.036709 -137.741653 
L 130.109171 -139.239174 
L 130.178979 -140.736694 
L 130.243826 -142.234215 
L 130.30095 -143.731736 
L 130.347797 -145.229256 
L 130.382613 -146.726777 
L 130.404885 -148.224298 
L 130.415571 -149.721818 
L 130.417092 -151.219339 
L 130.413116 -152.71686 
L 130.408155 -154.21438 
L 130.407045 -155.711901 
L 130.414393 -157.209421 
L 130.434049 -158.706942 
L 130.468675 -160.204463 
L 130.51948 -161.701983 
L 130.586118 -163.199504 
L 130.666793 -164.697025 
L 130.758512 -166.194545 
L 130.857468 -167.692066 
L 130.959479 -169.189587 
L 131.06043 -170.687107 
L 131.156651 -172.184628 
L 131.245201 -173.682149 
L 131.324023 -175.179669 
L 131.391983 -176.67719 
L 131.448798 -178.174711 
L 131.494892 -179.672231 
L 131.531204 -181.169752 
L 131.558997 -182.667273 
L 131.691003 -182.667273 
L 131.691003 -182.667273 
L 131.718796 -181.169752 
L 131.755108 -179.672231 
L 131.801202 -178.174711 
L 131.858017 -176.67719 
L 131.925977 -175.179669 
L 132.004799 -173.682149 
L 132.093349 -172.184628 
L 132.18957 -170.687107 
L 132.290521 -169.189587 
L 132.392532 -167.692066 
L 132.491488 -166.194545 
L 132.583207 -164.697025 
L 132.663882 -163.199504 
L 132.73052 -161.701983 
L 132.781325 -160.204463 
L 132.815951 -158.706942 
L 132.835607 -157.209421 
L 132.842955 -155.711901 
L 132.841845 -154.21438 
L 132.836884 -152.71686 
L 132.832908 -151.219339 
L 132.834429 -149.721818 
L 132.845115 -148.224298 
L 132.867387 -146.726777 
L 132.902203 -145.229256 
L 132.94905 -143.731736 
L 133.006174 -142.234215 
L 133.071021 -140.736694 
L 133.140829 -139.239174 
L 133.213291 -137.741653 
L 133.287172 -136.244132 
L 133.36279 -134.746612 
L 133.442256 -133.249091 
L 133.529431 -131.75157 
L 133.629597 -130.25405 
L 133.748874 -128.756529 
L 133.893492 -127.259008 
L 134.069006 -125.761488 
L 134.279597 -124.263967 
L 134.527551 -122.766446 
L 134.81301 -121.268926 
L 135.134016 -119.771405 
L 135.486856 -118.273884 
L 135.866666 -116.776364 
L 136.268183 -115.278843 
L 136.686573 -113.781322 
L 137.118172 -112.283802 
L 137.561039 -110.786281 
L 138.015195 -109.28876 
L 138.482498 -107.79124 
L 138.966117 -106.293719 
L 139.46968 -104.796198 
L 139.996183 -103.298678 
L 140.546858 -101.801157 
L 141.120161 -100.303636 
L 141.711076 -98.806116 
L 142.310861 -97.308595 
L 142.907289 -95.811074 
L 143.485343 -94.313554 
L 144.028265 -92.816033 
L 144.518766 -91.318512 
L 144.94023 -89.820992 
L 145.277717 -88.323471 
L 145.518689 -86.82595 
L 145.653393 -85.32843 
L 145.674964 -83.830909 
L 145.579333 -82.333388 
L 145.365071 -80.835868 
L 145.033279 -79.338347 
L 144.587595 -77.840826 
L 144.034328 -76.343306 
L 143.382661 -74.845785 
L 142.644829 -73.348264 
L 141.836123 -71.850744 
L 140.97463 -70.353223 
L 140.080627 -68.855702 
L 139.175641 -67.358182 
L 138.281243 -65.860661 
L 137.41773 -64.36314 
L 136.60285 -62.86562 
L 135.850764 -61.368099 
L 135.171361 -59.870579 
L 134.570024 -58.373058 
L 134.047834 -56.875537 
L 133.602154 -55.378017 
L 133.227485 -53.880496 
L 132.916433 -52.382975 
L 132.660676 -50.885455 
L 132.451787 -49.387934 
L 132.281863 -47.890413 
L 132.143923 -46.392893 
L 132.032081 -44.895372 
L 131.941542 -43.397851 
L 131.868485 -41.900331 
L 131.809877 -40.40281 
L 131.763282 -38.905289 
L 131.726693 -37.407769 
L 131.698402 -35.910248 
L 131.676924 -34.412727 
z
" id="m968211f718" style="stroke:#4c4c4c;stroke-width:1.5;"/>
    </defs>
    <g clip-path="url(#p6b7eb82f51)">
     <use style="fill:#5f9e6e;stroke:#4c4c4c;stroke-width:1.5;" x="0" xlink:href="#m968211f718" y="216"/>
    </g>
   </g>
   <g id="PolyCollection_4">
    <defs>
     <path d="M 173.620309 -44.987816 
L 173.329691 -44.987816 
L 173.266491 -46.308152 
L 173.181429 -47.628488 
L 173.069354 -48.948824 
L 172.92479 -50.26916 
L 172.742219 -51.589497 
L 172.516436 -52.909833 
L 172.242954 -54.230169 
L 171.918408 -55.550505 
L 171.540915 -56.870842 
L 171.110324 -58.191178 
L 170.628331 -59.511514 
L 170.098408 -60.83185 
L 169.525578 -62.152187 
L 168.916046 -63.472523 
L 168.276771 -64.792859 
L 167.615049 -66.113195 
L 166.938195 -67.433531 
L 166.25339 -68.753868 
L 165.567718 -70.074204 
L 164.888369 -71.39454 
L 164.222953 -72.714876 
L 163.579813 -74.035213 
L 162.96821 -75.355549 
L 162.398305 -76.675885 
L 161.880842 -77.996221 
L 161.426546 -79.316558 
L 161.0453 -80.636894 
L 160.74521 -81.95723 
L 160.531732 -83.277566 
L 160.407013 -84.597902 
L 160.369588 -85.918239 
L 160.414507 -87.238575 
L 160.533894 -88.558911 
L 160.717847 -89.879247 
L 160.95555 -91.199584 
L 161.23638 -92.51992 
L 161.550853 -93.840256 
L 161.891232 -95.160592 
L 162.251725 -96.480929 
L 162.628261 -97.801265 
L 163.017934 -99.121601 
L 163.418254 -100.441937 
L 163.826391 -101.762273 
L 164.238585 -103.08261 
L 164.649863 -104.402946 
L 165.054139 -105.723282 
L 165.444665 -107.043618 
L 165.814771 -108.363955 
L 166.158733 -109.684291 
L 166.472606 -111.004627 
L 166.754859 -112.324963 
L 167.006702 -113.645299 
L 167.232033 -114.965636 
L 167.437022 -116.285972 
L 167.6294 -117.606308 
L 167.817568 -118.926644 
L 168.009653 -120.246981 
L 168.212648 -121.567317 
L 168.431729 -122.887653 
L 168.669828 -124.207989 
L 168.927482 -125.528326 
L 169.202943 -126.848662 
L 169.492514 -128.168998 
L 169.791033 -129.489334 
L 170.092447 -130.80967 
L 170.390392 -132.130007 
L 170.678715 -133.450343 
L 170.95191 -134.770679 
L 171.205427 -136.091015 
L 171.435852 -137.411352 
L 171.640974 -138.731688 
L 171.819768 -140.052024 
L 171.972305 -141.37236 
L 172.099635 -142.692697 
L 172.203648 -144.013033 
L 172.286935 -145.333369 
L 172.352638 -146.653705 
L 172.404297 -147.974041 
L 172.445674 -149.294378 
L 172.48057 -150.614714 
L 172.512618 -151.93505 
L 172.545078 -153.255386 
L 172.580649 -154.575723 
L 172.62131 -155.896059 
L 172.668224 -157.216395 
L 172.72171 -158.536731 
L 172.781288 -159.857068 
L 172.845795 -161.177404 
L 172.913562 -162.49774 
L 172.982616 -163.818076 
L 173.050901 -165.138412 
L 173.116475 -166.458749 
L 173.177671 -167.779085 
L 173.233214 -169.099421 
L 173.282274 -170.419757 
L 173.324469 -171.740094 
L 173.359821 -173.06043 
L 173.388688 -174.380766 
L 173.411667 -175.701102 
L 173.538333 -175.701102 
L 173.538333 -175.701102 
L 173.561312 -174.380766 
L 173.590179 -173.06043 
L 173.625531 -171.740094 
L 173.667726 -170.419757 
L 173.716786 -169.099421 
L 173.772329 -167.779085 
L 173.833525 -166.458749 
L 173.899099 -165.138412 
L 173.967384 -163.818076 
L 174.036438 -162.49774 
L 174.104205 -161.177404 
L 174.168712 -159.857068 
L 174.22829 -158.536731 
L 174.281776 -157.216395 
L 174.32869 -155.896059 
L 174.369351 -154.575723 
L 174.404922 -153.255386 
L 174.437382 -151.93505 
L 174.46943 -150.614714 
L 174.504326 -149.294378 
L 174.545703 -147.974041 
L 174.597362 -146.653705 
L 174.663065 -145.333369 
L 174.746352 -144.013033 
L 174.850365 -142.692697 
L 174.977695 -141.37236 
L 175.130232 -140.052024 
L 175.309026 -138.731688 
L 175.514148 -137.411352 
L 175.744573 -136.091015 
L 175.99809 -134.770679 
L 176.271285 -133.450343 
L 176.559608 -132.130007 
L 176.857553 -130.80967 
L 177.158967 -129.489334 
L 177.457486 -128.168998 
L 177.747057 -126.848662 
L 178.022518 -125.528326 
L 178.280172 -124.207989 
L 178.518271 -122.887653 
L 178.737352 -121.567317 
L 178.940347 -120.246981 
L 179.132432 -118.926644 
L 179.3206 -117.606308 
L 179.512978 -116.285972 
L 179.717967 -114.965636 
L 179.943298 -113.645299 
L 180.195141 -112.324963 
L 180.477394 -111.004627 
L 180.791267 -109.684291 
L 181.135229 -108.363955 
L 181.505335 -107.043618 
L 181.895861 -105.723282 
L 182.300137 -104.402946 
L 182.711415 -103.08261 
L 183.123609 -101.762273 
L 183.531746 -100.441937 
L 183.932066 -99.121601 
L 184.321739 -97.801265 
L 184.698275 -96.480929 
L 185.058768 -95.160592 
L 185.399147 -93.840256 
L 185.71362 -92.51992 
L 185.99445 -91.199584 
L 186.232153 -89.879247 
L 186.416106 -88.558911 
L 186.535493 -87.238575 
L 186.580412 -85.918239 
L 186.542987 -84.597902 
L 186.418268 -83.277566 
L 186.20479 -81.95723 
L 185.9047 -80.636894 
L 185.523454 -79.316558 
L 185.069158 -77.996221 
L 184.551695 -76.675885 
L 183.98179 -75.355549 
L 183.370187 -74.035213 
L 182.727047 -72.714876 
L 182.061631 -71.39454 
L 181.382282 -70.074204 
L 180.69661 -68.753868 
L 180.011805 -67.433531 
L 179.334951 -66.113195 
L 178.673229 -64.792859 
L 178.033954 -63.472523 
L 177.424422 -62.152187 
L 176.851592 -60.83185 
L 176.321669 -59.511514 
L 175.839676 -58.191178 
L 175.409085 -56.870842 
L 175.031592 -55.550505 
L 174.707046 -54.230169 
L 174.433564 -52.909833 
L 174.207781 -51.589497 
L 174.02521 -50.26916 
L 173.880646 -48.948824 
L 173.768571 -47.628488 
L 173.683509 -46.308152 
L 173.620309 -44.987816 
z
" id="md41f0579e0" style="stroke:#4c4c4c;stroke-width:1.5;"/>
    </defs>
    <g clip-path="url(#p6b7eb82f51)">
     <use style="fill:#b55d60;stroke:#4c4c4c;stroke-width:1.5;" x="0" xlink:href="#md41f0579e0" y="216"/>
    </g>
   </g>
   <g id="line2d_8">
    <path clip-path="url(#p6b7eb82f51)" d="M 47.925 152.993294 
L 47.925 100.757724 
" style="fill:none;stroke:#4c4c4c;stroke-linecap:round;stroke-width:1.5;"/>
   </g>
   <g id="line2d_9">
    <path clip-path="url(#p6b7eb82f51)" d="M 47.925 141.434212 
L 47.925 123.360329 
" style="fill:none;stroke:#4c4c4c;stroke-linecap:round;stroke-width:4.5;"/>
   </g>
   <g id="line2d_10">
    <path clip-path="url(#p6b7eb82f51)" d="M 89.775 157.117772 
L 89.775 102.70279 
" style="fill:none;stroke:#4c4c4c;stroke-linecap:round;stroke-width:1.5;"/>
   </g>
   <g id="line2d_11">
    <path clip-path="url(#p6b7eb82f51)" d="M 89.775 142.248562 
L 89.775 119.622522 
" style="fill:none;stroke:#4c4c4c;stroke-linecap:round;stroke-width:4.5;"/>
   </g>
   <g id="line2d_12">
    <path clip-path="url(#p6b7eb82f51)" d="M 131.625 163.398226 
L 131.625 78.213705 
" style="fill:none;stroke:#4c4c4c;stroke-linecap:round;stroke-width:1.5;"/>
   </g>
   <g id="line2d_13">
    <path clip-path="url(#p6b7eb82f51)" d="M 131.625 138.006912 
L 131.625 112.615597 
" style="fill:none;stroke:#4c4c4c;stroke-linecap:round;stroke-width:4.5;"/>
   </g>
   <g id="line2d_14">
    <path clip-path="url(#p6b7eb82f51)" d="M 173.475 153.602592 
L 173.475 75.565603 
" style="fill:none;stroke:#4c4c4c;stroke-linecap:round;stroke-width:1.5;"/>
   </g>
   <g id="line2d_15">
    <path clip-path="url(#p6b7eb82f51)" d="M 173.475 135.470124 
L 173.475 110.606086 
" style="fill:none;stroke:#4c4c4c;stroke-linecap:round;stroke-width:4.5;"/>
   </g>
   <g id="patch_3">
    <path d="M 27 189 
L 27 25.92 
" style="fill:none;stroke:#ffffff;stroke-linecap:square;stroke-linejoin:miter;stroke-width:1.25;"/>
   </g>
   <g id="patch_4">
    <path d="M 194.4 189 
L 194.4 25.92 
" style="fill:none;stroke:#ffffff;stroke-linecap:square;stroke-linejoin:miter;stroke-width:1.25;"/>
   </g>
   <g id="patch_5">
    <path d="M 27 189 
L 194.4 189 
" style="fill:none;stroke:#ffffff;stroke-linecap:square;stroke-linejoin:miter;stroke-width:1.25;"/>
   </g>
   <g id="patch_6">
    <path d="M 27 25.92 
L 194.4 25.92 
" style="fill:none;stroke:#ffffff;stroke-linecap:square;stroke-linejoin:miter;stroke-width:1.25;"/>
   </g>
   <g id="PathCollection_1">
    <defs>
     <path d="M 0 1.5 
C 0.397805 1.5 0.77937 1.341951 1.06066 1.06066 
C 1.341951 0.77937 1.5 0.397805 1.5 0 
C 1.5 -0.397805 1.341951 -0.77937 1.06066 -1.06066 
C 0.77937 -1.341951 0.397805 -1.5 0 -1.5 
C -0.397805 -1.5 -0.77937 -1.341951 -1.06066 -1.06066 
C -1.341951 -0.77937 -1.5 -0.397805 -1.5 0 
C -1.5 0.397805 -1.341951 0.77937 -1.06066 1.06066 
C -0.77937 1.341951 -0.397805 1.5 0 1.5 
z
" id="m65b09319ba" style="stroke:#4c4c4c;"/>
    </defs>
    <g clip-path="url(#p6b7eb82f51)">
     <use style="fill:#ffffff;stroke:#4c4c4c;" x="47.925" xlink:href="#m65b09319ba" y="132.628687"/>
    </g>
   </g>
   <g id="PathCollection_2">
    <g clip-path="url(#p6b7eb82f51)">
     <use style="fill:#ffffff;stroke:#4c4c4c;" x="89.775" xlink:href="#m65b09319ba" y="134.550318"/>
    </g>
   </g>
   <g id="PathCollection_3">
    <g clip-path="url(#p6b7eb82f51)">
     <use style="fill:#ffffff;stroke:#4c4c4c;" x="131.625" xlink:href="#m65b09319ba" y="127.848042"/>
    </g>
   </g>
   <g id="PathCollection_4">
    <g clip-path="url(#p6b7eb82f51)">
     <use style="fill:#ffffff;stroke:#4c4c4c;" x="173.475" xlink:href="#m65b09319ba" y="124.590642"/>
    </g>
   </g>
  </g>
 </g>
 <defs>
  <clipPath id="p6b7eb82f51">
   <rect height="163.08" width="167.4" x="27" y="25.92"/>
  </clipPath>
 </defs>
</svg>
