<?xml version="1.0" encoding="utf-8" standalone="no"?>
<!DOCTYPE svg PUBLIC "-//W3C//DTD SVG 1.1//EN"
  "http://www.w3.org/Graphics/SVG/1.1/DTD/svg11.dtd">
<!-- Created with matplotlib (https://matplotlib.org/) -->
<svg height="216pt" version="1.1" viewBox="0 0 216 216" width="216pt" xmlns="http://www.w3.org/2000/svg" xmlns:xlink="http://www.w3.org/1999/xlink">
 <metadata>
  <rdf:RDF xmlns:cc="http://creativecommons.org/ns#" xmlns:dc="http://purl.org/dc/elements/1.1/" xmlns:rdf="http://www.w3.org/1999/02/22-rdf-syntax-ns#">
   <cc:Work>
    <dc:type rdf:resource="http://purl.org/dc/dcmitype/StillImage"/>
    <dc:date>2020-10-06T01:56:13.099676</dc:date>
    <dc:format>image/svg+xml</dc:format>
    <dc:creator>
     <cc:Agent>
      <dc:title>Matplotlib v3.3.1, https://matplotlib.org/</dc:title>
     </cc:Agent>
    </dc:creator>
   </cc:Work>
  </rdf:RDF>
 </metadata>
 <defs>
  <style type="text/css">*{stroke-linecap:butt;stroke-linejoin:round;}</style>
 </defs>
 <g id="figure_1">
  <g id="patch_1">
   <path d="M 0 216 
L 216 216 
L 216 0 
L 0 0 
z
" style="fill:#ffffff;"/>
  </g>
  <g id="axes_1">
   <g id="patch_2">
    <path d="M 27 189 
L 194.4 189 
L 194.4 25.92 
L 27 25.92 
z
" style="fill:#eaeaf2;"/>
   </g>
   <g id="matplotlib.axis_1">
    <g id="xtick_1">
     <g id="text_1">
      <!-- Thur -->
      <g style="fill:#262626;" transform="translate(36.617344 206.373594)scale(0.11 -0.11)">
       <defs>
        <path d="M 25.921875 0 
L 25.921875 63.140625 
L 2.34375 63.140625 
L 2.34375 71.578125 
L 59.078125 71.578125 
L 59.078125 63.140625 
L 35.40625 63.140625 
L 35.40625 0 
z
" id="ArialMT-84"/>
        <path d="M 6.59375 0 
L 6.59375 71.578125 
L 15.375 71.578125 
L 15.375 45.90625 
Q 21.53125 53.03125 30.90625 53.03125 
Q 36.671875 53.03125 40.921875 50.75 
Q 45.171875 48.484375 47 44.484375 
Q 48.828125 40.484375 48.828125 32.859375 
L 48.828125 0 
L 40.046875 0 
L 40.046875 32.859375 
Q 40.046875 39.453125 37.1875 42.453125 
Q 34.328125 45.453125 29.109375 45.453125 
Q 25.203125 45.453125 21.75 43.421875 
Q 18.3125 41.40625 16.84375 37.9375 
Q 15.375 34.46875 15.375 28.375 
L 15.375 0 
z
" id="ArialMT-104"/>
        <path d="M 40.578125 0 
L 40.578125 7.625 
Q 34.515625 -1.171875 24.125 -1.171875 
Q 19.53125 -1.171875 15.546875 0.578125 
Q 11.578125 2.34375 9.640625 5 
Q 7.71875 7.671875 6.9375 11.53125 
Q 6.390625 14.109375 6.390625 19.734375 
L 6.390625 51.859375 
L 15.1875 51.859375 
L 15.1875 23.09375 
Q 15.1875 16.21875 15.71875 13.8125 
Q 16.546875 10.359375 19.234375 8.375 
Q 21.921875 6.390625 25.875 6.390625 
Q 29.828125 6.390625 33.296875 8.421875 
Q 36.765625 10.453125 38.203125 13.9375 
Q 39.65625 17.4375 39.65625 24.078125 
L 39.65625 51.859375 
L 48.4375 51.859375 
L 48.4375 0 
z
" id="ArialMT-117"/>
        <path d="M 6.5 0 
L 6.5 51.859375 
L 14.40625 51.859375 
L 14.40625 44 
Q 17.4375 49.515625 20 51.265625 
Q 22.5625 53.03125 25.640625 53.03125 
Q 30.078125 53.03125 34.671875 50.203125 
L 31.640625 42.046875 
Q 28.421875 43.953125 25.203125 43.953125 
Q 22.3125 43.953125 20.015625 42.21875 
Q 17.71875 40.484375 16.75 37.40625 
Q 15.28125 32.71875 15.28125 27.15625 
L 15.28125 0 
z
" id="ArialMT-114"/>
       </defs>
       <use xlink:href="#ArialMT-84"/>
       <use x="61.083984" xlink:href="#ArialMT-104"/>
       <use x="116.699219" xlink:href="#ArialMT-117"/>
       <use x="172.314453" xlink:href="#ArialMT-114"/>
      </g>
     </g>
    </g>
    <g id="xtick_2">
     <g id="text_2">
      <!-- Fri -->
      <g style="fill:#262626;" transform="translate(83.362344 206.373594)scale(0.11 -0.11)">
       <defs>
        <path d="M 8.203125 0 
L 8.203125 71.578125 
L 56.5 71.578125 
L 56.5 63.140625 
L 17.671875 63.140625 
L 17.671875 40.96875 
L 51.265625 40.96875 
L 51.265625 32.515625 
L 17.671875 32.515625 
L 17.671875 0 
z
" id="ArialMT-70"/>
        <path d="M 6.640625 61.46875 
L 6.640625 71.578125 
L 15.4375 71.578125 
L 15.4375 61.46875 
z
M 6.640625 0 
L 6.640625 51.859375 
L 15.4375 51.859375 
L 15.4375 0 
z
" id="ArialMT-105"/>
       </defs>
       <use xlink:href="#ArialMT-70"/>
       <use x="61.083984" xlink:href="#ArialMT-114"/>
       <use x="94.384766" xlink:href="#ArialMT-105"/>
      </g>
     </g>
    </g>
    <g id="xtick_3">
     <g id="text_3">
      <!-- Sat -->
      <g style="fill:#262626;" transform="translate(123.369844 206.373594)scale(0.11 -0.11)">
       <defs>
        <path d="M 4.5 23 
L 13.421875 23.78125 
Q 14.0625 18.40625 16.375 14.96875 
Q 18.703125 11.53125 23.578125 9.40625 
Q 28.46875 7.28125 34.578125 7.28125 
Q 39.984375 7.28125 44.140625 8.890625 
Q 48.296875 10.5 50.3125 13.296875 
Q 52.34375 16.109375 52.34375 19.4375 
Q 52.34375 22.796875 50.390625 25.3125 
Q 48.4375 27.828125 43.953125 29.546875 
Q 41.0625 30.671875 31.203125 33.03125 
Q 21.34375 35.40625 17.390625 37.5 
Q 12.25 40.1875 9.734375 44.15625 
Q 7.234375 48.140625 7.234375 53.078125 
Q 7.234375 58.5 10.296875 63.203125 
Q 13.375 67.921875 19.28125 70.359375 
Q 25.203125 72.796875 32.421875 72.796875 
Q 40.375 72.796875 46.453125 70.234375 
Q 52.546875 67.671875 55.8125 62.6875 
Q 59.078125 57.71875 59.328125 51.421875 
L 50.25 50.734375 
Q 49.515625 57.515625 45.28125 60.984375 
Q 41.0625 64.453125 32.8125 64.453125 
Q 24.21875 64.453125 20.28125 61.296875 
Q 16.359375 58.15625 16.359375 53.71875 
Q 16.359375 49.859375 19.140625 47.359375 
Q 21.875 44.875 33.421875 42.265625 
Q 44.96875 39.65625 49.265625 37.703125 
Q 55.515625 34.8125 58.484375 30.390625 
Q 61.46875 25.984375 61.46875 20.21875 
Q 61.46875 14.5 58.203125 9.4375 
Q 54.9375 4.390625 48.796875 1.578125 
Q 42.671875 -1.21875 35.015625 -1.21875 
Q 25.296875 -1.21875 18.71875 1.609375 
Q 12.15625 4.4375 8.421875 10.125 
Q 4.6875 15.828125 4.5 23 
z
" id="ArialMT-83"/>
        <path d="M 40.4375 6.390625 
Q 35.546875 2.25 31.03125 0.53125 
Q 26.515625 -1.171875 21.34375 -1.171875 
Q 12.796875 -1.171875 8.203125 3 
Q 3.609375 7.171875 3.609375 13.671875 
Q 3.609375 17.484375 5.34375 20.625 
Q 7.078125 23.78125 9.890625 25.6875 
Q 12.703125 27.59375 16.21875 28.5625 
Q 18.796875 29.25 24.03125 29.890625 
Q 34.671875 31.15625 39.703125 32.90625 
Q 39.75 34.71875 39.75 35.203125 
Q 39.75 40.578125 37.25 42.78125 
Q 33.890625 45.75 27.25 45.75 
Q 21.046875 45.75 18.09375 43.578125 
Q 15.140625 41.40625 13.71875 35.890625 
L 5.125 37.0625 
Q 6.296875 42.578125 8.984375 45.96875 
Q 11.671875 49.359375 16.75 51.1875 
Q 21.828125 53.03125 28.515625 53.03125 
Q 35.15625 53.03125 39.296875 51.46875 
Q 43.453125 49.90625 45.40625 47.53125 
Q 47.359375 45.171875 48.140625 41.546875 
Q 48.578125 39.3125 48.578125 33.453125 
L 48.578125 21.734375 
Q 48.578125 9.46875 49.140625 6.21875 
Q 49.703125 2.984375 51.375 0 
L 42.1875 0 
Q 40.828125 2.734375 40.4375 6.390625 
z
M 39.703125 26.03125 
Q 34.90625 24.078125 25.34375 22.703125 
Q 19.921875 21.921875 17.671875 20.9375 
Q 15.4375 19.96875 14.203125 18.09375 
Q 12.984375 16.21875 12.984375 13.921875 
Q 12.984375 10.40625 15.640625 8.0625 
Q 18.3125 5.71875 23.4375 5.71875 
Q 28.515625 5.71875 32.46875 7.9375 
Q 36.421875 10.15625 38.28125 14.015625 
Q 39.703125 17 39.703125 22.796875 
z
" id="ArialMT-97"/>
        <path d="M 25.78125 7.859375 
L 27.046875 0.09375 
Q 23.34375 -0.6875 20.40625 -0.6875 
Q 15.625 -0.6875 12.984375 0.828125 
Q 10.359375 2.34375 9.28125 4.8125 
Q 8.203125 7.28125 8.203125 15.1875 
L 8.203125 45.015625 
L 1.765625 45.015625 
L 1.765625 51.859375 
L 8.203125 51.859375 
L 8.203125 64.703125 
L 16.9375 69.96875 
L 16.9375 51.859375 
L 25.78125 51.859375 
L 25.78125 45.015625 
L 16.9375 45.015625 
L 16.9375 14.703125 
Q 16.9375 10.9375 17.40625 9.859375 
Q 17.875 8.796875 18.921875 8.15625 
Q 19.96875 7.515625 21.921875 7.515625 
Q 23.390625 7.515625 25.78125 7.859375 
z
" id="ArialMT-116"/>
       </defs>
       <use xlink:href="#ArialMT-83"/>
       <use x="66.699219" xlink:href="#ArialMT-97"/>
       <use x="122.314453" xlink:href="#ArialMT-116"/>
      </g>
     </g>
    </g>
    <g id="xtick_4">
     <g id="text_4">
      <!-- Sun -->
      <g style="fill:#262626;" transform="translate(163.689297 206.373594)scale(0.11 -0.11)">
       <defs>
        <path d="M 6.59375 0 
L 6.59375 51.859375 
L 14.5 51.859375 
L 14.5 44.484375 
Q 20.21875 53.03125 31 53.03125 
Q 35.6875 53.03125 39.625 51.34375 
Q 43.5625 49.65625 45.515625 46.921875 
Q 47.46875 44.1875 48.25 40.4375 
Q 48.734375 37.984375 48.734375 31.890625 
L 48.734375 0 
L 39.9375 0 
L 39.9375 31.546875 
Q 39.9375 36.921875 38.90625 39.578125 
Q 37.890625 42.234375 35.28125 43.8125 
Q 32.671875 45.40625 29.15625 45.40625 
Q 23.53125 45.40625 19.453125 41.84375 
Q 15.375 38.28125 15.375 28.328125 
L 15.375 0 
z
" id="ArialMT-110"/>
       </defs>
       <use xlink:href="#ArialMT-83"/>
       <use x="66.699219" xlink:href="#ArialMT-117"/>
       <use x="122.314453" xlink:href="#ArialMT-110"/>
      </g>
     </g>
    </g>
    <g id="text_5">
     <!-- day -->
     <g style="fill:#262626;" transform="translate(101.026875 221.149219)scale(0.12 -0.12)">
      <defs>
       <path d="M 40.234375 0 
L 40.234375 6.546875 
Q 35.296875 -1.171875 25.734375 -1.171875 
Q 19.53125 -1.171875 14.328125 2.25 
Q 9.125 5.671875 6.265625 11.796875 
Q 3.421875 17.921875 3.421875 25.875 
Q 3.421875 33.640625 6 39.96875 
Q 8.59375 46.296875 13.765625 49.65625 
Q 18.953125 53.03125 25.34375 53.03125 
Q 30.03125 53.03125 33.6875 51.046875 
Q 37.359375 49.078125 39.65625 45.90625 
L 39.65625 71.578125 
L 48.390625 71.578125 
L 48.390625 0 
z
M 12.453125 25.875 
Q 12.453125 15.921875 16.640625 10.984375 
Q 20.84375 6.0625 26.5625 6.0625 
Q 32.328125 6.0625 36.34375 10.765625 
Q 40.375 15.484375 40.375 25.140625 
Q 40.375 35.796875 36.265625 40.765625 
Q 32.171875 45.75 26.171875 45.75 
Q 20.3125 45.75 16.375 40.96875 
Q 12.453125 36.1875 12.453125 25.875 
z
" id="ArialMT-100"/>
       <path d="M 6.203125 -19.96875 
L 5.21875 -11.71875 
Q 8.109375 -12.5 10.25 -12.5 
Q 13.1875 -12.5 14.9375 -11.515625 
Q 16.703125 -10.546875 17.828125 -8.796875 
Q 18.65625 -7.46875 20.515625 -2.25 
Q 20.75 -1.515625 21.296875 -0.09375 
L 1.609375 51.859375 
L 11.078125 51.859375 
L 21.875 21.828125 
Q 23.96875 16.109375 25.640625 9.8125 
Q 27.15625 15.875 29.25 21.625 
L 40.328125 51.859375 
L 49.125 51.859375 
L 29.390625 -0.875 
Q 26.21875 -9.421875 24.46875 -12.640625 
Q 22.125 -17 19.09375 -19.015625 
Q 16.0625 -21.046875 11.859375 -21.046875 
Q 9.328125 -21.046875 6.203125 -19.96875 
z
" id="ArialMT-121"/>
      </defs>
      <use xlink:href="#ArialMT-100"/>
      <use x="55.615234" xlink:href="#ArialMT-97"/>
      <use x="111.230469" xlink:href="#ArialMT-121"/>
     </g>
    </g>
   </g>
   <g id="matplotlib.axis_2">
    <g id="ytick_1">
     <g id="line2d_1">
      <path clip-path="url(#p87f8acde7c)" d="M 27 160.066452 
L 194.4 160.066452 
" style="fill:none;stroke:#ffffff;stroke-linecap:round;"/>
     </g>
     <g id="text_6">
      <!-- 10 -->
      <g style="fill:#262626;" transform="translate(5.265937 164.003248)scale(0.11 -0.11)">
       <defs>
        <path d="M 37.25 0 
L 28.46875 0 
L 28.46875 56 
Q 25.296875 52.984375 20.140625 49.953125 
Q 14.984375 46.921875 10.890625 45.40625 
L 10.890625 53.90625 
Q 18.265625 57.375 23.78125 62.296875 
Q 29.296875 67.234375 31.59375 71.875 
L 37.25 71.875 
z
" id="ArialMT-49"/>
        <path d="M 4.15625 35.296875 
Q 4.15625 48 6.765625 55.734375 
Q 9.375 63.484375 14.515625 67.671875 
Q 19.671875 71.875 27.484375 71.875 
Q 33.25 71.875 37.59375 69.546875 
Q 41.9375 67.234375 44.765625 62.859375 
Q 47.609375 58.5 49.21875 52.21875 
Q 50.828125 45.953125 50.828125 35.296875 
Q 50.828125 22.703125 48.234375 14.96875 
Q 45.65625 7.234375 40.5 3 
Q 35.359375 -1.21875 27.484375 -1.21875 
Q 17.140625 -1.21875 11.234375 6.203125 
Q 4.15625 15.140625 4.15625 35.296875 
z
M 13.1875 35.296875 
Q 13.1875 17.671875 17.3125 11.828125 
Q 21.4375 6 27.484375 6 
Q 33.546875 6 37.671875 11.859375 
Q 41.796875 17.71875 41.796875 35.296875 
Q 41.796875 52.984375 37.671875 58.78125 
Q 33.546875 64.59375 27.390625 64.59375 
Q 21.34375 64.59375 17.71875 59.46875 
Q 13.1875 52.9375 13.1875 35.296875 
z
" id="ArialMT-48"/>
       </defs>
       <use xlink:href="#ArialMT-49"/>
       <use x="55.615234" xlink:href="#ArialMT-48"/>
      </g>
     </g>
    </g>
    <g id="ytick_2">
     <g id="line2d_2">
      <path clip-path="url(#p87f8acde7c)" d="M 27 129.011876 
L 194.4 129.011876 
" style="fill:none;stroke:#ffffff;stroke-linecap:round;"/>
     </g>
     <g id="text_7">
      <!-- 20 -->
      <g style="fill:#262626;" transform="translate(5.265937 132.948673)scale(0.11 -0.11)">
       <defs>
        <path d="M 50.34375 8.453125 
L 50.34375 0 
L 3.03125 0 
Q 2.9375 3.171875 4.046875 6.109375 
Q 5.859375 10.9375 9.828125 15.625 
Q 13.8125 20.3125 21.34375 26.46875 
Q 33.015625 36.03125 37.109375 41.625 
Q 41.21875 47.21875 41.21875 52.203125 
Q 41.21875 57.421875 37.46875 61 
Q 33.734375 64.59375 27.734375 64.59375 
Q 21.390625 64.59375 17.578125 60.78125 
Q 13.765625 56.984375 13.71875 50.25 
L 4.6875 51.171875 
Q 5.609375 61.28125 11.65625 66.578125 
Q 17.71875 71.875 27.9375 71.875 
Q 38.234375 71.875 44.234375 66.15625 
Q 50.25 60.453125 50.25 52 
Q 50.25 47.703125 48.484375 43.546875 
Q 46.734375 39.40625 42.65625 34.8125 
Q 38.578125 30.21875 29.109375 22.21875 
Q 21.1875 15.578125 18.9375 13.203125 
Q 16.703125 10.84375 15.234375 8.453125 
z
" id="ArialMT-50"/>
       </defs>
       <use xlink:href="#ArialMT-50"/>
       <use x="55.615234" xlink:href="#ArialMT-48"/>
      </g>
     </g>
    </g>
    <g id="ytick_3">
     <g id="line2d_3">
      <path clip-path="url(#p87f8acde7c)" d="M 27 97.9573 
L 194.4 97.9573 
" style="fill:none;stroke:#ffffff;stroke-linecap:round;"/>
     </g>
     <g id="text_8">
      <!-- 30 -->
      <g style="fill:#262626;" transform="translate(5.265937 101.894097)scale(0.11 -0.11)">
       <defs>
        <path d="M 4.203125 18.890625 
L 12.984375 20.0625 
Q 14.5 12.59375 18.140625 9.296875 
Q 21.78125 6 27 6 
Q 33.203125 6 37.46875 10.296875 
Q 41.75 14.59375 41.75 20.953125 
Q 41.75 27 37.796875 30.921875 
Q 33.84375 34.859375 27.734375 34.859375 
Q 25.25 34.859375 21.53125 33.890625 
L 22.515625 41.609375 
Q 23.390625 41.5 23.921875 41.5 
Q 29.546875 41.5 34.03125 44.421875 
Q 38.53125 47.359375 38.53125 53.46875 
Q 38.53125 58.296875 35.25 61.46875 
Q 31.984375 64.65625 26.8125 64.65625 
Q 21.6875 64.65625 18.265625 61.421875 
Q 14.84375 58.203125 13.875 51.765625 
L 5.078125 53.328125 
Q 6.6875 62.15625 12.390625 67.015625 
Q 18.109375 71.875 26.609375 71.875 
Q 32.46875 71.875 37.390625 69.359375 
Q 42.328125 66.84375 44.9375 62.5 
Q 47.5625 58.15625 47.5625 53.265625 
Q 47.5625 48.640625 45.0625 44.828125 
Q 42.578125 41.015625 37.703125 38.765625 
Q 44.046875 37.3125 47.5625 32.6875 
Q 51.078125 28.078125 51.078125 21.140625 
Q 51.078125 11.765625 44.234375 5.25 
Q 37.40625 -1.265625 26.953125 -1.265625 
Q 17.53125 -1.265625 11.296875 4.34375 
Q 5.078125 9.96875 4.203125 18.890625 
z
" id="ArialMT-51"/>
       </defs>
       <use xlink:href="#ArialMT-51"/>
       <use x="55.615234" xlink:href="#ArialMT-48"/>
      </g>
     </g>
    </g>
    <g id="ytick_4">
     <g id="line2d_4">
      <path clip-path="url(#p87f8acde7c)" d="M 27 66.902724 
L 194.4 66.902724 
" style="fill:none;stroke:#ffffff;stroke-linecap:round;"/>
     </g>
     <g id="text_9">
      <!-- 40 -->
      <g style="fill:#262626;" transform="translate(5.265937 70.839521)scale(0.11 -0.11)">
       <defs>
        <path d="M 32.328125 0 
L 32.328125 17.140625 
L 1.265625 17.140625 
L 1.265625 25.203125 
L 33.9375 71.578125 
L 41.109375 71.578125 
L 41.109375 25.203125 
L 50.78125 25.203125 
L 50.78125 17.140625 
L 41.109375 17.140625 
L 41.109375 0 
z
M 32.328125 25.203125 
L 32.328125 57.46875 
L 9.90625 25.203125 
z
" id="ArialMT-52"/>
       </defs>
       <use xlink:href="#ArialMT-52"/>
       <use x="55.615234" xlink:href="#ArialMT-48"/>
      </g>
     </g>
    </g>
    <g id="ytick_5">
     <g id="line2d_5">
      <path clip-path="url(#p87f8acde7c)" d="M 27 35.848148 
L 194.4 35.848148 
" style="fill:none;stroke:#ffffff;stroke-linecap:round;"/>
     </g>
     <g id="text_10">
      <!-- 50 -->
      <g style="fill:#262626;" transform="translate(5.265937 39.784945)scale(0.11 -0.11)">
       <defs>
        <path d="M 4.15625 18.75 
L 13.375 19.53125 
Q 14.40625 12.796875 18.140625 9.390625 
Q 21.875 6 27.15625 6 
Q 33.5 6 37.890625 10.78125 
Q 42.28125 15.578125 42.28125 23.484375 
Q 42.28125 31 38.0625 35.34375 
Q 33.84375 39.703125 27 39.703125 
Q 22.75 39.703125 19.328125 37.765625 
Q 15.921875 35.84375 13.96875 32.765625 
L 5.71875 33.84375 
L 12.640625 70.609375 
L 48.25 70.609375 
L 48.25 62.203125 
L 19.671875 62.203125 
L 15.828125 42.96875 
Q 22.265625 47.46875 29.34375 47.46875 
Q 38.71875 47.46875 45.15625 40.96875 
Q 51.609375 34.46875 51.609375 24.265625 
Q 51.609375 14.546875 45.953125 7.46875 
Q 39.0625 -1.21875 27.15625 -1.21875 
Q 17.390625 -1.21875 11.203125 4.25 
Q 5.03125 9.71875 4.15625 18.75 
z
" id="ArialMT-53"/>
       </defs>
       <use xlink:href="#ArialMT-53"/>
       <use x="55.615234" xlink:href="#ArialMT-48"/>
      </g>
     </g>
    </g>
    <g id="text_11">
     <!-- total_bill -->
     <g style="fill:#262626;" transform="translate(-1.119063 129.4725)rotate(-90)scale(0.12 -0.12)">
      <defs>
       <path d="M 3.328125 25.921875 
Q 3.328125 40.328125 11.328125 47.265625 
Q 18.015625 53.03125 27.640625 53.03125 
Q 38.328125 53.03125 45.109375 46.015625 
Q 51.90625 39.015625 51.90625 26.65625 
Q 51.90625 16.65625 48.90625 10.90625 
Q 45.90625 5.171875 40.15625 2 
Q 34.421875 -1.171875 27.640625 -1.171875 
Q 16.75 -1.171875 10.03125 5.8125 
Q 3.328125 12.796875 3.328125 25.921875 
z
M 12.359375 25.921875 
Q 12.359375 15.96875 16.703125 11.015625 
Q 21.046875 6.0625 27.640625 6.0625 
Q 34.1875 6.0625 38.53125 11.03125 
Q 42.875 16.015625 42.875 26.21875 
Q 42.875 35.84375 38.5 40.796875 
Q 34.125 45.75 27.640625 45.75 
Q 21.046875 45.75 16.703125 40.8125 
Q 12.359375 35.890625 12.359375 25.921875 
z
" id="ArialMT-111"/>
       <path d="M 6.390625 0 
L 6.390625 71.578125 
L 15.1875 71.578125 
L 15.1875 0 
z
" id="ArialMT-108"/>
       <path d="M -1.515625 -19.875 
L -1.515625 -13.53125 
L 56.734375 -13.53125 
L 56.734375 -19.875 
z
" id="ArialMT-95"/>
       <path d="M 14.703125 0 
L 6.546875 0 
L 6.546875 71.578125 
L 15.328125 71.578125 
L 15.328125 46.046875 
Q 20.90625 53.03125 29.546875 53.03125 
Q 34.328125 53.03125 38.59375 51.09375 
Q 42.875 49.171875 45.625 45.671875 
Q 48.390625 42.1875 49.953125 37.25 
Q 51.515625 32.328125 51.515625 26.703125 
Q 51.515625 13.375 44.921875 6.09375 
Q 38.328125 -1.171875 29.109375 -1.171875 
Q 19.921875 -1.171875 14.703125 6.5 
z
M 14.59375 26.3125 
Q 14.59375 17 17.140625 12.84375 
Q 21.296875 6.0625 28.375 6.0625 
Q 34.125 6.0625 38.328125 11.0625 
Q 42.53125 16.0625 42.53125 25.984375 
Q 42.53125 36.140625 38.5 40.96875 
Q 34.46875 45.796875 28.765625 45.796875 
Q 23 45.796875 18.796875 40.796875 
Q 14.59375 35.796875 14.59375 26.3125 
z
" id="ArialMT-98"/>
      </defs>
      <use xlink:href="#ArialMT-116"/>
      <use x="27.783203" xlink:href="#ArialMT-111"/>
      <use x="83.398438" xlink:href="#ArialMT-116"/>
      <use x="111.181641" xlink:href="#ArialMT-97"/>
      <use x="166.796875" xlink:href="#ArialMT-108"/>
      <use x="189.013672" xlink:href="#ArialMT-95"/>
      <use x="244.628906" xlink:href="#ArialMT-98"/>
      <use x="300.244141" xlink:href="#ArialMT-105"/>
      <use x="322.460938" xlink:href="#ArialMT-108"/>
      <use x="344.677734" xlink:href="#ArialMT-108"/>
     </g>
    </g>
   </g>
   <g id="PathCollection_1"/>
   <g id="PathCollection_2"/>
   <g id="patch_3">
    <path d="M 27 189 
L 27 25.92 
" style="fill:none;stroke:#ffffff;stroke-linecap:square;stroke-linejoin:miter;stroke-width:1.25;"/>
   </g>
   <g id="patch_4">
    <path d="M 194.4 189 
L 194.4 25.92 
" style="fill:none;stroke:#ffffff;stroke-linecap:square;stroke-linejoin:miter;stroke-width:1.25;"/>
   </g>
   <g id="patch_5">
    <path d="M 27 189 
L 194.4 189 
" style="fill:none;stroke:#ffffff;stroke-linecap:square;stroke-linejoin:miter;stroke-width:1.25;"/>
   </g>
   <g id="patch_6">
    <path d="M 27 25.92 
L 194.4 25.92 
" style="fill:none;stroke:#ffffff;stroke-linecap:square;stroke-linejoin:miter;stroke-width:1.25;"/>
   </g>
   <g id="PathCollection_3">
    <defs>
     <path d="M 0 2.5 
C 0.663008 2.5 1.29895 2.236584 1.767767 1.767767 
C 2.236584 1.29895 2.5 0.663008 2.5 -0 
C 2.5 -0.663008 2.236584 -1.29895 1.767767 -1.767767 
C 1.29895 -2.236584 0.663008 -2.5 0 -2.5 
C -0.663008 -2.5 -1.29895 -2.236584 -1.767767 -1.767767 
C -2.236584 -1.29895 -2.5 -0.663008 -2.5 0 
C -2.5 0.663008 -2.236584 1.29895 -1.767767 1.767767 
C -1.29895 2.236584 -0.663008 2.5 0 2.5 
z
" id="C0_0_16636bc10d"/>
    </defs>
    <g clip-path="url(#p87f8acde7c)">
     <use style="fill:#78c850;" x="47.925" xlink:href="#C0_0_16636bc10d" y="167.799041"/>
    </g>
    <g clip-path="url(#p87f8acde7c)">
     <use style="fill:#78c850;" x="42.677532" xlink:href="#C0_0_16636bc10d" y="167.643768"/>
    </g>
    <g clip-path="url(#p87f8acde7c)">
     <use style="fill:#f08030;" x="52.403873" xlink:href="#C0_0_16636bc10d" y="165.190457"/>
    </g>
    <g clip-path="url(#p87f8acde7c)">
     <use style="fill:#f08030;" x="38.438807" xlink:href="#C0_0_16636bc10d" y="164.693583"/>
    </g>
    <g clip-path="url(#p87f8acde7c)">
     <use style="fill:#78c850;" x="57.624527" xlink:href="#C0_0_16636bc10d" y="164.662529"/>
    </g>
    <g clip-path="url(#p87f8acde7c)">
     <use style="fill:#78c850;" x="47.925" xlink:href="#C0_0_16636bc10d" y="160.749652"/>
    </g>
    <g clip-path="url(#p87f8acde7c)">
     <use style="fill:#f08030;" x="42.760862" xlink:href="#C0_0_16636bc10d" y="159.84907"/>
    </g>
    <g clip-path="url(#p87f8acde7c)">
     <use style="fill:#f08030;" x="52.859188" xlink:href="#C0_0_16636bc10d" y="159.041651"/>
    </g>
    <g clip-path="url(#p87f8acde7c)">
     <use style="fill:#78c850;" x="58.109087" xlink:href="#C0_0_16636bc10d" y="159.010596"/>
    </g>
    <g clip-path="url(#p87f8acde7c)">
     <use style="fill:#f08030;" x="37.863335" xlink:href="#C0_0_16636bc10d" y="158.047904"/>
    </g>
    <g clip-path="url(#p87f8acde7c)">
     <use style="fill:#f08030;" x="62.607738" xlink:href="#C0_0_16636bc10d" y="156.433066"/>
    </g>
    <g clip-path="url(#p87f8acde7c)">
     <use style="fill:#f08030;" x="47.338783" xlink:href="#C0_0_16636bc10d" y="155.78092"/>
    </g>
    <g clip-path="url(#p87f8acde7c)">
     <use style="fill:#78c850;" x="42.187014" xlink:href="#C0_0_16636bc10d" y="154.818228"/>
    </g>
    <g clip-path="url(#p87f8acde7c)">
     <use style="fill:#f08030;" x="54.391111" xlink:href="#C0_0_16636bc10d" y="154.259246"/>
    </g>
    <g clip-path="url(#p87f8acde7c)">
     <use style="fill:#f08030;" x="37.277019" xlink:href="#C0_0_16636bc10d" y="153.048117"/>
    </g>
    <g clip-path="url(#p87f8acde7c)">
     <use style="fill:#f08030;" x="59.313325" xlink:href="#C0_0_16636bc10d" y="152.52019"/>
    </g>
    <g clip-path="url(#p87f8acde7c)">
     <use style="fill:#f08030;" x="32.07626" xlink:href="#C0_0_16636bc10d" y="152.364917"/>
    </g>
    <g clip-path="url(#p87f8acde7c)">
     <use style="fill:#f08030;" x="50.148922" xlink:href="#C0_0_16636bc10d" y="151.557498"/>
    </g>
    <g clip-path="url(#p87f8acde7c)">
     <use style="fill:#f08030;" x="64.223319" xlink:href="#C0_0_16636bc10d" y="150.750079"/>
    </g>
    <g clip-path="url(#p87f8acde7c)">
     <use style="fill:#f08030;" x="31.185" xlink:href="#C0_0_16636bc10d" y="150.750079"/>
    </g>
    <g clip-path="url(#p87f8acde7c)">
     <use style="fill:#78c850;" x="45.097517" xlink:href="#C0_0_16636bc10d" y="150.656915"/>
    </g>
    <g clip-path="url(#p87f8acde7c)">
     <use style="fill:#f08030;" x="64.665" xlink:href="#C0_0_16636bc10d" y="150.253206"/>
    </g>
    <g clip-path="url(#p87f8acde7c)">
     <use style="fill:#f08030;" x="31.185" xlink:href="#C0_0_16636bc10d" y="149.445787"/>
    </g>
    <g clip-path="url(#p87f8acde7c)">
     <use style="fill:#78c850;" x="54.759624" xlink:href="#C0_0_16636bc10d" y="149.166295"/>
    </g>
    <g clip-path="url(#p87f8acde7c)">
     <use style="fill:#f08030;" x="41.325877" xlink:href="#C0_0_16636bc10d" y="147.178803"/>
    </g>
    <g clip-path="url(#p87f8acde7c)">
     <use style="fill:#78c850;" x="48.417597" xlink:href="#C0_0_16636bc10d" y="146.837202"/>
    </g>
    <g clip-path="url(#p87f8acde7c)">
     <use style="fill:#f08030;" x="58.848197" xlink:href="#C0_0_16636bc10d" y="146.029783"/>
    </g>
    <g clip-path="url(#p87f8acde7c)">
     <use style="fill:#78c850;" x="44.991624" xlink:href="#C0_0_16636bc10d" y="143.048544"/>
    </g>
    <g clip-path="url(#p87f8acde7c)">
     <use style="fill:#78c850;" x="50.012959" xlink:href="#C0_0_16636bc10d" y="141.588979"/>
    </g>
    <g clip-path="url(#p87f8acde7c)">
     <use style="fill:#78c850;" x="55.262048" xlink:href="#C0_0_16636bc10d" y="141.495815"/>
    </g>
    <g clip-path="url(#p87f8acde7c)">
     <use style="fill:#78c850;" x="40.022971" xlink:href="#C0_0_16636bc10d" y="141.433706"/>
    </g>
    <g clip-path="url(#p87f8acde7c)">
     <use style="fill:#f08030;" x="60.330277" xlink:href="#C0_0_16636bc10d" y="140.191523"/>
    </g>
    <g clip-path="url(#p87f8acde7c)">
     <use style="fill:#f08030;" x="34.963665" xlink:href="#C0_0_16636bc10d" y="140.098359"/>
    </g>
    <g clip-path="url(#p87f8acde7c)">
     <use style="fill:#f08030;" x="64.665" xlink:href="#C0_0_16636bc10d" y="139.974141"/>
    </g>
    <g clip-path="url(#p87f8acde7c)">
     <use style="fill:#78c850;" x="31.185" xlink:href="#C0_0_16636bc10d" y="139.632541"/>
    </g>
    <g clip-path="url(#p87f8acde7c)">
     <use style="fill:#78c850;" x="64.665" xlink:href="#C0_0_16636bc10d" y="139.384104"/>
    </g>
    <g clip-path="url(#p87f8acde7c)">
     <use style="fill:#78c850;" x="47.102456" xlink:href="#C0_0_16636bc10d" y="137.427666"/>
    </g>
    <g clip-path="url(#p87f8acde7c)">
     <use style="fill:#f08030;" x="52.319544" xlink:href="#C0_0_16636bc10d" y="136.868683"/>
    </g>
    <g clip-path="url(#p87f8acde7c)">
     <use style="fill:#f08030;" x="42.912169" xlink:href="#C0_0_16636bc10d" y="134.415372"/>
    </g>
    <g clip-path="url(#p87f8acde7c)">
     <use style="fill:#78c850;" x="56.856791" xlink:href="#C0_0_16636bc10d" y="134.353263"/>
    </g>
    <g clip-path="url(#p87f8acde7c)">
     <use style="fill:#f08030;" x="37.810484" xlink:href="#C0_0_16636bc10d" y="133.235298"/>
    </g>
    <g clip-path="url(#p87f8acde7c)">
     <use style="fill:#78c850;" x="61.916097" xlink:href="#C0_0_16636bc10d" y="133.017916"/>
    </g>
    <g clip-path="url(#p87f8acde7c)">
     <use style="fill:#f08030;" x="49.091825" xlink:href="#C0_0_16636bc10d" y="132.800534"/>
    </g>
    <g clip-path="url(#p87f8acde7c)">
     <use style="fill:#78c850;" x="32.760328" xlink:href="#C0_0_16636bc10d" y="131.868897"/>
    </g>
    <g clip-path="url(#p87f8acde7c)">
     <use style="fill:#78c850;" x="64.665" xlink:href="#C0_0_16636bc10d" y="130.750932"/>
    </g>
    <g clip-path="url(#p87f8acde7c)">
     <use style="fill:#f08030;" x="45.056652" xlink:href="#C0_0_16636bc10d" y="129.601913"/>
    </g>
    <g clip-path="url(#p87f8acde7c)">
     <use style="fill:#f08030;" x="51.081195" xlink:href="#C0_0_16636bc10d" y="128.173402"/>
    </g>
    <g clip-path="url(#p87f8acde7c)">
     <use style="fill:#78c850;" x="40.360836" xlink:href="#C0_0_16636bc10d" y="127.365983"/>
    </g>
    <g clip-path="url(#p87f8acde7c)">
     <use style="fill:#78c850;" x="55.456193" xlink:href="#C0_0_16636bc10d" y="125.409545"/>
    </g>
    <g clip-path="url(#p87f8acde7c)">
     <use style="fill:#78c850;" x="47.925" xlink:href="#C0_0_16636bc10d" y="120.440813"/>
    </g>
    <g clip-path="url(#p87f8acde7c)">
     <use style="fill:#78c850;" x="42.678647" xlink:href="#C0_0_16636bc10d" y="120.254485"/>
    </g>
    <g clip-path="url(#p87f8acde7c)">
     <use style="fill:#f08030;" x="50.931106" xlink:href="#C0_0_16636bc10d" y="116.341609"/>
    </g>
    <g clip-path="url(#p87f8acde7c)">
     <use style="fill:#78c850;" x="46.099696" xlink:href="#C0_0_16636bc10d" y="114.38517"/>
    </g>
    <g clip-path="url(#p87f8acde7c)">
     <use style="fill:#f08030;" x="47.925" xlink:href="#C0_0_16636bc10d" y="107.1184"/>
    </g>
    <g clip-path="url(#p87f8acde7c)">
     <use style="fill:#78c850;" x="42.697833" xlink:href="#C0_0_16636bc10d" y="106.652581"/>
    </g>
    <g clip-path="url(#p87f8acde7c)">
     <use style="fill:#78c850;" x="50.574474" xlink:href="#C0_0_16636bc10d" y="102.801814"/>
    </g>
    <g clip-path="url(#p87f8acde7c)">
     <use style="fill:#f08030;" x="47.764335" xlink:href="#C0_0_16636bc10d" y="98.578391"/>
    </g>
    <g clip-path="url(#p87f8acde7c)">
     <use style="fill:#78c850;" x="47.925" xlink:href="#C0_0_16636bc10d" y="89.634673"/>
    </g>
    <g clip-path="url(#p87f8acde7c)">
     <use style="fill:#78c850;" x="47.925" xlink:href="#C0_0_16636bc10d" y="84.603832"/>
    </g>
    <g clip-path="url(#p87f8acde7c)">
     <use style="fill:#f08030;" x="42.967595" xlink:href="#C0_0_16636bc10d" y="82.95794"/>
    </g>
    <g clip-path="url(#p87f8acde7c)">
     <use style="fill:#78c850;" x="47.925" xlink:href="#C0_0_16636bc10d" y="63.207229"/>
    </g>
    <g clip-path="url(#p87f8acde7c)">
     <use style="fill:#f08030;" x="47.925" xlink:href="#C0_0_16636bc10d" y="57.244751"/>
    </g>
   </g>
   <g id="PathCollection_4">
    <defs>
     <path d="M 0 2.5 
C 0.663008 2.5 1.29895 2.236584 1.767767 1.767767 
C 2.236584 1.29895 2.5 0.663008 2.5 -0 
C 2.5 -0.663008 2.236584 -1.29895 1.767767 -1.767767 
C 1.29895 -2.236584 0.663008 -2.5 0 -2.5 
C -0.663008 -2.5 -1.29895 -2.236584 -1.767767 -1.767767 
C -2.236584 -1.29895 -2.5 -0.663008 -2.5 0 
C -2.5 0.663008 -2.236584 1.29895 -1.767767 1.767767 
C -1.29895 2.236584 -0.663008 2.5 0 2.5 
z
" id="C1_0_e98d324ad5"/>
    </defs>
    <g clip-path="url(#p87f8acde7c)">
     <use style="fill:#f08030;" x="89.775" xlink:href="#C1_0_e98d324ad5" y="173.264646"/>
    </g>
    <g clip-path="url(#p87f8acde7c)">
     <use style="fill:#78c850;" x="89.775" xlink:href="#C1_0_e98d324ad5" y="164.476201"/>
    </g>
    <g clip-path="url(#p87f8acde7c)">
     <use style="fill:#f08030;" x="87.95301" xlink:href="#C1_0_e98d324ad5" y="159.78696"/>
    </g>
    <g clip-path="url(#p87f8acde7c)">
     <use style="fill:#f08030;" x="91.221428" xlink:href="#C1_0_e98d324ad5" y="155.874084"/>
    </g>
    <g clip-path="url(#p87f8acde7c)">
     <use style="fill:#78c850;" x="86.462637" xlink:href="#C1_0_e98d324ad5" y="153.762373"/>
    </g>
    <g clip-path="url(#p87f8acde7c)">
     <use style="fill:#78c850;" x="95.758675" xlink:href="#C1_0_e98d324ad5" y="153.358663"/>
    </g>
    <g clip-path="url(#p87f8acde7c)">
     <use style="fill:#78c850;" x="81.403331" xlink:href="#C1_0_e98d324ad5" y="152.427026"/>
    </g>
    <g clip-path="url(#p87f8acde7c)">
     <use style="fill:#f08030;" x="89.775" xlink:href="#C1_0_e98d324ad5" y="149.445787"/>
    </g>
    <g clip-path="url(#p87f8acde7c)">
     <use style="fill:#78c850;" x="99.027093" xlink:href="#C1_0_e98d324ad5" y="149.445787"/>
    </g>
    <g clip-path="url(#p87f8acde7c)">
     <use style="fill:#f08030;" x="89.775" xlink:href="#C1_0_e98d324ad5" y="143.35909"/>
    </g>
    <g clip-path="url(#p87f8acde7c)">
     <use style="fill:#f08030;" x="84.903158" xlink:href="#C1_0_e98d324ad5" y="141.495815"/>
    </g>
    <g clip-path="url(#p87f8acde7c)">
     <use style="fill:#f08030;" x="94.149998" xlink:href="#C1_0_e98d324ad5" y="140.595233"/>
    </g>
    <g clip-path="url(#p87f8acde7c)">
     <use style="fill:#f08030;" x="99.397466" xlink:href="#C1_0_e98d324ad5" y="140.43996"/>
    </g>
    <g clip-path="url(#p87f8acde7c)">
     <use style="fill:#78c850;" x="89.775" xlink:href="#C1_0_e98d324ad5" y="125.875364"/>
    </g>
    <g clip-path="url(#p87f8acde7c)">
     <use style="fill:#78c850;" x="87.707787" xlink:href="#C1_0_e98d324ad5" y="121.279286"/>
    </g>
    <g clip-path="url(#p87f8acde7c)">
     <use style="fill:#f08030;" x="92.888882" xlink:href="#C1_0_e98d324ad5" y="120.471867"/>
    </g>
    <g clip-path="url(#p87f8acde7c)">
     <use style="fill:#78c850;" x="89.775" xlink:href="#C1_0_e98d324ad5" y="106.404144"/>
    </g>
    <g clip-path="url(#p87f8acde7c)">
     <use style="fill:#78c850;" x="89.775" xlink:href="#C1_0_e98d324ad5" y="101.155921"/>
    </g>
    <g clip-path="url(#p87f8acde7c)">
     <use style="fill:#78c850;" x="89.775" xlink:href="#C1_0_e98d324ad5" y="66.374796"/>
    </g>
   </g>
   <g id="PathCollection_5">
    <defs>
     <path d="M 0 2.5 
C 0.663008 2.5 1.29895 2.236584 1.767767 1.767767 
C 2.236584 1.29895 2.5 0.663008 2.5 -0 
C 2.5 -0.663008 2.236584 -1.29895 1.767767 -1.767767 
C 1.29895 -2.236584 0.663008 -2.5 0 -2.5 
C -0.663008 -2.5 -1.29895 -2.236584 -1.767767 -1.767767 
C -2.236584 -1.29895 -2.5 -0.663008 -2.5 0 
C -2.5 0.663008 -2.236584 1.29895 -1.767767 1.767767 
C -1.29895 2.236584 -0.663008 2.5 0 2.5 
z
" id="C2_0_47e71edf21"/>
    </defs>
    <g clip-path="url(#p87f8acde7c)">
     <use style="fill:#f08030;" x="131.625" xlink:href="#C2_0_47e71edf21" y="181.587273"/>
    </g>
    <g clip-path="url(#p87f8acde7c)">
     <use style="fill:#f08030;" x="131.625" xlink:href="#C2_0_47e71edf21" y="168.60646"/>
    </g>
    <g clip-path="url(#p87f8acde7c)">
     <use style="fill:#78c850;" x="126.624033" xlink:href="#C2_0_47e71edf21" y="167.084786"/>
    </g>
    <g clip-path="url(#p87f8acde7c)">
     <use style="fill:#78c850;" x="131.625" xlink:href="#C2_0_47e71edf21" y="161.463908"/>
    </g>
    <g clip-path="url(#p87f8acde7c)">
     <use style="fill:#78c850;" x="126.656347" xlink:href="#C2_0_47e71edf21" y="159.84907"/>
    </g>
    <g clip-path="url(#p87f8acde7c)">
     <use style="fill:#78c850;" x="135.839702" xlink:href="#C2_0_47e71edf21" y="158.482668"/>
    </g>
    <g clip-path="url(#p87f8acde7c)">
     <use style="fill:#f08030;" x="141.083217" xlink:href="#C2_0_47e71edf21" y="158.234232"/>
    </g>
    <g clip-path="url(#p87f8acde7c)">
     <use style="fill:#f08030;" x="121.734133" xlink:href="#C2_0_47e71edf21" y="158.110013"/>
    </g>
    <g clip-path="url(#p87f8acde7c)">
     <use style="fill:#78c850;" x="146.300306" xlink:href="#C2_0_47e71edf21" y="157.675249"/>
    </g>
    <g clip-path="url(#p87f8acde7c)">
     <use style="fill:#78c850;" x="116.640479" xlink:href="#C2_0_47e71edf21" y="156.898885"/>
    </g>
    <g clip-path="url(#p87f8acde7c)">
     <use style="fill:#78c850;" x="131.160331" xlink:href="#C2_0_47e71edf21" y="156.215684"/>
    </g>
    <g clip-path="url(#p87f8acde7c)">
     <use style="fill:#78c850;" x="148.365" xlink:href="#C2_0_47e71edf21" y="155.128774"/>
    </g>
    <g clip-path="url(#p87f8acde7c)">
     <use style="fill:#78c850;" x="114.885" xlink:href="#C2_0_47e71edf21" y="155.066665"/>
    </g>
    <g clip-path="url(#p87f8acde7c)">
     <use style="fill:#78c850;" x="126.567536" xlink:href="#C2_0_47e71edf21" y="153.793427"/>
    </g>
    <g clip-path="url(#p87f8acde7c)">
     <use style="fill:#78c850;" x="133.97047" xlink:href="#C2_0_47e71edf21" y="151.992262"/>
    </g>
    <g clip-path="url(#p87f8acde7c)">
     <use style="fill:#78c850;" x="139.212261" xlink:href="#C2_0_47e71edf21" y="151.712771"/>
    </g>
    <g clip-path="url(#p87f8acde7c)">
     <use style="fill:#f08030;" x="121.904895" xlink:href="#C2_0_47e71edf21" y="151.495389"/>
    </g>
    <g clip-path="url(#p87f8acde7c)">
     <use style="fill:#f08030;" x="144.417414" xlink:href="#C2_0_47e71edf21" y="151.060625"/>
    </g>
    <g clip-path="url(#p87f8acde7c)">
     <use style="fill:#f08030;" x="116.925234" xlink:href="#C2_0_47e71edf21" y="149.911605"/>
    </g>
    <g clip-path="url(#p87f8acde7c)">
     <use style="fill:#78c850;" x="148.365" xlink:href="#C2_0_47e71edf21" y="149.880551"/>
    </g>
    <g clip-path="url(#p87f8acde7c)">
     <use style="fill:#78c850;" x="129.428483" xlink:href="#C2_0_47e71edf21" y="149.60106"/>
    </g>
    <g clip-path="url(#p87f8acde7c)">
     <use style="fill:#78c850;" x="114.885" xlink:href="#C2_0_47e71edf21" y="148.234658"/>
    </g>
    <g clip-path="url(#p87f8acde7c)">
     <use style="fill:#78c850;" x="148.365" xlink:href="#C2_0_47e71edf21" y="147.644621"/>
    </g>
    <g clip-path="url(#p87f8acde7c)">
     <use style="fill:#f08030;" x="133.690846" xlink:href="#C2_0_47e71edf21" y="146.681929"/>
    </g>
    <g clip-path="url(#p87f8acde7c)">
     <use style="fill:#f08030;" x="126.618344" xlink:href="#C2_0_47e71edf21" y="145.377637"/>
    </g>
    <g clip-path="url(#p87f8acde7c)">
     <use style="fill:#78c850;" x="138.418704" xlink:href="#C2_0_47e71edf21" y="144.508109"/>
    </g>
    <g clip-path="url(#p87f8acde7c)">
     <use style="fill:#f08030;" x="121.4798" xlink:href="#C2_0_47e71edf21" y="144.352836"/>
    </g>
    <g clip-path="url(#p87f8acde7c)">
     <use style="fill:#78c850;" x="143.543159" xlink:href="#C2_0_47e71edf21" y="143.421199"/>
    </g>
    <g clip-path="url(#p87f8acde7c)">
     <use style="fill:#78c850;" x="116.458464" xlink:href="#C2_0_47e71edf21" y="142.893271"/>
    </g>
    <g clip-path="url(#p87f8acde7c)">
     <use style="fill:#78c850;" x="130.986363" xlink:href="#C2_0_47e71edf21" y="142.396398"/>
    </g>
    <g clip-path="url(#p87f8acde7c)">
     <use style="fill:#f08030;" x="148.365" xlink:href="#C2_0_47e71edf21" y="142.147961"/>
    </g>
    <g clip-path="url(#p87f8acde7c)">
     <use style="fill:#78c850;" x="114.885" xlink:href="#C2_0_47e71edf21" y="142.023743"/>
    </g>
    <g clip-path="url(#p87f8acde7c)">
     <use style="fill:#78c850;" x="148.365" xlink:href="#C2_0_47e71edf21" y="141.309488"/>
    </g>
    <g clip-path="url(#p87f8acde7c)">
     <use style="fill:#78c850;" x="125.608458" xlink:href="#C2_0_47e71edf21" y="140.471014"/>
    </g>
    <g clip-path="url(#p87f8acde7c)">
     <use style="fill:#f08030;" x="135.614673" xlink:href="#C2_0_47e71edf21" y="140.03625"/>
    </g>
    <g clip-path="url(#p87f8acde7c)">
     <use style="fill:#f08030;" x="140.62594" xlink:href="#C2_0_47e71edf21" y="138.54563"/>
    </g>
    <g clip-path="url(#p87f8acde7c)">
     <use style="fill:#f08030;" x="120.980149" xlink:href="#C2_0_47e71edf21" y="138.110866"/>
    </g>
    <g clip-path="url(#p87f8acde7c)">
     <use style="fill:#78c850;" x="131.625" xlink:href="#C2_0_47e71edf21" y="136.496028"/>
    </g>
    <g clip-path="url(#p87f8acde7c)">
     <use style="fill:#78c850;" x="145.084709" xlink:href="#C2_0_47e71edf21" y="135.905992"/>
    </g>
    <g clip-path="url(#p87f8acde7c)">
     <use style="fill:#78c850;" x="116.317508" xlink:href="#C2_0_47e71edf21" y="135.812828"/>
    </g>
    <g clip-path="url(#p87f8acde7c)">
     <use style="fill:#78c850;" x="148.365" xlink:href="#C2_0_47e71edf21" y="135.781773"/>
    </g>
    <g clip-path="url(#p87f8acde7c)">
     <use style="fill:#78c850;" x="126.486456" xlink:href="#C2_0_47e71edf21" y="135.471227"/>
    </g>
    <g clip-path="url(#p87f8acde7c)">
     <use style="fill:#78c850;" x="114.885" xlink:href="#C2_0_47e71edf21" y="135.471227"/>
    </g>
    <g clip-path="url(#p87f8acde7c)">
     <use style="fill:#78c850;" x="136.428158" xlink:href="#C2_0_47e71edf21" y="134.477481"/>
    </g>
    <g clip-path="url(#p87f8acde7c)">
     <use style="fill:#78c850;" x="148.365" xlink:href="#C2_0_47e71edf21" y="134.322208"/>
    </g>
    <g clip-path="url(#p87f8acde7c)">
     <use style="fill:#78c850;" x="114.885" xlink:href="#C2_0_47e71edf21" y="134.135881"/>
    </g>
    <g clip-path="url(#p87f8acde7c)">
     <use style="fill:#78c850;" x="121.875754" xlink:href="#C2_0_47e71edf21" y="133.080025"/>
    </g>
    <g clip-path="url(#p87f8acde7c)">
     <use style="fill:#f08030;" x="131.625" xlink:href="#C2_0_47e71edf21" y="130.098786"/>
    </g>
    <g clip-path="url(#p87f8acde7c)">
     <use style="fill:#78c850;" x="126.404346" xlink:href="#C2_0_47e71edf21" y="129.570858"/>
    </g>
    <g clip-path="url(#p87f8acde7c)">
     <use style="fill:#78c850;" x="136.684306" xlink:href="#C2_0_47e71edf21" y="128.763439"/>
    </g>
    <g clip-path="url(#p87f8acde7c)">
     <use style="fill:#78c850;" x="141.911473" xlink:href="#C2_0_47e71edf21" y="128.29762"/>
    </g>
    <g clip-path="url(#p87f8acde7c)">
     <use style="fill:#f08030;" x="121.289537" xlink:href="#C2_0_47e71edf21" y="128.111293"/>
    </g>
    <g clip-path="url(#p87f8acde7c)">
     <use style="fill:#78c850;" x="147.157826" xlink:href="#C2_0_47e71edf21" y="128.111293"/>
    </g>
    <g clip-path="url(#p87f8acde7c)">
     <use style="fill:#78c850;" x="116.065524" xlink:href="#C2_0_47e71edf21" y="127.61442"/>
    </g>
    <g clip-path="url(#p87f8acde7c)">
     <use style="fill:#78c850;" x="148.365" xlink:href="#C2_0_47e71edf21" y="127.490201"/>
    </g>
    <g clip-path="url(#p87f8acde7c)">
     <use style="fill:#78c850;" x="114.885" xlink:href="#C2_0_47e71edf21" y="126.993328"/>
    </g>
    <g clip-path="url(#p87f8acde7c)">
     <use style="fill:#f08030;" x="148.365" xlink:href="#C2_0_47e71edf21" y="126.86911"/>
    </g>
    <g clip-path="url(#p87f8acde7c)">
     <use style="fill:#f08030;" x="114.885" xlink:href="#C2_0_47e71edf21" y="126.154855"/>
    </g>
    <g clip-path="url(#p87f8acde7c)">
     <use style="fill:#78c850;" x="131.625" xlink:href="#C2_0_47e71edf21" y="123.732598"/>
    </g>
    <g clip-path="url(#p87f8acde7c)">
     <use style="fill:#f08030;" x="136.69323" xlink:href="#C2_0_47e71edf21" y="122.428306"/>
    </g>
    <g clip-path="url(#p87f8acde7c)">
     <use style="fill:#f08030;" x="126.929185" xlink:href="#C2_0_47e71edf21" y="121.496668"/>
    </g>
    <g clip-path="url(#p87f8acde7c)">
     <use style="fill:#78c850;" x="121.742859" xlink:href="#C2_0_47e71edf21" y="120.720304"/>
    </g>
    <g clip-path="url(#p87f8acde7c)">
     <use style="fill:#78c850;" x="131.625" xlink:href="#C2_0_47e71edf21" y="116.558991"/>
    </g>
    <g clip-path="url(#p87f8acde7c)">
     <use style="fill:#78c850;" x="136.872468" xlink:href="#C2_0_47e71edf21" y="116.403718"/>
    </g>
    <g clip-path="url(#p87f8acde7c)">
     <use style="fill:#78c850;" x="126.443904" xlink:href="#C2_0_47e71edf21" y="115.751572"/>
    </g>
    <g clip-path="url(#p87f8acde7c)">
     <use style="fill:#78c850;" x="140.546866" xlink:href="#C2_0_47e71edf21" y="112.832442"/>
    </g>
    <g clip-path="url(#p87f8acde7c)">
     <use style="fill:#f08030;" x="122.355332" xlink:href="#C2_0_47e71edf21" y="112.61506"/>
    </g>
    <g clip-path="url(#p87f8acde7c)">
     <use style="fill:#78c850;" x="131.625" xlink:href="#C2_0_47e71edf21" y="110.72073"/>
    </g>
    <g clip-path="url(#p87f8acde7c)">
     <use style="fill:#f08030;" x="126.656347" xlink:href="#C2_0_47e71edf21" y="109.105893"/>
    </g>
    <g clip-path="url(#p87f8acde7c)">
     <use style="fill:#78c850;" x="136.352858" xlink:href="#C2_0_47e71edf21" y="108.54691"/>
    </g>
    <g clip-path="url(#p87f8acde7c)">
     <use style="fill:#f08030;" x="141.528513" xlink:href="#C2_0_47e71edf21" y="107.708437"/>
    </g>
    <g clip-path="url(#p87f8acde7c)">
     <use style="fill:#f08030;" x="122.045645" xlink:href="#C2_0_47e71edf21" y="106.71469"/>
    </g>
    <g clip-path="url(#p87f8acde7c)">
     <use style="fill:#78c850;" x="131.625" xlink:href="#C2_0_47e71edf21" y="103.702396"/>
    </g>
    <g clip-path="url(#p87f8acde7c)">
     <use style="fill:#f08030;" x="126.375405" xlink:href="#C2_0_47e71edf21" y="103.640287"/>
    </g>
    <g clip-path="url(#p87f8acde7c)">
     <use style="fill:#78c850;" x="136.021453" xlink:href="#C2_0_47e71edf21" y="100.969594"/>
    </g>
    <g clip-path="url(#p87f8acde7c)">
     <use style="fill:#78c850;" x="131.625" xlink:href="#C2_0_47e71edf21" y="97.770972"/>
    </g>
    <g clip-path="url(#p87f8acde7c)">
     <use style="fill:#f08030;" x="126.381485" xlink:href="#C2_0_47e71edf21" y="97.522536"/>
    </g>
    <g clip-path="url(#p87f8acde7c)">
     <use style="fill:#78c850;" x="135.088475" xlink:href="#C2_0_47e71edf21" y="94.013369"/>
    </g>
    <g clip-path="url(#p87f8acde7c)">
     <use style="fill:#78c850;" x="131.625" xlink:href="#C2_0_47e71edf21" y="89.168855"/>
    </g>
    <g clip-path="url(#p87f8acde7c)">
     <use style="fill:#f08030;" x="131.625" xlink:href="#C2_0_47e71edf21" y="79.852482"/>
    </g>
    <g clip-path="url(#p87f8acde7c)">
     <use style="fill:#78c850;" x="131.625" xlink:href="#C2_0_47e71edf21" y="73.082584"/>
    </g>
    <g clip-path="url(#p87f8acde7c)">
     <use style="fill:#78c850;" x="126.929185" xlink:href="#C2_0_47e71edf21" y="70.846655"/>
    </g>
    <g clip-path="url(#p87f8acde7c)">
     <use style="fill:#78c850;" x="134.15962" xlink:href="#C2_0_47e71edf21" y="68.703889"/>
    </g>
    <g clip-path="url(#p87f8acde7c)">
     <use style="fill:#f08030;" x="131.625" xlink:href="#C2_0_47e71edf21" y="53.549256"/>
    </g>
    <g clip-path="url(#p87f8acde7c)">
     <use style="fill:#78c850;" x="131.625" xlink:href="#C2_0_47e71edf21" y="41.22059"/>
    </g>
    <g clip-path="url(#p87f8acde7c)">
     <use style="fill:#78c850;" x="126.378647" xlink:href="#C2_0_47e71edf21" y="41.034262"/>
    </g>
    <g clip-path="url(#p87f8acde7c)">
     <use style="fill:#78c850;" x="131.625" xlink:href="#C2_0_47e71edf21" y="33.332727"/>
    </g>
   </g>
   <g id="PathCollection_6">
    <defs>
     <path d="M 0 2.5 
C 0.663008 2.5 1.29895 2.236584 1.767767 1.767767 
C 2.236584 1.29895 2.5 0.663008 2.5 -0 
C 2.5 -0.663008 2.236584 -1.29895 1.767767 -1.767767 
C 1.29895 -2.236584 0.663008 -2.5 0 -2.5 
C -0.663008 -2.5 -1.29895 -2.236584 -1.767767 -1.767767 
C -2.236584 -1.29895 -2.5 -0.663008 -2.5 0 
C -2.5 0.663008 -2.236584 1.29895 -1.767767 1.767767 
C -1.29895 2.236584 -0.663008 2.5 0 2.5 
z
" id="C3_0_db1ab304ea"/>
    </defs>
    <g clip-path="url(#p87f8acde7c)">
     <use style="fill:#78c850;" x="173.475" xlink:href="#C3_0_db1ab304ea" y="168.60646"/>
    </g>
    <g clip-path="url(#p87f8acde7c)">
     <use style="fill:#78c850;" x="171.743674" xlink:href="#C3_0_db1ab304ea" y="163.886164"/>
    </g>
    <g clip-path="url(#p87f8acde7c)">
     <use style="fill:#f08030;" x="176.242326" xlink:href="#C3_0_db1ab304ea" y="161.308635"/>
    </g>
    <g clip-path="url(#p87f8acde7c)">
     <use style="fill:#78c850;" x="167.412642" xlink:href="#C3_0_db1ab304ea" y="161.060198"/>
    </g>
    <g clip-path="url(#p87f8acde7c)">
     <use style="fill:#78c850;" x="181.373934" xlink:href="#C3_0_db1ab304ea" y="160.252779"/>
    </g>
    <g clip-path="url(#p87f8acde7c)">
     <use style="fill:#78c850;" x="162.527832" xlink:href="#C3_0_db1ab304ea" y="159.227978"/>
    </g>
    <g clip-path="url(#p87f8acde7c)">
     <use style="fill:#f08030;" x="186.498388" xlink:href="#C3_0_db1ab304ea" y="159.165869"/>
    </g>
    <g clip-path="url(#p87f8acde7c)">
     <use style="fill:#f08030;" x="157.281478" xlink:href="#C3_0_db1ab304ea" y="159.041651"/>
    </g>
    <g clip-path="url(#p87f8acde7c)">
     <use style="fill:#78c850;" x="190.215" xlink:href="#C3_0_db1ab304ea" y="159.010596"/>
    </g>
    <g clip-path="url(#p87f8acde7c)">
     <use style="fill:#78c850;" x="173.475" xlink:href="#C3_0_db1ab304ea" y="152.178589"/>
    </g>
    <g clip-path="url(#p87f8acde7c)">
     <use style="fill:#78c850;" x="168.239602" xlink:href="#C3_0_db1ab304ea" y="151.805934"/>
    </g>
    <g clip-path="url(#p87f8acde7c)">
     <use style="fill:#78c850;" x="178.359811" xlink:href="#C3_0_db1ab304ea" y="150.346369"/>
    </g>
    <g clip-path="url(#p87f8acde7c)">
     <use style="fill:#f08030;" x="163.560231" xlink:href="#C3_0_db1ab304ea" y="149.53895"/>
    </g>
    <g clip-path="url(#p87f8acde7c)">
     <use style="fill:#78c850;" x="183.118602" xlink:href="#C3_0_db1ab304ea" y="148.234658"/>
    </g>
    <g clip-path="url(#p87f8acde7c)">
     <use style="fill:#78c850;" x="158.626043" xlink:href="#C3_0_db1ab304ea" y="147.830949"/>
    </g>
    <g clip-path="url(#p87f8acde7c)">
     <use style="fill:#78c850;" x="171.840007" xlink:href="#C3_0_db1ab304ea" y="147.427239"/>
    </g>
    <g clip-path="url(#p87f8acde7c)">
     <use style="fill:#78c850;" x="187.892451" xlink:href="#C3_0_db1ab304ea" y="146.154002"/>
    </g>
    <g clip-path="url(#p87f8acde7c)">
     <use style="fill:#78c850;" x="176.551984" xlink:href="#C3_0_db1ab304ea" y="145.222364"/>
    </g>
    <g clip-path="url(#p87f8acde7c)">
     <use style="fill:#f08030;" x="167.211698" xlink:href="#C3_0_db1ab304ea" y="145.067091"/>
    </g>
    <g clip-path="url(#p87f8acde7c)">
     <use style="fill:#78c850;" x="156.735" xlink:href="#C3_0_db1ab304ea" y="144.414945"/>
    </g>
    <g clip-path="url(#p87f8acde7c)">
     <use style="fill:#78c850;" x="181.369399" xlink:href="#C3_0_db1ab304ea" y="143.234871"/>
    </g>
    <g clip-path="url(#p87f8acde7c)">
     <use style="fill:#78c850;" x="172.220952" xlink:href="#C3_0_db1ab304ea" y="142.396398"/>
    </g>
    <g clip-path="url(#p87f8acde7c)">
     <use style="fill:#f08030;" x="164.507215" xlink:href="#C3_0_db1ab304ea" y="140.78156"/>
    </g>
    <g clip-path="url(#p87f8acde7c)">
     <use style="fill:#78c850;" x="185.786962" xlink:href="#C3_0_db1ab304ea" y="140.533123"/>
    </g>
    <g clip-path="url(#p87f8acde7c)">
     <use style="fill:#78c850;" x="176.777023" xlink:href="#C3_0_db1ab304ea" y="139.912032"/>
    </g>
    <g clip-path="url(#p87f8acde7c)">
     <use style="fill:#78c850;" x="159.648594" xlink:href="#C3_0_db1ab304ea" y="138.887231"/>
    </g>
    <g clip-path="url(#p87f8acde7c)">
     <use style="fill:#f08030;" x="169.135524" xlink:href="#C3_0_db1ab304ea" y="138.421412"/>
    </g>
    <g clip-path="url(#p87f8acde7c)">
     <use style="fill:#f08030;" x="190.215" xlink:href="#C3_0_db1ab304ea" y="138.359303"/>
    </g>
    <g clip-path="url(#p87f8acde7c)">
     <use style="fill:#78c850;" x="181.387725" xlink:href="#C3_0_db1ab304ea" y="137.520829"/>
    </g>
    <g clip-path="url(#p87f8acde7c)">
     <use style="fill:#f08030;" x="156.735" xlink:href="#C3_0_db1ab304ea" y="137.365557"/>
    </g>
    <g clip-path="url(#p87f8acde7c)">
     <use style="fill:#78c850;" x="190.215" xlink:href="#C3_0_db1ab304ea" y="136.899738"/>
    </g>
    <g clip-path="url(#p87f8acde7c)">
     <use style="fill:#f08030;" x="156.735" xlink:href="#C3_0_db1ab304ea" y="136.744465"/>
    </g>
    <g clip-path="url(#p87f8acde7c)">
     <use style="fill:#78c850;" x="173.475" xlink:href="#C3_0_db1ab304ea" y="135.564391"/>
    </g>
    <g clip-path="url(#p87f8acde7c)">
     <use style="fill:#78c850;" x="165.212578" xlink:href="#C3_0_db1ab304ea" y="135.098573"/>
    </g>
    <g clip-path="url(#p87f8acde7c)">
     <use style="fill:#f08030;" x="185.762723" xlink:href="#C3_0_db1ab304ea" y="134.756972"/>
    </g>
    <g clip-path="url(#p87f8acde7c)">
     <use style="fill:#78c850;" x="190.215" xlink:href="#C3_0_db1ab304ea" y="134.322208"/>
    </g>
    <g clip-path="url(#p87f8acde7c)">
     <use style="fill:#78c850;" x="160.118924" xlink:href="#C3_0_db1ab304ea" y="133.887444"/>
    </g>
    <g clip-path="url(#p87f8acde7c)">
     <use style="fill:#78c850;" x="172.888783" xlink:href="#C3_0_db1ab304ea" y="130.595659"/>
    </g>
    <g clip-path="url(#p87f8acde7c)">
     <use style="fill:#78c850;" x="178.058785" xlink:href="#C3_0_db1ab304ea" y="129.726131"/>
    </g>
    <g clip-path="url(#p87f8acde7c)">
     <use style="fill:#78c850;" x="169.388512" xlink:href="#C3_0_db1ab304ea" y="126.86911"/>
    </g>
    <g clip-path="url(#p87f8acde7c)">
     <use style="fill:#78c850;" x="182.199041" xlink:href="#C3_0_db1ab304ea" y="126.651728"/>
    </g>
    <g clip-path="url(#p87f8acde7c)">
     <use style="fill:#f08030;" x="164.18336" xlink:href="#C3_0_db1ab304ea" y="126.216964"/>
    </g>
    <g clip-path="url(#p87f8acde7c)">
     <use style="fill:#78c850;" x="174.620109" xlink:href="#C3_0_db1ab304ea" y="125.875364"/>
    </g>
    <g clip-path="url(#p87f8acde7c)">
     <use style="fill:#78c850;" x="186.861682" xlink:href="#C3_0_db1ab304ea" y="124.353689"/>
    </g>
    <g clip-path="url(#p87f8acde7c)">
     <use style="fill:#78c850;" x="159.424568" xlink:href="#C3_0_db1ab304ea" y="124.105253"/>
    </g>
    <g clip-path="url(#p87f8acde7c)">
     <use style="fill:#78c850;" x="171.194136" xlink:href="#C3_0_db1ab304ea" y="122.086705"/>
    </g>
    <g clip-path="url(#p87f8acde7c)">
     <use style="fill:#78c850;" x="175.611699" xlink:href="#C3_0_db1ab304ea" y="119.384957"/>
    </g>
    <g clip-path="url(#p87f8acde7c)">
     <use style="fill:#78c850;" x="166.931772" xlink:href="#C3_0_db1ab304ea" y="119.167575"/>
    </g>
    <g clip-path="url(#p87f8acde7c)">
     <use style="fill:#78c850;" x="180.807856" xlink:href="#C3_0_db1ab304ea" y="118.670702"/>
    </g>
    <g clip-path="url(#p87f8acde7c)">
     <use style="fill:#78c850;" x="161.952111" xlink:href="#C3_0_db1ab304ea" y="117.583792"/>
    </g>
    <g clip-path="url(#p87f8acde7c)">
     <use style="fill:#78c850;" x="185.653" xlink:href="#C3_0_db1ab304ea" y="116.745318"/>
    </g>
    <g clip-path="url(#p87f8acde7c)">
     <use style="fill:#78c850;" x="173.137148" xlink:href="#C3_0_db1ab304ea" y="114.975207"/>
    </g>
    <g clip-path="url(#p87f8acde7c)">
     <use style="fill:#78c850;" x="157.534548" xlink:href="#C3_0_db1ab304ea" y="114.882044"/>
    </g>
    <g clip-path="url(#p87f8acde7c)">
     <use style="fill:#f08030;" x="190.215" xlink:href="#C3_0_db1ab304ea" y="114.757825"/>
    </g>
    <g clip-path="url(#p87f8acde7c)">
     <use style="fill:#f08030;" x="178.148416" xlink:href="#C3_0_db1ab304ea" y="113.484588"/>
    </g>
    <g clip-path="url(#p87f8acde7c)">
     <use style="fill:#78c850;" x="168.526446" xlink:href="#C3_0_db1ab304ea" y="112.584005"/>
    </g>
    <g clip-path="url(#p87f8acde7c)">
     <use style="fill:#78c850;" x="183.07063" xlink:href="#C3_0_db1ab304ea" y="111.745531"/>
    </g>
    <g clip-path="url(#p87f8acde7c)">
     <use style="fill:#f08030;" x="163.458216" xlink:href="#C3_0_db1ab304ea" y="111.279713"/>
    </g>
    <g clip-path="url(#p87f8acde7c)">
     <use style="fill:#78c850;" x="173.475" xlink:href="#C3_0_db1ab304ea" y="107.646327"/>
    </g>
    <g clip-path="url(#p87f8acde7c)">
     <use style="fill:#78c850;" x="173.475" xlink:href="#C3_0_db1ab304ea" y="102.460213"/>
    </g>
    <g clip-path="url(#p87f8acde7c)">
     <use style="fill:#f08030;" x="170.377613" xlink:href="#C3_0_db1ab304ea" y="98.423118"/>
    </g>
    <g clip-path="url(#p87f8acde7c)">
     <use style="fill:#78c850;" x="176.179483" xlink:href="#C3_0_db1ab304ea" y="98.174682"/>
    </g>
    <g clip-path="url(#p87f8acde7c)">
     <use style="fill:#78c850;" x="181.200818" xlink:href="#C3_0_db1ab304ea" y="96.715117"/>
    </g>
    <g clip-path="url(#p87f8acde7c)">
     <use style="fill:#78c850;" x="165.518992" xlink:href="#C3_0_db1ab304ea" y="96.528789"/>
    </g>
    <g clip-path="url(#p87f8acde7c)">
     <use style="fill:#78c850;" x="173.475" xlink:href="#C3_0_db1ab304ea" y="92.646967"/>
    </g>
    <g clip-path="url(#p87f8acde7c)">
     <use style="fill:#78c850;" x="168.244885" xlink:href="#C3_0_db1ab304ea" y="92.212203"/>
    </g>
    <g clip-path="url(#p87f8acde7c)">
     <use style="fill:#78c850;" x="178.218462" xlink:href="#C3_0_db1ab304ea" y="90.504202"/>
    </g>
    <g clip-path="url(#p87f8acde7c)">
     <use style="fill:#78c850;" x="164.264895" xlink:href="#C3_0_db1ab304ea" y="88.951473"/>
    </g>
    <g clip-path="url(#p87f8acde7c)">
     <use style="fill:#78c850;" x="173.475" xlink:href="#C3_0_db1ab304ea" y="83.579031"/>
    </g>
    <g clip-path="url(#p87f8acde7c)">
     <use style="fill:#78c850;" x="168.225405" xlink:href="#C3_0_db1ab304ea" y="83.516922"/>
    </g>
    <g clip-path="url(#p87f8acde7c)">
     <use style="fill:#f08030;" x="178.692088" xlink:href="#C3_0_db1ab304ea" y="83.020049"/>
    </g>
    <g clip-path="url(#p87f8acde7c)">
     <use style="fill:#f08030;" x="163.366784" xlink:href="#C3_0_db1ab304ea" y="81.622593"/>
    </g>
    <g clip-path="url(#p87f8acde7c)">
     <use style="fill:#78c850;" x="173.475" xlink:href="#C3_0_db1ab304ea" y="72.896257"/>
    </g>
    <g clip-path="url(#p87f8acde7c)">
     <use style="fill:#78c850;" x="173.475" xlink:href="#C3_0_db1ab304ea" y="65.194722"/>
    </g>
    <g clip-path="url(#p87f8acde7c)">
     <use style="fill:#78c850;" x="173.475" xlink:href="#C3_0_db1ab304ea" y="50.288526"/>
    </g>
    <g clip-path="url(#p87f8acde7c)">
     <use style="fill:#78c850;" x="173.475" xlink:href="#C3_0_db1ab304ea" y="41.531135"/>
    </g>
   </g>
   <g id="legend_1">
    <g id="patch_7">
     <path d="M 34.7 82.314062 
L 106.576406 82.314062 
Q 108.776406 82.314062 108.776406 80.114062 
L 108.776406 33.62 
Q 108.776406 31.42 106.576406 31.42 
L 34.7 31.42 
Q 32.5 31.42 32.5 33.62 
L 32.5 80.114062 
Q 32.5 82.314062 34.7 82.314062 
z
" style="fill:#eaeaf2;opacity:0.8;stroke:#cccccc;stroke-linejoin:miter;"/>
    </g>
    <g id="text_12">
     <!-- sex -->
     <g style="fill:#262626;" transform="translate(61.301641 44.409375)scale(0.12 -0.12)">
      <defs>
       <path d="M 3.078125 15.484375 
L 11.765625 16.84375 
Q 12.5 11.625 15.84375 8.84375 
Q 19.1875 6.0625 25.203125 6.0625 
Q 31.25 6.0625 34.171875 8.515625 
Q 37.109375 10.984375 37.109375 14.3125 
Q 37.109375 17.28125 34.515625 19 
Q 32.71875 20.171875 25.53125 21.96875 
Q 15.875 24.421875 12.140625 26.203125 
Q 8.40625 27.984375 6.46875 31.125 
Q 4.546875 34.28125 4.546875 38.09375 
Q 4.546875 41.546875 6.125 44.5 
Q 7.71875 47.46875 10.453125 49.421875 
Q 12.5 50.921875 16.03125 51.96875 
Q 19.578125 53.03125 23.640625 53.03125 
Q 29.734375 53.03125 34.34375 51.265625 
Q 38.96875 49.515625 41.15625 46.5 
Q 43.359375 43.5 44.1875 38.484375 
L 35.59375 37.3125 
Q 35.015625 41.3125 32.203125 43.546875 
Q 29.390625 45.796875 24.265625 45.796875 
Q 18.21875 45.796875 15.625 43.796875 
Q 13.03125 41.796875 13.03125 39.109375 
Q 13.03125 37.40625 14.109375 36.03125 
Q 15.1875 34.625 17.484375 33.6875 
Q 18.796875 33.203125 25.25 31.453125 
Q 34.578125 28.953125 38.25 27.359375 
Q 41.9375 25.78125 44.03125 22.75 
Q 46.140625 19.734375 46.140625 15.234375 
Q 46.140625 10.84375 43.578125 6.953125 
Q 41.015625 3.078125 36.171875 0.953125 
Q 31.34375 -1.171875 25.25 -1.171875 
Q 15.140625 -1.171875 9.84375 3.03125 
Q 4.546875 7.234375 3.078125 15.484375 
z
" id="ArialMT-115"/>
       <path d="M 42.09375 16.703125 
L 51.171875 15.578125 
Q 49.03125 7.625 43.21875 3.21875 
Q 37.40625 -1.171875 28.375 -1.171875 
Q 17 -1.171875 10.328125 5.828125 
Q 3.65625 12.84375 3.65625 25.484375 
Q 3.65625 38.578125 10.390625 45.796875 
Q 17.140625 53.03125 27.875 53.03125 
Q 38.28125 53.03125 44.875 45.953125 
Q 51.46875 38.875 51.46875 26.03125 
Q 51.46875 25.25 51.421875 23.6875 
L 12.75 23.6875 
Q 13.234375 15.140625 17.578125 10.59375 
Q 21.921875 6.0625 28.421875 6.0625 
Q 33.25 6.0625 36.671875 8.59375 
Q 40.09375 11.140625 42.09375 16.703125 
z
M 13.234375 30.90625 
L 42.1875 30.90625 
Q 41.609375 37.453125 38.875 40.71875 
Q 34.671875 45.796875 27.984375 45.796875 
Q 21.921875 45.796875 17.796875 41.75 
Q 13.671875 37.703125 13.234375 30.90625 
z
" id="ArialMT-101"/>
       <path d="M 0.734375 0 
L 19.671875 26.953125 
L 2.15625 51.859375 
L 13.140625 51.859375 
L 21.09375 39.703125 
Q 23.34375 36.234375 24.703125 33.890625 
Q 26.859375 37.109375 28.65625 39.59375 
L 37.40625 51.859375 
L 47.90625 51.859375 
L 29.984375 27.4375 
L 49.265625 0 
L 38.484375 0 
L 27.828125 16.109375 
L 25 20.453125 
L 11.375 0 
z
" id="ArialMT-120"/>
      </defs>
      <use xlink:href="#ArialMT-115"/>
      <use x="50" xlink:href="#ArialMT-101"/>
      <use x="105.615234" xlink:href="#ArialMT-120"/>
     </g>
    </g>
    <g id="PathCollection_7">
     <defs>
      <path d="M 0 3.872983 
C 1.027127 3.872983 2.012324 3.464901 2.738613 2.738613 
C 3.464901 2.012324 3.872983 1.027127 3.872983 0 
C 3.872983 -1.027127 3.464901 -2.012324 2.738613 -2.738613 
C 2.012324 -3.464901 1.027127 -3.872983 0 -3.872983 
C -1.027127 -3.872983 -2.012324 -3.464901 -2.738613 -2.738613 
C -3.464901 -2.012324 -3.872983 -1.027127 -3.872983 0 
C -3.872983 1.027127 -3.464901 2.012324 -2.738613 2.738613 
C -2.012324 3.464901 -1.027127 3.872983 0 3.872983 
z
" id="m7c4b5b446d" style="stroke:#78c850;"/>
     </defs>
     <g>
      <use style="fill:#78c850;stroke:#78c850;" x="47.9" xlink:href="#m7c4b5b446d" y="57.280469"/>
     </g>
    </g>
    <g id="text_13">
     <!-- Male -->
     <g style="fill:#262626;" transform="translate(67.7 60.167969)scale(0.11 -0.11)">
      <defs>
       <path d="M 7.421875 0 
L 7.421875 71.578125 
L 21.6875 71.578125 
L 38.625 20.90625 
Q 40.96875 13.8125 42.046875 10.296875 
Q 43.265625 14.203125 45.84375 21.78125 
L 62.984375 71.578125 
L 75.734375 71.578125 
L 75.734375 0 
L 66.609375 0 
L 66.609375 59.90625 
L 45.796875 0 
L 37.25 0 
L 16.546875 60.9375 
L 16.546875 0 
z
" id="ArialMT-77"/>
      </defs>
      <use xlink:href="#ArialMT-77"/>
      <use x="83.300781" xlink:href="#ArialMT-97"/>
      <use x="138.916016" xlink:href="#ArialMT-108"/>
      <use x="161.132812" xlink:href="#ArialMT-101"/>
     </g>
    </g>
    <g id="PathCollection_8">
     <defs>
      <path d="M 0 3.872983 
C 1.027127 3.872983 2.012324 3.464901 2.738613 2.738613 
C 3.464901 2.012324 3.872983 1.027127 3.872983 0 
C 3.872983 -1.027127 3.464901 -2.012324 2.738613 -2.738613 
C 2.012324 -3.464901 1.027127 -3.872983 0 -3.872983 
C -1.027127 -3.872983 -2.012324 -3.464901 -2.738613 -2.738613 
C -3.464901 -2.012324 -3.872983 -1.027127 -3.872983 0 
C -3.872983 1.027127 -3.464901 2.012324 -2.738613 2.738613 
C -2.012324 3.464901 -1.027127 3.872983 0 3.872983 
z
" id="m8bffa7fe83" style="stroke:#f08030;"/>
     </defs>
     <g>
      <use style="fill:#f08030;stroke:#f08030;" x="47.9" xlink:href="#m8bffa7fe83" y="72.840312"/>
     </g>
    </g>
    <g id="text_14">
     <!-- Female -->
     <g style="fill:#262626;" transform="translate(67.7 75.727812)scale(0.11 -0.11)">
      <defs>
       <path d="M 6.59375 0 
L 6.59375 51.859375 
L 14.453125 51.859375 
L 14.453125 44.578125 
Q 16.890625 48.390625 20.9375 50.703125 
Q 25 53.03125 30.171875 53.03125 
Q 35.9375 53.03125 39.625 50.640625 
Q 43.3125 48.25 44.828125 43.953125 
Q 50.984375 53.03125 60.84375 53.03125 
Q 68.5625 53.03125 72.703125 48.75 
Q 76.859375 44.484375 76.859375 35.59375 
L 76.859375 0 
L 68.109375 0 
L 68.109375 32.671875 
Q 68.109375 37.9375 67.25 40.25 
Q 66.40625 42.578125 64.15625 43.984375 
Q 61.921875 45.40625 58.890625 45.40625 
Q 53.421875 45.40625 49.796875 41.765625 
Q 46.1875 38.140625 46.1875 30.125 
L 46.1875 0 
L 37.40625 0 
L 37.40625 33.6875 
Q 37.40625 39.546875 35.25 42.46875 
Q 33.109375 45.40625 28.21875 45.40625 
Q 24.515625 45.40625 21.359375 43.453125 
Q 18.21875 41.5 16.796875 37.734375 
Q 15.375 33.984375 15.375 26.90625 
L 15.375 0 
z
" id="ArialMT-109"/>
      </defs>
      <use xlink:href="#ArialMT-70"/>
      <use x="61.083984" xlink:href="#ArialMT-101"/>
      <use x="116.699219" xlink:href="#ArialMT-109"/>
      <use x="200" xlink:href="#ArialMT-97"/>
      <use x="255.615234" xlink:href="#ArialMT-108"/>
      <use x="277.832031" xlink:href="#ArialMT-101"/>
     </g>
    </g>
   </g>
  </g>
 </g>
 <defs>
  <clipPath id="p87f8acde7c">
   <rect height="163.08" width="167.4" x="27" y="25.92"/>
  </clipPath>
 </defs>
</svg>
