<?xml version="1.0" encoding="utf-8" standalone="no"?>
<!DOCTYPE svg PUBLIC "-//W3C//DTD SVG 1.1//EN"
  "http://www.w3.org/Graphics/SVG/1.1/DTD/svg11.dtd">
<!-- Created with matplotlib (https://matplotlib.org/) -->
<svg height="28.8pt" version="1.1" viewBox="0 0 28.8 28.8" width="28.8pt" xmlns="http://www.w3.org/2000/svg" xmlns:xlink="http://www.w3.org/1999/xlink">
 <defs>
  <style type="text/css">
*{stroke-linecap:butt;stroke-linejoin:round;}
  </style>
 </defs>
 <g id="figure_1">
  <g id="patch_1">
   <path d="M 0 28.8 
L 28.8 28.8 
L 28.8 0 
L 0 0 
z
" style="fill:#ffffff;"/>
  </g>
  <g id="axes_1">
   <g id="patch_2">
    <path d="M 0.288 28.512 
L 28.512 28.512 
L 28.512 0.288 
L 0.288 0.288 
z
" style="fill:#ffffff;"/>
   </g>
   <g id="matplotlib.axis_1">
    <g id="xtick_1">
     <g id="line2d_1">
      <path clip-path="url(#p4cf19512a3)" d="M 3.816 28.512 
L 3.816 0.288 
" style="fill:none;stroke:#b0b0b0;stroke-linecap:square;stroke-width:0.125;"/>
     </g>
     <g id="line2d_2"/>
     <g id="text_1">
      <!-- 1 -->
      <defs>
       <path d="M 12.40625 8.296875 
L 28.515625 8.296875 
L 28.515625 63.921875 
L 10.984375 60.40625 
L 10.984375 69.390625 
L 28.421875 72.90625 
L 38.28125 72.90625 
L 38.28125 8.296875 
L 54.390625 8.296875 
L 54.390625 0 
L 12.40625 0 
z
" id="DejaVuSans-49"/>
      </defs>
      <g transform="translate(0.63475 39.610438)scale(0.1 -0.1)">
       <use xlink:href="#DejaVuSans-49"/>
      </g>
     </g>
    </g>
    <g id="xtick_2">
     <g id="line2d_3">
      <path clip-path="url(#p4cf19512a3)" d="M 7.344 28.512 
L 7.344 0.288 
" style="fill:none;stroke:#b0b0b0;stroke-linecap:square;stroke-width:0.125;"/>
     </g>
     <g id="line2d_4"/>
     <g id="text_2">
      <!-- 2 -->
      <defs>
       <path d="M 19.1875 8.296875 
L 53.609375 8.296875 
L 53.609375 0 
L 7.328125 0 
L 7.328125 8.296875 
Q 12.9375 14.109375 22.625 23.890625 
Q 32.328125 33.6875 34.8125 36.53125 
Q 39.546875 41.84375 41.421875 45.53125 
Q 43.3125 49.21875 43.3125 52.78125 
Q 43.3125 58.59375 39.234375 62.25 
Q 35.15625 65.921875 28.609375 65.921875 
Q 23.96875 65.921875 18.8125 64.3125 
Q 13.671875 62.703125 7.8125 59.421875 
L 7.8125 69.390625 
Q 13.765625 71.78125 18.9375 73 
Q 24.125 74.21875 28.421875 74.21875 
Q 39.75 74.21875 46.484375 68.546875 
Q 53.21875 62.890625 53.21875 53.421875 
Q 53.21875 48.921875 51.53125 44.890625 
Q 49.859375 40.875 45.40625 35.40625 
Q 44.1875 33.984375 37.640625 27.21875 
Q 31.109375 20.453125 19.1875 8.296875 
z
" id="DejaVuSans-50"/>
      </defs>
      <g transform="translate(4.16275 39.610438)scale(0.1 -0.1)">
       <use xlink:href="#DejaVuSans-50"/>
      </g>
     </g>
    </g>
    <g id="xtick_3">
     <g id="line2d_5">
      <path clip-path="url(#p4cf19512a3)" d="M 10.872 28.512 
L 10.872 0.288 
" style="fill:none;stroke:#b0b0b0;stroke-linecap:square;stroke-width:0.125;"/>
     </g>
     <g id="line2d_6"/>
     <g id="text_3">
      <!-- 3 -->
      <defs>
       <path d="M 40.578125 39.3125 
Q 47.65625 37.796875 51.625 33 
Q 55.609375 28.21875 55.609375 21.1875 
Q 55.609375 10.40625 48.1875 4.484375 
Q 40.765625 -1.421875 27.09375 -1.421875 
Q 22.515625 -1.421875 17.65625 -0.515625 
Q 12.796875 0.390625 7.625 2.203125 
L 7.625 11.71875 
Q 11.71875 9.328125 16.59375 8.109375 
Q 21.484375 6.890625 26.8125 6.890625 
Q 36.078125 6.890625 40.9375 10.546875 
Q 45.796875 14.203125 45.796875 21.1875 
Q 45.796875 27.640625 41.28125 31.265625 
Q 36.765625 34.90625 28.71875 34.90625 
L 20.21875 34.90625 
L 20.21875 43.015625 
L 29.109375 43.015625 
Q 36.375 43.015625 40.234375 45.921875 
Q 44.09375 48.828125 44.09375 54.296875 
Q 44.09375 59.90625 40.109375 62.90625 
Q 36.140625 65.921875 28.71875 65.921875 
Q 24.65625 65.921875 20.015625 65.03125 
Q 15.375 64.15625 9.8125 62.3125 
L 9.8125 71.09375 
Q 15.4375 72.65625 20.34375 73.4375 
Q 25.25 74.21875 29.59375 74.21875 
Q 40.828125 74.21875 47.359375 69.109375 
Q 53.90625 64.015625 53.90625 55.328125 
Q 53.90625 49.265625 50.4375 45.09375 
Q 46.96875 40.921875 40.578125 39.3125 
z
" id="DejaVuSans-51"/>
      </defs>
      <g transform="translate(7.69075 39.610438)scale(0.1 -0.1)">
       <use xlink:href="#DejaVuSans-51"/>
      </g>
     </g>
    </g>
    <g id="xtick_4">
     <g id="line2d_7">
      <path clip-path="url(#p4cf19512a3)" d="M 14.4 28.512 
L 14.4 0.288 
" style="fill:none;stroke:#b0b0b0;stroke-linecap:square;stroke-width:0.125;"/>
     </g>
     <g id="line2d_8"/>
     <g id="text_4">
      <!-- 4 -->
      <defs>
       <path d="M 37.796875 64.3125 
L 12.890625 25.390625 
L 37.796875 25.390625 
z
M 35.203125 72.90625 
L 47.609375 72.90625 
L 47.609375 25.390625 
L 58.015625 25.390625 
L 58.015625 17.1875 
L 47.609375 17.1875 
L 47.609375 0 
L 37.796875 0 
L 37.796875 17.1875 
L 4.890625 17.1875 
L 4.890625 26.703125 
z
" id="DejaVuSans-52"/>
      </defs>
      <g transform="translate(11.21875 39.610438)scale(0.1 -0.1)">
       <use xlink:href="#DejaVuSans-52"/>
      </g>
     </g>
    </g>
    <g id="xtick_5">
     <g id="line2d_9">
      <path clip-path="url(#p4cf19512a3)" d="M 17.928 28.512 
L 17.928 0.288 
" style="fill:none;stroke:#b0b0b0;stroke-linecap:square;stroke-width:0.125;"/>
     </g>
     <g id="line2d_10"/>
     <g id="text_5">
      <!-- 5 -->
      <defs>
       <path d="M 10.796875 72.90625 
L 49.515625 72.90625 
L 49.515625 64.59375 
L 19.828125 64.59375 
L 19.828125 46.734375 
Q 21.96875 47.46875 24.109375 47.828125 
Q 26.265625 48.1875 28.421875 48.1875 
Q 40.625 48.1875 47.75 41.5 
Q 54.890625 34.8125 54.890625 23.390625 
Q 54.890625 11.625 47.5625 5.09375 
Q 40.234375 -1.421875 26.90625 -1.421875 
Q 22.3125 -1.421875 17.546875 -0.640625 
Q 12.796875 0.140625 7.71875 1.703125 
L 7.71875 11.625 
Q 12.109375 9.234375 16.796875 8.0625 
Q 21.484375 6.890625 26.703125 6.890625 
Q 35.15625 6.890625 40.078125 11.328125 
Q 45.015625 15.765625 45.015625 23.390625 
Q 45.015625 31 40.078125 35.4375 
Q 35.15625 39.890625 26.703125 39.890625 
Q 22.75 39.890625 18.8125 39.015625 
Q 14.890625 38.140625 10.796875 36.28125 
z
" id="DejaVuSans-53"/>
      </defs>
      <g transform="translate(14.74675 39.610438)scale(0.1 -0.1)">
       <use xlink:href="#DejaVuSans-53"/>
      </g>
     </g>
    </g>
    <g id="xtick_6">
     <g id="line2d_11">
      <path clip-path="url(#p4cf19512a3)" d="M 21.456 28.512 
L 21.456 0.288 
" style="fill:none;stroke:#b0b0b0;stroke-linecap:square;stroke-width:0.125;"/>
     </g>
     <g id="line2d_12"/>
     <g id="text_6">
      <!-- 6 -->
      <defs>
       <path d="M 33.015625 40.375 
Q 26.375 40.375 22.484375 35.828125 
Q 18.609375 31.296875 18.609375 23.390625 
Q 18.609375 15.53125 22.484375 10.953125 
Q 26.375 6.390625 33.015625 6.390625 
Q 39.65625 6.390625 43.53125 10.953125 
Q 47.40625 15.53125 47.40625 23.390625 
Q 47.40625 31.296875 43.53125 35.828125 
Q 39.65625 40.375 33.015625 40.375 
z
M 52.59375 71.296875 
L 52.59375 62.3125 
Q 48.875 64.0625 45.09375 64.984375 
Q 41.3125 65.921875 37.59375 65.921875 
Q 27.828125 65.921875 22.671875 59.328125 
Q 17.53125 52.734375 16.796875 39.40625 
Q 19.671875 43.65625 24.015625 45.921875 
Q 28.375 48.1875 33.59375 48.1875 
Q 44.578125 48.1875 50.953125 41.515625 
Q 57.328125 34.859375 57.328125 23.390625 
Q 57.328125 12.15625 50.6875 5.359375 
Q 44.046875 -1.421875 33.015625 -1.421875 
Q 20.359375 -1.421875 13.671875 8.265625 
Q 6.984375 17.96875 6.984375 36.375 
Q 6.984375 53.65625 15.1875 63.9375 
Q 23.390625 74.21875 37.203125 74.21875 
Q 40.921875 74.21875 44.703125 73.484375 
Q 48.484375 72.75 52.59375 71.296875 
z
" id="DejaVuSans-54"/>
      </defs>
      <g transform="translate(18.27475 39.610438)scale(0.1 -0.1)">
       <use xlink:href="#DejaVuSans-54"/>
      </g>
     </g>
    </g>
    <g id="xtick_7">
     <g id="line2d_13">
      <path clip-path="url(#p4cf19512a3)" d="M 24.984 28.512 
L 24.984 0.288 
" style="fill:none;stroke:#b0b0b0;stroke-linecap:square;stroke-width:0.125;"/>
     </g>
     <g id="line2d_14"/>
     <g id="text_7">
      <!-- 7 -->
      <defs>
       <path d="M 8.203125 72.90625 
L 55.078125 72.90625 
L 55.078125 68.703125 
L 28.609375 0 
L 18.3125 0 
L 43.21875 64.59375 
L 8.203125 64.59375 
z
" id="DejaVuSans-55"/>
      </defs>
      <g transform="translate(21.80275 39.610438)scale(0.1 -0.1)">
       <use xlink:href="#DejaVuSans-55"/>
      </g>
     </g>
    </g>
   </g>
   <g id="matplotlib.axis_2">
    <g id="ytick_1">
     <g id="line2d_15">
      <path clip-path="url(#p4cf19512a3)" d="M 0.288 24.984 
L 28.512 24.984 
" style="fill:none;stroke:#b0b0b0;stroke-linecap:square;stroke-width:0.125;"/>
     </g>
     <g id="line2d_16"/>
     <g id="text_8">
      <!-- 1 -->
      <g transform="translate(-9.5745 28.783219)scale(0.1 -0.1)">
       <use xlink:href="#DejaVuSans-49"/>
      </g>
     </g>
    </g>
    <g id="ytick_2">
     <g id="line2d_17">
      <path clip-path="url(#p4cf19512a3)" d="M 0.288 21.456 
L 28.512 21.456 
" style="fill:none;stroke:#b0b0b0;stroke-linecap:square;stroke-width:0.125;"/>
     </g>
     <g id="line2d_18"/>
     <g id="text_9">
      <!-- 2 -->
      <g transform="translate(-9.5745 25.255219)scale(0.1 -0.1)">
       <use xlink:href="#DejaVuSans-50"/>
      </g>
     </g>
    </g>
    <g id="ytick_3">
     <g id="line2d_19">
      <path clip-path="url(#p4cf19512a3)" d="M 0.288 17.928 
L 28.512 17.928 
" style="fill:none;stroke:#b0b0b0;stroke-linecap:square;stroke-width:0.125;"/>
     </g>
     <g id="line2d_20"/>
     <g id="text_10">
      <!-- 3 -->
      <g transform="translate(-9.5745 21.727219)scale(0.1 -0.1)">
       <use xlink:href="#DejaVuSans-51"/>
      </g>
     </g>
    </g>
    <g id="ytick_4">
     <g id="line2d_21">
      <path clip-path="url(#p4cf19512a3)" d="M 0.288 14.4 
L 28.512 14.4 
" style="fill:none;stroke:#b0b0b0;stroke-linecap:square;stroke-width:0.125;"/>
     </g>
     <g id="line2d_22"/>
     <g id="text_11">
      <!-- 4 -->
      <g transform="translate(-9.5745 18.199219)scale(0.1 -0.1)">
       <use xlink:href="#DejaVuSans-52"/>
      </g>
     </g>
    </g>
    <g id="ytick_5">
     <g id="line2d_23">
      <path clip-path="url(#p4cf19512a3)" d="M 0.288 10.872 
L 28.512 10.872 
" style="fill:none;stroke:#b0b0b0;stroke-linecap:square;stroke-width:0.125;"/>
     </g>
     <g id="line2d_24"/>
     <g id="text_12">
      <!-- 5 -->
      <g transform="translate(-9.5745 14.671219)scale(0.1 -0.1)">
       <use xlink:href="#DejaVuSans-53"/>
      </g>
     </g>
    </g>
    <g id="ytick_6">
     <g id="line2d_25">
      <path clip-path="url(#p4cf19512a3)" d="M 0.288 7.344 
L 28.512 7.344 
" style="fill:none;stroke:#b0b0b0;stroke-linecap:square;stroke-width:0.125;"/>
     </g>
     <g id="line2d_26"/>
     <g id="text_13">
      <!-- 6 -->
      <g transform="translate(-9.5745 11.143219)scale(0.1 -0.1)">
       <use xlink:href="#DejaVuSans-54"/>
      </g>
     </g>
    </g>
    <g id="ytick_7">
     <g id="line2d_27">
      <path clip-path="url(#p4cf19512a3)" d="M 0.288 3.816 
L 28.512 3.816 
" style="fill:none;stroke:#b0b0b0;stroke-linecap:square;stroke-width:0.125;"/>
     </g>
     <g id="line2d_28"/>
     <g id="text_14">
      <!-- 7 -->
      <g transform="translate(-9.5745 7.615219)scale(0.1 -0.1)">
       <use xlink:href="#DejaVuSans-55"/>
      </g>
     </g>
    </g>
   </g>
   <g id="PolyCollection_1">
    <path clip-path="url(#p4cf19512a3)" d="M 7.388675 25.812013 
L 7.299325 25.812013 
L 7.298932 25.666423 
L 7.299153 25.520833 
L 7.299635 25.375243 
L 7.2999 25.229653 
L 7.299371 25.084063 
L 7.29741 24.938473 
L 7.29336 24.792883 
L 7.286594 24.647292 
L 7.276551 24.501702 
L 7.262782 24.356112 
L 7.244964 24.210522 
L 7.222922 24.064932 
L 7.196622 23.919342 
L 7.166154 23.773752 
L 7.131709 23.628162 
L 7.093532 23.482572 
L 7.051887 23.336982 
L 7.007008 23.191392 
L 6.95906 23.045802 
L 6.908104 22.900211 
L 6.854074 22.754621 
L 6.796757 22.609031 
L 6.735791 22.463441 
L 6.670668 22.317851 
L 6.600771 22.172261 
L 6.525418 22.026671 
L 6.443942 21.881081 
L 6.355792 21.735491 
L 6.260648 21.589901 
L 6.158547 21.444311 
L 6.049983 21.298721 
L 5.935977 21.153131 
L 5.818095 21.00754 
L 5.698393 20.86195 
L 5.579306 20.71636 
L 5.463473 20.57077 
L 5.353536 20.42518 
L 5.251923 20.27959 
L 5.160661 20.134 
L 5.081223 19.98841 
L 5.014443 19.84282 
L 4.96049 19.69723 
L 4.918896 19.55164 
L 4.888628 19.40605 
L 4.868185 19.26046 
L 4.855705 19.114869 
L 4.849081 18.969279 
L 4.846084 18.823689 
L 4.844498 18.678099 
L 4.842262 18.532509 
L 4.837639 18.386919 
L 4.829371 18.241329 
L 4.816827 18.095739 
L 4.800096 17.950149 
L 4.780019 17.804559 
L 4.758129 17.658969 
L 4.736519 17.513379 
L 4.717627 17.367789 
L 4.703991 17.222198 
L 4.698 17.076608 
L 4.701665 16.931018 
L 4.716455 16.785428 
L 4.743204 16.639838 
L 4.78209 16.494248 
L 4.832687 16.348658 
L 4.894069 16.203068 
L 4.964959 16.057478 
L 5.043887 15.911888 
L 5.12935 15.766298 
L 5.219956 15.620708 
L 5.314518 15.475117 
L 5.412116 15.329527 
L 5.512088 15.183937 
L 5.613979 15.038347 
L 5.717453 14.892757 
L 5.822181 14.747167 
L 5.927731 14.601577 
L 6.03349 14.455987 
L 6.138618 14.310397 
L 6.242054 14.164807 
L 6.342569 14.019217 
L 6.438845 13.873627 
L 6.529592 13.728037 
L 6.613653 13.582446 
L 6.690103 13.436856 
L 6.758327 13.291266 
L 6.818066 13.145676 
L 6.869423 13.000086 
L 6.912851 12.854496 
L 6.949104 12.708906 
L 6.979178 12.563316 
L 7.004233 12.417726 
L 7.025506 12.272136 
L 7.044234 12.126546 
L 7.061564 11.980956 
L 7.078484 11.835366 
L 7.095762 11.689775 
L 7.113905 11.544185 
L 7.133142 11.398595 
L 7.554858 11.398595 
L 7.554858 11.398595 
L 7.574095 11.544185 
L 7.592238 11.689775 
L 7.609516 11.835366 
L 7.626436 11.980956 
L 7.643766 12.126546 
L 7.662494 12.272136 
L 7.683767 12.417726 
L 7.708822 12.563316 
L 7.738896 12.708906 
L 7.775149 12.854496 
L 7.818577 13.000086 
L 7.869934 13.145676 
L 7.929673 13.291266 
L 7.997897 13.436856 
L 8.074347 13.582446 
L 8.158408 13.728037 
L 8.249155 13.873627 
L 8.345431 14.019217 
L 8.445946 14.164807 
L 8.549382 14.310397 
L 8.65451 14.455987 
L 8.760269 14.601577 
L 8.865819 14.747167 
L 8.970547 14.892757 
L 9.074021 15.038347 
L 9.175912 15.183937 
L 9.275884 15.329527 
L 9.373482 15.475117 
L 9.468044 15.620708 
L 9.55865 15.766298 
L 9.644113 15.911888 
L 9.723041 16.057478 
L 9.793931 16.203068 
L 9.855313 16.348658 
L 9.90591 16.494248 
L 9.944796 16.639838 
L 9.971545 16.785428 
L 9.986335 16.931018 
L 9.99 17.076608 
L 9.984009 17.222198 
L 9.970373 17.367789 
L 9.951481 17.513379 
L 9.929871 17.658969 
L 9.907981 17.804559 
L 9.887904 17.950149 
L 9.871173 18.095739 
L 9.858629 18.241329 
L 9.850361 18.386919 
L 9.845738 18.532509 
L 9.843502 18.678099 
L 9.841916 18.823689 
L 9.838919 18.969279 
L 9.832295 19.114869 
L 9.819815 19.26046 
L 9.799372 19.40605 
L 9.769104 19.55164 
L 9.72751 19.69723 
L 9.673557 19.84282 
L 9.606777 19.98841 
L 9.527339 20.134 
L 9.436077 20.27959 
L 9.334464 20.42518 
L 9.224527 20.57077 
L 9.108694 20.71636 
L 8.989607 20.86195 
L 8.869905 21.00754 
L 8.752023 21.153131 
L 8.638017 21.298721 
L 8.529453 21.444311 
L 8.427352 21.589901 
L 8.332208 21.735491 
L 8.244058 21.881081 
L 8.162582 22.026671 
L 8.087229 22.172261 
L 8.017332 22.317851 
L 7.952209 22.463441 
L 7.891243 22.609031 
L 7.833926 22.754621 
L 7.779896 22.900211 
L 7.72894 23.045802 
L 7.680992 23.191392 
L 7.636113 23.336982 
L 7.594468 23.482572 
L 7.556291 23.628162 
L 7.521846 23.773752 
L 7.491378 23.919342 
L 7.465078 24.064932 
L 7.443036 24.210522 
L 7.425218 24.356112 
L 7.411449 24.501702 
L 7.401406 24.647292 
L 7.39464 24.792883 
L 7.39059 24.938473 
L 7.388629 25.084063 
L 7.3881 25.229653 
L 7.388365 25.375243 
L 7.388847 25.520833 
L 7.389068 25.666423 
L 7.388675 25.812013 
z
" style="fill:#ff7f0e;"/>
   </g>
   <g id="PolyCollection_2">
    <path clip-path="url(#p4cf19512a3)" d="M 14.439993 22.177128 
L 14.360007 22.177128 
L 14.359453 21.967432 
L 14.359525 21.757737 
L 14.35979 21.548042 
L 14.359678 21.338346 
L 14.358538 21.128651 
L 14.355717 20.918955 
L 14.350628 20.70926 
L 14.342821 20.499564 
L 14.332041 20.289869 
L 14.318259 20.080173 
L 14.301686 19.870478 
L 14.282756 19.660782 
L 14.262081 19.451087 
L 14.240378 19.241391 
L 14.218373 19.031696 
L 14.196693 18.822 
L 14.175756 18.612305 
L 14.155685 18.402609 
L 14.136252 18.192914 
L 14.116874 17.983219 
L 14.096659 17.773523 
L 14.074503 17.563828 
L 14.049216 17.354132 
L 14.019665 17.144437 
L 13.984895 16.934741 
L 13.944225 16.725046 
L 13.897291 16.51535 
L 13.844027 16.305655 
L 13.784607 16.095959 
L 13.719342 15.886264 
L 13.648576 15.676568 
L 13.572592 15.466873 
L 13.491564 15.257177 
L 13.405575 15.047482 
L 13.31469 14.837787 
L 13.219088 14.628091 
L 13.1192 14.418396 
L 13.015818 14.2087 
L 12.910136 13.999005 
L 12.803693 13.789309 
L 12.698209 13.579614 
L 12.595372 13.369918 
L 12.496603 13.160223 
L 12.402879 12.950527 
L 12.314662 12.740832 
L 12.231959 12.531136 
L 12.154493 12.321441 
L 12.08195 12.111745 
L 12.014232 11.90205 
L 11.951642 11.692354 
L 11.89499 11.482659 
L 11.845558 11.272964 
L 11.804984 11.063268 
L 11.775071 10.853573 
L 11.757574 10.643877 
L 11.754 10.434182 
L 11.765438 10.224486 
L 11.792436 10.014791 
L 11.834907 9.805095 
L 11.892078 9.5954 
L 11.96248 9.385704 
L 12.043987 9.176009 
L 12.133936 8.966313 
L 12.229325 8.756618 
L 12.32708 8.546922 
L 12.424381 8.337227 
L 12.518973 8.127531 
L 12.609431 7.917836 
L 12.695304 7.708141 
L 12.777121 7.498445 
L 12.856244 7.28875 
L 12.934599 7.079054 
L 13.014319 6.869359 
L 13.097366 6.659663 
L 13.18519 6.449968 
L 13.278472 6.240272 
L 13.376979 6.030577 
L 13.479562 5.820881 
L 13.584269 5.611186 
L 13.688576 5.40149 
L 13.78967 5.191795 
L 13.884769 4.982099 
L 13.971414 4.772404 
L 14.047711 4.562708 
L 14.112484 4.353013 
L 14.165339 4.143318 
L 14.206638 3.933622 
L 14.23739 3.723927 
L 14.259088 3.514231 
L 14.273521 3.304536 
L 14.282577 3.09484 
L 14.288072 2.885145 
L 14.291611 2.675449 
L 14.294499 2.465754 
L 14.297699 2.256058 
L 14.301833 2.046363 
L 14.307206 1.836667 
L 14.313867 1.626972 
L 14.321661 1.417276 
L 14.478339 1.417276 
L 14.478339 1.417276 
L 14.486133 1.626972 
L 14.492794 1.836667 
L 14.498167 2.046363 
L 14.502301 2.256058 
L 14.505501 2.465754 
L 14.508389 2.675449 
L 14.511928 2.885145 
L 14.517423 3.09484 
L 14.526479 3.304536 
L 14.540912 3.514231 
L 14.56261 3.723927 
L 14.593362 3.933622 
L 14.634661 4.143318 
L 14.687516 4.353013 
L 14.752289 4.562708 
L 14.828586 4.772404 
L 14.915231 4.982099 
L 15.01033 5.191795 
L 15.111424 5.40149 
L 15.215731 5.611186 
L 15.320438 5.820881 
L 15.423021 6.030577 
L 15.521528 6.240272 
L 15.61481 6.449968 
L 15.702634 6.659663 
L 15.785681 6.869359 
L 15.865401 7.079054 
L 15.943756 7.28875 
L 16.022879 7.498445 
L 16.104696 7.708141 
L 16.190569 7.917836 
L 16.281027 8.127531 
L 16.375619 8.337227 
L 16.47292 8.546922 
L 16.570675 8.756618 
L 16.666064 8.966313 
L 16.756013 9.176009 
L 16.83752 9.385704 
L 16.907922 9.5954 
L 16.965093 9.805095 
L 17.007564 10.014791 
L 17.034562 10.224486 
L 17.046 10.434182 
L 17.042426 10.643877 
L 17.024929 10.853573 
L 16.995016 11.063268 
L 16.954442 11.272964 
L 16.90501 11.482659 
L 16.848358 11.692354 
L 16.785768 11.90205 
L 16.71805 12.111745 
L 16.645507 12.321441 
L 16.568041 12.531136 
L 16.485338 12.740832 
L 16.397121 12.950527 
L 16.303397 13.160223 
L 16.204628 13.369918 
L 16.101791 13.579614 
L 15.996307 13.789309 
L 15.889864 13.999005 
L 15.784182 14.2087 
L 15.6808 14.418396 
L 15.580912 14.628091 
L 15.48531 14.837787 
L 15.394425 15.047482 
L 15.308436 15.257177 
L 15.227408 15.466873 
L 15.151424 15.676568 
L 15.080658 15.886264 
L 15.015393 16.095959 
L 14.955973 16.305655 
L 14.902709 16.51535 
L 14.855775 16.725046 
L 14.815105 16.934741 
L 14.780335 17.144437 
L 14.750784 17.354132 
L 14.725497 17.563828 
L 14.703341 17.773523 
L 14.683126 17.983219 
L 14.663748 18.192914 
L 14.644315 18.402609 
L 14.624244 18.612305 
L 14.603307 18.822 
L 14.581627 19.031696 
L 14.559622 19.241391 
L 14.537919 19.451087 
L 14.517244 19.660782 
L 14.498314 19.870478 
L 14.481741 20.080173 
L 14.467959 20.289869 
L 14.457179 20.499564 
L 14.449372 20.70926 
L 14.444283 20.918955 
L 14.441462 21.128651 
L 14.440322 21.338346 
L 14.44021 21.548042 
L 14.440475 21.757737 
L 14.440547 21.967432 
L 14.439993 22.177128 
z
" style="fill:#ff7f0e;"/>
   </g>
   <g id="PolyCollection_3">
    <path clip-path="url(#p4cf19512a3)" d="M 21.509628 21.851139 
L 21.402372 21.851139 
L 21.396618 21.704468 
L 21.390061 21.557797 
L 21.382264 21.411127 
L 21.372714 21.264456 
L 21.360849 21.117785 
L 21.346098 20.971114 
L 21.327918 20.824443 
L 21.305837 20.677772 
L 21.279493 20.531101 
L 21.24867 20.38443 
L 21.213317 20.237759 
L 21.173572 20.091089 
L 21.129759 19.944418 
L 21.082373 19.797747 
L 21.032054 19.651076 
L 20.979536 19.504405 
L 20.925587 19.357734 
L 20.870948 19.211063 
L 20.816265 19.064392 
L 20.762035 18.917721 
L 20.708571 18.771051 
L 20.655992 18.62438 
L 20.604233 18.477709 
L 20.553084 18.331038 
L 20.502236 18.184367 
L 20.451338 18.037696 
L 20.400033 17.891025 
L 20.347987 17.744354 
L 20.294883 17.597683 
L 20.240394 17.451013 
L 20.184141 17.304342 
L 20.125653 17.157671 
L 20.06434 17.011 
L 19.999506 16.864329 
L 19.930407 16.717658 
L 19.856356 16.570987 
L 19.776868 16.424316 
L 19.69181 16.277645 
L 19.601546 16.130975 
L 19.507026 15.984304 
L 19.409813 15.837633 
L 19.312026 15.690962 
L 19.216207 15.544291 
L 19.12513 15.39762 
L 19.041585 15.250949 
L 18.968154 15.104278 
L 18.907032 14.957607 
L 18.859888 14.810937 
L 18.827792 14.664266 
L 18.811201 14.517595 
L 18.81 14.370924 
L 18.823579 14.224253 
L 18.85094 14.077582 
L 18.890817 13.930911 
L 18.94179 13.78424 
L 19.002395 13.637569 
L 19.071205 13.490899 
L 19.146884 13.344228 
L 19.228214 13.197557 
L 19.31409 13.050886 
L 19.403493 12.904215 
L 19.495465 12.757544 
L 19.589075 12.610873 
L 19.683417 12.464202 
L 19.777613 12.317531 
L 19.870845 12.170861 
L 19.96239 12.02419 
L 20.051659 11.877519 
L 20.138218 11.730848 
L 20.221793 11.584177 
L 20.302253 11.437506 
L 20.379571 11.290835 
L 20.45378 11.144164 
L 20.524919 10.997493 
L 20.592998 10.850823 
L 20.657968 10.704152 
L 20.719716 10.557481 
L 20.778067 10.41081 
L 20.83281 10.264139 
L 20.883719 10.117468 
L 20.930583 9.970797 
L 20.973241 9.824126 
L 21.011602 9.677455 
L 21.045675 9.530785 
L 21.075583 9.384114 
L 21.101582 9.237443 
L 21.124058 9.090772 
L 21.143524 8.944101 
L 21.160595 8.79743 
L 21.175955 8.650759 
L 21.190306 8.504088 
L 21.204309 8.357417 
L 21.218535 8.210747 
L 21.233406 8.064076 
L 21.249172 7.917405 
L 21.265892 7.770734 
L 21.283446 7.624063 
L 21.301563 7.477392 
L 21.319869 7.330721 
L 21.592131 7.330721 
L 21.592131 7.330721 
L 21.610437 7.477392 
L 21.628554 7.624063 
L 21.646108 7.770734 
L 21.662828 7.917405 
L 21.678594 8.064076 
L 21.693465 8.210747 
L 21.707691 8.357417 
L 21.721694 8.504088 
L 21.736045 8.650759 
L 21.751405 8.79743 
L 21.768476 8.944101 
L 21.787942 9.090772 
L 21.810418 9.237443 
L 21.836417 9.384114 
L 21.866325 9.530785 
L 21.900398 9.677455 
L 21.938759 9.824126 
L 21.981417 9.970797 
L 22.028281 10.117468 
L 22.07919 10.264139 
L 22.133933 10.41081 
L 22.192284 10.557481 
L 22.254032 10.704152 
L 22.319002 10.850823 
L 22.387081 10.997493 
L 22.45822 11.144164 
L 22.532429 11.290835 
L 22.609747 11.437506 
L 22.690207 11.584177 
L 22.773782 11.730848 
L 22.860341 11.877519 
L 22.94961 12.02419 
L 23.041155 12.170861 
L 23.134387 12.317531 
L 23.228583 12.464202 
L 23.322925 12.610873 
L 23.416535 12.757544 
L 23.508507 12.904215 
L 23.59791 13.050886 
L 23.683786 13.197557 
L 23.765116 13.344228 
L 23.840795 13.490899 
L 23.909605 13.637569 
L 23.97021 13.78424 
L 24.021183 13.930911 
L 24.06106 14.077582 
L 24.088421 14.224253 
L 24.102 14.370924 
L 24.100799 14.517595 
L 24.084208 14.664266 
L 24.052112 14.810937 
L 24.004968 14.957607 
L 23.943846 15.104278 
L 23.870415 15.250949 
L 23.78687 15.39762 
L 23.695793 15.544291 
L 23.599974 15.690962 
L 23.502187 15.837633 
L 23.404974 15.984304 
L 23.310454 16.130975 
L 23.22019 16.277645 
L 23.135132 16.424316 
L 23.055644 16.570987 
L 22.981593 16.717658 
L 22.912494 16.864329 
L 22.84766 17.011 
L 22.786347 17.157671 
L 22.727859 17.304342 
L 22.671606 17.451013 
L 22.617117 17.597683 
L 22.564013 17.744354 
L 22.511967 17.891025 
L 22.460662 18.037696 
L 22.409764 18.184367 
L 22.358916 18.331038 
L 22.307767 18.477709 
L 22.256008 18.62438 
L 22.203429 18.771051 
L 22.149965 18.917721 
L 22.095735 19.064392 
L 22.041052 19.211063 
L 21.986413 19.357734 
L 21.932464 19.504405 
L 21.879946 19.651076 
L 21.829627 19.797747 
L 21.782241 19.944418 
L 21.738428 20.091089 
L 21.698683 20.237759 
L 21.66333 20.38443 
L 21.632507 20.531101 
L 21.606163 20.677772 
L 21.584082 20.824443 
L 21.565902 20.971114 
L 21.551151 21.117785 
L 21.539286 21.264456 
L 21.529736 21.411127 
L 21.521939 21.557797 
L 21.515382 21.704468 
L 21.509628 21.851139 
z
" style="fill:#ff7f0e;"/>
   </g>
   <g id="patch_3">
    <path d="M 0.288 28.512 
L 0.288 0.288 
" style="fill:none;stroke:#000000;stroke-linecap:square;stroke-linejoin:miter;stroke-width:0.5;"/>
   </g>
   <g id="patch_4">
    <path d="M 28.512 28.512 
L 28.512 0.288 
" style="fill:none;stroke:#000000;stroke-linecap:square;stroke-linejoin:miter;stroke-width:0.5;"/>
   </g>
   <g id="patch_5">
    <path d="M 0.288 28.512 
L 28.512 28.512 
" style="fill:none;stroke:#000000;stroke-linecap:square;stroke-linejoin:miter;stroke-width:0.5;"/>
   </g>
   <g id="patch_6">
    <path d="M 0.288 0.288 
L 28.512 0.288 
" style="fill:none;stroke:#000000;stroke-linecap:square;stroke-linejoin:miter;stroke-width:0.5;"/>
   </g>
  </g>
 </g>
 <defs>
  <clipPath id="p4cf19512a3">
   <rect height="28.224" width="28.224" x="0.288" y="0.288"/>
  </clipPath>
 </defs>
</svg>
